M48
METRIC
T1C0.400
T2C0.800
T3C0.950
T4C1.000
T5C1.100
T6C1.220
T7C1.300
T8C1.520
T9C4.300
%
G90
G05
T1
X6.286Y-32.004
X7.546Y-70.942
X11.747Y-21.78
X12.319Y-33.972
X12.446Y-23.685
X12.613Y-85.069
X13.716Y-42.926
X15.05Y-119.126
X17.07Y-76.495
X17.145Y-105.918
X17.209Y-103.886
X18.351Y-33.972
X19.75Y-32.004
X19.939Y-98.87
X20.002Y-105.156
X20.574Y-117.284
X21.266Y-76.403
X21.78Y-120.968
X21.844Y-111.76
X22.482Y-76.214
X23.114Y-111.76
X23.114Y-120.968
X23.312Y-100.693
X23.431Y-102.934
X23.457Y-106.273
X23.491Y-101.871
X23.939Y-35.56
X24.096Y-99.064
X24.955Y-97.536
X25.51Y-71.134
X25.845Y-33.782
X26.035Y-21.907
X26.035Y-23.622
X26.069Y-85.008
X26.57Y-72.69
X26.924Y-111.633
X26.924Y-120.968
X28.194Y-47.244
X28.194Y-111.57
X28.258Y-38.227
X28.321Y-36.957
X28.489Y-98.562
X28.511Y-106.426
X28.575Y-105.156
X28.884Y-77.383
X30.287Y-117.727
X30.29Y-114.11
X30.672Y-32.004
X32.535Y-34.838
X33.21Y-36.893
X33.21Y-38.291
X33.21Y-39.624
X33.21Y-43.307
X33.337Y-114.046
X33.337Y-116.648
X34.036Y-45.72
X36.068Y-46.355
X36.449Y-21.78
X36.449Y-23.749
X36.576Y-34.417
X36.693Y-98.347
X37.02Y-43.434
X39.37Y-114.046
X39.37Y-116.713
X40.134Y-124.047
X40.832Y-32.004
X41.627Y-111.353
X41.883Y-95.214
X44.069Y-45.212
X44.133Y-33.718
X46.228Y-21.844
X46.504Y-52.999
X46.504Y-92.523
X46.863Y-23.685
X46.926Y-123.634
X48.575Y-54.639
X49.149Y-117.284
X49.657Y-131.318
X52.578Y-43.37
X52.832Y-85.153
X53.448Y-78.138
X53.591Y-104.424
X54.551Y-86.109
X54.995Y-61.167
X55.054Y-105.156
X55.056Y-32.004
X55.058Y-63.05
X56.316Y-76.848
X57.256Y-60.5
X57.86Y-71.083
X58.385Y-93.011
X58.991Y-33.782
X59.282Y-84.998
X59.436Y-81.724
X59.482Y-86.125
X60.511Y-72.371
X60.579Y-21.463
X61.277Y-23.685
X61.285Y-93.612
X61.404Y-51.943
X62.024Y-98.633
X62.027Y-105.198
X62.254Y-65.24
X62.42Y-81.724
X63.041Y-60.1
X63.337Y-72.997
X63.482Y-125.125
X63.691Y-121.412
X64.715Y-96.714
X65.215Y-46.101
X65.662Y-104.831
X65.885Y-71.342
X66.214Y-69.505
X66.466Y-95.579
X66.739Y-39.433
X66.878Y-105.928
X66.929Y-44.577
X67.437Y-38.163
X68.135Y-36.957
X68.58Y-32.004
X68.647Y-112.539
X68.687Y-99.238
X69.659Y-115.443
X71.588Y-97.776
X71.882Y-58.42
X71.882Y-59.753
X72.01Y-88.74
X72.758Y-98.002
X73.284Y-41.08
X73.549Y-87.389
X74.612Y-58.42
X74.612Y-59.753
X74.676Y-128.143
X74.774Y-81.473
X74.93Y-21.526
X74.93Y-23.431
X75.12Y-35.687
X75.582Y-80.157
X76.708Y-129.286
X76.808Y-37.465
X76.808Y-38.798
X77.025Y-43.307
X77.279Y-114.3
X77.316Y-86.378
X77.533Y-35.75
X77.93Y-71.176
X78.594Y-113.187
X79.186Y-32.004
X80.69Y-104.456
X81.673Y-88.271
X82.097Y-67.13
X82.322Y-89.103
X83.883Y-45.847
X84.519Y-57.531
X84.519Y-59.88
X84.899Y-44.577
X85.153Y-34.989
X85.471Y-21.717
X85.471Y-23.241
X87.287Y-65.056
X88.494Y-79.162
X88.592Y-80.649
X89.855Y-32.004
X89.916Y-44.958
X89.916Y-46.228
X91.376Y-113.855
X91.456Y-112.438
X91.578Y-79.364
X91.819Y-80.993
X92.011Y-32.004
X92.575Y-81.873
X92.646Y-44.005
X92.825Y-112.485
X92.964Y-62.103
X93.662Y-33.718
X93.853Y-62.865
X95.441Y-21.653
X95.441Y-23.304
X95.694Y-59.817
X96.012Y-37.719
X96.012Y-38.862
X96.584Y-60.579
X98.647Y-67.23
X99.123Y-37.782
X99.123Y-38.925
X103.432Y-109.903
X116.147Y-131.312
X118.554Y-91.694
X119.444Y-90.742
X121.158Y-118.808
X121.158Y-120.396
X121.856Y-94.424
X122.618Y-120.396
X122.809Y-93.408
X126.809Y-115.824
X127.759Y-114.173
X127.762Y-110.046
X129.222Y-108.268
X129.618Y-77.452
X129.747Y-78.497
X129.921Y-116.078
X129.921Y-117.284
X129.921Y-118.554
X130.31Y-99.665
X131.064Y-116.078
X131.128Y-117.284
X131.128Y-118.554
X132.27Y-116.078
X132.334Y-117.284
X132.334Y-118.554
X132.652Y-63.309
X132.652Y-74.422
X135.731Y-106.775
X139.573Y-122.174
X139.573Y-124.142
X139.954Y-87.63
X140.779Y-111.125
X140.779Y-113.03
X141.542Y-121.602
X143.383Y-121.602
X144.906Y-97.599
X145.161Y-120.649
X146.05Y-107.188
X146.05Y-112.903
X147.002Y-82.677
X147.002Y-88.519
X147.002Y-94.742
X147.002Y-100.52
X147.099Y-97.599
X147.51Y-120.649
X152.019Y-115.38
X153.797Y-85.026
X153.988Y-100.012
X155.702Y-85.026
X155.892Y-100.14
X157.162Y-114.046
X157.162Y-115.443
X157.226Y-83.614
X157.416Y-98.615
X157.988Y-49.34
X157.988Y-50.736
X157.988Y-52.197
X159.512Y-49.34
X159.576Y-50.736
X159.576Y-52.197
X160.401Y-64.008
X161.036Y-49.34
X161.036Y-52.197
X161.1Y-50.736
X161.417Y-23.749
X162.433Y-64.008
X167.576Y-18.732
X173.038Y-43.37
X173.038Y-44.767
T2
X13.97Y-25.019
X48.26Y-24.955
X62.738Y-24.575
X97.282Y-24.701
T3
X88.9Y-52.133
X88.9Y-54.633
X88.9Y-57.133
X88.9Y-59.633
X90.424Y-127.762
X92.924Y-127.762
X95.424Y-127.762
X97.924Y-127.762
X135.953Y-13.97
X138.453Y-13.97
X140.953Y-13.97
X143.453Y-13.97
X104.394Y-127.762
X106.894Y-127.762
X109.394Y-127.762
X111.894Y-127.762
X5.334Y-37.912
X5.334Y-40.412
X5.334Y-42.912
X5.334Y-45.412
X5.334Y-47.912
X5.334Y-50.412
X5.334Y-52.912
X5.334Y-55.412
X5.334Y-57.912
X5.334Y-60.412
X150.622Y-59.182
X150.622Y-61.682
X150.622Y-64.182
X150.622Y-66.682
X78.549Y-127.635
X81.049Y-127.635
X83.549Y-127.635
T4
X59.627Y-126.873
X59.627Y-129.413
X62.166Y-126.873
X62.166Y-129.413
X64.706Y-126.873
X64.706Y-129.413
X67.246Y-126.873
X67.246Y-129.413
X69.787Y-126.873
X69.787Y-129.413
X72.326Y-126.873
X72.326Y-129.413
X40.767Y-51.491
X40.767Y-58.991
X95.26Y-80.01
X95.26Y-82.55
X95.26Y-85.09
X97.799Y-80.01
X97.799Y-82.55
X97.799Y-85.09
X49.539Y-107.95
X49.539Y-110.49
X52.079Y-107.95
X52.079Y-110.49
X54.619Y-107.95
X54.619Y-110.49
X57.159Y-107.95
X57.159Y-110.49
X59.7Y-107.95
X59.7Y-110.49
X62.239Y-107.95
X62.239Y-110.49
X64.779Y-107.95
X64.779Y-110.49
X67.319Y-107.95
X67.319Y-110.49
X69.859Y-107.95
X69.859Y-110.49
X72.4Y-107.95
X72.4Y-110.49
X74.939Y-107.95
X74.939Y-110.49
X77.48Y-107.95
X77.48Y-110.49
X80.019Y-107.95
X80.019Y-110.49
X82.559Y-107.95
X82.559Y-110.49
X85.099Y-107.95
X85.099Y-110.49
X87.639Y-107.95
X87.639Y-110.49
X90.179Y-107.95
X90.179Y-110.49
X92.719Y-107.95
X92.719Y-110.49
X95.26Y-107.95
X95.26Y-110.49
X97.799Y-107.95
X97.799Y-110.49
X106.998Y-50.165
X106.998Y-52.705
X109.538Y-50.165
X109.538Y-52.705
X112.078Y-50.165
X112.078Y-52.705
X114.618Y-50.165
X114.618Y-52.705
X117.158Y-50.165
X117.158Y-52.705
X119.698Y-50.165
X119.698Y-52.705
X122.238Y-50.165
X122.238Y-52.705
X124.778Y-50.165
X124.778Y-52.705
X97.282Y-116.84
X99.822Y-116.84
X102.362Y-116.84
X104.902Y-116.84
X107.442Y-116.84
X109.982Y-116.84
X130.238Y-92.837
X132.779Y-92.837
X135.319Y-92.837
X137.858Y-92.837
X46.999Y-107.95
X46.999Y-110.49
X92.202Y-68.58
X94.742Y-68.58
X97.282Y-68.58
X99.822Y-68.58
X102.362Y-68.58
X104.902Y-68.58
X107.442Y-68.58
X109.982Y-68.58
X130.174Y-98.108
X132.714Y-98.108
X135.255Y-98.108
X137.794Y-98.108
X69.342Y-68.58
X71.882Y-68.58
X74.422Y-68.58
X76.962Y-68.58
X79.502Y-68.58
X82.042Y-68.58
X84.582Y-68.58
X87.122Y-68.58
X54.038Y-126.936
X54.038Y-129.476
X109.982Y-88.9
X109.982Y-91.44
X109.982Y-93.98
X112.522Y-88.9
X112.522Y-91.44
X112.522Y-93.98
X7.683Y-72.962
X7.683Y-75.502
X7.683Y-78.042
X7.683Y-80.582
X7.683Y-83.122
X7.683Y-85.662
X7.683Y-88.202
X7.683Y-90.742
X7.683Y-93.282
X7.683Y-95.822
X7.683Y-98.362
X7.683Y-100.902
X10.223Y-72.962
X10.223Y-75.502
X10.223Y-78.042
X10.223Y-80.582
X10.223Y-83.122
X10.223Y-85.662
X10.223Y-88.202
X10.223Y-90.742
X10.223Y-93.282
X10.223Y-95.822
X10.223Y-98.362
X10.223Y-100.902
X59.7Y-74.93
X59.7Y-77.47
X62.239Y-74.93
X62.239Y-77.47
X64.779Y-74.93
X64.779Y-77.47
X67.319Y-74.93
X67.319Y-77.47
X69.859Y-74.93
X69.859Y-77.47
X72.4Y-74.93
X72.4Y-77.47
X74.939Y-74.93
X74.939Y-77.47
X77.48Y-74.93
X77.48Y-77.47
X80.019Y-74.93
X80.019Y-77.47
X82.559Y-74.93
X82.559Y-77.47
X85.099Y-74.93
X85.099Y-77.47
X87.639Y-74.93
X87.639Y-77.47
X90.179Y-74.93
X90.179Y-77.47
X92.719Y-74.93
X92.719Y-77.47
X95.26Y-74.93
X95.26Y-77.47
X97.799Y-74.93
X97.799Y-77.47
X79.502Y-116.84
X82.042Y-116.84
X84.582Y-116.84
X87.122Y-116.84
X89.662Y-116.84
X92.202Y-116.84
X23.876Y-125.222
X23.876Y-127.762
X26.416Y-125.222
X26.416Y-127.762
X28.956Y-125.222
X28.956Y-127.762
X31.496Y-125.222
X31.496Y-127.762
X34.036Y-125.222
X34.036Y-127.762
X95.26Y-92.71
X95.26Y-95.25
X95.26Y-97.79
X97.799Y-92.71
X97.799Y-95.25
X97.799Y-97.79
T5
X54.61Y-22.86
X54.61Y-25.4
X54.61Y-27.94
X15.303Y-60.96
X17.843Y-60.96
X20.383Y-60.96
X68.072Y-22.86
X68.072Y-25.4
X68.072Y-27.94
X155.575Y-120.142
X158.115Y-120.142
X160.655Y-120.142
X89.408Y-22.86
X89.408Y-25.4
X89.408Y-27.94
X14.478Y-37.338
X17.018Y-37.338
X19.558Y-37.338
X40.386Y-22.86
X40.386Y-25.4
X40.386Y-27.94
X87.63Y-37.846
X90.17Y-37.846
X92.71Y-37.846
X5.842Y-22.86
X5.842Y-25.4
X5.842Y-27.94
X155.766Y-104.33
X158.306Y-104.33
X160.846Y-104.33
X37.846Y-37.846
X40.386Y-37.846
X42.926Y-37.846
X57.594Y-52.133
X57.594Y-54.673
X57.594Y-57.213
X19.304Y-22.86
X19.304Y-25.4
X19.304Y-27.94
X30.035Y-22.924
X30.035Y-25.463
X30.035Y-28.003
X81.534Y-51.88
X81.534Y-54.419
X81.534Y-56.959
X53.848Y-37.846
X56.388Y-37.846
X58.928Y-37.846
X139.636Y-58.229
X139.636Y-60.77
X139.636Y-63.309
X139.51Y-69.215
X139.51Y-71.755
X139.51Y-74.295
X155.702Y-88.963
X158.242Y-88.963
X160.782Y-88.963
X78.74Y-22.86
X78.74Y-25.4
X78.74Y-27.94
T6
X122.386Y-24.384
X122.386Y-28.194
X122.386Y-32.004
X122.386Y-35.814
T7
X169.418Y-97.155
X169.418Y-102.155
X169.164Y-48.578
X169.164Y-53.578
X169.164Y-60.389
X169.164Y-65.388
X167.894Y-28.575
X167.894Y-33.575
X169.291Y-112.586
X169.291Y-117.586
X169.228Y-81.978
X169.228Y-86.978
X125.175Y-126.428
X130.175Y-126.428
T8
X19.177Y-9.017
X26.797Y-9.017
X34.417Y-9.017
X42.037Y-9.017
X49.657Y-9.017
X57.277Y-9.017
X139.446Y-26.035
X139.446Y-33.655
X67.945Y-8.89
X75.565Y-8.89
X83.185Y-8.89
X90.805Y-8.89
X98.425Y-8.89
X106.045Y-8.89
X106.172Y-25.146
X106.172Y-32.766
T9
X6.0Y-6.0
T0
M30
