%FSLAX45Y45*%
G04 Gerber Fmt 4.5, Leading zero omitted, Abs format (unit mm)*
G04 Created by KiCad (PCBNEW (5.1.0)-1) date 2022-05-17 16:18:05*
%MOMM*%
%LPD*%
G04 APERTURE LIST*
%ADD10C,0.100000*%
%ADD11C,0.200000*%
%ADD12C,0.300000*%
G04 APERTURE END LIST*
D10*
X12674600Y-3340100D02*
X12674600Y-3441700D01*
X12674600Y-2578100D02*
X12674600Y-2679700D01*
X11912600Y-2679700D02*
X11912600Y-2578100D01*
X12674600Y-2679700D02*
X11912600Y-2679700D01*
X11912600Y-2578100D02*
X12674600Y-2578100D01*
X11912600Y-3441700D02*
X11912600Y-3340100D01*
X12674600Y-3441700D02*
X11912600Y-3441700D01*
X11912600Y-3340100D02*
X12674600Y-3340100D01*
X11912600Y-2959100D02*
X13233400Y-2959100D01*
X11912600Y-3060700D02*
X11912600Y-2959100D01*
X13233400Y-3060700D02*
X11912600Y-3060700D01*
X13233400Y-2959100D02*
X13233400Y-3060700D01*
X0Y0D02*
X0Y-13322300D01*
X17640300Y0D02*
X0Y0D01*
X17640300Y-13322300D02*
X17640300Y0D01*
X0Y-13322300D02*
X17640300Y-13322300D01*
D11*
X608650Y-3180400D02*
X648650Y-3220400D01*
X648650Y-3180400D02*
X608650Y-3220400D01*
X734560Y-7074180D02*
X774560Y-7114180D01*
X774560Y-7074180D02*
X734560Y-7114180D01*
X1154750Y-2158050D02*
X1194750Y-2198050D01*
X1194750Y-2158050D02*
X1154750Y-2198050D01*
X1211900Y-3377250D02*
X1251900Y-3417250D01*
X1251900Y-3377250D02*
X1211900Y-3417250D01*
X1224600Y-2348550D02*
X1264600Y-2388550D01*
X1264600Y-2348550D02*
X1224600Y-2388550D01*
X1241260Y-8486850D02*
X1281260Y-8526850D01*
X1281260Y-8486850D02*
X1241260Y-8526850D01*
X1351600Y-4272600D02*
X1391600Y-4312600D01*
X1391600Y-4272600D02*
X1351600Y-4312600D01*
X1484950Y-11892600D02*
X1524950Y-11932600D01*
X1524950Y-11892600D02*
X1484950Y-11932600D01*
X1687000Y-7629460D02*
X1727000Y-7669460D01*
X1727000Y-7629460D02*
X1687000Y-7669460D01*
X1694500Y-10571800D02*
X1734500Y-10611800D01*
X1734500Y-10571800D02*
X1694500Y-10611800D01*
X1700850Y-10368600D02*
X1740850Y-10408600D01*
X1740850Y-10368600D02*
X1700850Y-10408600D01*
X1815150Y-3377250D02*
X1855150Y-3417250D01*
X1855150Y-3377250D02*
X1815150Y-3417250D01*
X1955050Y-3180400D02*
X1995050Y-3220400D01*
X1995050Y-3180400D02*
X1955050Y-3220400D01*
X1973900Y-9866950D02*
X2013900Y-9906950D01*
X2013900Y-9866950D02*
X1973900Y-9906950D01*
X1980250Y-10495600D02*
X2020250Y-10535600D01*
X2020250Y-10495600D02*
X1980250Y-10535600D01*
X2037400Y-11708400D02*
X2077400Y-11748400D01*
X2077400Y-11708400D02*
X2037400Y-11748400D01*
X2106590Y-7620350D02*
X2146590Y-7660350D01*
X2146590Y-7620350D02*
X2106590Y-7660350D01*
X2158050Y-12076800D02*
X2198050Y-12116800D01*
X2198050Y-12076800D02*
X2158050Y-12116800D01*
X2164400Y-11156000D02*
X2204400Y-11196000D01*
X2204400Y-11156000D02*
X2164400Y-11196000D01*
X2228150Y-7601370D02*
X2268150Y-7641370D01*
X2268150Y-7601370D02*
X2228150Y-7641370D01*
X2291400Y-11156000D02*
X2331400Y-11196000D01*
X2331400Y-11156000D02*
X2291400Y-11196000D01*
X2291400Y-12076800D02*
X2331400Y-12116800D01*
X2331400Y-12076800D02*
X2291400Y-12116800D01*
X2311230Y-10049280D02*
X2351230Y-10089280D01*
X2351230Y-10049280D02*
X2311230Y-10089280D01*
X2323150Y-10273400D02*
X2363150Y-10313400D01*
X2363150Y-10273400D02*
X2323150Y-10313400D01*
X2325720Y-10607300D02*
X2365720Y-10647300D01*
X2365720Y-10607300D02*
X2325720Y-10647300D01*
X2329080Y-10167110D02*
X2369080Y-10207110D01*
X2369080Y-10167110D02*
X2329080Y-10207110D01*
X2373950Y-3536000D02*
X2413950Y-3576000D01*
X2413950Y-3536000D02*
X2373950Y-3576000D01*
X2389600Y-9886430D02*
X2429600Y-9926430D01*
X2429600Y-9886430D02*
X2389600Y-9926430D01*
X2475550Y-9733600D02*
X2515550Y-9773600D01*
X2515550Y-9733600D02*
X2475550Y-9773600D01*
X2530990Y-7093380D02*
X2570990Y-7133380D01*
X2570990Y-7093380D02*
X2530990Y-7133380D01*
X2564450Y-3358200D02*
X2604450Y-3398200D01*
X2604450Y-3358200D02*
X2564450Y-3398200D01*
X2583500Y-2170750D02*
X2623500Y-2210750D01*
X2623500Y-2170750D02*
X2583500Y-2210750D01*
X2583500Y-2342200D02*
X2623500Y-2382200D01*
X2623500Y-2342200D02*
X2583500Y-2382200D01*
X2586930Y-8480820D02*
X2626930Y-8520820D01*
X2626930Y-8480820D02*
X2586930Y-8520820D01*
X2637020Y-7249000D02*
X2677020Y-7289000D01*
X2677020Y-7249000D02*
X2637020Y-7289000D01*
X2672400Y-11143300D02*
X2712400Y-11183300D01*
X2712400Y-11143300D02*
X2672400Y-11183300D01*
X2672400Y-12076800D02*
X2712400Y-12116800D01*
X2712400Y-12076800D02*
X2672400Y-12116800D01*
X2799400Y-4704400D02*
X2839400Y-4744400D01*
X2839400Y-4704400D02*
X2799400Y-4744400D01*
X2799400Y-11137000D02*
X2839400Y-11177000D01*
X2839400Y-11137000D02*
X2799400Y-11177000D01*
X2805750Y-3802700D02*
X2845750Y-3842700D01*
X2845750Y-3802700D02*
X2805750Y-3842700D01*
X2812100Y-3675700D02*
X2852100Y-3715700D01*
X2852100Y-3675700D02*
X2812100Y-3715700D01*
X2828920Y-9836240D02*
X2868920Y-9876240D01*
X2868920Y-9836240D02*
X2828920Y-9876240D01*
X2831150Y-10622600D02*
X2871150Y-10662600D01*
X2871150Y-10622600D02*
X2831150Y-10662600D01*
X2837500Y-10495600D02*
X2877500Y-10535600D01*
X2877500Y-10495600D02*
X2837500Y-10535600D01*
X2868420Y-7718310D02*
X2908420Y-7758310D01*
X2908420Y-7718310D02*
X2868420Y-7758310D01*
X3008750Y-11752701D02*
X3048750Y-11792701D01*
X3048750Y-11752701D02*
X3008750Y-11792701D01*
X3008950Y-11391000D02*
X3048950Y-11431000D01*
X3048950Y-11391000D02*
X3008950Y-11431000D01*
X3047250Y-3180400D02*
X3087250Y-3220400D01*
X3087250Y-3180400D02*
X3047250Y-3220400D01*
X3233510Y-3463840D02*
X3273510Y-3503840D01*
X3273510Y-3463840D02*
X3233510Y-3503840D01*
X3301050Y-3669350D02*
X3341050Y-3709350D01*
X3341050Y-3669350D02*
X3301050Y-3709350D01*
X3301050Y-3809050D02*
X3341050Y-3849050D01*
X3341050Y-3809050D02*
X3301050Y-3849050D01*
X3301050Y-3942400D02*
X3341050Y-3982400D01*
X3341050Y-3942400D02*
X3301050Y-3982400D01*
X3301050Y-4310700D02*
X3341050Y-4350700D01*
X3341050Y-4310700D02*
X3301050Y-4350700D01*
X3313750Y-11384600D02*
X3353750Y-11424600D01*
X3353750Y-11384600D02*
X3313750Y-11424600D01*
X3313750Y-11644800D02*
X3353750Y-11684800D01*
X3353750Y-11644800D02*
X3313750Y-11684800D01*
X3383600Y-4552000D02*
X3423600Y-4592000D01*
X3423600Y-4552000D02*
X3383600Y-4592000D01*
X3586800Y-4615500D02*
X3626800Y-4655500D01*
X3626800Y-4615500D02*
X3586800Y-4655500D01*
X3624900Y-2158050D02*
X3664900Y-2198050D01*
X3664900Y-2158050D02*
X3624900Y-2198050D01*
X3624900Y-2354900D02*
X3664900Y-2394900D01*
X3664900Y-2354900D02*
X3624900Y-2394900D01*
X3637600Y-3421700D02*
X3677600Y-3461700D01*
X3677600Y-3421700D02*
X3637600Y-3461700D01*
X3649280Y-9814690D02*
X3689280Y-9854690D01*
X3689280Y-9814690D02*
X3649280Y-9854690D01*
X3682050Y-4323400D02*
X3722050Y-4363400D01*
X3722050Y-4323400D02*
X3682050Y-4363400D01*
X3917000Y-11384600D02*
X3957000Y-11424600D01*
X3957000Y-11384600D02*
X3917000Y-11424600D01*
X3917000Y-11651300D02*
X3957000Y-11691300D01*
X3957000Y-11651300D02*
X3917000Y-11691300D01*
X3993400Y-12384700D02*
X4033400Y-12424700D01*
X4033400Y-12384700D02*
X3993400Y-12424700D01*
X4063250Y-3180400D02*
X4103250Y-3220400D01*
X4103250Y-3180400D02*
X4063250Y-3220400D01*
X4142680Y-11115310D02*
X4182680Y-11155310D01*
X4182680Y-11115310D02*
X4142680Y-11155310D01*
X4168340Y-9501390D02*
X4208340Y-9541390D01*
X4208340Y-9501390D02*
X4168340Y-9541390D01*
X4386900Y-4501200D02*
X4426900Y-4541200D01*
X4426900Y-4501200D02*
X4386900Y-4541200D01*
X4393250Y-3351850D02*
X4433250Y-3391850D01*
X4433250Y-3351850D02*
X4393250Y-3391850D01*
X4602800Y-2164400D02*
X4642800Y-2204400D01*
X4642800Y-2164400D02*
X4602800Y-2204400D01*
X4630420Y-5279940D02*
X4670420Y-5319940D01*
X4670420Y-5279940D02*
X4630420Y-5319940D01*
X4630420Y-9232290D02*
X4670420Y-9272290D01*
X4670420Y-9232290D02*
X4630420Y-9272290D01*
X4666300Y-2348550D02*
X4706300Y-2388550D01*
X4706300Y-2348550D02*
X4666300Y-2388550D01*
X4672650Y-12343400D02*
X4712650Y-12383400D01*
X4712650Y-12343400D02*
X4672650Y-12383400D01*
X4837530Y-5443910D02*
X4877530Y-5483910D01*
X4877530Y-5443910D02*
X4837530Y-5483910D01*
X4894900Y-11708450D02*
X4934900Y-11748450D01*
X4934900Y-11708450D02*
X4894900Y-11748450D01*
X4945700Y-13111800D02*
X4985700Y-13151800D01*
X4985700Y-13111800D02*
X4945700Y-13151800D01*
X5237800Y-4317050D02*
X5277800Y-4357050D01*
X5277800Y-4317050D02*
X5237800Y-4357050D01*
X5263200Y-8495350D02*
X5303200Y-8535350D01*
X5303200Y-8495350D02*
X5263200Y-8535350D01*
X5324760Y-7793790D02*
X5364760Y-7833790D01*
X5364760Y-7793790D02*
X5324760Y-7833790D01*
X5339100Y-10422440D02*
X5379100Y-10462440D01*
X5379100Y-10422440D02*
X5339100Y-10462440D01*
X5435090Y-8590880D02*
X5475090Y-8630880D01*
X5475090Y-8590880D02*
X5435090Y-8630880D01*
X5479480Y-6096730D02*
X5519480Y-6136730D01*
X5519480Y-6096730D02*
X5479480Y-6136730D01*
X5485450Y-10495600D02*
X5525450Y-10535600D01*
X5525450Y-10495600D02*
X5485450Y-10535600D01*
X5485650Y-3180400D02*
X5525650Y-3220400D01*
X5525650Y-3180400D02*
X5485650Y-3220400D01*
X5485770Y-6285020D02*
X5525770Y-6325020D01*
X5525770Y-6285020D02*
X5485770Y-6325020D01*
X5611560Y-7664820D02*
X5651560Y-7704820D01*
X5651560Y-7664820D02*
X5611560Y-7704820D01*
X5705630Y-6029990D02*
X5745630Y-6069990D01*
X5745630Y-6029990D02*
X5705630Y-6069990D01*
X5766050Y-7088290D02*
X5806050Y-7128290D01*
X5806050Y-7088290D02*
X5766050Y-7128290D01*
X5818490Y-9281120D02*
X5858490Y-9321120D01*
X5858490Y-9281120D02*
X5818490Y-9321120D01*
X5879150Y-3358200D02*
X5919150Y-3398200D01*
X5919150Y-3358200D02*
X5879150Y-3398200D01*
X5908170Y-8479770D02*
X5948170Y-8519770D01*
X5948170Y-8479770D02*
X5908170Y-8519770D01*
X5923600Y-8152450D02*
X5963600Y-8192450D01*
X5963600Y-8152450D02*
X5923600Y-8192450D01*
X5928210Y-8592510D02*
X5968210Y-8632510D01*
X5968210Y-8592510D02*
X5928210Y-8632510D01*
X6031050Y-7217120D02*
X6071050Y-7257120D01*
X6071050Y-7217120D02*
X6031050Y-7257120D01*
X6037900Y-2126300D02*
X6077900Y-2166300D01*
X6077900Y-2126300D02*
X6037900Y-2166300D01*
X6107750Y-2348550D02*
X6147750Y-2388550D01*
X6147750Y-2348550D02*
X6107750Y-2388550D01*
X6108500Y-9341180D02*
X6148500Y-9381180D01*
X6148500Y-9341180D02*
X6108500Y-9381180D01*
X6120450Y-5174300D02*
X6160450Y-5214300D01*
X6160450Y-5174300D02*
X6120450Y-5214300D01*
X6182440Y-9843260D02*
X6222440Y-9883260D01*
X6222440Y-9843260D02*
X6182440Y-9883260D01*
X6182740Y-10499790D02*
X6222740Y-10539790D01*
X6222740Y-10499790D02*
X6182740Y-10539790D01*
X6205410Y-6503980D02*
X6245410Y-6543980D01*
X6245410Y-6503980D02*
X6205410Y-6543980D01*
X6222050Y-8152450D02*
X6262050Y-8192450D01*
X6262050Y-8152450D02*
X6222050Y-8192450D01*
X6284060Y-5989970D02*
X6324060Y-6029970D01*
X6324060Y-5989970D02*
X6284060Y-6029970D01*
X6313700Y-7279660D02*
X6353700Y-7319660D01*
X6353700Y-7279660D02*
X6313700Y-7319660D01*
X6328190Y-12492520D02*
X6368190Y-12532520D01*
X6368190Y-12492520D02*
X6328190Y-12532520D01*
X6349050Y-12121200D02*
X6389050Y-12161200D01*
X6389050Y-12121200D02*
X6349050Y-12161200D01*
X6451490Y-9651390D02*
X6491490Y-9691390D01*
X6491490Y-9651390D02*
X6451490Y-9691390D01*
X6501450Y-4590100D02*
X6541450Y-4630100D01*
X6541450Y-4590100D02*
X6501450Y-4630100D01*
X6546160Y-10463070D02*
X6586160Y-10503070D01*
X6586160Y-10463070D02*
X6546160Y-10503070D01*
X6568510Y-7114220D02*
X6608510Y-7154220D01*
X6608510Y-7114220D02*
X6568510Y-7154220D01*
X6601410Y-6930490D02*
X6641410Y-6970490D01*
X6641410Y-6930490D02*
X6601410Y-6970490D01*
X6626620Y-9537890D02*
X6666620Y-9577890D01*
X6666620Y-9537890D02*
X6626620Y-9577890D01*
X6653850Y-3923350D02*
X6693850Y-3963350D01*
X6693850Y-3923350D02*
X6653850Y-3963350D01*
X6667820Y-10572770D02*
X6707820Y-10612770D01*
X6707820Y-10572770D02*
X6667820Y-10612770D01*
X6672900Y-4437700D02*
X6712900Y-4477700D01*
X6712900Y-4437700D02*
X6672900Y-4477700D01*
X6723700Y-3796350D02*
X6763700Y-3836350D01*
X6763700Y-3796350D02*
X6723700Y-3836350D01*
X6793550Y-3675700D02*
X6833550Y-3715700D01*
X6833550Y-3675700D02*
X6793550Y-3715700D01*
X6838000Y-3180400D02*
X6878000Y-3220400D01*
X6878000Y-3180400D02*
X6838000Y-3220400D01*
X6844720Y-11233890D02*
X6884720Y-11273890D01*
X6884720Y-11233890D02*
X6844720Y-11273890D01*
X6848690Y-9903780D02*
X6888690Y-9943780D01*
X6888690Y-9903780D02*
X6848690Y-9943780D01*
X6945950Y-11524300D02*
X6985950Y-11564300D01*
X6985950Y-11524300D02*
X6945950Y-11564300D01*
X7138770Y-9757600D02*
X7178770Y-9797600D01*
X7178770Y-9757600D02*
X7138770Y-9797600D01*
X7168200Y-5822000D02*
X7208200Y-5862000D01*
X7208200Y-5822000D02*
X7168200Y-5862000D01*
X7168200Y-5955350D02*
X7208200Y-5995350D01*
X7208200Y-5955350D02*
X7168200Y-5995350D01*
X7181000Y-8854010D02*
X7221000Y-8894010D01*
X7221000Y-8854010D02*
X7181000Y-8894010D01*
X7255840Y-9780170D02*
X7295840Y-9820170D01*
X7295840Y-9780170D02*
X7255840Y-9820170D01*
X7308375Y-4087993D02*
X7348375Y-4127993D01*
X7348375Y-4087993D02*
X7308375Y-4127993D01*
X7334870Y-8718920D02*
X7374870Y-8758920D01*
X7374870Y-8718920D02*
X7334870Y-8758920D01*
X7441250Y-5822000D02*
X7481250Y-5862000D01*
X7481250Y-5822000D02*
X7441250Y-5862000D01*
X7441250Y-5955350D02*
X7481250Y-5995350D01*
X7481250Y-5955350D02*
X7441250Y-5995350D01*
X7447600Y-12794300D02*
X7487600Y-12834300D01*
X7487600Y-12794300D02*
X7447600Y-12834300D01*
X7457440Y-8127290D02*
X7497440Y-8167290D01*
X7497440Y-8127290D02*
X7457440Y-8167290D01*
X7473000Y-2132650D02*
X7513000Y-2172650D01*
X7513000Y-2132650D02*
X7473000Y-2172650D01*
X7473000Y-2323150D02*
X7513000Y-2363150D01*
X7513000Y-2323150D02*
X7473000Y-2363150D01*
X7492050Y-3548700D02*
X7532050Y-3588700D01*
X7532050Y-3548700D02*
X7492050Y-3588700D01*
X7538220Y-7995660D02*
X7578220Y-8035660D01*
X7578220Y-7995660D02*
X7538220Y-8035660D01*
X7650800Y-12908600D02*
X7690800Y-12948600D01*
X7690800Y-12908600D02*
X7650800Y-12948600D01*
X7660849Y-3726500D02*
X7700849Y-3766500D01*
X7700849Y-3726500D02*
X7660849Y-3766500D01*
X7660849Y-3859850D02*
X7700849Y-3899850D01*
X7700849Y-3859850D02*
X7660849Y-3899850D01*
X7682550Y-4310700D02*
X7722550Y-4350700D01*
X7722550Y-4310700D02*
X7682550Y-4350700D01*
X7707950Y-11410000D02*
X7747950Y-11450000D01*
X7747950Y-11410000D02*
X7707950Y-11450000D01*
X7711560Y-8617780D02*
X7751560Y-8657780D01*
X7751560Y-8617780D02*
X7711560Y-8657780D01*
X7733350Y-3555050D02*
X7773350Y-3595050D01*
X7773350Y-3555050D02*
X7733350Y-3595050D01*
X7773020Y-7097630D02*
X7813020Y-7137630D01*
X7813020Y-7097630D02*
X7773020Y-7137630D01*
X7839367Y-11298713D02*
X7879367Y-11338713D01*
X7879367Y-11298713D02*
X7839367Y-11338713D01*
X7898650Y-3180400D02*
X7938650Y-3220400D01*
X7938650Y-3180400D02*
X7898650Y-3220400D01*
X8048970Y-10425640D02*
X8088970Y-10465640D01*
X8088970Y-10425640D02*
X8048970Y-10465640D01*
X8147300Y-8807070D02*
X8187300Y-8847070D01*
X8187300Y-8807070D02*
X8147300Y-8847070D01*
X8189700Y-6692970D02*
X8229700Y-6732970D01*
X8229700Y-6692970D02*
X8189700Y-6732970D01*
X8212200Y-8890350D02*
X8252200Y-8930350D01*
X8252200Y-8890350D02*
X8212200Y-8930350D01*
X8368350Y-4564700D02*
X8408350Y-4604700D01*
X8408350Y-4564700D02*
X8368350Y-4604700D01*
X8431850Y-5733100D02*
X8471850Y-5773100D01*
X8471850Y-5733100D02*
X8431850Y-5773100D01*
X8431850Y-5968050D02*
X8471850Y-6008050D01*
X8471850Y-5968050D02*
X8431850Y-6008050D01*
X8469950Y-4437700D02*
X8509950Y-4477700D01*
X8509950Y-4437700D02*
X8469950Y-4477700D01*
X8495350Y-3478850D02*
X8535350Y-3518850D01*
X8535350Y-3478850D02*
X8495350Y-3518850D01*
X8527100Y-2151700D02*
X8567100Y-2191700D01*
X8567100Y-2151700D02*
X8527100Y-2191700D01*
X8527100Y-2304100D02*
X8567100Y-2344100D01*
X8567100Y-2304100D02*
X8527100Y-2344100D01*
X8708690Y-6485630D02*
X8748690Y-6525630D01*
X8748690Y-6485630D02*
X8708690Y-6525630D01*
X8829360Y-7896170D02*
X8869360Y-7936170D01*
X8869360Y-7896170D02*
X8829360Y-7936170D01*
X8839210Y-8044930D02*
X8879210Y-8084930D01*
X8879210Y-8044930D02*
X8839210Y-8084930D01*
X8965450Y-3180400D02*
X9005450Y-3220400D01*
X9005450Y-3180400D02*
X8965450Y-3220400D01*
X8971600Y-4475800D02*
X9011600Y-4515800D01*
X9011600Y-4475800D02*
X8971600Y-4515800D01*
X8971600Y-4602800D02*
X9011600Y-4642800D01*
X9011600Y-4602800D02*
X8971600Y-4642800D01*
X9117650Y-11365550D02*
X9157650Y-11405550D01*
X9157650Y-11365550D02*
X9117650Y-11405550D01*
X9125610Y-11223790D02*
X9165610Y-11263790D01*
X9165610Y-11223790D02*
X9125610Y-11263790D01*
X9137830Y-7916370D02*
X9177830Y-7956370D01*
X9177830Y-7916370D02*
X9137830Y-7956370D01*
X9161950Y-8079330D02*
X9201950Y-8119330D01*
X9201950Y-8079330D02*
X9161950Y-8119330D01*
X9181150Y-3180400D02*
X9221150Y-3220400D01*
X9221150Y-3180400D02*
X9181150Y-3220400D01*
X9237470Y-8167260D02*
X9277470Y-8207260D01*
X9277470Y-8167260D02*
X9237470Y-8207260D01*
X9244650Y-4380550D02*
X9284650Y-4420550D01*
X9284650Y-4380550D02*
X9244650Y-4420550D01*
X9262510Y-11228501D02*
X9302510Y-11268501D01*
X9302510Y-11228501D02*
X9262510Y-11268501D01*
X9276400Y-6190300D02*
X9316400Y-6230300D01*
X9316400Y-6190300D02*
X9276400Y-6230300D01*
X9346250Y-3351850D02*
X9386250Y-3391850D01*
X9386250Y-3351850D02*
X9346250Y-3391850D01*
X9365300Y-6266500D02*
X9405300Y-6306500D01*
X9405300Y-6266500D02*
X9365300Y-6306500D01*
X9524050Y-2145350D02*
X9564050Y-2185350D01*
X9564050Y-2145350D02*
X9524050Y-2185350D01*
X9524050Y-2310450D02*
X9564050Y-2350450D01*
X9564050Y-2310450D02*
X9524050Y-2350450D01*
X9549450Y-5961700D02*
X9589450Y-6001700D01*
X9589450Y-5961700D02*
X9549450Y-6001700D01*
X9581200Y-3751900D02*
X9621200Y-3791900D01*
X9621200Y-3751900D02*
X9581200Y-3791900D01*
X9581200Y-3866200D02*
X9621200Y-3906200D01*
X9621200Y-3866200D02*
X9581200Y-3906200D01*
X9638350Y-6037900D02*
X9678350Y-6077900D01*
X9678350Y-6037900D02*
X9638350Y-6077900D01*
X9844660Y-6703030D02*
X9884660Y-6743030D01*
X9884660Y-6703030D02*
X9844660Y-6743030D01*
X9892350Y-3758250D02*
X9932350Y-3798250D01*
X9932350Y-3758250D02*
X9892350Y-3798250D01*
X9892350Y-3872550D02*
X9932350Y-3912550D01*
X9932350Y-3872550D02*
X9892350Y-3912550D01*
X10323177Y-10970262D02*
X10363177Y-11010262D01*
X10363177Y-10970262D02*
X10323177Y-11010262D01*
X11594750Y-13111200D02*
X11634750Y-13151200D01*
X11634750Y-13111200D02*
X11594750Y-13151200D01*
X11835450Y-9149400D02*
X11875450Y-9189400D01*
X11875450Y-9149400D02*
X11835450Y-9189400D01*
X11924350Y-9054150D02*
X11964350Y-9094150D01*
X11964350Y-9054150D02*
X11924350Y-9094150D01*
X12095800Y-11860800D02*
X12135800Y-11900800D01*
X12135800Y-11860800D02*
X12095800Y-11900800D01*
X12095800Y-12019600D02*
X12135800Y-12059600D01*
X12135800Y-12019600D02*
X12095800Y-12059600D01*
X12165650Y-9422450D02*
X12205650Y-9462450D01*
X12205650Y-9422450D02*
X12165650Y-9462450D01*
X12241800Y-12019600D02*
X12281800Y-12059600D01*
X12281800Y-12019600D02*
X12241800Y-12059600D01*
X12260900Y-9320850D02*
X12300900Y-9360850D01*
X12300900Y-9320850D02*
X12260900Y-9360850D01*
X12660950Y-11562400D02*
X12700950Y-11602400D01*
X12700950Y-11562400D02*
X12660950Y-11602400D01*
X12755900Y-11397300D02*
X12795900Y-11437300D01*
X12795900Y-11397300D02*
X12755900Y-11437300D01*
X12756200Y-10984600D02*
X12796200Y-11024600D01*
X12796200Y-10984600D02*
X12756200Y-11024600D01*
X12902200Y-10806800D02*
X12942200Y-10846800D01*
X12942200Y-10806800D02*
X12902200Y-10846800D01*
X12941770Y-7725160D02*
X12981770Y-7765160D01*
X12981770Y-7725160D02*
X12941770Y-7765160D01*
X12954680Y-7829690D02*
X12994680Y-7869690D01*
X12994680Y-7829690D02*
X12954680Y-7869690D01*
X12972100Y-11587800D02*
X13012100Y-11627800D01*
X13012100Y-11587800D02*
X12972100Y-11627800D01*
X12972100Y-11708400D02*
X13012100Y-11748400D01*
X13012100Y-11708400D02*
X12972100Y-11748400D01*
X12972100Y-11835400D02*
X13012100Y-11875400D01*
X13012100Y-11835400D02*
X12972100Y-11875400D01*
X13011030Y-9946520D02*
X13051030Y-9986520D01*
X13051030Y-9946520D02*
X13011030Y-9986520D01*
X13086400Y-11587800D02*
X13126400Y-11627800D01*
X13126400Y-11587800D02*
X13086400Y-11627800D01*
X13092800Y-11708400D02*
X13132800Y-11748400D01*
X13132800Y-11708400D02*
X13092800Y-11748400D01*
X13092800Y-11835400D02*
X13132800Y-11875400D01*
X13132800Y-11835400D02*
X13092800Y-11875400D01*
X13207000Y-11587800D02*
X13247000Y-11627800D01*
X13247000Y-11587800D02*
X13207000Y-11627800D01*
X13213400Y-11708400D02*
X13253400Y-11748400D01*
X13253400Y-11708400D02*
X13213400Y-11748400D01*
X13213400Y-11835400D02*
X13253400Y-11875400D01*
X13253400Y-11835400D02*
X13213400Y-11875400D01*
X13245200Y-6310950D02*
X13285200Y-6350950D01*
X13285200Y-6310950D02*
X13245200Y-6350950D01*
X13245200Y-7422200D02*
X13285200Y-7462200D01*
X13285200Y-7422200D02*
X13245200Y-7462200D01*
X13553060Y-10657470D02*
X13593060Y-10697470D01*
X13593060Y-10657470D02*
X13553060Y-10697470D01*
X13937300Y-12197400D02*
X13977300Y-12237400D01*
X13977300Y-12197400D02*
X13937300Y-12237400D01*
X13937300Y-12394250D02*
X13977300Y-12434250D01*
X13977300Y-12394250D02*
X13937300Y-12434250D01*
X13975400Y-8743000D02*
X14015400Y-8783000D01*
X14015400Y-8743000D02*
X13975400Y-8783000D01*
X14057900Y-11092500D02*
X14097900Y-11132500D01*
X14097900Y-11092500D02*
X14057900Y-11132500D01*
X14057900Y-11283000D02*
X14097900Y-11323000D01*
X14097900Y-11283000D02*
X14057900Y-11323000D01*
X14134200Y-12140200D02*
X14174200Y-12180200D01*
X14174200Y-12140200D02*
X14134200Y-12180200D01*
X14318300Y-12140200D02*
X14358300Y-12180200D01*
X14358300Y-12140200D02*
X14318300Y-12180200D01*
X14470580Y-9739950D02*
X14510580Y-9779950D01*
X14510580Y-9739950D02*
X14470580Y-9779950D01*
X14496100Y-12044950D02*
X14536100Y-12084950D01*
X14536100Y-12044950D02*
X14496100Y-12084950D01*
X14585000Y-10698800D02*
X14625000Y-10738800D01*
X14625000Y-10698800D02*
X14585000Y-10738800D01*
X14585000Y-11270300D02*
X14625000Y-11310300D01*
X14625000Y-11270300D02*
X14585000Y-11310300D01*
X14680200Y-8247700D02*
X14720200Y-8287700D01*
X14720200Y-8247700D02*
X14680200Y-8287700D01*
X14680200Y-8831900D02*
X14720200Y-8871900D01*
X14720200Y-8831900D02*
X14680200Y-8871900D01*
X14680200Y-9454200D02*
X14720200Y-9494200D01*
X14720200Y-9454200D02*
X14680200Y-9494200D01*
X14680200Y-10032000D02*
X14720200Y-10072000D01*
X14720200Y-10032000D02*
X14680200Y-10072000D01*
X14689900Y-9739950D02*
X14729900Y-9779950D01*
X14729900Y-9739950D02*
X14689900Y-9779950D01*
X14731000Y-12044950D02*
X14771000Y-12084950D01*
X14771000Y-12044950D02*
X14731000Y-12084950D01*
X15181900Y-11518000D02*
X15221900Y-11558000D01*
X15221900Y-11518000D02*
X15181900Y-11558000D01*
X15359700Y-8482650D02*
X15399700Y-8522650D01*
X15399700Y-8482650D02*
X15359700Y-8522650D01*
X15378800Y-9981200D02*
X15418800Y-10021200D01*
X15418800Y-9981200D02*
X15378800Y-10021200D01*
X15550200Y-8482650D02*
X15590200Y-8522650D01*
X15590200Y-8482650D02*
X15550200Y-8522650D01*
X15569200Y-9994000D02*
X15609200Y-10034000D01*
X15609200Y-9994000D02*
X15569200Y-10034000D01*
X15696200Y-11384600D02*
X15736200Y-11424600D01*
X15736200Y-11384600D02*
X15696200Y-11424600D01*
X15696200Y-11524300D02*
X15736200Y-11564300D01*
X15736200Y-11524300D02*
X15696200Y-11564300D01*
X15702600Y-8341350D02*
X15742600Y-8381350D01*
X15742600Y-8341350D02*
X15702600Y-8381350D01*
X15721600Y-9841550D02*
X15761600Y-9881550D01*
X15761600Y-9841550D02*
X15721600Y-9881550D01*
X15778800Y-4913950D02*
X15818800Y-4953950D01*
X15818800Y-4913950D02*
X15778800Y-4953950D01*
X15778800Y-5053650D02*
X15818800Y-5093650D01*
X15818800Y-5053650D02*
X15778800Y-5093650D01*
X15778800Y-5199700D02*
X15818800Y-5239700D01*
X15818800Y-5199700D02*
X15778800Y-5239700D01*
X15931200Y-4913950D02*
X15971200Y-4953950D01*
X15971200Y-4913950D02*
X15931200Y-4953950D01*
X15937550Y-5053650D02*
X15977550Y-5093650D01*
X15977550Y-5053650D02*
X15937550Y-5093650D01*
X15937550Y-5199700D02*
X15977550Y-5239700D01*
X15977550Y-5199700D02*
X15937550Y-5239700D01*
X16020100Y-6380800D02*
X16060100Y-6420800D01*
X16060100Y-6380800D02*
X16020100Y-6420800D01*
X16083600Y-4913950D02*
X16123600Y-4953950D01*
X16123600Y-4913950D02*
X16083600Y-4953950D01*
X16083600Y-5199700D02*
X16123600Y-5239700D01*
X16123600Y-5199700D02*
X16083600Y-5239700D01*
X16089950Y-5053650D02*
X16129950Y-5093650D01*
X16129950Y-5053650D02*
X16089950Y-5093650D01*
X16121700Y-2354900D02*
X16161700Y-2394900D01*
X16161700Y-2354900D02*
X16121700Y-2394900D01*
X16223300Y-6380800D02*
X16263300Y-6420800D01*
X16263300Y-6380800D02*
X16223300Y-6420800D01*
X16737650Y-1853250D02*
X16777650Y-1893250D01*
X16777650Y-1853250D02*
X16737650Y-1893250D01*
X17283800Y-4317050D02*
X17323800Y-4357050D01*
X17323800Y-4317050D02*
X17283800Y-4357050D01*
X17283800Y-4456750D02*
X17323800Y-4496750D01*
X17323800Y-4456750D02*
X17283800Y-4496750D01*
X1437000Y-2501900D02*
G75*
G03X1437000Y-2501900I-40000J0D01*
G01*
X4866000Y-2495550D02*
G75*
G03X4866000Y-2495550I-40000J0D01*
G01*
X6313800Y-2457450D02*
G75*
G03X6313800Y-2457450I-40000J0D01*
G01*
X9768200Y-2470150D02*
G75*
G03X9768200Y-2470150I-40000J0D01*
G01*
X8890000Y-5165850D02*
X8890000Y-5260850D01*
X8842500Y-5213350D02*
X8937500Y-5213350D01*
X8890000Y-5415850D02*
X8890000Y-5510850D01*
X8842500Y-5463350D02*
X8937500Y-5463350D01*
X8890000Y-5665850D02*
X8890000Y-5760850D01*
X8842500Y-5713350D02*
X8937500Y-5713350D01*
X8890000Y-5915850D02*
X8890000Y-6010850D01*
X8842500Y-5963350D02*
X8937500Y-5963350D01*
X9042400Y-12728700D02*
X9042400Y-12823700D01*
X8994900Y-12776200D02*
X9089900Y-12776200D01*
X9292400Y-12728700D02*
X9292400Y-12823700D01*
X9244900Y-12776200D02*
X9339900Y-12776200D01*
X9542400Y-12728700D02*
X9542400Y-12823700D01*
X9494900Y-12776200D02*
X9589900Y-12776200D01*
X9792400Y-12728700D02*
X9792400Y-12823700D01*
X9744900Y-12776200D02*
X9839900Y-12776200D01*
X13595350Y-1349500D02*
X13595350Y-1444500D01*
X13547850Y-1397000D02*
X13642850Y-1397000D01*
X13845350Y-1349500D02*
X13845350Y-1444500D01*
X13797850Y-1397000D02*
X13892850Y-1397000D01*
X14095350Y-1349500D02*
X14095350Y-1444500D01*
X14047850Y-1397000D02*
X14142850Y-1397000D01*
X14345350Y-1349500D02*
X14345350Y-1444500D01*
X14297850Y-1397000D02*
X14392850Y-1397000D01*
X10439400Y-12728700D02*
X10439400Y-12823700D01*
X10391900Y-12776200D02*
X10486900Y-12776200D01*
X10689400Y-12728700D02*
X10689400Y-12823700D01*
X10641900Y-12776200D02*
X10736900Y-12776200D01*
X10939400Y-12728700D02*
X10939400Y-12823700D01*
X10891900Y-12776200D02*
X10986900Y-12776200D01*
X11189400Y-12728700D02*
X11189400Y-12823700D01*
X11141900Y-12776200D02*
X11236900Y-12776200D01*
X533400Y-3743700D02*
X533400Y-3838700D01*
X485900Y-3791200D02*
X580900Y-3791200D01*
X533400Y-3993700D02*
X533400Y-4088700D01*
X485900Y-4041200D02*
X580900Y-4041200D01*
X533400Y-4243700D02*
X533400Y-4338700D01*
X485900Y-4291200D02*
X580900Y-4291200D01*
X533400Y-4493700D02*
X533400Y-4588700D01*
X485900Y-4541200D02*
X580900Y-4541200D01*
X533400Y-4743700D02*
X533400Y-4838700D01*
X485900Y-4791200D02*
X580900Y-4791200D01*
X533400Y-4993700D02*
X533400Y-5088700D01*
X485900Y-5041200D02*
X580900Y-5041200D01*
X533400Y-5243700D02*
X533400Y-5338700D01*
X485900Y-5291200D02*
X580900Y-5291200D01*
X533400Y-5493700D02*
X533400Y-5588700D01*
X485900Y-5541200D02*
X580900Y-5541200D01*
X533400Y-5743700D02*
X533400Y-5838700D01*
X485900Y-5791200D02*
X580900Y-5791200D01*
X533400Y-5993700D02*
X533400Y-6088700D01*
X485900Y-6041200D02*
X580900Y-6041200D01*
X15062200Y-5870700D02*
X15062200Y-5965700D01*
X15014700Y-5918200D02*
X15109700Y-5918200D01*
X15062200Y-6120700D02*
X15062200Y-6215700D01*
X15014700Y-6168200D02*
X15109700Y-6168200D01*
X15062200Y-6370700D02*
X15062200Y-6465700D01*
X15014700Y-6418200D02*
X15109700Y-6418200D01*
X15062200Y-6620700D02*
X15062200Y-6715700D01*
X15014700Y-6668200D02*
X15109700Y-6668200D01*
X7854950Y-12716000D02*
X7854950Y-12811000D01*
X7807450Y-12763500D02*
X7902450Y-12763500D01*
X8104950Y-12716000D02*
X8104950Y-12811000D01*
X8057450Y-12763500D02*
X8152450Y-12763500D01*
X8354950Y-12716000D02*
X8354950Y-12811000D01*
X8307450Y-12763500D02*
X8402450Y-12763500D01*
X5998006Y-12722656D02*
X5998006Y-12651944D01*
X5927294Y-12651944D01*
X5927294Y-12722656D01*
X5998006Y-12722656D01*
X5998006Y-12976656D02*
X5998006Y-12905944D01*
X5927294Y-12905944D01*
X5927294Y-12976656D01*
X5998006Y-12976656D01*
X6252006Y-12722656D02*
X6252006Y-12651944D01*
X6181294Y-12651944D01*
X6181294Y-12722656D01*
X6252006Y-12722656D01*
X6252006Y-12976656D02*
X6252006Y-12905944D01*
X6181294Y-12905944D01*
X6181294Y-12976656D01*
X6252006Y-12976656D01*
X6506006Y-12722656D02*
X6506006Y-12651944D01*
X6435294Y-12651944D01*
X6435294Y-12722656D01*
X6506006Y-12722656D01*
X6506006Y-12976656D02*
X6506006Y-12905944D01*
X6435294Y-12905944D01*
X6435294Y-12976656D01*
X6506006Y-12976656D01*
X6760006Y-12722656D02*
X6760006Y-12651944D01*
X6689294Y-12651944D01*
X6689294Y-12722656D01*
X6760006Y-12722656D01*
X6760006Y-12976656D02*
X6760006Y-12905944D01*
X6689294Y-12905944D01*
X6689294Y-12976656D01*
X6760006Y-12976656D01*
X7014006Y-12722656D02*
X7014006Y-12651944D01*
X6943294Y-12651944D01*
X6943294Y-12722656D01*
X7014006Y-12722656D01*
X7014006Y-12976656D02*
X7014006Y-12905944D01*
X6943294Y-12905944D01*
X6943294Y-12976656D01*
X7014006Y-12976656D01*
X7268006Y-12722656D02*
X7268006Y-12651944D01*
X7197294Y-12651944D01*
X7197294Y-12722656D01*
X7268006Y-12722656D01*
X7268006Y-12976656D02*
X7268006Y-12905944D01*
X7197294Y-12905944D01*
X7197294Y-12976656D01*
X7268006Y-12976656D01*
X4112056Y-5184506D02*
X4112056Y-5113794D01*
X4041344Y-5113794D01*
X4041344Y-5184506D01*
X4112056Y-5184506D01*
X4112056Y-5934506D02*
X4112056Y-5863794D01*
X4041344Y-5863794D01*
X4041344Y-5934506D01*
X4112056Y-5934506D01*
X9561306Y-8036356D02*
X9561306Y-7965644D01*
X9490594Y-7965644D01*
X9490594Y-8036356D01*
X9561306Y-8036356D01*
X9561306Y-8290356D02*
X9561306Y-8219644D01*
X9490594Y-8219644D01*
X9490594Y-8290356D01*
X9561306Y-8290356D01*
X9561306Y-8544356D02*
X9561306Y-8473644D01*
X9490594Y-8473644D01*
X9490594Y-8544356D01*
X9561306Y-8544356D01*
X9815306Y-8036356D02*
X9815306Y-7965644D01*
X9744594Y-7965644D01*
X9744594Y-8036356D01*
X9815306Y-8036356D01*
X9815306Y-8290356D02*
X9815306Y-8219644D01*
X9744594Y-8219644D01*
X9744594Y-8290356D01*
X9815306Y-8290356D01*
X9815306Y-8544356D02*
X9815306Y-8473644D01*
X9744594Y-8473644D01*
X9744594Y-8544356D01*
X9815306Y-8544356D01*
X4989306Y-10830356D02*
X4989306Y-10759644D01*
X4918594Y-10759644D01*
X4918594Y-10830356D01*
X4989306Y-10830356D01*
X4989306Y-11084356D02*
X4989306Y-11013644D01*
X4918594Y-11013644D01*
X4918594Y-11084356D01*
X4989306Y-11084356D01*
X5243306Y-10830356D02*
X5243306Y-10759644D01*
X5172594Y-10759644D01*
X5172594Y-10830356D01*
X5243306Y-10830356D01*
X5243306Y-11084356D02*
X5243306Y-11013644D01*
X5172594Y-11013644D01*
X5172594Y-11084356D01*
X5243306Y-11084356D01*
X5497306Y-10830356D02*
X5497306Y-10759644D01*
X5426594Y-10759644D01*
X5426594Y-10830356D01*
X5497306Y-10830356D01*
X5497306Y-11084356D02*
X5497306Y-11013644D01*
X5426594Y-11013644D01*
X5426594Y-11084356D01*
X5497306Y-11084356D01*
X5751306Y-10830356D02*
X5751306Y-10759644D01*
X5680594Y-10759644D01*
X5680594Y-10830356D01*
X5751306Y-10830356D01*
X5751306Y-11084356D02*
X5751306Y-11013644D01*
X5680594Y-11013644D01*
X5680594Y-11084356D01*
X5751306Y-11084356D01*
X6005306Y-10830356D02*
X6005306Y-10759644D01*
X5934594Y-10759644D01*
X5934594Y-10830356D01*
X6005306Y-10830356D01*
X6005306Y-11084356D02*
X6005306Y-11013644D01*
X5934594Y-11013644D01*
X5934594Y-11084356D01*
X6005306Y-11084356D01*
X6259306Y-10830356D02*
X6259306Y-10759644D01*
X6188594Y-10759644D01*
X6188594Y-10830356D01*
X6259306Y-10830356D01*
X6259306Y-11084356D02*
X6259306Y-11013644D01*
X6188594Y-11013644D01*
X6188594Y-11084356D01*
X6259306Y-11084356D01*
X6513306Y-10830356D02*
X6513306Y-10759644D01*
X6442594Y-10759644D01*
X6442594Y-10830356D01*
X6513306Y-10830356D01*
X6513306Y-11084356D02*
X6513306Y-11013644D01*
X6442594Y-11013644D01*
X6442594Y-11084356D01*
X6513306Y-11084356D01*
X6767306Y-10830356D02*
X6767306Y-10759644D01*
X6696594Y-10759644D01*
X6696594Y-10830356D01*
X6767306Y-10830356D01*
X6767306Y-11084356D02*
X6767306Y-11013644D01*
X6696594Y-11013644D01*
X6696594Y-11084356D01*
X6767306Y-11084356D01*
X7021306Y-10830356D02*
X7021306Y-10759644D01*
X6950594Y-10759644D01*
X6950594Y-10830356D01*
X7021306Y-10830356D01*
X7021306Y-11084356D02*
X7021306Y-11013644D01*
X6950594Y-11013644D01*
X6950594Y-11084356D01*
X7021306Y-11084356D01*
X7275306Y-10830356D02*
X7275306Y-10759644D01*
X7204594Y-10759644D01*
X7204594Y-10830356D01*
X7275306Y-10830356D01*
X7275306Y-11084356D02*
X7275306Y-11013644D01*
X7204594Y-11013644D01*
X7204594Y-11084356D01*
X7275306Y-11084356D01*
X7529306Y-10830356D02*
X7529306Y-10759644D01*
X7458594Y-10759644D01*
X7458594Y-10830356D01*
X7529306Y-10830356D01*
X7529306Y-11084356D02*
X7529306Y-11013644D01*
X7458594Y-11013644D01*
X7458594Y-11084356D01*
X7529306Y-11084356D01*
X7783306Y-10830356D02*
X7783306Y-10759644D01*
X7712594Y-10759644D01*
X7712594Y-10830356D01*
X7783306Y-10830356D01*
X7783306Y-11084356D02*
X7783306Y-11013644D01*
X7712594Y-11013644D01*
X7712594Y-11084356D01*
X7783306Y-11084356D01*
X8037306Y-10830356D02*
X8037306Y-10759644D01*
X7966594Y-10759644D01*
X7966594Y-10830356D01*
X8037306Y-10830356D01*
X8037306Y-11084356D02*
X8037306Y-11013644D01*
X7966594Y-11013644D01*
X7966594Y-11084356D01*
X8037306Y-11084356D01*
X8291306Y-10830356D02*
X8291306Y-10759644D01*
X8220594Y-10759644D01*
X8220594Y-10830356D01*
X8291306Y-10830356D01*
X8291306Y-11084356D02*
X8291306Y-11013644D01*
X8220594Y-11013644D01*
X8220594Y-11084356D01*
X8291306Y-11084356D01*
X8545306Y-10830356D02*
X8545306Y-10759644D01*
X8474594Y-10759644D01*
X8474594Y-10830356D01*
X8545306Y-10830356D01*
X8545306Y-11084356D02*
X8545306Y-11013644D01*
X8474594Y-11013644D01*
X8474594Y-11084356D01*
X8545306Y-11084356D01*
X8799306Y-10830356D02*
X8799306Y-10759644D01*
X8728594Y-10759644D01*
X8728594Y-10830356D01*
X8799306Y-10830356D01*
X8799306Y-11084356D02*
X8799306Y-11013644D01*
X8728594Y-11013644D01*
X8728594Y-11084356D01*
X8799306Y-11084356D01*
X9053306Y-10830356D02*
X9053306Y-10759644D01*
X8982594Y-10759644D01*
X8982594Y-10830356D01*
X9053306Y-10830356D01*
X9053306Y-11084356D02*
X9053306Y-11013644D01*
X8982594Y-11013644D01*
X8982594Y-11084356D01*
X9053306Y-11084356D01*
X9307306Y-10830356D02*
X9307306Y-10759644D01*
X9236594Y-10759644D01*
X9236594Y-10830356D01*
X9307306Y-10830356D01*
X9307306Y-11084356D02*
X9307306Y-11013644D01*
X9236594Y-11013644D01*
X9236594Y-11084356D01*
X9307306Y-11084356D01*
X9561306Y-10830356D02*
X9561306Y-10759644D01*
X9490594Y-10759644D01*
X9490594Y-10830356D01*
X9561306Y-10830356D01*
X9561306Y-11084356D02*
X9561306Y-11013644D01*
X9490594Y-11013644D01*
X9490594Y-11084356D01*
X9561306Y-11084356D01*
X9815306Y-10830356D02*
X9815306Y-10759644D01*
X9744594Y-10759644D01*
X9744594Y-10830356D01*
X9815306Y-10830356D01*
X9815306Y-11084356D02*
X9815306Y-11013644D01*
X9744594Y-11013644D01*
X9744594Y-11084356D01*
X9815306Y-11084356D01*
X10735156Y-5051856D02*
X10735156Y-4981144D01*
X10664444Y-4981144D01*
X10664444Y-5051856D01*
X10735156Y-5051856D01*
X10735156Y-5305856D02*
X10735156Y-5235144D01*
X10664444Y-5235144D01*
X10664444Y-5305856D01*
X10735156Y-5305856D01*
X10989156Y-5051856D02*
X10989156Y-4981144D01*
X10918444Y-4981144D01*
X10918444Y-5051856D01*
X10989156Y-5051856D01*
X10989156Y-5305856D02*
X10989156Y-5235144D01*
X10918444Y-5235144D01*
X10918444Y-5305856D01*
X10989156Y-5305856D01*
X11243156Y-5051856D02*
X11243156Y-4981144D01*
X11172444Y-4981144D01*
X11172444Y-5051856D01*
X11243156Y-5051856D01*
X11243156Y-5305856D02*
X11243156Y-5235144D01*
X11172444Y-5235144D01*
X11172444Y-5305856D01*
X11243156Y-5305856D01*
X11497156Y-5051856D02*
X11497156Y-4981144D01*
X11426444Y-4981144D01*
X11426444Y-5051856D01*
X11497156Y-5051856D01*
X11497156Y-5305856D02*
X11497156Y-5235144D01*
X11426444Y-5235144D01*
X11426444Y-5305856D01*
X11497156Y-5305856D01*
X11751156Y-5051856D02*
X11751156Y-4981144D01*
X11680444Y-4981144D01*
X11680444Y-5051856D01*
X11751156Y-5051856D01*
X11751156Y-5305856D02*
X11751156Y-5235144D01*
X11680444Y-5235144D01*
X11680444Y-5305856D01*
X11751156Y-5305856D01*
X12005156Y-5051856D02*
X12005156Y-4981144D01*
X11934444Y-4981144D01*
X11934444Y-5051856D01*
X12005156Y-5051856D01*
X12005156Y-5305856D02*
X12005156Y-5235144D01*
X11934444Y-5235144D01*
X11934444Y-5305856D01*
X12005156Y-5305856D01*
X12259156Y-5051856D02*
X12259156Y-4981144D01*
X12188444Y-4981144D01*
X12188444Y-5051856D01*
X12259156Y-5051856D01*
X12259156Y-5305856D02*
X12259156Y-5235144D01*
X12188444Y-5235144D01*
X12188444Y-5305856D01*
X12259156Y-5305856D01*
X12513156Y-5051856D02*
X12513156Y-4981144D01*
X12442444Y-4981144D01*
X12442444Y-5051856D01*
X12513156Y-5051856D01*
X12513156Y-5305856D02*
X12513156Y-5235144D01*
X12442444Y-5235144D01*
X12442444Y-5305856D01*
X12513156Y-5305856D01*
X9763556Y-11719356D02*
X9763556Y-11648644D01*
X9692844Y-11648644D01*
X9692844Y-11719356D01*
X9763556Y-11719356D01*
X10017556Y-11719356D02*
X10017556Y-11648644D01*
X9946844Y-11648644D01*
X9946844Y-11719356D01*
X10017556Y-11719356D01*
X10271556Y-11719356D02*
X10271556Y-11648644D01*
X10200844Y-11648644D01*
X10200844Y-11719356D01*
X10271556Y-11719356D01*
X10525556Y-11719356D02*
X10525556Y-11648644D01*
X10454844Y-11648644D01*
X10454844Y-11719356D01*
X10525556Y-11719356D01*
X10779556Y-11719356D02*
X10779556Y-11648644D01*
X10708844Y-11648644D01*
X10708844Y-11719356D01*
X10779556Y-11719356D01*
X11033556Y-11719356D02*
X11033556Y-11648644D01*
X10962844Y-11648644D01*
X10962844Y-11719356D01*
X11033556Y-11719356D01*
X13059206Y-9319056D02*
X13059206Y-9248344D01*
X12988494Y-9248344D01*
X12988494Y-9319056D01*
X13059206Y-9319056D01*
X13313206Y-9319056D02*
X13313206Y-9248344D01*
X13242494Y-9248344D01*
X13242494Y-9319056D01*
X13313206Y-9319056D01*
X13567206Y-9319056D02*
X13567206Y-9248344D01*
X13496494Y-9248344D01*
X13496494Y-9319056D01*
X13567206Y-9319056D01*
X13821206Y-9319056D02*
X13821206Y-9248344D01*
X13750494Y-9248344D01*
X13750494Y-9319056D01*
X13821206Y-9319056D01*
X4735306Y-10830356D02*
X4735306Y-10759644D01*
X4664594Y-10759644D01*
X4664594Y-10830356D01*
X4735306Y-10830356D01*
X4735306Y-11084356D02*
X4735306Y-11013644D01*
X4664594Y-11013644D01*
X4664594Y-11084356D01*
X4735306Y-11084356D01*
X9255556Y-6893356D02*
X9255556Y-6822644D01*
X9184844Y-6822644D01*
X9184844Y-6893356D01*
X9255556Y-6893356D01*
X9509556Y-6893356D02*
X9509556Y-6822644D01*
X9438844Y-6822644D01*
X9438844Y-6893356D01*
X9509556Y-6893356D01*
X9763556Y-6893356D02*
X9763556Y-6822644D01*
X9692844Y-6822644D01*
X9692844Y-6893356D01*
X9763556Y-6893356D01*
X10017556Y-6893356D02*
X10017556Y-6822644D01*
X9946844Y-6822644D01*
X9946844Y-6893356D01*
X10017556Y-6893356D01*
X10271556Y-6893356D02*
X10271556Y-6822644D01*
X10200844Y-6822644D01*
X10200844Y-6893356D01*
X10271556Y-6893356D01*
X10525556Y-6893356D02*
X10525556Y-6822644D01*
X10454844Y-6822644D01*
X10454844Y-6893356D01*
X10525556Y-6893356D01*
X10779556Y-6893356D02*
X10779556Y-6822644D01*
X10708844Y-6822644D01*
X10708844Y-6893356D01*
X10779556Y-6893356D01*
X11033556Y-6893356D02*
X11033556Y-6822644D01*
X10962844Y-6822644D01*
X10962844Y-6893356D01*
X11033556Y-6893356D01*
X13052806Y-9846106D02*
X13052806Y-9775394D01*
X12982094Y-9775394D01*
X12982094Y-9846106D01*
X13052806Y-9846106D01*
X13306806Y-9846106D02*
X13306806Y-9775394D01*
X13236094Y-9775394D01*
X13236094Y-9846106D01*
X13306806Y-9846106D01*
X13560806Y-9846106D02*
X13560806Y-9775394D01*
X13490094Y-9775394D01*
X13490094Y-9846106D01*
X13560806Y-9846106D01*
X13814806Y-9846106D02*
X13814806Y-9775394D01*
X13744094Y-9775394D01*
X13744094Y-9846106D01*
X13814806Y-9846106D01*
X6969556Y-6893356D02*
X6969556Y-6822644D01*
X6898844Y-6822644D01*
X6898844Y-6893356D01*
X6969556Y-6893356D01*
X7223556Y-6893356D02*
X7223556Y-6822644D01*
X7152844Y-6822644D01*
X7152844Y-6893356D01*
X7223556Y-6893356D01*
X7477556Y-6893356D02*
X7477556Y-6822644D01*
X7406844Y-6822644D01*
X7406844Y-6893356D01*
X7477556Y-6893356D01*
X7731556Y-6893356D02*
X7731556Y-6822644D01*
X7660844Y-6822644D01*
X7660844Y-6893356D01*
X7731556Y-6893356D01*
X7985556Y-6893356D02*
X7985556Y-6822644D01*
X7914844Y-6822644D01*
X7914844Y-6893356D01*
X7985556Y-6893356D01*
X8239556Y-6893356D02*
X8239556Y-6822644D01*
X8168844Y-6822644D01*
X8168844Y-6893356D01*
X8239556Y-6893356D01*
X8493556Y-6893356D02*
X8493556Y-6822644D01*
X8422844Y-6822644D01*
X8422844Y-6893356D01*
X8493556Y-6893356D01*
X8747556Y-6893356D02*
X8747556Y-6822644D01*
X8676844Y-6822644D01*
X8676844Y-6893356D01*
X8747556Y-6893356D01*
X5439206Y-12728956D02*
X5439206Y-12658244D01*
X5368494Y-12658244D01*
X5368494Y-12728956D01*
X5439206Y-12728956D01*
X5439206Y-12982956D02*
X5439206Y-12912244D01*
X5368494Y-12912244D01*
X5368494Y-12982956D01*
X5439206Y-12982956D01*
X11033556Y-8925356D02*
X11033556Y-8854644D01*
X10962844Y-8854644D01*
X10962844Y-8925356D01*
X11033556Y-8925356D01*
X11033556Y-9179356D02*
X11033556Y-9108644D01*
X10962844Y-9108644D01*
X10962844Y-9179356D01*
X11033556Y-9179356D01*
X11033556Y-9433356D02*
X11033556Y-9362644D01*
X10962844Y-9362644D01*
X10962844Y-9433356D01*
X11033556Y-9433356D01*
X11287556Y-8925356D02*
X11287556Y-8854644D01*
X11216844Y-8854644D01*
X11216844Y-8925356D01*
X11287556Y-8925356D01*
X11287556Y-9179356D02*
X11287556Y-9108644D01*
X11216844Y-9108644D01*
X11216844Y-9179356D01*
X11287556Y-9179356D01*
X11287556Y-9433356D02*
X11287556Y-9362644D01*
X11216844Y-9362644D01*
X11216844Y-9433356D01*
X11287556Y-9433356D01*
X803706Y-7331556D02*
X803706Y-7260844D01*
X732994Y-7260844D01*
X732994Y-7331556D01*
X803706Y-7331556D01*
X803706Y-7585556D02*
X803706Y-7514844D01*
X732994Y-7514844D01*
X732994Y-7585556D01*
X803706Y-7585556D01*
X803706Y-7839556D02*
X803706Y-7768844D01*
X732994Y-7768844D01*
X732994Y-7839556D01*
X803706Y-7839556D01*
X803706Y-8093556D02*
X803706Y-8022844D01*
X732994Y-8022844D01*
X732994Y-8093556D01*
X803706Y-8093556D01*
X803706Y-8347556D02*
X803706Y-8276844D01*
X732994Y-8276844D01*
X732994Y-8347556D01*
X803706Y-8347556D01*
X803706Y-8601556D02*
X803706Y-8530844D01*
X732994Y-8530844D01*
X732994Y-8601556D01*
X803706Y-8601556D01*
X803706Y-8855556D02*
X803706Y-8784844D01*
X732994Y-8784844D01*
X732994Y-8855556D01*
X803706Y-8855556D01*
X803706Y-9109556D02*
X803706Y-9038844D01*
X732994Y-9038844D01*
X732994Y-9109556D01*
X803706Y-9109556D01*
X803706Y-9363556D02*
X803706Y-9292844D01*
X732994Y-9292844D01*
X732994Y-9363556D01*
X803706Y-9363556D01*
X803706Y-9617556D02*
X803706Y-9546844D01*
X732994Y-9546844D01*
X732994Y-9617556D01*
X803706Y-9617556D01*
X803706Y-9871556D02*
X803706Y-9800844D01*
X732994Y-9800844D01*
X732994Y-9871556D01*
X803706Y-9871556D01*
X803706Y-10125556D02*
X803706Y-10054844D01*
X732994Y-10054844D01*
X732994Y-10125556D01*
X803706Y-10125556D01*
X1057706Y-7331556D02*
X1057706Y-7260844D01*
X986994Y-7260844D01*
X986994Y-7331556D01*
X1057706Y-7331556D01*
X1057706Y-7585556D02*
X1057706Y-7514844D01*
X986994Y-7514844D01*
X986994Y-7585556D01*
X1057706Y-7585556D01*
X1057706Y-7839556D02*
X1057706Y-7768844D01*
X986994Y-7768844D01*
X986994Y-7839556D01*
X1057706Y-7839556D01*
X1057706Y-8093556D02*
X1057706Y-8022844D01*
X986994Y-8022844D01*
X986994Y-8093556D01*
X1057706Y-8093556D01*
X1057706Y-8347556D02*
X1057706Y-8276844D01*
X986994Y-8276844D01*
X986994Y-8347556D01*
X1057706Y-8347556D01*
X1057706Y-8601556D02*
X1057706Y-8530844D01*
X986994Y-8530844D01*
X986994Y-8601556D01*
X1057706Y-8601556D01*
X1057706Y-8855556D02*
X1057706Y-8784844D01*
X986994Y-8784844D01*
X986994Y-8855556D01*
X1057706Y-8855556D01*
X1057706Y-9109556D02*
X1057706Y-9038844D01*
X986994Y-9038844D01*
X986994Y-9109556D01*
X1057706Y-9109556D01*
X1057706Y-9363556D02*
X1057706Y-9292844D01*
X986994Y-9292844D01*
X986994Y-9363556D01*
X1057706Y-9363556D01*
X1057706Y-9617556D02*
X1057706Y-9546844D01*
X986994Y-9546844D01*
X986994Y-9617556D01*
X1057706Y-9617556D01*
X1057706Y-9871556D02*
X1057706Y-9800844D01*
X986994Y-9800844D01*
X986994Y-9871556D01*
X1057706Y-9871556D01*
X1057706Y-10125556D02*
X1057706Y-10054844D01*
X986994Y-10054844D01*
X986994Y-10125556D01*
X1057706Y-10125556D01*
X6005306Y-7528356D02*
X6005306Y-7457644D01*
X5934594Y-7457644D01*
X5934594Y-7528356D01*
X6005306Y-7528356D01*
X6005306Y-7782356D02*
X6005306Y-7711644D01*
X5934594Y-7711644D01*
X5934594Y-7782356D01*
X6005306Y-7782356D01*
X6259306Y-7528356D02*
X6259306Y-7457644D01*
X6188594Y-7457644D01*
X6188594Y-7528356D01*
X6259306Y-7528356D01*
X6259306Y-7782356D02*
X6259306Y-7711644D01*
X6188594Y-7711644D01*
X6188594Y-7782356D01*
X6259306Y-7782356D01*
X6513306Y-7528356D02*
X6513306Y-7457644D01*
X6442594Y-7457644D01*
X6442594Y-7528356D01*
X6513306Y-7528356D01*
X6513306Y-7782356D02*
X6513306Y-7711644D01*
X6442594Y-7711644D01*
X6442594Y-7782356D01*
X6513306Y-7782356D01*
X6767306Y-7528356D02*
X6767306Y-7457644D01*
X6696594Y-7457644D01*
X6696594Y-7528356D01*
X6767306Y-7528356D01*
X6767306Y-7782356D02*
X6767306Y-7711644D01*
X6696594Y-7711644D01*
X6696594Y-7782356D01*
X6767306Y-7782356D01*
X7021306Y-7528356D02*
X7021306Y-7457644D01*
X6950594Y-7457644D01*
X6950594Y-7528356D01*
X7021306Y-7528356D01*
X7021306Y-7782356D02*
X7021306Y-7711644D01*
X6950594Y-7711644D01*
X6950594Y-7782356D01*
X7021306Y-7782356D01*
X7275306Y-7528356D02*
X7275306Y-7457644D01*
X7204594Y-7457644D01*
X7204594Y-7528356D01*
X7275306Y-7528356D01*
X7275306Y-7782356D02*
X7275306Y-7711644D01*
X7204594Y-7711644D01*
X7204594Y-7782356D01*
X7275306Y-7782356D01*
X7529306Y-7528356D02*
X7529306Y-7457644D01*
X7458594Y-7457644D01*
X7458594Y-7528356D01*
X7529306Y-7528356D01*
X7529306Y-7782356D02*
X7529306Y-7711644D01*
X7458594Y-7711644D01*
X7458594Y-7782356D01*
X7529306Y-7782356D01*
X7783306Y-7528356D02*
X7783306Y-7457644D01*
X7712594Y-7457644D01*
X7712594Y-7528356D01*
X7783306Y-7528356D01*
X7783306Y-7782356D02*
X7783306Y-7711644D01*
X7712594Y-7711644D01*
X7712594Y-7782356D01*
X7783306Y-7782356D01*
X8037306Y-7528356D02*
X8037306Y-7457644D01*
X7966594Y-7457644D01*
X7966594Y-7528356D01*
X8037306Y-7528356D01*
X8037306Y-7782356D02*
X8037306Y-7711644D01*
X7966594Y-7711644D01*
X7966594Y-7782356D01*
X8037306Y-7782356D01*
X8291306Y-7528356D02*
X8291306Y-7457644D01*
X8220594Y-7457644D01*
X8220594Y-7528356D01*
X8291306Y-7528356D01*
X8291306Y-7782356D02*
X8291306Y-7711644D01*
X8220594Y-7711644D01*
X8220594Y-7782356D01*
X8291306Y-7782356D01*
X8545306Y-7528356D02*
X8545306Y-7457644D01*
X8474594Y-7457644D01*
X8474594Y-7528356D01*
X8545306Y-7528356D01*
X8545306Y-7782356D02*
X8545306Y-7711644D01*
X8474594Y-7711644D01*
X8474594Y-7782356D01*
X8545306Y-7782356D01*
X8799306Y-7528356D02*
X8799306Y-7457644D01*
X8728594Y-7457644D01*
X8728594Y-7528356D01*
X8799306Y-7528356D01*
X8799306Y-7782356D02*
X8799306Y-7711644D01*
X8728594Y-7711644D01*
X8728594Y-7782356D01*
X8799306Y-7782356D01*
X9053306Y-7528356D02*
X9053306Y-7457644D01*
X8982594Y-7457644D01*
X8982594Y-7528356D01*
X9053306Y-7528356D01*
X9053306Y-7782356D02*
X9053306Y-7711644D01*
X8982594Y-7711644D01*
X8982594Y-7782356D01*
X9053306Y-7782356D01*
X9307306Y-7528356D02*
X9307306Y-7457644D01*
X9236594Y-7457644D01*
X9236594Y-7528356D01*
X9307306Y-7528356D01*
X9307306Y-7782356D02*
X9307306Y-7711644D01*
X9236594Y-7711644D01*
X9236594Y-7782356D01*
X9307306Y-7782356D01*
X9561306Y-7528356D02*
X9561306Y-7457644D01*
X9490594Y-7457644D01*
X9490594Y-7528356D01*
X9561306Y-7528356D01*
X9561306Y-7782356D02*
X9561306Y-7711644D01*
X9490594Y-7711644D01*
X9490594Y-7782356D01*
X9561306Y-7782356D01*
X9815306Y-7528356D02*
X9815306Y-7457644D01*
X9744594Y-7457644D01*
X9744594Y-7528356D01*
X9815306Y-7528356D01*
X9815306Y-7782356D02*
X9815306Y-7711644D01*
X9744594Y-7711644D01*
X9744594Y-7782356D01*
X9815306Y-7782356D01*
X7985556Y-11719356D02*
X7985556Y-11648644D01*
X7914844Y-11648644D01*
X7914844Y-11719356D01*
X7985556Y-11719356D01*
X8239556Y-11719356D02*
X8239556Y-11648644D01*
X8168844Y-11648644D01*
X8168844Y-11719356D01*
X8239556Y-11719356D01*
X8493556Y-11719356D02*
X8493556Y-11648644D01*
X8422844Y-11648644D01*
X8422844Y-11719356D01*
X8493556Y-11719356D01*
X8747556Y-11719356D02*
X8747556Y-11648644D01*
X8676844Y-11648644D01*
X8676844Y-11719356D01*
X8747556Y-11719356D01*
X9001556Y-11719356D02*
X9001556Y-11648644D01*
X8930844Y-11648644D01*
X8930844Y-11719356D01*
X9001556Y-11719356D01*
X9255556Y-11719356D02*
X9255556Y-11648644D01*
X9184844Y-11648644D01*
X9184844Y-11719356D01*
X9255556Y-11719356D01*
X2422956Y-12557556D02*
X2422956Y-12486844D01*
X2352244Y-12486844D01*
X2352244Y-12557556D01*
X2422956Y-12557556D01*
X2422956Y-12811556D02*
X2422956Y-12740844D01*
X2352244Y-12740844D01*
X2352244Y-12811556D01*
X2422956Y-12811556D01*
X2676956Y-12557556D02*
X2676956Y-12486844D01*
X2606244Y-12486844D01*
X2606244Y-12557556D01*
X2676956Y-12557556D01*
X2676956Y-12811556D02*
X2676956Y-12740844D01*
X2606244Y-12740844D01*
X2606244Y-12811556D01*
X2676956Y-12811556D01*
X2930956Y-12557556D02*
X2930956Y-12486844D01*
X2860244Y-12486844D01*
X2860244Y-12557556D01*
X2930956Y-12557556D01*
X2930956Y-12811556D02*
X2930956Y-12740844D01*
X2860244Y-12740844D01*
X2860244Y-12811556D01*
X2930956Y-12811556D01*
X3184956Y-12557556D02*
X3184956Y-12486844D01*
X3114244Y-12486844D01*
X3114244Y-12557556D01*
X3184956Y-12557556D01*
X3184956Y-12811556D02*
X3184956Y-12740844D01*
X3114244Y-12740844D01*
X3114244Y-12811556D01*
X3184956Y-12811556D01*
X3438956Y-12557556D02*
X3438956Y-12486844D01*
X3368244Y-12486844D01*
X3368244Y-12557556D01*
X3438956Y-12557556D01*
X3438956Y-12811556D02*
X3438956Y-12740844D01*
X3368244Y-12740844D01*
X3368244Y-12811556D01*
X3438956Y-12811556D01*
X9561306Y-9306356D02*
X9561306Y-9235644D01*
X9490594Y-9235644D01*
X9490594Y-9306356D01*
X9561306Y-9306356D01*
X9561306Y-9560356D02*
X9561306Y-9489644D01*
X9490594Y-9489644D01*
X9490594Y-9560356D01*
X9561306Y-9560356D01*
X9561306Y-9814356D02*
X9561306Y-9743644D01*
X9490594Y-9743644D01*
X9490594Y-9814356D01*
X9561306Y-9814356D01*
X9815306Y-9306356D02*
X9815306Y-9235644D01*
X9744594Y-9235644D01*
X9744594Y-9306356D01*
X9815306Y-9306356D01*
X9815306Y-9560356D02*
X9815306Y-9489644D01*
X9744594Y-9489644D01*
X9744594Y-9560356D01*
X9815306Y-9560356D01*
X9815306Y-9814356D02*
X9815306Y-9743644D01*
X9744594Y-9743644D01*
X9744594Y-9814356D01*
X9815306Y-9814356D01*
X5461000Y-2341000D02*
X5516000Y-2286000D01*
X5461000Y-2231000D01*
X5406000Y-2286000D01*
X5461000Y-2341000D01*
X5461000Y-2595000D02*
X5516000Y-2540000D01*
X5461000Y-2485000D01*
X5406000Y-2540000D01*
X5461000Y-2595000D01*
X5461000Y-2849000D02*
X5516000Y-2794000D01*
X5461000Y-2739000D01*
X5406000Y-2794000D01*
X5461000Y-2849000D01*
X1530350Y-6151000D02*
X1585350Y-6096000D01*
X1530350Y-6041000D01*
X1475350Y-6096000D01*
X1530350Y-6151000D01*
X1784350Y-6151000D02*
X1839350Y-6096000D01*
X1784350Y-6041000D01*
X1729350Y-6096000D01*
X1784350Y-6151000D01*
X2038350Y-6151000D02*
X2093350Y-6096000D01*
X2038350Y-6041000D01*
X1983350Y-6096000D01*
X2038350Y-6151000D01*
X6807200Y-2341000D02*
X6862200Y-2286000D01*
X6807200Y-2231000D01*
X6752200Y-2286000D01*
X6807200Y-2341000D01*
X6807200Y-2595000D02*
X6862200Y-2540000D01*
X6807200Y-2485000D01*
X6752200Y-2540000D01*
X6807200Y-2595000D01*
X6807200Y-2849000D02*
X6862200Y-2794000D01*
X6807200Y-2739000D01*
X6752200Y-2794000D01*
X6807200Y-2849000D01*
X15557500Y-12069200D02*
X15612500Y-12014200D01*
X15557500Y-11959200D01*
X15502500Y-12014200D01*
X15557500Y-12069200D01*
X15811500Y-12069200D02*
X15866500Y-12014200D01*
X15811500Y-11959200D01*
X15756500Y-12014200D01*
X15811500Y-12069200D01*
X16065500Y-12069200D02*
X16120500Y-12014200D01*
X16065500Y-11959200D01*
X16010500Y-12014200D01*
X16065500Y-12069200D01*
X8940800Y-2341000D02*
X8995800Y-2286000D01*
X8940800Y-2231000D01*
X8885800Y-2286000D01*
X8940800Y-2341000D01*
X8940800Y-2595000D02*
X8995800Y-2540000D01*
X8940800Y-2485000D01*
X8885800Y-2540000D01*
X8940800Y-2595000D01*
X8940800Y-2849000D02*
X8995800Y-2794000D01*
X8940800Y-2739000D01*
X8885800Y-2794000D01*
X8940800Y-2849000D01*
X1447800Y-3788800D02*
X1502800Y-3733800D01*
X1447800Y-3678800D01*
X1392800Y-3733800D01*
X1447800Y-3788800D01*
X1701800Y-3788800D02*
X1756800Y-3733800D01*
X1701800Y-3678800D01*
X1646800Y-3733800D01*
X1701800Y-3788800D01*
X1955800Y-3788800D02*
X2010800Y-3733800D01*
X1955800Y-3678800D01*
X1900800Y-3733800D01*
X1955800Y-3788800D01*
X4038600Y-2341000D02*
X4093600Y-2286000D01*
X4038600Y-2231000D01*
X3983600Y-2286000D01*
X4038600Y-2341000D01*
X4038600Y-2595000D02*
X4093600Y-2540000D01*
X4038600Y-2485000D01*
X3983600Y-2540000D01*
X4038600Y-2595000D01*
X4038600Y-2849000D02*
X4093600Y-2794000D01*
X4038600Y-2739000D01*
X3983600Y-2794000D01*
X4038600Y-2849000D01*
X8763000Y-3839600D02*
X8818000Y-3784600D01*
X8763000Y-3729600D01*
X8708000Y-3784600D01*
X8763000Y-3839600D01*
X9017000Y-3839600D02*
X9072000Y-3784600D01*
X9017000Y-3729600D01*
X8962000Y-3784600D01*
X9017000Y-3839600D01*
X9271000Y-3839600D02*
X9326000Y-3784600D01*
X9271000Y-3729600D01*
X9216000Y-3784600D01*
X9271000Y-3839600D01*
X584200Y-2341000D02*
X639200Y-2286000D01*
X584200Y-2231000D01*
X529200Y-2286000D01*
X584200Y-2341000D01*
X584200Y-2595000D02*
X639200Y-2540000D01*
X584200Y-2485000D01*
X529200Y-2540000D01*
X584200Y-2595000D01*
X584200Y-2849000D02*
X639200Y-2794000D01*
X584200Y-2739000D01*
X529200Y-2794000D01*
X584200Y-2849000D01*
X15576600Y-10488000D02*
X15631600Y-10433000D01*
X15576600Y-10378000D01*
X15521600Y-10433000D01*
X15576600Y-10488000D01*
X15830600Y-10488000D02*
X15885600Y-10433000D01*
X15830600Y-10378000D01*
X15775600Y-10433000D01*
X15830600Y-10488000D01*
X16084600Y-10488000D02*
X16139600Y-10433000D01*
X16084600Y-10378000D01*
X16029600Y-10433000D01*
X16084600Y-10488000D01*
X3784600Y-3839600D02*
X3839600Y-3784600D01*
X3784600Y-3729600D01*
X3729600Y-3784600D01*
X3784600Y-3839600D01*
X4038600Y-3839600D02*
X4093600Y-3784600D01*
X4038600Y-3729600D01*
X3983600Y-3784600D01*
X4038600Y-3839600D01*
X4292600Y-3839600D02*
X4347600Y-3784600D01*
X4292600Y-3729600D01*
X4237600Y-3784600D01*
X4292600Y-3839600D01*
X5759450Y-5268350D02*
X5814450Y-5213350D01*
X5759450Y-5158350D01*
X5704450Y-5213350D01*
X5759450Y-5268350D01*
X5759450Y-5522350D02*
X5814450Y-5467350D01*
X5759450Y-5412350D01*
X5704450Y-5467350D01*
X5759450Y-5522350D01*
X5759450Y-5776350D02*
X5814450Y-5721350D01*
X5759450Y-5666350D01*
X5704450Y-5721350D01*
X5759450Y-5776350D01*
X1930400Y-2341000D02*
X1985400Y-2286000D01*
X1930400Y-2231000D01*
X1875400Y-2286000D01*
X1930400Y-2341000D01*
X1930400Y-2595000D02*
X1985400Y-2540000D01*
X1930400Y-2485000D01*
X1875400Y-2540000D01*
X1930400Y-2595000D01*
X1930400Y-2849000D02*
X1985400Y-2794000D01*
X1930400Y-2739000D01*
X1875400Y-2794000D01*
X1930400Y-2849000D01*
X3003550Y-2347350D02*
X3058550Y-2292350D01*
X3003550Y-2237350D01*
X2948550Y-2292350D01*
X3003550Y-2347350D01*
X3003550Y-2601350D02*
X3058550Y-2546350D01*
X3003550Y-2491350D01*
X2948550Y-2546350D01*
X3003550Y-2601350D01*
X3003550Y-2855350D02*
X3058550Y-2800350D01*
X3003550Y-2745350D01*
X2948550Y-2800350D01*
X3003550Y-2855350D01*
X8153400Y-5242950D02*
X8208400Y-5187950D01*
X8153400Y-5132950D01*
X8098400Y-5187950D01*
X8153400Y-5242950D01*
X8153400Y-5496950D02*
X8208400Y-5441950D01*
X8153400Y-5386950D01*
X8098400Y-5441950D01*
X8153400Y-5496950D01*
X8153400Y-5750950D02*
X8208400Y-5695950D01*
X8153400Y-5640950D01*
X8098400Y-5695950D01*
X8153400Y-5750950D01*
X5384800Y-3839600D02*
X5439800Y-3784600D01*
X5384800Y-3729600D01*
X5329800Y-3784600D01*
X5384800Y-3839600D01*
X5638800Y-3839600D02*
X5693800Y-3784600D01*
X5638800Y-3729600D01*
X5583800Y-3784600D01*
X5638800Y-3839600D01*
X5892800Y-3839600D02*
X5947800Y-3784600D01*
X5892800Y-3729600D01*
X5837800Y-3784600D01*
X5892800Y-3839600D01*
X13963600Y-5877950D02*
X14018600Y-5822950D01*
X13963600Y-5767950D01*
X13908600Y-5822950D01*
X13963600Y-5877950D01*
X13963600Y-6131950D02*
X14018600Y-6076950D01*
X13963600Y-6021950D01*
X13908600Y-6076950D01*
X13963600Y-6131950D01*
X13963600Y-6385950D02*
X14018600Y-6330950D01*
X13963600Y-6275950D01*
X13908600Y-6330950D01*
X13963600Y-6385950D01*
X13951000Y-6976500D02*
X14006000Y-6921500D01*
X13951000Y-6866500D01*
X13896000Y-6921500D01*
X13951000Y-6976500D01*
X13951000Y-7230500D02*
X14006000Y-7175500D01*
X13951000Y-7120500D01*
X13896000Y-7175500D01*
X13951000Y-7230500D01*
X13951000Y-7484500D02*
X14006000Y-7429500D01*
X13951000Y-7374500D01*
X13896000Y-7429500D01*
X13951000Y-7484500D01*
X15570200Y-8951350D02*
X15625200Y-8896350D01*
X15570200Y-8841350D01*
X15515200Y-8896350D01*
X15570200Y-8951350D01*
X15824200Y-8951350D02*
X15879200Y-8896350D01*
X15824200Y-8841350D01*
X15769200Y-8896350D01*
X15824200Y-8951350D01*
X16078200Y-8951350D02*
X16133200Y-8896350D01*
X16078200Y-8841350D01*
X16023200Y-8896350D01*
X16078200Y-8951350D01*
X7874000Y-2341000D02*
X7929000Y-2286000D01*
X7874000Y-2231000D01*
X7819000Y-2286000D01*
X7874000Y-2341000D01*
X7874000Y-2595000D02*
X7929000Y-2540000D01*
X7874000Y-2485000D01*
X7819000Y-2540000D01*
X7874000Y-2595000D01*
X7874000Y-2849000D02*
X7929000Y-2794000D01*
X7874000Y-2739000D01*
X7819000Y-2794000D01*
X7874000Y-2849000D01*
X12177600Y-2377400D02*
X12299600Y-2499400D01*
X12299600Y-2377400D02*
X12177600Y-2499400D01*
X12299600Y-2438400D02*
G75*
G03X12299600Y-2438400I-61000J0D01*
G01*
X12177600Y-2758400D02*
X12299600Y-2880400D01*
X12299600Y-2758400D02*
X12177600Y-2880400D01*
X12299600Y-2819400D02*
G75*
G03X12299600Y-2819400I-61000J0D01*
G01*
X12177600Y-3139400D02*
X12299600Y-3261400D01*
X12299600Y-3139400D02*
X12177600Y-3261400D01*
X12299600Y-3200400D02*
G75*
G03X12299600Y-3200400I-61000J0D01*
G01*
X12177600Y-3520400D02*
X12299600Y-3642400D01*
X12299600Y-3520400D02*
X12177600Y-3642400D01*
X12299600Y-3581400D02*
G75*
G03X12299600Y-3581400I-61000J0D01*
G01*
X16876800Y-9650500D02*
X17006800Y-9780500D01*
X17006800Y-9650500D02*
X16876800Y-9780500D01*
X16941800Y-9650500D02*
X16941800Y-9780500D01*
X16876800Y-9715500D02*
X17006800Y-9715500D01*
X16876800Y-10150500D02*
X17006800Y-10280500D01*
X17006800Y-10150500D02*
X16876800Y-10280500D01*
X16941800Y-10150500D02*
X16941800Y-10280500D01*
X16876800Y-10215500D02*
X17006800Y-10215500D01*
X16851400Y-4792750D02*
X16981400Y-4922750D01*
X16981400Y-4792750D02*
X16851400Y-4922750D01*
X16916400Y-4792750D02*
X16916400Y-4922750D01*
X16851400Y-4857750D02*
X16981400Y-4857750D01*
X16851400Y-5292750D02*
X16981400Y-5422750D01*
X16981400Y-5292750D02*
X16851400Y-5422750D01*
X16916400Y-5292750D02*
X16916400Y-5422750D01*
X16851400Y-5357750D02*
X16981400Y-5357750D01*
X16851400Y-5973850D02*
X16981400Y-6103850D01*
X16981400Y-5973850D02*
X16851400Y-6103850D01*
X16916400Y-5973850D02*
X16916400Y-6103850D01*
X16851400Y-6038850D02*
X16981400Y-6038850D01*
X16851400Y-6473850D02*
X16981400Y-6603850D01*
X16981400Y-6473850D02*
X16851400Y-6603850D01*
X16916400Y-6473850D02*
X16916400Y-6603850D01*
X16851400Y-6538850D02*
X16981400Y-6538850D01*
X16724400Y-2792500D02*
X16854400Y-2922500D01*
X16854400Y-2792500D02*
X16724400Y-2922500D01*
X16789400Y-2792500D02*
X16789400Y-2922500D01*
X16724400Y-2857500D02*
X16854400Y-2857500D01*
X16724400Y-3292500D02*
X16854400Y-3422500D01*
X16854400Y-3292500D02*
X16724400Y-3422500D01*
X16789400Y-3292500D02*
X16789400Y-3422500D01*
X16724400Y-3357500D02*
X16854400Y-3357500D01*
X16864100Y-11193600D02*
X16994100Y-11323600D01*
X16994100Y-11193600D02*
X16864100Y-11323600D01*
X16929100Y-11193600D02*
X16929100Y-11323600D01*
X16864100Y-11258600D02*
X16994100Y-11258600D01*
X16864100Y-11693600D02*
X16994100Y-11823600D01*
X16994100Y-11693600D02*
X16864100Y-11823600D01*
X16929100Y-11693600D02*
X16929100Y-11823600D01*
X16864100Y-11758600D02*
X16994100Y-11758600D01*
X16857800Y-8132850D02*
X16987800Y-8262850D01*
X16987800Y-8132850D02*
X16857800Y-8262850D01*
X16922800Y-8132850D02*
X16922800Y-8262850D01*
X16857800Y-8197850D02*
X16987800Y-8197850D01*
X16857800Y-8632850D02*
X16987800Y-8762850D01*
X16987800Y-8632850D02*
X16857800Y-8762850D01*
X16922800Y-8632850D02*
X16922800Y-8762850D01*
X16857800Y-8697850D02*
X16987800Y-8697850D01*
X12452500Y-12577800D02*
X12582500Y-12707800D01*
X12582500Y-12577800D02*
X12452500Y-12707800D01*
X12517500Y-12577800D02*
X12517500Y-12707800D01*
X12452500Y-12642800D02*
X12582500Y-12642800D01*
X12952500Y-12577800D02*
X13082500Y-12707800D01*
X13082500Y-12577800D02*
X12952500Y-12707800D01*
X13017500Y-12577800D02*
X13017500Y-12707800D01*
X12952500Y-12642800D02*
X13082500Y-12642800D01*
X1841700Y-825700D02*
X1993700Y-977700D01*
X1993700Y-825700D02*
X1841700Y-977700D01*
X1971441Y-955441D02*
X1971441Y-847959D01*
X1863959Y-847959D01*
X1863959Y-955441D01*
X1971441Y-955441D01*
X2603700Y-825700D02*
X2755700Y-977700D01*
X2755700Y-825700D02*
X2603700Y-977700D01*
X2733441Y-955441D02*
X2733441Y-847959D01*
X2625959Y-847959D01*
X2625959Y-955441D01*
X2733441Y-955441D01*
X3365700Y-825700D02*
X3517700Y-977700D01*
X3517700Y-825700D02*
X3365700Y-977700D01*
X3495441Y-955441D02*
X3495441Y-847959D01*
X3387959Y-847959D01*
X3387959Y-955441D01*
X3495441Y-955441D01*
X4127700Y-825700D02*
X4279700Y-977700D01*
X4279700Y-825700D02*
X4127700Y-977700D01*
X4257441Y-955441D02*
X4257441Y-847959D01*
X4149959Y-847959D01*
X4149959Y-955441D01*
X4257441Y-955441D01*
X4889700Y-825700D02*
X5041700Y-977700D01*
X5041700Y-825700D02*
X4889700Y-977700D01*
X5019441Y-955441D02*
X5019441Y-847959D01*
X4911959Y-847959D01*
X4911959Y-955441D01*
X5019441Y-955441D01*
X5651700Y-825700D02*
X5803700Y-977700D01*
X5803700Y-825700D02*
X5651700Y-977700D01*
X5781441Y-955441D02*
X5781441Y-847959D01*
X5673959Y-847959D01*
X5673959Y-955441D01*
X5781441Y-955441D01*
X13868600Y-2527500D02*
X14020600Y-2679500D01*
X14020600Y-2527500D02*
X13868600Y-2679500D01*
X13998341Y-2657241D02*
X13998341Y-2549759D01*
X13890859Y-2549759D01*
X13890859Y-2657241D01*
X13998341Y-2657241D01*
X13868600Y-3289500D02*
X14020600Y-3441500D01*
X14020600Y-3289500D02*
X13868600Y-3441500D01*
X13998341Y-3419241D02*
X13998341Y-3311759D01*
X13890859Y-3311759D01*
X13890859Y-3419241D01*
X13998341Y-3419241D01*
X6718500Y-813000D02*
X6870500Y-965000D01*
X6870500Y-813000D02*
X6718500Y-965000D01*
X6848241Y-942741D02*
X6848241Y-835259D01*
X6740759Y-835259D01*
X6740759Y-942741D01*
X6848241Y-942741D01*
X7480500Y-813000D02*
X7632500Y-965000D01*
X7632500Y-813000D02*
X7480500Y-965000D01*
X7610241Y-942741D02*
X7610241Y-835259D01*
X7502759Y-835259D01*
X7502759Y-942741D01*
X7610241Y-942741D01*
X8242500Y-813000D02*
X8394500Y-965000D01*
X8394500Y-813000D02*
X8242500Y-965000D01*
X8372241Y-942741D02*
X8372241Y-835259D01*
X8264759Y-835259D01*
X8264759Y-942741D01*
X8372241Y-942741D01*
X9004500Y-813000D02*
X9156500Y-965000D01*
X9156500Y-813000D02*
X9004500Y-965000D01*
X9134241Y-942741D02*
X9134241Y-835259D01*
X9026759Y-835259D01*
X9026759Y-942741D01*
X9134241Y-942741D01*
X9766500Y-813000D02*
X9918500Y-965000D01*
X9918500Y-813000D02*
X9766500Y-965000D01*
X9896241Y-942741D02*
X9896241Y-835259D01*
X9788759Y-835259D01*
X9788759Y-942741D01*
X9896241Y-942741D01*
X10528500Y-813000D02*
X10680500Y-965000D01*
X10680500Y-813000D02*
X10528500Y-965000D01*
X10658241Y-942741D02*
X10658241Y-835259D01*
X10550759Y-835259D01*
X10550759Y-942741D01*
X10658241Y-942741D01*
X10541200Y-2438600D02*
X10693200Y-2590600D01*
X10693200Y-2438600D02*
X10541200Y-2590600D01*
X10670941Y-2568341D02*
X10670941Y-2460859D01*
X10563459Y-2460859D01*
X10563459Y-2568341D01*
X10670941Y-2568341D01*
X10541200Y-3200600D02*
X10693200Y-3352600D01*
X10693200Y-3200600D02*
X10541200Y-3352600D01*
X10670941Y-3330341D02*
X10670941Y-3222859D01*
X10563459Y-3222859D01*
X10563459Y-3330341D01*
X10670941Y-3330341D01*
X385000Y-385000D02*
X815000Y-815000D01*
X815000Y-385000D02*
X385000Y-815000D01*
X600000Y-815000D02*
X815000Y-600000D01*
X600000Y-385000D01*
X385000Y-600000D01*
X600000Y-815000D01*
D12*
X281428Y-13793014D02*
X281428Y-13493014D01*
X352857Y-13493014D01*
X395714Y-13507300D01*
X424286Y-13535871D01*
X438571Y-13564443D01*
X452857Y-13621586D01*
X452857Y-13664443D01*
X438571Y-13721586D01*
X424286Y-13750157D01*
X395714Y-13778729D01*
X352857Y-13793014D01*
X281428Y-13793014D01*
X581428Y-13793014D02*
X581428Y-13593014D01*
X581428Y-13650157D02*
X595714Y-13621586D01*
X610000Y-13607300D01*
X638571Y-13593014D01*
X667143Y-13593014D01*
X767143Y-13793014D02*
X767143Y-13593014D01*
X767143Y-13493014D02*
X752857Y-13507300D01*
X767143Y-13521586D01*
X781428Y-13507300D01*
X767143Y-13493014D01*
X767143Y-13521586D01*
X952857Y-13793014D02*
X924286Y-13778729D01*
X910000Y-13750157D01*
X910000Y-13493014D01*
X1110000Y-13793014D02*
X1081428Y-13778729D01*
X1067143Y-13750157D01*
X1067143Y-13493014D01*
X1452857Y-13793014D02*
X1452857Y-13493014D01*
X1552857Y-13707300D01*
X1652857Y-13493014D01*
X1652857Y-13793014D01*
X1924286Y-13793014D02*
X1924286Y-13635871D01*
X1910000Y-13607300D01*
X1881428Y-13593014D01*
X1824286Y-13593014D01*
X1795714Y-13607300D01*
X1924286Y-13778729D02*
X1895714Y-13793014D01*
X1824286Y-13793014D01*
X1795714Y-13778729D01*
X1781428Y-13750157D01*
X1781428Y-13721586D01*
X1795714Y-13693014D01*
X1824286Y-13678729D01*
X1895714Y-13678729D01*
X1924286Y-13664443D01*
X2067143Y-13593014D02*
X2067143Y-13893014D01*
X2067143Y-13607300D02*
X2095714Y-13593014D01*
X2152857Y-13593014D01*
X2181428Y-13607300D01*
X2195714Y-13621586D01*
X2210000Y-13650157D01*
X2210000Y-13735871D01*
X2195714Y-13764443D01*
X2181428Y-13778729D01*
X2152857Y-13793014D01*
X2095714Y-13793014D01*
X2067143Y-13778729D01*
X2338571Y-13764443D02*
X2352857Y-13778729D01*
X2338571Y-13793014D01*
X2324286Y-13778729D01*
X2338571Y-13764443D01*
X2338571Y-13793014D01*
X2338571Y-13607300D02*
X2352857Y-13621586D01*
X2338571Y-13635871D01*
X2324286Y-13621586D01*
X2338571Y-13607300D01*
X2338571Y-13635871D01*
X-45000Y-14267300D02*
X-5000Y-14307300D01*
X-5000Y-14267300D02*
X-45000Y-14307300D01*
X338571Y-14123014D02*
X367143Y-14123014D01*
X395714Y-14137300D01*
X410000Y-14151586D01*
X424286Y-14180157D01*
X438571Y-14237300D01*
X438571Y-14308729D01*
X424286Y-14365871D01*
X410000Y-14394443D01*
X395714Y-14408729D01*
X367143Y-14423014D01*
X338571Y-14423014D01*
X310000Y-14408729D01*
X295714Y-14394443D01*
X281428Y-14365871D01*
X267143Y-14308729D01*
X267143Y-14237300D01*
X281428Y-14180157D01*
X295714Y-14151586D01*
X310000Y-14137300D01*
X338571Y-14123014D01*
X567143Y-14394443D02*
X581428Y-14408729D01*
X567143Y-14423014D01*
X552857Y-14408729D01*
X567143Y-14394443D01*
X567143Y-14423014D01*
X838571Y-14223014D02*
X838571Y-14423014D01*
X767143Y-14108729D02*
X695714Y-14323014D01*
X881428Y-14323014D01*
X1052857Y-14123014D02*
X1081428Y-14123014D01*
X1110000Y-14137300D01*
X1124286Y-14151586D01*
X1138571Y-14180157D01*
X1152857Y-14237300D01*
X1152857Y-14308729D01*
X1138571Y-14365871D01*
X1124286Y-14394443D01*
X1110000Y-14408729D01*
X1081428Y-14423014D01*
X1052857Y-14423014D01*
X1024286Y-14408729D01*
X1010000Y-14394443D01*
X995714Y-14365871D01*
X981428Y-14308729D01*
X981428Y-14237300D01*
X995714Y-14180157D01*
X1010000Y-14151586D01*
X1024286Y-14137300D01*
X1052857Y-14123014D01*
X1281428Y-14423014D02*
X1281428Y-14223014D01*
X1281428Y-14251586D02*
X1295714Y-14237300D01*
X1324286Y-14223014D01*
X1367143Y-14223014D01*
X1395714Y-14237300D01*
X1410000Y-14265871D01*
X1410000Y-14423014D01*
X1410000Y-14265871D02*
X1424286Y-14237300D01*
X1452857Y-14223014D01*
X1495714Y-14223014D01*
X1524286Y-14237300D01*
X1538571Y-14265871D01*
X1538571Y-14423014D01*
X1681428Y-14423014D02*
X1681428Y-14223014D01*
X1681428Y-14251586D02*
X1695714Y-14237300D01*
X1724286Y-14223014D01*
X1767143Y-14223014D01*
X1795714Y-14237300D01*
X1810000Y-14265871D01*
X1810000Y-14423014D01*
X1810000Y-14265871D02*
X1824286Y-14237300D01*
X1852857Y-14223014D01*
X1895714Y-14223014D01*
X1924286Y-14237300D01*
X1938571Y-14265871D01*
X1938571Y-14423014D01*
X2524286Y-14108729D02*
X2267143Y-14494443D01*
X2910000Y-14123014D02*
X2938571Y-14123014D01*
X2967143Y-14137300D01*
X2981428Y-14151586D01*
X2995714Y-14180157D01*
X3010000Y-14237300D01*
X3010000Y-14308729D01*
X2995714Y-14365871D01*
X2981428Y-14394443D01*
X2967143Y-14408729D01*
X2938571Y-14423014D01*
X2910000Y-14423014D01*
X2881428Y-14408729D01*
X2867143Y-14394443D01*
X2852857Y-14365871D01*
X2838571Y-14308729D01*
X2838571Y-14237300D01*
X2852857Y-14180157D01*
X2867143Y-14151586D01*
X2881428Y-14137300D01*
X2910000Y-14123014D01*
X3138571Y-14394443D02*
X3152857Y-14408729D01*
X3138571Y-14423014D01*
X3124286Y-14408729D01*
X3138571Y-14394443D01*
X3138571Y-14423014D01*
X3338571Y-14123014D02*
X3367143Y-14123014D01*
X3395714Y-14137300D01*
X3410000Y-14151586D01*
X3424286Y-14180157D01*
X3438571Y-14237300D01*
X3438571Y-14308729D01*
X3424286Y-14365871D01*
X3410000Y-14394443D01*
X3395714Y-14408729D01*
X3367143Y-14423014D01*
X3338571Y-14423014D01*
X3310000Y-14408729D01*
X3295714Y-14394443D01*
X3281428Y-14365871D01*
X3267143Y-14308729D01*
X3267143Y-14237300D01*
X3281428Y-14180157D01*
X3295714Y-14151586D01*
X3310000Y-14137300D01*
X3338571Y-14123014D01*
X3724286Y-14423014D02*
X3552857Y-14423014D01*
X3638571Y-14423014D02*
X3638571Y-14123014D01*
X3610000Y-14165871D01*
X3581428Y-14194443D01*
X3552857Y-14208729D01*
X3981428Y-14123014D02*
X3924286Y-14123014D01*
X3895714Y-14137300D01*
X3881428Y-14151586D01*
X3852857Y-14194443D01*
X3838571Y-14251586D01*
X3838571Y-14365871D01*
X3852857Y-14394443D01*
X3867143Y-14408729D01*
X3895714Y-14423014D01*
X3952857Y-14423014D01*
X3981428Y-14408729D01*
X3995714Y-14394443D01*
X4010000Y-14365871D01*
X4010000Y-14294443D01*
X3995714Y-14265871D01*
X3981428Y-14251586D01*
X3952857Y-14237300D01*
X3895714Y-14237300D01*
X3867143Y-14251586D01*
X3852857Y-14265871D01*
X3838571Y-14294443D01*
X4124286Y-14123014D02*
X4124286Y-14180157D01*
X4238571Y-14123014D02*
X4238571Y-14180157D01*
X4681428Y-14537300D02*
X4667143Y-14523014D01*
X4638571Y-14480157D01*
X4624286Y-14451586D01*
X4610000Y-14408729D01*
X4595714Y-14337300D01*
X4595714Y-14280157D01*
X4610000Y-14208729D01*
X4624286Y-14165871D01*
X4638571Y-14137300D01*
X4667143Y-14094443D01*
X4681428Y-14080157D01*
X4781428Y-14151586D02*
X4795714Y-14137300D01*
X4824286Y-14123014D01*
X4895714Y-14123014D01*
X4924286Y-14137300D01*
X4938571Y-14151586D01*
X4952857Y-14180157D01*
X4952857Y-14208729D01*
X4938571Y-14251586D01*
X4767143Y-14423014D01*
X4952857Y-14423014D01*
X5224286Y-14123014D02*
X5081428Y-14123014D01*
X5067143Y-14265871D01*
X5081428Y-14251586D01*
X5110000Y-14237300D01*
X5181428Y-14237300D01*
X5210000Y-14251586D01*
X5224286Y-14265871D01*
X5238571Y-14294443D01*
X5238571Y-14365871D01*
X5224286Y-14394443D01*
X5210000Y-14408729D01*
X5181428Y-14423014D01*
X5110000Y-14423014D01*
X5081428Y-14408729D01*
X5067143Y-14394443D01*
X5495714Y-14223014D02*
X5495714Y-14423014D01*
X5424286Y-14108729D02*
X5352857Y-14323014D01*
X5538571Y-14323014D01*
X5881428Y-14423014D02*
X5881428Y-14123014D01*
X6010000Y-14423014D02*
X6010000Y-14265871D01*
X5995714Y-14237300D01*
X5967143Y-14223014D01*
X5924286Y-14223014D01*
X5895714Y-14237300D01*
X5881428Y-14251586D01*
X6195714Y-14423014D02*
X6167143Y-14408729D01*
X6152857Y-14394443D01*
X6138571Y-14365871D01*
X6138571Y-14280157D01*
X6152857Y-14251586D01*
X6167143Y-14237300D01*
X6195714Y-14223014D01*
X6238571Y-14223014D01*
X6267143Y-14237300D01*
X6281428Y-14251586D01*
X6295714Y-14280157D01*
X6295714Y-14365871D01*
X6281428Y-14394443D01*
X6267143Y-14408729D01*
X6238571Y-14423014D01*
X6195714Y-14423014D01*
X6467143Y-14423014D02*
X6438571Y-14408729D01*
X6424286Y-14380157D01*
X6424286Y-14123014D01*
X6695714Y-14408729D02*
X6667143Y-14423014D01*
X6610000Y-14423014D01*
X6581428Y-14408729D01*
X6567143Y-14380157D01*
X6567143Y-14265871D01*
X6581428Y-14237300D01*
X6610000Y-14223014D01*
X6667143Y-14223014D01*
X6695714Y-14237300D01*
X6710000Y-14265871D01*
X6710000Y-14294443D01*
X6567143Y-14323014D01*
X6824286Y-14408729D02*
X6852857Y-14423014D01*
X6910000Y-14423014D01*
X6938571Y-14408729D01*
X6952857Y-14380157D01*
X6952857Y-14365871D01*
X6938571Y-14337300D01*
X6910000Y-14323014D01*
X6867143Y-14323014D01*
X6838571Y-14308729D01*
X6824286Y-14280157D01*
X6824286Y-14265871D01*
X6838571Y-14237300D01*
X6867143Y-14223014D01*
X6910000Y-14223014D01*
X6938571Y-14237300D01*
X7052857Y-14537300D02*
X7067143Y-14523014D01*
X7095714Y-14480157D01*
X7110000Y-14451586D01*
X7124286Y-14408729D01*
X7138571Y-14337300D01*
X7138571Y-14280157D01*
X7124286Y-14208729D01*
X7110000Y-14165871D01*
X7095714Y-14137300D01*
X7067143Y-14094443D01*
X7052857Y-14080157D01*
X-5000Y-14683300D02*
G75*
G03X-5000Y-14683300I-40000J0D01*
G01*
X338571Y-14519014D02*
X367143Y-14519014D01*
X395714Y-14533300D01*
X410000Y-14547586D01*
X424286Y-14576157D01*
X438571Y-14633300D01*
X438571Y-14704729D01*
X424286Y-14761871D01*
X410000Y-14790443D01*
X395714Y-14804729D01*
X367143Y-14819014D01*
X338571Y-14819014D01*
X310000Y-14804729D01*
X295714Y-14790443D01*
X281428Y-14761871D01*
X267143Y-14704729D01*
X267143Y-14633300D01*
X281428Y-14576157D01*
X295714Y-14547586D01*
X310000Y-14533300D01*
X338571Y-14519014D01*
X567143Y-14790443D02*
X581428Y-14804729D01*
X567143Y-14819014D01*
X552857Y-14804729D01*
X567143Y-14790443D01*
X567143Y-14819014D01*
X752857Y-14647586D02*
X724286Y-14633300D01*
X710000Y-14619014D01*
X695714Y-14590443D01*
X695714Y-14576157D01*
X710000Y-14547586D01*
X724286Y-14533300D01*
X752857Y-14519014D01*
X810000Y-14519014D01*
X838571Y-14533300D01*
X852857Y-14547586D01*
X867143Y-14576157D01*
X867143Y-14590443D01*
X852857Y-14619014D01*
X838571Y-14633300D01*
X810000Y-14647586D01*
X752857Y-14647586D01*
X724286Y-14661871D01*
X710000Y-14676157D01*
X695714Y-14704729D01*
X695714Y-14761871D01*
X710000Y-14790443D01*
X724286Y-14804729D01*
X752857Y-14819014D01*
X810000Y-14819014D01*
X838571Y-14804729D01*
X852857Y-14790443D01*
X867143Y-14761871D01*
X867143Y-14704729D01*
X852857Y-14676157D01*
X838571Y-14661871D01*
X810000Y-14647586D01*
X1052857Y-14519014D02*
X1081428Y-14519014D01*
X1110000Y-14533300D01*
X1124286Y-14547586D01*
X1138571Y-14576157D01*
X1152857Y-14633300D01*
X1152857Y-14704729D01*
X1138571Y-14761871D01*
X1124286Y-14790443D01*
X1110000Y-14804729D01*
X1081428Y-14819014D01*
X1052857Y-14819014D01*
X1024286Y-14804729D01*
X1010000Y-14790443D01*
X995714Y-14761871D01*
X981428Y-14704729D01*
X981428Y-14633300D01*
X995714Y-14576157D01*
X1010000Y-14547586D01*
X1024286Y-14533300D01*
X1052857Y-14519014D01*
X1281428Y-14819014D02*
X1281428Y-14619014D01*
X1281428Y-14647586D02*
X1295714Y-14633300D01*
X1324286Y-14619014D01*
X1367143Y-14619014D01*
X1395714Y-14633300D01*
X1410000Y-14661871D01*
X1410000Y-14819014D01*
X1410000Y-14661871D02*
X1424286Y-14633300D01*
X1452857Y-14619014D01*
X1495714Y-14619014D01*
X1524286Y-14633300D01*
X1538571Y-14661871D01*
X1538571Y-14819014D01*
X1681428Y-14819014D02*
X1681428Y-14619014D01*
X1681428Y-14647586D02*
X1695714Y-14633300D01*
X1724286Y-14619014D01*
X1767143Y-14619014D01*
X1795714Y-14633300D01*
X1810000Y-14661871D01*
X1810000Y-14819014D01*
X1810000Y-14661871D02*
X1824286Y-14633300D01*
X1852857Y-14619014D01*
X1895714Y-14619014D01*
X1924286Y-14633300D01*
X1938571Y-14661871D01*
X1938571Y-14819014D01*
X2524286Y-14504729D02*
X2267143Y-14890443D01*
X2910000Y-14519014D02*
X2938571Y-14519014D01*
X2967143Y-14533300D01*
X2981428Y-14547586D01*
X2995714Y-14576157D01*
X3010000Y-14633300D01*
X3010000Y-14704729D01*
X2995714Y-14761871D01*
X2981428Y-14790443D01*
X2967143Y-14804729D01*
X2938571Y-14819014D01*
X2910000Y-14819014D01*
X2881428Y-14804729D01*
X2867143Y-14790443D01*
X2852857Y-14761871D01*
X2838571Y-14704729D01*
X2838571Y-14633300D01*
X2852857Y-14576157D01*
X2867143Y-14547586D01*
X2881428Y-14533300D01*
X2910000Y-14519014D01*
X3138571Y-14790443D02*
X3152857Y-14804729D01*
X3138571Y-14819014D01*
X3124286Y-14804729D01*
X3138571Y-14790443D01*
X3138571Y-14819014D01*
X3338571Y-14519014D02*
X3367143Y-14519014D01*
X3395714Y-14533300D01*
X3410000Y-14547586D01*
X3424286Y-14576157D01*
X3438571Y-14633300D01*
X3438571Y-14704729D01*
X3424286Y-14761871D01*
X3410000Y-14790443D01*
X3395714Y-14804729D01*
X3367143Y-14819014D01*
X3338571Y-14819014D01*
X3310000Y-14804729D01*
X3295714Y-14790443D01*
X3281428Y-14761871D01*
X3267143Y-14704729D01*
X3267143Y-14633300D01*
X3281428Y-14576157D01*
X3295714Y-14547586D01*
X3310000Y-14533300D01*
X3338571Y-14519014D01*
X3538571Y-14519014D02*
X3724286Y-14519014D01*
X3624286Y-14633300D01*
X3667143Y-14633300D01*
X3695714Y-14647586D01*
X3710000Y-14661871D01*
X3724286Y-14690443D01*
X3724286Y-14761871D01*
X3710000Y-14790443D01*
X3695714Y-14804729D01*
X3667143Y-14819014D01*
X3581428Y-14819014D01*
X3552857Y-14804729D01*
X3538571Y-14790443D01*
X4010000Y-14819014D02*
X3838571Y-14819014D01*
X3924286Y-14819014D02*
X3924286Y-14519014D01*
X3895714Y-14561871D01*
X3867143Y-14590443D01*
X3838571Y-14604729D01*
X4124286Y-14519014D02*
X4124286Y-14576157D01*
X4238571Y-14519014D02*
X4238571Y-14576157D01*
X4681428Y-14933300D02*
X4667143Y-14919014D01*
X4638571Y-14876157D01*
X4624286Y-14847586D01*
X4610000Y-14804729D01*
X4595714Y-14733300D01*
X4595714Y-14676157D01*
X4610000Y-14604729D01*
X4624286Y-14561871D01*
X4638571Y-14533300D01*
X4667143Y-14490443D01*
X4681428Y-14476157D01*
X4924286Y-14619014D02*
X4924286Y-14819014D01*
X4852857Y-14504729D02*
X4781428Y-14719014D01*
X4967143Y-14719014D01*
X5310000Y-14819014D02*
X5310000Y-14519014D01*
X5438571Y-14819014D02*
X5438571Y-14661871D01*
X5424286Y-14633300D01*
X5395714Y-14619014D01*
X5352857Y-14619014D01*
X5324286Y-14633300D01*
X5310000Y-14647586D01*
X5624286Y-14819014D02*
X5595714Y-14804729D01*
X5581428Y-14790443D01*
X5567143Y-14761871D01*
X5567143Y-14676157D01*
X5581428Y-14647586D01*
X5595714Y-14633300D01*
X5624286Y-14619014D01*
X5667143Y-14619014D01*
X5695714Y-14633300D01*
X5710000Y-14647586D01*
X5724286Y-14676157D01*
X5724286Y-14761871D01*
X5710000Y-14790443D01*
X5695714Y-14804729D01*
X5667143Y-14819014D01*
X5624286Y-14819014D01*
X5895714Y-14819014D02*
X5867143Y-14804729D01*
X5852857Y-14776157D01*
X5852857Y-14519014D01*
X6124286Y-14804729D02*
X6095714Y-14819014D01*
X6038571Y-14819014D01*
X6010000Y-14804729D01*
X5995714Y-14776157D01*
X5995714Y-14661871D01*
X6010000Y-14633300D01*
X6038571Y-14619014D01*
X6095714Y-14619014D01*
X6124286Y-14633300D01*
X6138571Y-14661871D01*
X6138571Y-14690443D01*
X5995714Y-14719014D01*
X6252857Y-14804729D02*
X6281428Y-14819014D01*
X6338571Y-14819014D01*
X6367143Y-14804729D01*
X6381428Y-14776157D01*
X6381428Y-14761871D01*
X6367143Y-14733300D01*
X6338571Y-14719014D01*
X6295714Y-14719014D01*
X6267143Y-14704729D01*
X6252857Y-14676157D01*
X6252857Y-14661871D01*
X6267143Y-14633300D01*
X6295714Y-14619014D01*
X6338571Y-14619014D01*
X6367143Y-14633300D01*
X6481428Y-14933300D02*
X6495714Y-14919014D01*
X6524286Y-14876157D01*
X6538571Y-14847586D01*
X6552857Y-14804729D01*
X6567143Y-14733300D01*
X6567143Y-14676157D01*
X6552857Y-14604729D01*
X6538571Y-14561871D01*
X6524286Y-14533300D01*
X6495714Y-14490443D01*
X6481428Y-14476157D01*
X-52500Y-15031800D02*
X-52500Y-15126800D01*
X-100000Y-15079300D02*
X-5000Y-15079300D01*
X338571Y-14915014D02*
X367143Y-14915014D01*
X395714Y-14929300D01*
X410000Y-14943586D01*
X424286Y-14972157D01*
X438571Y-15029300D01*
X438571Y-15100729D01*
X424286Y-15157871D01*
X410000Y-15186443D01*
X395714Y-15200729D01*
X367143Y-15215014D01*
X338571Y-15215014D01*
X310000Y-15200729D01*
X295714Y-15186443D01*
X281428Y-15157871D01*
X267143Y-15100729D01*
X267143Y-15029300D01*
X281428Y-14972157D01*
X295714Y-14943586D01*
X310000Y-14929300D01*
X338571Y-14915014D01*
X567143Y-15186443D02*
X581428Y-15200729D01*
X567143Y-15215014D01*
X552857Y-15200729D01*
X567143Y-15186443D01*
X567143Y-15215014D01*
X724286Y-15215014D02*
X781428Y-15215014D01*
X810000Y-15200729D01*
X824286Y-15186443D01*
X852857Y-15143586D01*
X867143Y-15086443D01*
X867143Y-14972157D01*
X852857Y-14943586D01*
X838571Y-14929300D01*
X810000Y-14915014D01*
X752857Y-14915014D01*
X724286Y-14929300D01*
X710000Y-14943586D01*
X695714Y-14972157D01*
X695714Y-15043586D01*
X710000Y-15072157D01*
X724286Y-15086443D01*
X752857Y-15100729D01*
X810000Y-15100729D01*
X838571Y-15086443D01*
X852857Y-15072157D01*
X867143Y-15043586D01*
X1138571Y-14915014D02*
X995714Y-14915014D01*
X981428Y-15057871D01*
X995714Y-15043586D01*
X1024286Y-15029300D01*
X1095714Y-15029300D01*
X1124286Y-15043586D01*
X1138571Y-15057871D01*
X1152857Y-15086443D01*
X1152857Y-15157871D01*
X1138571Y-15186443D01*
X1124286Y-15200729D01*
X1095714Y-15215014D01*
X1024286Y-15215014D01*
X995714Y-15200729D01*
X981428Y-15186443D01*
X1281428Y-15215014D02*
X1281428Y-15015014D01*
X1281428Y-15043586D02*
X1295714Y-15029300D01*
X1324286Y-15015014D01*
X1367143Y-15015014D01*
X1395714Y-15029300D01*
X1410000Y-15057871D01*
X1410000Y-15215014D01*
X1410000Y-15057871D02*
X1424286Y-15029300D01*
X1452857Y-15015014D01*
X1495714Y-15015014D01*
X1524286Y-15029300D01*
X1538571Y-15057871D01*
X1538571Y-15215014D01*
X1681428Y-15215014D02*
X1681428Y-15015014D01*
X1681428Y-15043586D02*
X1695714Y-15029300D01*
X1724286Y-15015014D01*
X1767143Y-15015014D01*
X1795714Y-15029300D01*
X1810000Y-15057871D01*
X1810000Y-15215014D01*
X1810000Y-15057871D02*
X1824286Y-15029300D01*
X1852857Y-15015014D01*
X1895714Y-15015014D01*
X1924286Y-15029300D01*
X1938571Y-15057871D01*
X1938571Y-15215014D01*
X2524286Y-14900729D02*
X2267143Y-15286443D01*
X2910000Y-14915014D02*
X2938571Y-14915014D01*
X2967143Y-14929300D01*
X2981428Y-14943586D01*
X2995714Y-14972157D01*
X3010000Y-15029300D01*
X3010000Y-15100729D01*
X2995714Y-15157871D01*
X2981428Y-15186443D01*
X2967143Y-15200729D01*
X2938571Y-15215014D01*
X2910000Y-15215014D01*
X2881428Y-15200729D01*
X2867143Y-15186443D01*
X2852857Y-15157871D01*
X2838571Y-15100729D01*
X2838571Y-15029300D01*
X2852857Y-14972157D01*
X2867143Y-14943586D01*
X2881428Y-14929300D01*
X2910000Y-14915014D01*
X3138571Y-15186443D02*
X3152857Y-15200729D01*
X3138571Y-15215014D01*
X3124286Y-15200729D01*
X3138571Y-15186443D01*
X3138571Y-15215014D01*
X3338571Y-14915014D02*
X3367143Y-14915014D01*
X3395714Y-14929300D01*
X3410000Y-14943586D01*
X3424286Y-14972157D01*
X3438571Y-15029300D01*
X3438571Y-15100729D01*
X3424286Y-15157871D01*
X3410000Y-15186443D01*
X3395714Y-15200729D01*
X3367143Y-15215014D01*
X3338571Y-15215014D01*
X3310000Y-15200729D01*
X3295714Y-15186443D01*
X3281428Y-15157871D01*
X3267143Y-15100729D01*
X3267143Y-15029300D01*
X3281428Y-14972157D01*
X3295714Y-14943586D01*
X3310000Y-14929300D01*
X3338571Y-14915014D01*
X3538571Y-14915014D02*
X3724286Y-14915014D01*
X3624286Y-15029300D01*
X3667143Y-15029300D01*
X3695714Y-15043586D01*
X3710000Y-15057871D01*
X3724286Y-15086443D01*
X3724286Y-15157871D01*
X3710000Y-15186443D01*
X3695714Y-15200729D01*
X3667143Y-15215014D01*
X3581428Y-15215014D01*
X3552857Y-15200729D01*
X3538571Y-15186443D01*
X3824286Y-14915014D02*
X4024286Y-14915014D01*
X3895714Y-15215014D01*
X4124286Y-14915014D02*
X4124286Y-14972157D01*
X4238571Y-14915014D02*
X4238571Y-14972157D01*
X4681428Y-15329300D02*
X4667143Y-15315014D01*
X4638571Y-15272157D01*
X4624286Y-15243586D01*
X4610000Y-15200729D01*
X4595714Y-15129300D01*
X4595714Y-15072157D01*
X4610000Y-15000729D01*
X4624286Y-14957871D01*
X4638571Y-14929300D01*
X4667143Y-14886443D01*
X4681428Y-14872157D01*
X4767143Y-14915014D02*
X4952857Y-14915014D01*
X4852857Y-15029300D01*
X4895714Y-15029300D01*
X4924286Y-15043586D01*
X4938571Y-15057871D01*
X4952857Y-15086443D01*
X4952857Y-15157871D01*
X4938571Y-15186443D01*
X4924286Y-15200729D01*
X4895714Y-15215014D01*
X4810000Y-15215014D01*
X4781428Y-15200729D01*
X4767143Y-15186443D01*
X5052857Y-14915014D02*
X5238571Y-14915014D01*
X5138571Y-15029300D01*
X5181428Y-15029300D01*
X5210000Y-15043586D01*
X5224286Y-15057871D01*
X5238571Y-15086443D01*
X5238571Y-15157871D01*
X5224286Y-15186443D01*
X5210000Y-15200729D01*
X5181428Y-15215014D01*
X5095714Y-15215014D01*
X5067143Y-15200729D01*
X5052857Y-15186443D01*
X5595714Y-15215014D02*
X5595714Y-14915014D01*
X5724286Y-15215014D02*
X5724286Y-15057871D01*
X5710000Y-15029300D01*
X5681428Y-15015014D01*
X5638571Y-15015014D01*
X5610000Y-15029300D01*
X5595714Y-15043586D01*
X5910000Y-15215014D02*
X5881428Y-15200729D01*
X5867143Y-15186443D01*
X5852857Y-15157871D01*
X5852857Y-15072157D01*
X5867143Y-15043586D01*
X5881428Y-15029300D01*
X5910000Y-15015014D01*
X5952857Y-15015014D01*
X5981428Y-15029300D01*
X5995714Y-15043586D01*
X6010000Y-15072157D01*
X6010000Y-15157871D01*
X5995714Y-15186443D01*
X5981428Y-15200729D01*
X5952857Y-15215014D01*
X5910000Y-15215014D01*
X6181428Y-15215014D02*
X6152857Y-15200729D01*
X6138571Y-15172157D01*
X6138571Y-14915014D01*
X6410000Y-15200729D02*
X6381428Y-15215014D01*
X6324286Y-15215014D01*
X6295714Y-15200729D01*
X6281428Y-15172157D01*
X6281428Y-15057871D01*
X6295714Y-15029300D01*
X6324286Y-15015014D01*
X6381428Y-15015014D01*
X6410000Y-15029300D01*
X6424286Y-15057871D01*
X6424286Y-15086443D01*
X6281428Y-15115014D01*
X6538571Y-15200729D02*
X6567143Y-15215014D01*
X6624286Y-15215014D01*
X6652857Y-15200729D01*
X6667143Y-15172157D01*
X6667143Y-15157871D01*
X6652857Y-15129300D01*
X6624286Y-15115014D01*
X6581428Y-15115014D01*
X6552857Y-15100729D01*
X6538571Y-15072157D01*
X6538571Y-15057871D01*
X6552857Y-15029300D01*
X6581428Y-15015014D01*
X6624286Y-15015014D01*
X6652857Y-15029300D01*
X6767143Y-15329300D02*
X6781428Y-15315014D01*
X6810000Y-15272157D01*
X6824286Y-15243586D01*
X6838571Y-15200729D01*
X6852857Y-15129300D01*
X6852857Y-15072157D01*
X6838571Y-15000729D01*
X6824286Y-14957871D01*
X6810000Y-14929300D01*
X6781428Y-14886443D01*
X6767143Y-14872157D01*
X-19644Y-15510656D02*
X-19644Y-15439944D01*
X-90356Y-15439944D01*
X-90356Y-15510656D01*
X-19644Y-15510656D01*
X438571Y-15611014D02*
X267143Y-15611014D01*
X352857Y-15611014D02*
X352857Y-15311014D01*
X324286Y-15353871D01*
X295714Y-15382443D01*
X267143Y-15396729D01*
X567143Y-15582443D02*
X581428Y-15596729D01*
X567143Y-15611014D01*
X552857Y-15596729D01*
X567143Y-15582443D01*
X567143Y-15611014D01*
X767143Y-15311014D02*
X795714Y-15311014D01*
X824286Y-15325300D01*
X838571Y-15339586D01*
X852857Y-15368157D01*
X867143Y-15425300D01*
X867143Y-15496729D01*
X852857Y-15553871D01*
X838571Y-15582443D01*
X824286Y-15596729D01*
X795714Y-15611014D01*
X767143Y-15611014D01*
X738571Y-15596729D01*
X724286Y-15582443D01*
X710000Y-15553871D01*
X695714Y-15496729D01*
X695714Y-15425300D01*
X710000Y-15368157D01*
X724286Y-15339586D01*
X738571Y-15325300D01*
X767143Y-15311014D01*
X1052857Y-15311014D02*
X1081428Y-15311014D01*
X1110000Y-15325300D01*
X1124286Y-15339586D01*
X1138571Y-15368157D01*
X1152857Y-15425300D01*
X1152857Y-15496729D01*
X1138571Y-15553871D01*
X1124286Y-15582443D01*
X1110000Y-15596729D01*
X1081428Y-15611014D01*
X1052857Y-15611014D01*
X1024286Y-15596729D01*
X1010000Y-15582443D01*
X995714Y-15553871D01*
X981428Y-15496729D01*
X981428Y-15425300D01*
X995714Y-15368157D01*
X1010000Y-15339586D01*
X1024286Y-15325300D01*
X1052857Y-15311014D01*
X1281428Y-15611014D02*
X1281428Y-15411014D01*
X1281428Y-15439586D02*
X1295714Y-15425300D01*
X1324286Y-15411014D01*
X1367143Y-15411014D01*
X1395714Y-15425300D01*
X1410000Y-15453871D01*
X1410000Y-15611014D01*
X1410000Y-15453871D02*
X1424286Y-15425300D01*
X1452857Y-15411014D01*
X1495714Y-15411014D01*
X1524286Y-15425300D01*
X1538571Y-15453871D01*
X1538571Y-15611014D01*
X1681428Y-15611014D02*
X1681428Y-15411014D01*
X1681428Y-15439586D02*
X1695714Y-15425300D01*
X1724286Y-15411014D01*
X1767143Y-15411014D01*
X1795714Y-15425300D01*
X1810000Y-15453871D01*
X1810000Y-15611014D01*
X1810000Y-15453871D02*
X1824286Y-15425300D01*
X1852857Y-15411014D01*
X1895714Y-15411014D01*
X1924286Y-15425300D01*
X1938571Y-15453871D01*
X1938571Y-15611014D01*
X2524286Y-15296729D02*
X2267143Y-15682443D01*
X2910000Y-15311014D02*
X2938571Y-15311014D01*
X2967143Y-15325300D01*
X2981428Y-15339586D01*
X2995714Y-15368157D01*
X3010000Y-15425300D01*
X3010000Y-15496729D01*
X2995714Y-15553871D01*
X2981428Y-15582443D01*
X2967143Y-15596729D01*
X2938571Y-15611014D01*
X2910000Y-15611014D01*
X2881428Y-15596729D01*
X2867143Y-15582443D01*
X2852857Y-15553871D01*
X2838571Y-15496729D01*
X2838571Y-15425300D01*
X2852857Y-15368157D01*
X2867143Y-15339586D01*
X2881428Y-15325300D01*
X2910000Y-15311014D01*
X3138571Y-15582443D02*
X3152857Y-15596729D01*
X3138571Y-15611014D01*
X3124286Y-15596729D01*
X3138571Y-15582443D01*
X3138571Y-15611014D01*
X3338571Y-15311014D02*
X3367143Y-15311014D01*
X3395714Y-15325300D01*
X3410000Y-15339586D01*
X3424286Y-15368157D01*
X3438571Y-15425300D01*
X3438571Y-15496729D01*
X3424286Y-15553871D01*
X3410000Y-15582443D01*
X3395714Y-15596729D01*
X3367143Y-15611014D01*
X3338571Y-15611014D01*
X3310000Y-15596729D01*
X3295714Y-15582443D01*
X3281428Y-15553871D01*
X3267143Y-15496729D01*
X3267143Y-15425300D01*
X3281428Y-15368157D01*
X3295714Y-15339586D01*
X3310000Y-15325300D01*
X3338571Y-15311014D01*
X3538571Y-15311014D02*
X3724286Y-15311014D01*
X3624286Y-15425300D01*
X3667143Y-15425300D01*
X3695714Y-15439586D01*
X3710000Y-15453871D01*
X3724286Y-15482443D01*
X3724286Y-15553871D01*
X3710000Y-15582443D01*
X3695714Y-15596729D01*
X3667143Y-15611014D01*
X3581428Y-15611014D01*
X3552857Y-15596729D01*
X3538571Y-15582443D01*
X3867143Y-15611014D02*
X3924286Y-15611014D01*
X3952857Y-15596729D01*
X3967143Y-15582443D01*
X3995714Y-15539586D01*
X4010000Y-15482443D01*
X4010000Y-15368157D01*
X3995714Y-15339586D01*
X3981428Y-15325300D01*
X3952857Y-15311014D01*
X3895714Y-15311014D01*
X3867143Y-15325300D01*
X3852857Y-15339586D01*
X3838571Y-15368157D01*
X3838571Y-15439586D01*
X3852857Y-15468157D01*
X3867143Y-15482443D01*
X3895714Y-15496729D01*
X3952857Y-15496729D01*
X3981428Y-15482443D01*
X3995714Y-15468157D01*
X4010000Y-15439586D01*
X4124286Y-15311014D02*
X4124286Y-15368157D01*
X4238571Y-15311014D02*
X4238571Y-15368157D01*
X4681428Y-15725300D02*
X4667143Y-15711014D01*
X4638571Y-15668157D01*
X4624286Y-15639586D01*
X4610000Y-15596729D01*
X4595714Y-15525300D01*
X4595714Y-15468157D01*
X4610000Y-15396729D01*
X4624286Y-15353871D01*
X4638571Y-15325300D01*
X4667143Y-15282443D01*
X4681428Y-15268157D01*
X4952857Y-15611014D02*
X4781428Y-15611014D01*
X4867143Y-15611014D02*
X4867143Y-15311014D01*
X4838571Y-15353871D01*
X4810000Y-15382443D01*
X4781428Y-15396729D01*
X5095714Y-15611014D02*
X5152857Y-15611014D01*
X5181428Y-15596729D01*
X5195714Y-15582443D01*
X5224286Y-15539586D01*
X5238571Y-15482443D01*
X5238571Y-15368157D01*
X5224286Y-15339586D01*
X5210000Y-15325300D01*
X5181428Y-15311014D01*
X5124286Y-15311014D01*
X5095714Y-15325300D01*
X5081428Y-15339586D01*
X5067143Y-15368157D01*
X5067143Y-15439586D01*
X5081428Y-15468157D01*
X5095714Y-15482443D01*
X5124286Y-15496729D01*
X5181428Y-15496729D01*
X5210000Y-15482443D01*
X5224286Y-15468157D01*
X5238571Y-15439586D01*
X5495714Y-15411014D02*
X5495714Y-15611014D01*
X5424286Y-15296729D02*
X5352857Y-15511014D01*
X5538571Y-15511014D01*
X5881428Y-15611014D02*
X5881428Y-15311014D01*
X6010000Y-15611014D02*
X6010000Y-15453871D01*
X5995714Y-15425300D01*
X5967143Y-15411014D01*
X5924286Y-15411014D01*
X5895714Y-15425300D01*
X5881428Y-15439586D01*
X6195714Y-15611014D02*
X6167143Y-15596729D01*
X6152857Y-15582443D01*
X6138571Y-15553871D01*
X6138571Y-15468157D01*
X6152857Y-15439586D01*
X6167143Y-15425300D01*
X6195714Y-15411014D01*
X6238571Y-15411014D01*
X6267143Y-15425300D01*
X6281428Y-15439586D01*
X6295714Y-15468157D01*
X6295714Y-15553871D01*
X6281428Y-15582443D01*
X6267143Y-15596729D01*
X6238571Y-15611014D01*
X6195714Y-15611014D01*
X6467143Y-15611014D02*
X6438571Y-15596729D01*
X6424286Y-15568157D01*
X6424286Y-15311014D01*
X6695714Y-15596729D02*
X6667143Y-15611014D01*
X6610000Y-15611014D01*
X6581428Y-15596729D01*
X6567143Y-15568157D01*
X6567143Y-15453871D01*
X6581428Y-15425300D01*
X6610000Y-15411014D01*
X6667143Y-15411014D01*
X6695714Y-15425300D01*
X6710000Y-15453871D01*
X6710000Y-15482443D01*
X6567143Y-15511014D01*
X6824286Y-15596729D02*
X6852857Y-15611014D01*
X6910000Y-15611014D01*
X6938571Y-15596729D01*
X6952857Y-15568157D01*
X6952857Y-15553871D01*
X6938571Y-15525300D01*
X6910000Y-15511014D01*
X6867143Y-15511014D01*
X6838571Y-15496729D01*
X6824286Y-15468157D01*
X6824286Y-15453871D01*
X6838571Y-15425300D01*
X6867143Y-15411014D01*
X6910000Y-15411014D01*
X6938571Y-15425300D01*
X7052857Y-15725300D02*
X7067143Y-15711014D01*
X7095714Y-15668157D01*
X7110000Y-15639586D01*
X7124286Y-15596729D01*
X7138571Y-15525300D01*
X7138571Y-15468157D01*
X7124286Y-15396729D01*
X7110000Y-15353871D01*
X7095714Y-15325300D01*
X7067143Y-15282443D01*
X7052857Y-15268157D01*
X-60000Y-15926300D02*
X-5000Y-15871300D01*
X-60000Y-15816300D01*
X-115000Y-15871300D01*
X-60000Y-15926300D01*
X438571Y-16007014D02*
X267143Y-16007014D01*
X352857Y-16007014D02*
X352857Y-15707014D01*
X324286Y-15749871D01*
X295714Y-15778443D01*
X267143Y-15792729D01*
X567143Y-15978443D02*
X581428Y-15992729D01*
X567143Y-16007014D01*
X552857Y-15992729D01*
X567143Y-15978443D01*
X567143Y-16007014D01*
X867143Y-16007014D02*
X695714Y-16007014D01*
X781428Y-16007014D02*
X781428Y-15707014D01*
X752857Y-15749871D01*
X724286Y-15778443D01*
X695714Y-15792729D01*
X1052857Y-15707014D02*
X1081428Y-15707014D01*
X1110000Y-15721300D01*
X1124286Y-15735586D01*
X1138571Y-15764157D01*
X1152857Y-15821300D01*
X1152857Y-15892729D01*
X1138571Y-15949871D01*
X1124286Y-15978443D01*
X1110000Y-15992729D01*
X1081428Y-16007014D01*
X1052857Y-16007014D01*
X1024286Y-15992729D01*
X1010000Y-15978443D01*
X995714Y-15949871D01*
X981428Y-15892729D01*
X981428Y-15821300D01*
X995714Y-15764157D01*
X1010000Y-15735586D01*
X1024286Y-15721300D01*
X1052857Y-15707014D01*
X1281428Y-16007014D02*
X1281428Y-15807014D01*
X1281428Y-15835586D02*
X1295714Y-15821300D01*
X1324286Y-15807014D01*
X1367143Y-15807014D01*
X1395714Y-15821300D01*
X1410000Y-15849871D01*
X1410000Y-16007014D01*
X1410000Y-15849871D02*
X1424286Y-15821300D01*
X1452857Y-15807014D01*
X1495714Y-15807014D01*
X1524286Y-15821300D01*
X1538571Y-15849871D01*
X1538571Y-16007014D01*
X1681428Y-16007014D02*
X1681428Y-15807014D01*
X1681428Y-15835586D02*
X1695714Y-15821300D01*
X1724286Y-15807014D01*
X1767143Y-15807014D01*
X1795714Y-15821300D01*
X1810000Y-15849871D01*
X1810000Y-16007014D01*
X1810000Y-15849871D02*
X1824286Y-15821300D01*
X1852857Y-15807014D01*
X1895714Y-15807014D01*
X1924286Y-15821300D01*
X1938571Y-15849871D01*
X1938571Y-16007014D01*
X2524286Y-15692729D02*
X2267143Y-16078443D01*
X2910000Y-15707014D02*
X2938571Y-15707014D01*
X2967143Y-15721300D01*
X2981428Y-15735586D01*
X2995714Y-15764157D01*
X3010000Y-15821300D01*
X3010000Y-15892729D01*
X2995714Y-15949871D01*
X2981428Y-15978443D01*
X2967143Y-15992729D01*
X2938571Y-16007014D01*
X2910000Y-16007014D01*
X2881428Y-15992729D01*
X2867143Y-15978443D01*
X2852857Y-15949871D01*
X2838571Y-15892729D01*
X2838571Y-15821300D01*
X2852857Y-15764157D01*
X2867143Y-15735586D01*
X2881428Y-15721300D01*
X2910000Y-15707014D01*
X3138571Y-15978443D02*
X3152857Y-15992729D01*
X3138571Y-16007014D01*
X3124286Y-15992729D01*
X3138571Y-15978443D01*
X3138571Y-16007014D01*
X3338571Y-15707014D02*
X3367143Y-15707014D01*
X3395714Y-15721300D01*
X3410000Y-15735586D01*
X3424286Y-15764157D01*
X3438571Y-15821300D01*
X3438571Y-15892729D01*
X3424286Y-15949871D01*
X3410000Y-15978443D01*
X3395714Y-15992729D01*
X3367143Y-16007014D01*
X3338571Y-16007014D01*
X3310000Y-15992729D01*
X3295714Y-15978443D01*
X3281428Y-15949871D01*
X3267143Y-15892729D01*
X3267143Y-15821300D01*
X3281428Y-15764157D01*
X3295714Y-15735586D01*
X3310000Y-15721300D01*
X3338571Y-15707014D01*
X3695714Y-15807014D02*
X3695714Y-16007014D01*
X3624286Y-15692729D02*
X3552857Y-15907014D01*
X3738571Y-15907014D01*
X3824286Y-15707014D02*
X4010000Y-15707014D01*
X3910000Y-15821300D01*
X3952857Y-15821300D01*
X3981428Y-15835586D01*
X3995714Y-15849871D01*
X4010000Y-15878443D01*
X4010000Y-15949871D01*
X3995714Y-15978443D01*
X3981428Y-15992729D01*
X3952857Y-16007014D01*
X3867143Y-16007014D01*
X3838571Y-15992729D01*
X3824286Y-15978443D01*
X4124286Y-15707014D02*
X4124286Y-15764157D01*
X4238571Y-15707014D02*
X4238571Y-15764157D01*
X4681428Y-16121300D02*
X4667143Y-16107014D01*
X4638571Y-16064157D01*
X4624286Y-16035586D01*
X4610000Y-15992729D01*
X4595714Y-15921300D01*
X4595714Y-15864157D01*
X4610000Y-15792729D01*
X4624286Y-15749871D01*
X4638571Y-15721300D01*
X4667143Y-15678443D01*
X4681428Y-15664157D01*
X4924286Y-15707014D02*
X4867143Y-15707014D01*
X4838571Y-15721300D01*
X4824286Y-15735586D01*
X4795714Y-15778443D01*
X4781428Y-15835586D01*
X4781428Y-15949871D01*
X4795714Y-15978443D01*
X4810000Y-15992729D01*
X4838571Y-16007014D01*
X4895714Y-16007014D01*
X4924286Y-15992729D01*
X4938571Y-15978443D01*
X4952857Y-15949871D01*
X4952857Y-15878443D01*
X4938571Y-15849871D01*
X4924286Y-15835586D01*
X4895714Y-15821300D01*
X4838571Y-15821300D01*
X4810000Y-15835586D01*
X4795714Y-15849871D01*
X4781428Y-15878443D01*
X5138571Y-15707014D02*
X5167143Y-15707014D01*
X5195714Y-15721300D01*
X5210000Y-15735586D01*
X5224286Y-15764157D01*
X5238571Y-15821300D01*
X5238571Y-15892729D01*
X5224286Y-15949871D01*
X5210000Y-15978443D01*
X5195714Y-15992729D01*
X5167143Y-16007014D01*
X5138571Y-16007014D01*
X5110000Y-15992729D01*
X5095714Y-15978443D01*
X5081428Y-15949871D01*
X5067143Y-15892729D01*
X5067143Y-15821300D01*
X5081428Y-15764157D01*
X5095714Y-15735586D01*
X5110000Y-15721300D01*
X5138571Y-15707014D01*
X5595714Y-16007014D02*
X5595714Y-15707014D01*
X5724286Y-16007014D02*
X5724286Y-15849871D01*
X5710000Y-15821300D01*
X5681428Y-15807014D01*
X5638571Y-15807014D01*
X5610000Y-15821300D01*
X5595714Y-15835586D01*
X5910000Y-16007014D02*
X5881428Y-15992729D01*
X5867143Y-15978443D01*
X5852857Y-15949871D01*
X5852857Y-15864157D01*
X5867143Y-15835586D01*
X5881428Y-15821300D01*
X5910000Y-15807014D01*
X5952857Y-15807014D01*
X5981428Y-15821300D01*
X5995714Y-15835586D01*
X6010000Y-15864157D01*
X6010000Y-15949871D01*
X5995714Y-15978443D01*
X5981428Y-15992729D01*
X5952857Y-16007014D01*
X5910000Y-16007014D01*
X6181428Y-16007014D02*
X6152857Y-15992729D01*
X6138571Y-15964157D01*
X6138571Y-15707014D01*
X6410000Y-15992729D02*
X6381428Y-16007014D01*
X6324286Y-16007014D01*
X6295714Y-15992729D01*
X6281428Y-15964157D01*
X6281428Y-15849871D01*
X6295714Y-15821300D01*
X6324286Y-15807014D01*
X6381428Y-15807014D01*
X6410000Y-15821300D01*
X6424286Y-15849871D01*
X6424286Y-15878443D01*
X6281428Y-15907014D01*
X6538571Y-15992729D02*
X6567143Y-16007014D01*
X6624286Y-16007014D01*
X6652857Y-15992729D01*
X6667143Y-15964157D01*
X6667143Y-15949871D01*
X6652857Y-15921300D01*
X6624286Y-15907014D01*
X6581428Y-15907014D01*
X6552857Y-15892729D01*
X6538571Y-15864157D01*
X6538571Y-15849871D01*
X6552857Y-15821300D01*
X6581428Y-15807014D01*
X6624286Y-15807014D01*
X6652857Y-15821300D01*
X6767143Y-16121300D02*
X6781428Y-16107014D01*
X6810000Y-16064157D01*
X6824286Y-16035586D01*
X6838571Y-15992729D01*
X6852857Y-15921300D01*
X6852857Y-15864157D01*
X6838571Y-15792729D01*
X6824286Y-15749871D01*
X6810000Y-15721300D01*
X6781428Y-15678443D01*
X6767143Y-15664157D01*
X-127000Y-16206300D02*
X-5000Y-16328300D01*
X-5000Y-16206300D02*
X-127000Y-16328300D01*
X-5000Y-16267300D02*
G75*
G03X-5000Y-16267300I-61000J0D01*
G01*
X438571Y-16403014D02*
X267143Y-16403014D01*
X352857Y-16403014D02*
X352857Y-16103014D01*
X324286Y-16145871D01*
X295714Y-16174443D01*
X267143Y-16188729D01*
X567143Y-16374443D02*
X581428Y-16388729D01*
X567143Y-16403014D01*
X552857Y-16388729D01*
X567143Y-16374443D01*
X567143Y-16403014D01*
X695714Y-16131586D02*
X710000Y-16117300D01*
X738571Y-16103014D01*
X810000Y-16103014D01*
X838571Y-16117300D01*
X852857Y-16131586D01*
X867143Y-16160157D01*
X867143Y-16188729D01*
X852857Y-16231586D01*
X681428Y-16403014D01*
X867143Y-16403014D01*
X981428Y-16131586D02*
X995714Y-16117300D01*
X1024286Y-16103014D01*
X1095714Y-16103014D01*
X1124286Y-16117300D01*
X1138571Y-16131586D01*
X1152857Y-16160157D01*
X1152857Y-16188729D01*
X1138571Y-16231586D01*
X967143Y-16403014D01*
X1152857Y-16403014D01*
X1281428Y-16403014D02*
X1281428Y-16203014D01*
X1281428Y-16231586D02*
X1295714Y-16217300D01*
X1324286Y-16203014D01*
X1367143Y-16203014D01*
X1395714Y-16217300D01*
X1410000Y-16245871D01*
X1410000Y-16403014D01*
X1410000Y-16245871D02*
X1424286Y-16217300D01*
X1452857Y-16203014D01*
X1495714Y-16203014D01*
X1524286Y-16217300D01*
X1538571Y-16245871D01*
X1538571Y-16403014D01*
X1681428Y-16403014D02*
X1681428Y-16203014D01*
X1681428Y-16231586D02*
X1695714Y-16217300D01*
X1724286Y-16203014D01*
X1767143Y-16203014D01*
X1795714Y-16217300D01*
X1810000Y-16245871D01*
X1810000Y-16403014D01*
X1810000Y-16245871D02*
X1824286Y-16217300D01*
X1852857Y-16203014D01*
X1895714Y-16203014D01*
X1924286Y-16217300D01*
X1938571Y-16245871D01*
X1938571Y-16403014D01*
X2524286Y-16088729D02*
X2267143Y-16474443D01*
X2910000Y-16103014D02*
X2938571Y-16103014D01*
X2967143Y-16117300D01*
X2981428Y-16131586D01*
X2995714Y-16160157D01*
X3010000Y-16217300D01*
X3010000Y-16288729D01*
X2995714Y-16345871D01*
X2981428Y-16374443D01*
X2967143Y-16388729D01*
X2938571Y-16403014D01*
X2910000Y-16403014D01*
X2881428Y-16388729D01*
X2867143Y-16374443D01*
X2852857Y-16345871D01*
X2838571Y-16288729D01*
X2838571Y-16217300D01*
X2852857Y-16160157D01*
X2867143Y-16131586D01*
X2881428Y-16117300D01*
X2910000Y-16103014D01*
X3138571Y-16374443D02*
X3152857Y-16388729D01*
X3138571Y-16403014D01*
X3124286Y-16388729D01*
X3138571Y-16374443D01*
X3138571Y-16403014D01*
X3338571Y-16103014D02*
X3367143Y-16103014D01*
X3395714Y-16117300D01*
X3410000Y-16131586D01*
X3424286Y-16160157D01*
X3438571Y-16217300D01*
X3438571Y-16288729D01*
X3424286Y-16345871D01*
X3410000Y-16374443D01*
X3395714Y-16388729D01*
X3367143Y-16403014D01*
X3338571Y-16403014D01*
X3310000Y-16388729D01*
X3295714Y-16374443D01*
X3281428Y-16345871D01*
X3267143Y-16288729D01*
X3267143Y-16217300D01*
X3281428Y-16160157D01*
X3295714Y-16131586D01*
X3310000Y-16117300D01*
X3338571Y-16103014D01*
X3695714Y-16203014D02*
X3695714Y-16403014D01*
X3624286Y-16088729D02*
X3552857Y-16303014D01*
X3738571Y-16303014D01*
X3895714Y-16231586D02*
X3867143Y-16217300D01*
X3852857Y-16203014D01*
X3838571Y-16174443D01*
X3838571Y-16160157D01*
X3852857Y-16131586D01*
X3867143Y-16117300D01*
X3895714Y-16103014D01*
X3952857Y-16103014D01*
X3981428Y-16117300D01*
X3995714Y-16131586D01*
X4010000Y-16160157D01*
X4010000Y-16174443D01*
X3995714Y-16203014D01*
X3981428Y-16217300D01*
X3952857Y-16231586D01*
X3895714Y-16231586D01*
X3867143Y-16245871D01*
X3852857Y-16260157D01*
X3838571Y-16288729D01*
X3838571Y-16345871D01*
X3852857Y-16374443D01*
X3867143Y-16388729D01*
X3895714Y-16403014D01*
X3952857Y-16403014D01*
X3981428Y-16388729D01*
X3995714Y-16374443D01*
X4010000Y-16345871D01*
X4010000Y-16288729D01*
X3995714Y-16260157D01*
X3981428Y-16245871D01*
X3952857Y-16231586D01*
X4124286Y-16103014D02*
X4124286Y-16160157D01*
X4238571Y-16103014D02*
X4238571Y-16160157D01*
X4681428Y-16517300D02*
X4667143Y-16503014D01*
X4638571Y-16460157D01*
X4624286Y-16431586D01*
X4610000Y-16388729D01*
X4595714Y-16317300D01*
X4595714Y-16260157D01*
X4610000Y-16188729D01*
X4624286Y-16145871D01*
X4638571Y-16117300D01*
X4667143Y-16074443D01*
X4681428Y-16060157D01*
X4924286Y-16203014D02*
X4924286Y-16403014D01*
X4852857Y-16088729D02*
X4781428Y-16303014D01*
X4967143Y-16303014D01*
X5310000Y-16403014D02*
X5310000Y-16103014D01*
X5438571Y-16403014D02*
X5438571Y-16245871D01*
X5424286Y-16217300D01*
X5395714Y-16203014D01*
X5352857Y-16203014D01*
X5324286Y-16217300D01*
X5310000Y-16231586D01*
X5624286Y-16403014D02*
X5595714Y-16388729D01*
X5581428Y-16374443D01*
X5567143Y-16345871D01*
X5567143Y-16260157D01*
X5581428Y-16231586D01*
X5595714Y-16217300D01*
X5624286Y-16203014D01*
X5667143Y-16203014D01*
X5695714Y-16217300D01*
X5710000Y-16231586D01*
X5724286Y-16260157D01*
X5724286Y-16345871D01*
X5710000Y-16374443D01*
X5695714Y-16388729D01*
X5667143Y-16403014D01*
X5624286Y-16403014D01*
X5895714Y-16403014D02*
X5867143Y-16388729D01*
X5852857Y-16360157D01*
X5852857Y-16103014D01*
X6124286Y-16388729D02*
X6095714Y-16403014D01*
X6038571Y-16403014D01*
X6010000Y-16388729D01*
X5995714Y-16360157D01*
X5995714Y-16245871D01*
X6010000Y-16217300D01*
X6038571Y-16203014D01*
X6095714Y-16203014D01*
X6124286Y-16217300D01*
X6138571Y-16245871D01*
X6138571Y-16274443D01*
X5995714Y-16303014D01*
X6252857Y-16388729D02*
X6281428Y-16403014D01*
X6338571Y-16403014D01*
X6367143Y-16388729D01*
X6381428Y-16360157D01*
X6381428Y-16345871D01*
X6367143Y-16317300D01*
X6338571Y-16303014D01*
X6295714Y-16303014D01*
X6267143Y-16288729D01*
X6252857Y-16260157D01*
X6252857Y-16245871D01*
X6267143Y-16217300D01*
X6295714Y-16203014D01*
X6338571Y-16203014D01*
X6367143Y-16217300D01*
X6481428Y-16517300D02*
X6495714Y-16503014D01*
X6524286Y-16460157D01*
X6538571Y-16431586D01*
X6552857Y-16388729D01*
X6567143Y-16317300D01*
X6567143Y-16260157D01*
X6552857Y-16188729D01*
X6538571Y-16145871D01*
X6524286Y-16117300D01*
X6495714Y-16074443D01*
X6481428Y-16060157D01*
X-135000Y-16598300D02*
X-5000Y-16728300D01*
X-5000Y-16598300D02*
X-135000Y-16728300D01*
X-70000Y-16598300D02*
X-70000Y-16728300D01*
X-135000Y-16663300D02*
X-5000Y-16663300D01*
X438571Y-16799014D02*
X267143Y-16799014D01*
X352857Y-16799014D02*
X352857Y-16499014D01*
X324286Y-16541871D01*
X295714Y-16570443D01*
X267143Y-16584729D01*
X567143Y-16770443D02*
X581428Y-16784729D01*
X567143Y-16799014D01*
X552857Y-16784729D01*
X567143Y-16770443D01*
X567143Y-16799014D01*
X681428Y-16499014D02*
X867143Y-16499014D01*
X767143Y-16613300D01*
X810000Y-16613300D01*
X838571Y-16627586D01*
X852857Y-16641871D01*
X867143Y-16670443D01*
X867143Y-16741871D01*
X852857Y-16770443D01*
X838571Y-16784729D01*
X810000Y-16799014D01*
X724286Y-16799014D01*
X695714Y-16784729D01*
X681428Y-16770443D01*
X1052857Y-16499014D02*
X1081428Y-16499014D01*
X1110000Y-16513300D01*
X1124286Y-16527586D01*
X1138571Y-16556157D01*
X1152857Y-16613300D01*
X1152857Y-16684729D01*
X1138571Y-16741871D01*
X1124286Y-16770443D01*
X1110000Y-16784729D01*
X1081428Y-16799014D01*
X1052857Y-16799014D01*
X1024286Y-16784729D01*
X1010000Y-16770443D01*
X995714Y-16741871D01*
X981428Y-16684729D01*
X981428Y-16613300D01*
X995714Y-16556157D01*
X1010000Y-16527586D01*
X1024286Y-16513300D01*
X1052857Y-16499014D01*
X1281428Y-16799014D02*
X1281428Y-16599014D01*
X1281428Y-16627586D02*
X1295714Y-16613300D01*
X1324286Y-16599014D01*
X1367143Y-16599014D01*
X1395714Y-16613300D01*
X1410000Y-16641871D01*
X1410000Y-16799014D01*
X1410000Y-16641871D02*
X1424286Y-16613300D01*
X1452857Y-16599014D01*
X1495714Y-16599014D01*
X1524286Y-16613300D01*
X1538571Y-16641871D01*
X1538571Y-16799014D01*
X1681428Y-16799014D02*
X1681428Y-16599014D01*
X1681428Y-16627586D02*
X1695714Y-16613300D01*
X1724286Y-16599014D01*
X1767143Y-16599014D01*
X1795714Y-16613300D01*
X1810000Y-16641871D01*
X1810000Y-16799014D01*
X1810000Y-16641871D02*
X1824286Y-16613300D01*
X1852857Y-16599014D01*
X1895714Y-16599014D01*
X1924286Y-16613300D01*
X1938571Y-16641871D01*
X1938571Y-16799014D01*
X2524286Y-16484729D02*
X2267143Y-16870443D01*
X2910000Y-16499014D02*
X2938571Y-16499014D01*
X2967143Y-16513300D01*
X2981428Y-16527586D01*
X2995714Y-16556157D01*
X3010000Y-16613300D01*
X3010000Y-16684729D01*
X2995714Y-16741871D01*
X2981428Y-16770443D01*
X2967143Y-16784729D01*
X2938571Y-16799014D01*
X2910000Y-16799014D01*
X2881428Y-16784729D01*
X2867143Y-16770443D01*
X2852857Y-16741871D01*
X2838571Y-16684729D01*
X2838571Y-16613300D01*
X2852857Y-16556157D01*
X2867143Y-16527586D01*
X2881428Y-16513300D01*
X2910000Y-16499014D01*
X3138571Y-16770443D02*
X3152857Y-16784729D01*
X3138571Y-16799014D01*
X3124286Y-16784729D01*
X3138571Y-16770443D01*
X3138571Y-16799014D01*
X3338571Y-16499014D02*
X3367143Y-16499014D01*
X3395714Y-16513300D01*
X3410000Y-16527586D01*
X3424286Y-16556157D01*
X3438571Y-16613300D01*
X3438571Y-16684729D01*
X3424286Y-16741871D01*
X3410000Y-16770443D01*
X3395714Y-16784729D01*
X3367143Y-16799014D01*
X3338571Y-16799014D01*
X3310000Y-16784729D01*
X3295714Y-16770443D01*
X3281428Y-16741871D01*
X3267143Y-16684729D01*
X3267143Y-16613300D01*
X3281428Y-16556157D01*
X3295714Y-16527586D01*
X3310000Y-16513300D01*
X3338571Y-16499014D01*
X3710000Y-16499014D02*
X3567143Y-16499014D01*
X3552857Y-16641871D01*
X3567143Y-16627586D01*
X3595714Y-16613300D01*
X3667143Y-16613300D01*
X3695714Y-16627586D01*
X3710000Y-16641871D01*
X3724286Y-16670443D01*
X3724286Y-16741871D01*
X3710000Y-16770443D01*
X3695714Y-16784729D01*
X3667143Y-16799014D01*
X3595714Y-16799014D01*
X3567143Y-16784729D01*
X3552857Y-16770443D01*
X4010000Y-16799014D02*
X3838571Y-16799014D01*
X3924286Y-16799014D02*
X3924286Y-16499014D01*
X3895714Y-16541871D01*
X3867143Y-16570443D01*
X3838571Y-16584729D01*
X4124286Y-16499014D02*
X4124286Y-16556157D01*
X4238571Y-16499014D02*
X4238571Y-16556157D01*
X4681428Y-16913300D02*
X4667143Y-16899014D01*
X4638571Y-16856157D01*
X4624286Y-16827586D01*
X4610000Y-16784729D01*
X4595714Y-16713300D01*
X4595714Y-16656157D01*
X4610000Y-16584729D01*
X4624286Y-16541871D01*
X4638571Y-16513300D01*
X4667143Y-16470443D01*
X4681428Y-16456157D01*
X4952857Y-16799014D02*
X4781428Y-16799014D01*
X4867143Y-16799014D02*
X4867143Y-16499014D01*
X4838571Y-16541871D01*
X4810000Y-16570443D01*
X4781428Y-16584729D01*
X5210000Y-16599014D02*
X5210000Y-16799014D01*
X5138571Y-16484729D02*
X5067143Y-16699014D01*
X5252857Y-16699014D01*
X5595714Y-16799014D02*
X5595714Y-16499014D01*
X5724286Y-16799014D02*
X5724286Y-16641871D01*
X5710000Y-16613300D01*
X5681428Y-16599014D01*
X5638571Y-16599014D01*
X5610000Y-16613300D01*
X5595714Y-16627586D01*
X5910000Y-16799014D02*
X5881428Y-16784729D01*
X5867143Y-16770443D01*
X5852857Y-16741871D01*
X5852857Y-16656157D01*
X5867143Y-16627586D01*
X5881428Y-16613300D01*
X5910000Y-16599014D01*
X5952857Y-16599014D01*
X5981428Y-16613300D01*
X5995714Y-16627586D01*
X6010000Y-16656157D01*
X6010000Y-16741871D01*
X5995714Y-16770443D01*
X5981428Y-16784729D01*
X5952857Y-16799014D01*
X5910000Y-16799014D01*
X6181428Y-16799014D02*
X6152857Y-16784729D01*
X6138571Y-16756157D01*
X6138571Y-16499014D01*
X6410000Y-16784729D02*
X6381428Y-16799014D01*
X6324286Y-16799014D01*
X6295714Y-16784729D01*
X6281428Y-16756157D01*
X6281428Y-16641871D01*
X6295714Y-16613300D01*
X6324286Y-16599014D01*
X6381428Y-16599014D01*
X6410000Y-16613300D01*
X6424286Y-16641871D01*
X6424286Y-16670443D01*
X6281428Y-16699014D01*
X6538571Y-16784729D02*
X6567143Y-16799014D01*
X6624286Y-16799014D01*
X6652857Y-16784729D01*
X6667143Y-16756157D01*
X6667143Y-16741871D01*
X6652857Y-16713300D01*
X6624286Y-16699014D01*
X6581428Y-16699014D01*
X6552857Y-16684729D01*
X6538571Y-16656157D01*
X6538571Y-16641871D01*
X6552857Y-16613300D01*
X6581428Y-16599014D01*
X6624286Y-16599014D01*
X6652857Y-16613300D01*
X6767143Y-16913300D02*
X6781428Y-16899014D01*
X6810000Y-16856157D01*
X6824286Y-16827586D01*
X6838571Y-16784729D01*
X6852857Y-16713300D01*
X6852857Y-16656157D01*
X6838571Y-16584729D01*
X6824286Y-16541871D01*
X6810000Y-16513300D01*
X6781428Y-16470443D01*
X6767143Y-16456157D01*
X-157000Y-16983300D02*
X-5000Y-17135300D01*
X-5000Y-16983300D02*
X-157000Y-17135300D01*
X-27259Y-17113041D02*
X-27259Y-17005560D01*
X-134741Y-17005560D01*
X-134741Y-17113041D01*
X-27259Y-17113041D01*
X438571Y-17195014D02*
X267143Y-17195014D01*
X352857Y-17195014D02*
X352857Y-16895014D01*
X324286Y-16937872D01*
X295714Y-16966443D01*
X267143Y-16980729D01*
X567143Y-17166443D02*
X581428Y-17180729D01*
X567143Y-17195014D01*
X552857Y-17180729D01*
X567143Y-17166443D01*
X567143Y-17195014D01*
X852857Y-16895014D02*
X710000Y-16895014D01*
X695714Y-17037872D01*
X710000Y-17023586D01*
X738571Y-17009300D01*
X810000Y-17009300D01*
X838571Y-17023586D01*
X852857Y-17037872D01*
X867143Y-17066443D01*
X867143Y-17137872D01*
X852857Y-17166443D01*
X838571Y-17180729D01*
X810000Y-17195014D01*
X738571Y-17195014D01*
X710000Y-17180729D01*
X695714Y-17166443D01*
X981428Y-16923586D02*
X995714Y-16909300D01*
X1024286Y-16895014D01*
X1095714Y-16895014D01*
X1124286Y-16909300D01*
X1138571Y-16923586D01*
X1152857Y-16952157D01*
X1152857Y-16980729D01*
X1138571Y-17023586D01*
X967143Y-17195014D01*
X1152857Y-17195014D01*
X1281428Y-17195014D02*
X1281428Y-16995014D01*
X1281428Y-17023586D02*
X1295714Y-17009300D01*
X1324286Y-16995014D01*
X1367143Y-16995014D01*
X1395714Y-17009300D01*
X1410000Y-17037872D01*
X1410000Y-17195014D01*
X1410000Y-17037872D02*
X1424286Y-17009300D01*
X1452857Y-16995014D01*
X1495714Y-16995014D01*
X1524286Y-17009300D01*
X1538571Y-17037872D01*
X1538571Y-17195014D01*
X1681428Y-17195014D02*
X1681428Y-16995014D01*
X1681428Y-17023586D02*
X1695714Y-17009300D01*
X1724286Y-16995014D01*
X1767143Y-16995014D01*
X1795714Y-17009300D01*
X1810000Y-17037872D01*
X1810000Y-17195014D01*
X1810000Y-17037872D02*
X1824286Y-17009300D01*
X1852857Y-16995014D01*
X1895714Y-16995014D01*
X1924286Y-17009300D01*
X1938571Y-17037872D01*
X1938571Y-17195014D01*
X2524286Y-16880729D02*
X2267143Y-17266443D01*
X2910000Y-16895014D02*
X2938571Y-16895014D01*
X2967143Y-16909300D01*
X2981428Y-16923586D01*
X2995714Y-16952157D01*
X3010000Y-17009300D01*
X3010000Y-17080729D01*
X2995714Y-17137872D01*
X2981428Y-17166443D01*
X2967143Y-17180729D01*
X2938571Y-17195014D01*
X2910000Y-17195014D01*
X2881428Y-17180729D01*
X2867143Y-17166443D01*
X2852857Y-17137872D01*
X2838571Y-17080729D01*
X2838571Y-17009300D01*
X2852857Y-16952157D01*
X2867143Y-16923586D01*
X2881428Y-16909300D01*
X2910000Y-16895014D01*
X3138571Y-17166443D02*
X3152857Y-17180729D01*
X3138571Y-17195014D01*
X3124286Y-17180729D01*
X3138571Y-17166443D01*
X3138571Y-17195014D01*
X3338571Y-16895014D02*
X3367143Y-16895014D01*
X3395714Y-16909300D01*
X3410000Y-16923586D01*
X3424286Y-16952157D01*
X3438571Y-17009300D01*
X3438571Y-17080729D01*
X3424286Y-17137872D01*
X3410000Y-17166443D01*
X3395714Y-17180729D01*
X3367143Y-17195014D01*
X3338571Y-17195014D01*
X3310000Y-17180729D01*
X3295714Y-17166443D01*
X3281428Y-17137872D01*
X3267143Y-17080729D01*
X3267143Y-17009300D01*
X3281428Y-16952157D01*
X3295714Y-16923586D01*
X3310000Y-16909300D01*
X3338571Y-16895014D01*
X3695714Y-16895014D02*
X3638571Y-16895014D01*
X3610000Y-16909300D01*
X3595714Y-16923586D01*
X3567143Y-16966443D01*
X3552857Y-17023586D01*
X3552857Y-17137872D01*
X3567143Y-17166443D01*
X3581428Y-17180729D01*
X3610000Y-17195014D01*
X3667143Y-17195014D01*
X3695714Y-17180729D01*
X3710000Y-17166443D01*
X3724286Y-17137872D01*
X3724286Y-17066443D01*
X3710000Y-17037872D01*
X3695714Y-17023586D01*
X3667143Y-17009300D01*
X3610000Y-17009300D01*
X3581428Y-17023586D01*
X3567143Y-17037872D01*
X3552857Y-17066443D01*
X3910000Y-16895014D02*
X3938571Y-16895014D01*
X3967143Y-16909300D01*
X3981428Y-16923586D01*
X3995714Y-16952157D01*
X4010000Y-17009300D01*
X4010000Y-17080729D01*
X3995714Y-17137872D01*
X3981428Y-17166443D01*
X3967143Y-17180729D01*
X3938571Y-17195014D01*
X3910000Y-17195014D01*
X3881428Y-17180729D01*
X3867143Y-17166443D01*
X3852857Y-17137872D01*
X3838571Y-17080729D01*
X3838571Y-17009300D01*
X3852857Y-16952157D01*
X3867143Y-16923586D01*
X3881428Y-16909300D01*
X3910000Y-16895014D01*
X4124286Y-16895014D02*
X4124286Y-16952157D01*
X4238571Y-16895014D02*
X4238571Y-16952157D01*
X4681428Y-17309300D02*
X4667143Y-17295014D01*
X4638571Y-17252157D01*
X4624286Y-17223586D01*
X4610000Y-17180729D01*
X4595714Y-17109300D01*
X4595714Y-17052157D01*
X4610000Y-16980729D01*
X4624286Y-16937872D01*
X4638571Y-16909300D01*
X4667143Y-16866443D01*
X4681428Y-16852157D01*
X4952857Y-17195014D02*
X4781428Y-17195014D01*
X4867143Y-17195014D02*
X4867143Y-16895014D01*
X4838571Y-16937872D01*
X4810000Y-16966443D01*
X4781428Y-16980729D01*
X5210000Y-16895014D02*
X5152857Y-16895014D01*
X5124286Y-16909300D01*
X5110000Y-16923586D01*
X5081428Y-16966443D01*
X5067143Y-17023586D01*
X5067143Y-17137872D01*
X5081428Y-17166443D01*
X5095714Y-17180729D01*
X5124286Y-17195014D01*
X5181428Y-17195014D01*
X5210000Y-17180729D01*
X5224286Y-17166443D01*
X5238571Y-17137872D01*
X5238571Y-17066443D01*
X5224286Y-17037872D01*
X5210000Y-17023586D01*
X5181428Y-17009300D01*
X5124286Y-17009300D01*
X5095714Y-17023586D01*
X5081428Y-17037872D01*
X5067143Y-17066443D01*
X5595714Y-17195014D02*
X5595714Y-16895014D01*
X5724286Y-17195014D02*
X5724286Y-17037872D01*
X5710000Y-17009300D01*
X5681428Y-16995014D01*
X5638571Y-16995014D01*
X5610000Y-17009300D01*
X5595714Y-17023586D01*
X5910000Y-17195014D02*
X5881428Y-17180729D01*
X5867143Y-17166443D01*
X5852857Y-17137872D01*
X5852857Y-17052157D01*
X5867143Y-17023586D01*
X5881428Y-17009300D01*
X5910000Y-16995014D01*
X5952857Y-16995014D01*
X5981428Y-17009300D01*
X5995714Y-17023586D01*
X6010000Y-17052157D01*
X6010000Y-17137872D01*
X5995714Y-17166443D01*
X5981428Y-17180729D01*
X5952857Y-17195014D01*
X5910000Y-17195014D01*
X6181428Y-17195014D02*
X6152857Y-17180729D01*
X6138571Y-17152157D01*
X6138571Y-16895014D01*
X6410000Y-17180729D02*
X6381428Y-17195014D01*
X6324286Y-17195014D01*
X6295714Y-17180729D01*
X6281428Y-17152157D01*
X6281428Y-17037872D01*
X6295714Y-17009300D01*
X6324286Y-16995014D01*
X6381428Y-16995014D01*
X6410000Y-17009300D01*
X6424286Y-17037872D01*
X6424286Y-17066443D01*
X6281428Y-17095014D01*
X6538571Y-17180729D02*
X6567143Y-17195014D01*
X6624286Y-17195014D01*
X6652857Y-17180729D01*
X6667143Y-17152157D01*
X6667143Y-17137872D01*
X6652857Y-17109300D01*
X6624286Y-17095014D01*
X6581428Y-17095014D01*
X6552857Y-17080729D01*
X6538571Y-17052157D01*
X6538571Y-17037872D01*
X6552857Y-17009300D01*
X6581428Y-16995014D01*
X6624286Y-16995014D01*
X6652857Y-17009300D01*
X6767143Y-17309300D02*
X6781428Y-17295014D01*
X6810000Y-17252157D01*
X6824286Y-17223586D01*
X6838571Y-17180729D01*
X6852857Y-17109300D01*
X6852857Y-17052157D01*
X6838571Y-16980729D01*
X6824286Y-16937872D01*
X6810000Y-16909300D01*
X6781428Y-16866443D01*
X6767143Y-16852157D01*
X-435000Y-17240300D02*
X-5000Y-17670300D01*
X-5000Y-17240300D02*
X-435000Y-17670300D01*
X-220000Y-17670300D02*
X-5000Y-17455300D01*
X-220000Y-17240300D01*
X-435000Y-17455300D01*
X-220000Y-17670300D01*
X410000Y-17391014D02*
X410000Y-17591014D01*
X338571Y-17276729D02*
X267143Y-17491014D01*
X452857Y-17491014D01*
X567143Y-17562443D02*
X581428Y-17576729D01*
X567143Y-17591014D01*
X552857Y-17576729D01*
X567143Y-17562443D01*
X567143Y-17591014D01*
X681428Y-17291014D02*
X867143Y-17291014D01*
X767143Y-17405300D01*
X810000Y-17405300D01*
X838571Y-17419586D01*
X852857Y-17433872D01*
X867143Y-17462443D01*
X867143Y-17533872D01*
X852857Y-17562443D01*
X838571Y-17576729D01*
X810000Y-17591014D01*
X724286Y-17591014D01*
X695714Y-17576729D01*
X681428Y-17562443D01*
X1052857Y-17291014D02*
X1081428Y-17291014D01*
X1110000Y-17305300D01*
X1124286Y-17319586D01*
X1138571Y-17348157D01*
X1152857Y-17405300D01*
X1152857Y-17476729D01*
X1138571Y-17533872D01*
X1124286Y-17562443D01*
X1110000Y-17576729D01*
X1081428Y-17591014D01*
X1052857Y-17591014D01*
X1024286Y-17576729D01*
X1010000Y-17562443D01*
X995714Y-17533872D01*
X981428Y-17476729D01*
X981428Y-17405300D01*
X995714Y-17348157D01*
X1010000Y-17319586D01*
X1024286Y-17305300D01*
X1052857Y-17291014D01*
X1281428Y-17591014D02*
X1281428Y-17391014D01*
X1281428Y-17419586D02*
X1295714Y-17405300D01*
X1324286Y-17391014D01*
X1367143Y-17391014D01*
X1395714Y-17405300D01*
X1410000Y-17433872D01*
X1410000Y-17591014D01*
X1410000Y-17433872D02*
X1424286Y-17405300D01*
X1452857Y-17391014D01*
X1495714Y-17391014D01*
X1524286Y-17405300D01*
X1538571Y-17433872D01*
X1538571Y-17591014D01*
X1681428Y-17591014D02*
X1681428Y-17391014D01*
X1681428Y-17419586D02*
X1695714Y-17405300D01*
X1724286Y-17391014D01*
X1767143Y-17391014D01*
X1795714Y-17405300D01*
X1810000Y-17433872D01*
X1810000Y-17591014D01*
X1810000Y-17433872D02*
X1824286Y-17405300D01*
X1852857Y-17391014D01*
X1895714Y-17391014D01*
X1924286Y-17405300D01*
X1938571Y-17433872D01*
X1938571Y-17591014D01*
X2524286Y-17276729D02*
X2267143Y-17662443D01*
X2910000Y-17291014D02*
X2938571Y-17291014D01*
X2967143Y-17305300D01*
X2981428Y-17319586D01*
X2995714Y-17348157D01*
X3010000Y-17405300D01*
X3010000Y-17476729D01*
X2995714Y-17533872D01*
X2981428Y-17562443D01*
X2967143Y-17576729D01*
X2938571Y-17591014D01*
X2910000Y-17591014D01*
X2881428Y-17576729D01*
X2867143Y-17562443D01*
X2852857Y-17533872D01*
X2838571Y-17476729D01*
X2838571Y-17405300D01*
X2852857Y-17348157D01*
X2867143Y-17319586D01*
X2881428Y-17305300D01*
X2910000Y-17291014D01*
X3138571Y-17562443D02*
X3152857Y-17576729D01*
X3138571Y-17591014D01*
X3124286Y-17576729D01*
X3138571Y-17562443D01*
X3138571Y-17591014D01*
X3438571Y-17591014D02*
X3267143Y-17591014D01*
X3352857Y-17591014D02*
X3352857Y-17291014D01*
X3324286Y-17333872D01*
X3295714Y-17362443D01*
X3267143Y-17376729D01*
X3695714Y-17291014D02*
X3638571Y-17291014D01*
X3610000Y-17305300D01*
X3595714Y-17319586D01*
X3567143Y-17362443D01*
X3552857Y-17419586D01*
X3552857Y-17533872D01*
X3567143Y-17562443D01*
X3581428Y-17576729D01*
X3610000Y-17591014D01*
X3667143Y-17591014D01*
X3695714Y-17576729D01*
X3710000Y-17562443D01*
X3724286Y-17533872D01*
X3724286Y-17462443D01*
X3710000Y-17433872D01*
X3695714Y-17419586D01*
X3667143Y-17405300D01*
X3610000Y-17405300D01*
X3581428Y-17419586D01*
X3567143Y-17433872D01*
X3552857Y-17462443D01*
X3867143Y-17591014D02*
X3924286Y-17591014D01*
X3952857Y-17576729D01*
X3967143Y-17562443D01*
X3995714Y-17519586D01*
X4010000Y-17462443D01*
X4010000Y-17348157D01*
X3995714Y-17319586D01*
X3981428Y-17305300D01*
X3952857Y-17291014D01*
X3895714Y-17291014D01*
X3867143Y-17305300D01*
X3852857Y-17319586D01*
X3838571Y-17348157D01*
X3838571Y-17419586D01*
X3852857Y-17448157D01*
X3867143Y-17462443D01*
X3895714Y-17476729D01*
X3952857Y-17476729D01*
X3981428Y-17462443D01*
X3995714Y-17448157D01*
X4010000Y-17419586D01*
X4124286Y-17291014D02*
X4124286Y-17348157D01*
X4238571Y-17291014D02*
X4238571Y-17348157D01*
X4681428Y-17705300D02*
X4667143Y-17691014D01*
X4638571Y-17648157D01*
X4624286Y-17619586D01*
X4610000Y-17576729D01*
X4595714Y-17505300D01*
X4595714Y-17448157D01*
X4610000Y-17376729D01*
X4624286Y-17333872D01*
X4638571Y-17305300D01*
X4667143Y-17262443D01*
X4681428Y-17248157D01*
X4952857Y-17591014D02*
X4781428Y-17591014D01*
X4867143Y-17591014D02*
X4867143Y-17291014D01*
X4838571Y-17333872D01*
X4810000Y-17362443D01*
X4781428Y-17376729D01*
X5310000Y-17591014D02*
X5310000Y-17291014D01*
X5438571Y-17591014D02*
X5438571Y-17433872D01*
X5424286Y-17405300D01*
X5395714Y-17391014D01*
X5352857Y-17391014D01*
X5324286Y-17405300D01*
X5310000Y-17419586D01*
X5624286Y-17591014D02*
X5595714Y-17576729D01*
X5581428Y-17562443D01*
X5567143Y-17533872D01*
X5567143Y-17448157D01*
X5581428Y-17419586D01*
X5595714Y-17405300D01*
X5624286Y-17391014D01*
X5667143Y-17391014D01*
X5695714Y-17405300D01*
X5710000Y-17419586D01*
X5724286Y-17448157D01*
X5724286Y-17533872D01*
X5710000Y-17562443D01*
X5695714Y-17576729D01*
X5667143Y-17591014D01*
X5624286Y-17591014D01*
X5895714Y-17591014D02*
X5867143Y-17576729D01*
X5852857Y-17548157D01*
X5852857Y-17291014D01*
X6124286Y-17576729D02*
X6095714Y-17591014D01*
X6038571Y-17591014D01*
X6010000Y-17576729D01*
X5995714Y-17548157D01*
X5995714Y-17433872D01*
X6010000Y-17405300D01*
X6038571Y-17391014D01*
X6095714Y-17391014D01*
X6124286Y-17405300D01*
X6138571Y-17433872D01*
X6138571Y-17462443D01*
X5995714Y-17491014D01*
X6238571Y-17705300D02*
X6252857Y-17691014D01*
X6281428Y-17648157D01*
X6295714Y-17619586D01*
X6310000Y-17576729D01*
X6324286Y-17505300D01*
X6324286Y-17448157D01*
X6310000Y-17376729D01*
X6295714Y-17333872D01*
X6281428Y-17305300D01*
X6252857Y-17262443D01*
X6238571Y-17248157D01*
M02*
