%FSLAX45Y45*%
G04 Gerber Fmt 4.5, Leading zero omitted, Abs format (unit mm)*
G04 Created by KiCad (PCBNEW (5.1.0)-1) date 2022-05-17 16:18:05*
%MOMM*%
%LPD*%
G04 APERTURE LIST*
%ADD10C,0.100000*%
%ADD11C,0.200000*%
%ADD12C,0.300000*%
G04 APERTURE END LIST*
D10*
X12674600Y-3340100D02*
X12674600Y-3441700D01*
X12674600Y-2578100D02*
X12674600Y-2679700D01*
X11912600Y-2679700D02*
X11912600Y-2578100D01*
X12674600Y-2679700D02*
X11912600Y-2679700D01*
X11912600Y-2578100D02*
X12674600Y-2578100D01*
X11912600Y-3441700D02*
X11912600Y-3340100D01*
X12674600Y-3441700D02*
X11912600Y-3441700D01*
X11912600Y-3340100D02*
X12674600Y-3340100D01*
X11912600Y-2959100D02*
X13233400Y-2959100D01*
X11912600Y-3060700D02*
X11912600Y-2959100D01*
X13233400Y-3060700D02*
X11912600Y-3060700D01*
X13233400Y-2959100D02*
X13233400Y-3060700D01*
X0Y0D02*
X0Y-13322300D01*
X17640300Y0D02*
X0Y0D01*
X17640300Y-13322300D02*
X17640300Y0D01*
X0Y-13322300D02*
X17640300Y-13322300D01*
D11*
X8822400Y-12916200D02*
X8942400Y-13036200D01*
X8942400Y-12916200D02*
X8822400Y-13036200D01*
X10219400Y-12916200D02*
X10339400Y-13036200D01*
X10339400Y-12916200D02*
X10219400Y-13036200D01*
X14802200Y-5698200D02*
X14922200Y-5818200D01*
X14922200Y-5698200D02*
X14802200Y-5818200D01*
X8630000Y-4993350D02*
X8750000Y-5113350D01*
X8750000Y-4993350D02*
X8630000Y-5113350D01*
X13375350Y-1537000D02*
X13495350Y-1657000D01*
X13495350Y-1537000D02*
X13375350Y-1657000D01*
X14715300Y-12722300D02*
G75*
G03X14715300Y-12722300I-215000J0D01*
G01*
X14715300Y-600000D02*
G75*
G03X14715300Y-600000I-215000J0D01*
G01*
X815000Y-12722300D02*
G75*
G03X815000Y-12722300I-215000J0D01*
G01*
D12*
X281428Y-13793014D02*
X281428Y-13493014D01*
X352857Y-13493014D01*
X395714Y-13507300D01*
X424286Y-13535871D01*
X438571Y-13564443D01*
X452857Y-13621586D01*
X452857Y-13664443D01*
X438571Y-13721586D01*
X424286Y-13750157D01*
X395714Y-13778729D01*
X352857Y-13793014D01*
X281428Y-13793014D01*
X581428Y-13793014D02*
X581428Y-13593014D01*
X581428Y-13650157D02*
X595714Y-13621586D01*
X610000Y-13607300D01*
X638571Y-13593014D01*
X667143Y-13593014D01*
X767143Y-13793014D02*
X767143Y-13593014D01*
X767143Y-13493014D02*
X752857Y-13507300D01*
X767143Y-13521586D01*
X781428Y-13507300D01*
X767143Y-13493014D01*
X767143Y-13521586D01*
X952857Y-13793014D02*
X924286Y-13778729D01*
X910000Y-13750157D01*
X910000Y-13493014D01*
X1110000Y-13793014D02*
X1081428Y-13778729D01*
X1067143Y-13750157D01*
X1067143Y-13493014D01*
X1452857Y-13793014D02*
X1452857Y-13493014D01*
X1552857Y-13707300D01*
X1652857Y-13493014D01*
X1652857Y-13793014D01*
X1924286Y-13793014D02*
X1924286Y-13635871D01*
X1910000Y-13607300D01*
X1881428Y-13593014D01*
X1824286Y-13593014D01*
X1795714Y-13607300D01*
X1924286Y-13778729D02*
X1895714Y-13793014D01*
X1824286Y-13793014D01*
X1795714Y-13778729D01*
X1781428Y-13750157D01*
X1781428Y-13721586D01*
X1795714Y-13693014D01*
X1824286Y-13678729D01*
X1895714Y-13678729D01*
X1924286Y-13664443D01*
X2067143Y-13593014D02*
X2067143Y-13893014D01*
X2067143Y-13607300D02*
X2095714Y-13593014D01*
X2152857Y-13593014D01*
X2181428Y-13607300D01*
X2195714Y-13621586D01*
X2210000Y-13650157D01*
X2210000Y-13735871D01*
X2195714Y-13764443D01*
X2181428Y-13778729D01*
X2152857Y-13793014D01*
X2095714Y-13793014D01*
X2067143Y-13778729D01*
X2338571Y-13764443D02*
X2352857Y-13778729D01*
X2338571Y-13793014D01*
X2324286Y-13778729D01*
X2338571Y-13764443D01*
X2338571Y-13793014D01*
X2338571Y-13607300D02*
X2352857Y-13621586D01*
X2338571Y-13635871D01*
X2324286Y-13621586D01*
X2338571Y-13607300D01*
X2338571Y-13635871D01*
X-125000Y-14227300D02*
X-5000Y-14347300D01*
X-5000Y-14227300D02*
X-125000Y-14347300D01*
X438571Y-14423014D02*
X267143Y-14423014D01*
X352857Y-14423014D02*
X352857Y-14123014D01*
X324286Y-14165871D01*
X295714Y-14194443D01*
X267143Y-14208729D01*
X567143Y-14394443D02*
X581428Y-14408729D01*
X567143Y-14423014D01*
X552857Y-14408729D01*
X567143Y-14394443D01*
X567143Y-14423014D01*
X695714Y-14151586D02*
X710000Y-14137300D01*
X738571Y-14123014D01*
X810000Y-14123014D01*
X838571Y-14137300D01*
X852857Y-14151586D01*
X867143Y-14180157D01*
X867143Y-14208729D01*
X852857Y-14251586D01*
X681428Y-14423014D01*
X867143Y-14423014D01*
X1052857Y-14123014D02*
X1081428Y-14123014D01*
X1110000Y-14137300D01*
X1124286Y-14151586D01*
X1138571Y-14180157D01*
X1152857Y-14237300D01*
X1152857Y-14308729D01*
X1138571Y-14365871D01*
X1124286Y-14394443D01*
X1110000Y-14408729D01*
X1081428Y-14423014D01*
X1052857Y-14423014D01*
X1024286Y-14408729D01*
X1010000Y-14394443D01*
X995714Y-14365871D01*
X981428Y-14308729D01*
X981428Y-14237300D01*
X995714Y-14180157D01*
X1010000Y-14151586D01*
X1024286Y-14137300D01*
X1052857Y-14123014D01*
X1281428Y-14423014D02*
X1281428Y-14223014D01*
X1281428Y-14251586D02*
X1295714Y-14237300D01*
X1324286Y-14223014D01*
X1367143Y-14223014D01*
X1395714Y-14237300D01*
X1410000Y-14265871D01*
X1410000Y-14423014D01*
X1410000Y-14265871D02*
X1424286Y-14237300D01*
X1452857Y-14223014D01*
X1495714Y-14223014D01*
X1524286Y-14237300D01*
X1538571Y-14265871D01*
X1538571Y-14423014D01*
X1681428Y-14423014D02*
X1681428Y-14223014D01*
X1681428Y-14251586D02*
X1695714Y-14237300D01*
X1724286Y-14223014D01*
X1767143Y-14223014D01*
X1795714Y-14237300D01*
X1810000Y-14265871D01*
X1810000Y-14423014D01*
X1810000Y-14265871D02*
X1824286Y-14237300D01*
X1852857Y-14223014D01*
X1895714Y-14223014D01*
X1924286Y-14237300D01*
X1938571Y-14265871D01*
X1938571Y-14423014D01*
X2524286Y-14108729D02*
X2267143Y-14494443D01*
X2910000Y-14123014D02*
X2938571Y-14123014D01*
X2967143Y-14137300D01*
X2981428Y-14151586D01*
X2995714Y-14180157D01*
X3010000Y-14237300D01*
X3010000Y-14308729D01*
X2995714Y-14365871D01*
X2981428Y-14394443D01*
X2967143Y-14408729D01*
X2938571Y-14423014D01*
X2910000Y-14423014D01*
X2881428Y-14408729D01*
X2867143Y-14394443D01*
X2852857Y-14365871D01*
X2838571Y-14308729D01*
X2838571Y-14237300D01*
X2852857Y-14180157D01*
X2867143Y-14151586D01*
X2881428Y-14137300D01*
X2910000Y-14123014D01*
X3138571Y-14394443D02*
X3152857Y-14408729D01*
X3138571Y-14423014D01*
X3124286Y-14408729D01*
X3138571Y-14394443D01*
X3138571Y-14423014D01*
X3338571Y-14123014D02*
X3367143Y-14123014D01*
X3395714Y-14137300D01*
X3410000Y-14151586D01*
X3424286Y-14180157D01*
X3438571Y-14237300D01*
X3438571Y-14308729D01*
X3424286Y-14365871D01*
X3410000Y-14394443D01*
X3395714Y-14408729D01*
X3367143Y-14423014D01*
X3338571Y-14423014D01*
X3310000Y-14408729D01*
X3295714Y-14394443D01*
X3281428Y-14365871D01*
X3267143Y-14308729D01*
X3267143Y-14237300D01*
X3281428Y-14180157D01*
X3295714Y-14151586D01*
X3310000Y-14137300D01*
X3338571Y-14123014D01*
X3695714Y-14223014D02*
X3695714Y-14423014D01*
X3624286Y-14108729D02*
X3552857Y-14323014D01*
X3738571Y-14323014D01*
X3824286Y-14123014D02*
X4024286Y-14123014D01*
X3895714Y-14423014D01*
X4124286Y-14123014D02*
X4124286Y-14180157D01*
X4238571Y-14123014D02*
X4238571Y-14180157D01*
X4681428Y-14537300D02*
X4667143Y-14523014D01*
X4638571Y-14480157D01*
X4624286Y-14451586D01*
X4610000Y-14408729D01*
X4595714Y-14337300D01*
X4595714Y-14280157D01*
X4610000Y-14208729D01*
X4624286Y-14165871D01*
X4638571Y-14137300D01*
X4667143Y-14094443D01*
X4681428Y-14080157D01*
X4938571Y-14123014D02*
X4795714Y-14123014D01*
X4781428Y-14265871D01*
X4795714Y-14251586D01*
X4824286Y-14237300D01*
X4895714Y-14237300D01*
X4924286Y-14251586D01*
X4938571Y-14265871D01*
X4952857Y-14294443D01*
X4952857Y-14365871D01*
X4938571Y-14394443D01*
X4924286Y-14408729D01*
X4895714Y-14423014D01*
X4824286Y-14423014D01*
X4795714Y-14408729D01*
X4781428Y-14394443D01*
X5310000Y-14423014D02*
X5310000Y-14123014D01*
X5438571Y-14423014D02*
X5438571Y-14265871D01*
X5424286Y-14237300D01*
X5395714Y-14223014D01*
X5352857Y-14223014D01*
X5324286Y-14237300D01*
X5310000Y-14251586D01*
X5624286Y-14423014D02*
X5595714Y-14408729D01*
X5581428Y-14394443D01*
X5567143Y-14365871D01*
X5567143Y-14280157D01*
X5581428Y-14251586D01*
X5595714Y-14237300D01*
X5624286Y-14223014D01*
X5667143Y-14223014D01*
X5695714Y-14237300D01*
X5710000Y-14251586D01*
X5724286Y-14280157D01*
X5724286Y-14365871D01*
X5710000Y-14394443D01*
X5695714Y-14408729D01*
X5667143Y-14423014D01*
X5624286Y-14423014D01*
X5895714Y-14423014D02*
X5867143Y-14408729D01*
X5852857Y-14380157D01*
X5852857Y-14123014D01*
X6124286Y-14408729D02*
X6095714Y-14423014D01*
X6038571Y-14423014D01*
X6010000Y-14408729D01*
X5995714Y-14380157D01*
X5995714Y-14265871D01*
X6010000Y-14237300D01*
X6038571Y-14223014D01*
X6095714Y-14223014D01*
X6124286Y-14237300D01*
X6138571Y-14265871D01*
X6138571Y-14294443D01*
X5995714Y-14323014D01*
X6252857Y-14408729D02*
X6281428Y-14423014D01*
X6338571Y-14423014D01*
X6367143Y-14408729D01*
X6381428Y-14380157D01*
X6381428Y-14365871D01*
X6367143Y-14337300D01*
X6338571Y-14323014D01*
X6295714Y-14323014D01*
X6267143Y-14308729D01*
X6252857Y-14280157D01*
X6252857Y-14265871D01*
X6267143Y-14237300D01*
X6295714Y-14223014D01*
X6338571Y-14223014D01*
X6367143Y-14237300D01*
X6481428Y-14537300D02*
X6495714Y-14523014D01*
X6524286Y-14480157D01*
X6538571Y-14451586D01*
X6552857Y-14408729D01*
X6567143Y-14337300D01*
X6567143Y-14280157D01*
X6552857Y-14208729D01*
X6538571Y-14165871D01*
X6524286Y-14137300D01*
X6495714Y-14094443D01*
X6481428Y-14080157D01*
X7024286Y-14537300D02*
X7010000Y-14523014D01*
X6981428Y-14480157D01*
X6967143Y-14451586D01*
X6952857Y-14408729D01*
X6938571Y-14337300D01*
X6938571Y-14280157D01*
X6952857Y-14208729D01*
X6967143Y-14165871D01*
X6981428Y-14137300D01*
X7010000Y-14094443D01*
X7024286Y-14080157D01*
X7138571Y-14223014D02*
X7138571Y-14423014D01*
X7138571Y-14251586D02*
X7152857Y-14237300D01*
X7181428Y-14223014D01*
X7224286Y-14223014D01*
X7252857Y-14237300D01*
X7267143Y-14265871D01*
X7267143Y-14423014D01*
X7452857Y-14423014D02*
X7424286Y-14408729D01*
X7410000Y-14394443D01*
X7395714Y-14365871D01*
X7395714Y-14280157D01*
X7410000Y-14251586D01*
X7424286Y-14237300D01*
X7452857Y-14223014D01*
X7495714Y-14223014D01*
X7524286Y-14237300D01*
X7538571Y-14251586D01*
X7552857Y-14280157D01*
X7552857Y-14365871D01*
X7538571Y-14394443D01*
X7524286Y-14408729D01*
X7495714Y-14423014D01*
X7452857Y-14423014D01*
X7638571Y-14223014D02*
X7752857Y-14223014D01*
X7681428Y-14123014D02*
X7681428Y-14380157D01*
X7695714Y-14408729D01*
X7724286Y-14423014D01*
X7752857Y-14423014D01*
X8081428Y-14223014D02*
X8081428Y-14523014D01*
X8081428Y-14237300D02*
X8110000Y-14223014D01*
X8167143Y-14223014D01*
X8195714Y-14237300D01*
X8210000Y-14251586D01*
X8224286Y-14280157D01*
X8224286Y-14365871D01*
X8210000Y-14394443D01*
X8195714Y-14408729D01*
X8167143Y-14423014D01*
X8110000Y-14423014D01*
X8081428Y-14408729D01*
X8395714Y-14423014D02*
X8367143Y-14408729D01*
X8352857Y-14380157D01*
X8352857Y-14123014D01*
X8638571Y-14423014D02*
X8638571Y-14265871D01*
X8624286Y-14237300D01*
X8595714Y-14223014D01*
X8538571Y-14223014D01*
X8510000Y-14237300D01*
X8638571Y-14408729D02*
X8610000Y-14423014D01*
X8538571Y-14423014D01*
X8510000Y-14408729D01*
X8495714Y-14380157D01*
X8495714Y-14351586D01*
X8510000Y-14323014D01*
X8538571Y-14308729D01*
X8610000Y-14308729D01*
X8638571Y-14294443D01*
X8738571Y-14223014D02*
X8852857Y-14223014D01*
X8781428Y-14123014D02*
X8781428Y-14380157D01*
X8795714Y-14408729D01*
X8824286Y-14423014D01*
X8852857Y-14423014D01*
X9067143Y-14408729D02*
X9038571Y-14423014D01*
X8981428Y-14423014D01*
X8952857Y-14408729D01*
X8938571Y-14380157D01*
X8938571Y-14265871D01*
X8952857Y-14237300D01*
X8981428Y-14223014D01*
X9038571Y-14223014D01*
X9067143Y-14237300D01*
X9081428Y-14265871D01*
X9081428Y-14294443D01*
X8938571Y-14323014D01*
X9338571Y-14423014D02*
X9338571Y-14123014D01*
X9338571Y-14408729D02*
X9310000Y-14423014D01*
X9252857Y-14423014D01*
X9224286Y-14408729D01*
X9210000Y-14394443D01*
X9195714Y-14365871D01*
X9195714Y-14280157D01*
X9210000Y-14251586D01*
X9224286Y-14237300D01*
X9252857Y-14223014D01*
X9310000Y-14223014D01*
X9338571Y-14237300D01*
X9452857Y-14537300D02*
X9467143Y-14523014D01*
X9495714Y-14480157D01*
X9510000Y-14451586D01*
X9524286Y-14408729D01*
X9538571Y-14337300D01*
X9538571Y-14280157D01*
X9524286Y-14208729D01*
X9510000Y-14165871D01*
X9495714Y-14137300D01*
X9467143Y-14094443D01*
X9452857Y-14080157D01*
X-5000Y-14683300D02*
G75*
G03X-5000Y-14683300I-215000J0D01*
G01*
X410000Y-14619014D02*
X410000Y-14819014D01*
X338571Y-14504729D02*
X267143Y-14719014D01*
X452857Y-14719014D01*
X567143Y-14790443D02*
X581428Y-14804729D01*
X567143Y-14819014D01*
X552857Y-14804729D01*
X567143Y-14790443D01*
X567143Y-14819014D01*
X681428Y-14519014D02*
X867143Y-14519014D01*
X767143Y-14633300D01*
X810000Y-14633300D01*
X838571Y-14647586D01*
X852857Y-14661871D01*
X867143Y-14690443D01*
X867143Y-14761871D01*
X852857Y-14790443D01*
X838571Y-14804729D01*
X810000Y-14819014D01*
X724286Y-14819014D01*
X695714Y-14804729D01*
X681428Y-14790443D01*
X1052857Y-14519014D02*
X1081428Y-14519014D01*
X1110000Y-14533300D01*
X1124286Y-14547586D01*
X1138571Y-14576157D01*
X1152857Y-14633300D01*
X1152857Y-14704729D01*
X1138571Y-14761871D01*
X1124286Y-14790443D01*
X1110000Y-14804729D01*
X1081428Y-14819014D01*
X1052857Y-14819014D01*
X1024286Y-14804729D01*
X1010000Y-14790443D01*
X995714Y-14761871D01*
X981428Y-14704729D01*
X981428Y-14633300D01*
X995714Y-14576157D01*
X1010000Y-14547586D01*
X1024286Y-14533300D01*
X1052857Y-14519014D01*
X1281428Y-14819014D02*
X1281428Y-14619014D01*
X1281428Y-14647586D02*
X1295714Y-14633300D01*
X1324286Y-14619014D01*
X1367143Y-14619014D01*
X1395714Y-14633300D01*
X1410000Y-14661871D01*
X1410000Y-14819014D01*
X1410000Y-14661871D02*
X1424286Y-14633300D01*
X1452857Y-14619014D01*
X1495714Y-14619014D01*
X1524286Y-14633300D01*
X1538571Y-14661871D01*
X1538571Y-14819014D01*
X1681428Y-14819014D02*
X1681428Y-14619014D01*
X1681428Y-14647586D02*
X1695714Y-14633300D01*
X1724286Y-14619014D01*
X1767143Y-14619014D01*
X1795714Y-14633300D01*
X1810000Y-14661871D01*
X1810000Y-14819014D01*
X1810000Y-14661871D02*
X1824286Y-14633300D01*
X1852857Y-14619014D01*
X1895714Y-14619014D01*
X1924286Y-14633300D01*
X1938571Y-14661871D01*
X1938571Y-14819014D01*
X2524286Y-14504729D02*
X2267143Y-14890443D01*
X2910000Y-14519014D02*
X2938571Y-14519014D01*
X2967143Y-14533300D01*
X2981428Y-14547586D01*
X2995714Y-14576157D01*
X3010000Y-14633300D01*
X3010000Y-14704729D01*
X2995714Y-14761871D01*
X2981428Y-14790443D01*
X2967143Y-14804729D01*
X2938571Y-14819014D01*
X2910000Y-14819014D01*
X2881428Y-14804729D01*
X2867143Y-14790443D01*
X2852857Y-14761871D01*
X2838571Y-14704729D01*
X2838571Y-14633300D01*
X2852857Y-14576157D01*
X2867143Y-14547586D01*
X2881428Y-14533300D01*
X2910000Y-14519014D01*
X3138571Y-14790443D02*
X3152857Y-14804729D01*
X3138571Y-14819014D01*
X3124286Y-14804729D01*
X3138571Y-14790443D01*
X3138571Y-14819014D01*
X3438571Y-14819014D02*
X3267143Y-14819014D01*
X3352857Y-14819014D02*
X3352857Y-14519014D01*
X3324286Y-14561871D01*
X3295714Y-14590443D01*
X3267143Y-14604729D01*
X3695714Y-14519014D02*
X3638571Y-14519014D01*
X3610000Y-14533300D01*
X3595714Y-14547586D01*
X3567143Y-14590443D01*
X3552857Y-14647586D01*
X3552857Y-14761871D01*
X3567143Y-14790443D01*
X3581428Y-14804729D01*
X3610000Y-14819014D01*
X3667143Y-14819014D01*
X3695714Y-14804729D01*
X3710000Y-14790443D01*
X3724286Y-14761871D01*
X3724286Y-14690443D01*
X3710000Y-14661871D01*
X3695714Y-14647586D01*
X3667143Y-14633300D01*
X3610000Y-14633300D01*
X3581428Y-14647586D01*
X3567143Y-14661871D01*
X3552857Y-14690443D01*
X3867143Y-14819014D02*
X3924286Y-14819014D01*
X3952857Y-14804729D01*
X3967143Y-14790443D01*
X3995714Y-14747586D01*
X4010000Y-14690443D01*
X4010000Y-14576157D01*
X3995714Y-14547586D01*
X3981428Y-14533300D01*
X3952857Y-14519014D01*
X3895714Y-14519014D01*
X3867143Y-14533300D01*
X3852857Y-14547586D01*
X3838571Y-14576157D01*
X3838571Y-14647586D01*
X3852857Y-14676157D01*
X3867143Y-14690443D01*
X3895714Y-14704729D01*
X3952857Y-14704729D01*
X3981428Y-14690443D01*
X3995714Y-14676157D01*
X4010000Y-14647586D01*
X4124286Y-14519014D02*
X4124286Y-14576157D01*
X4238571Y-14519014D02*
X4238571Y-14576157D01*
X4681428Y-14933300D02*
X4667143Y-14919014D01*
X4638571Y-14876157D01*
X4624286Y-14847586D01*
X4610000Y-14804729D01*
X4595714Y-14733300D01*
X4595714Y-14676157D01*
X4610000Y-14604729D01*
X4624286Y-14561871D01*
X4638571Y-14533300D01*
X4667143Y-14490443D01*
X4681428Y-14476157D01*
X4767143Y-14519014D02*
X4952857Y-14519014D01*
X4852857Y-14633300D01*
X4895714Y-14633300D01*
X4924286Y-14647586D01*
X4938571Y-14661871D01*
X4952857Y-14690443D01*
X4952857Y-14761871D01*
X4938571Y-14790443D01*
X4924286Y-14804729D01*
X4895714Y-14819014D01*
X4810000Y-14819014D01*
X4781428Y-14804729D01*
X4767143Y-14790443D01*
X5310000Y-14819014D02*
X5310000Y-14519014D01*
X5438571Y-14819014D02*
X5438571Y-14661871D01*
X5424286Y-14633300D01*
X5395714Y-14619014D01*
X5352857Y-14619014D01*
X5324286Y-14633300D01*
X5310000Y-14647586D01*
X5624286Y-14819014D02*
X5595714Y-14804729D01*
X5581428Y-14790443D01*
X5567143Y-14761871D01*
X5567143Y-14676157D01*
X5581428Y-14647586D01*
X5595714Y-14633300D01*
X5624286Y-14619014D01*
X5667143Y-14619014D01*
X5695714Y-14633300D01*
X5710000Y-14647586D01*
X5724286Y-14676157D01*
X5724286Y-14761871D01*
X5710000Y-14790443D01*
X5695714Y-14804729D01*
X5667143Y-14819014D01*
X5624286Y-14819014D01*
X5895714Y-14819014D02*
X5867143Y-14804729D01*
X5852857Y-14776157D01*
X5852857Y-14519014D01*
X6124286Y-14804729D02*
X6095714Y-14819014D01*
X6038571Y-14819014D01*
X6010000Y-14804729D01*
X5995714Y-14776157D01*
X5995714Y-14661871D01*
X6010000Y-14633300D01*
X6038571Y-14619014D01*
X6095714Y-14619014D01*
X6124286Y-14633300D01*
X6138571Y-14661871D01*
X6138571Y-14690443D01*
X5995714Y-14719014D01*
X6252857Y-14804729D02*
X6281428Y-14819014D01*
X6338571Y-14819014D01*
X6367143Y-14804729D01*
X6381428Y-14776157D01*
X6381428Y-14761871D01*
X6367143Y-14733300D01*
X6338571Y-14719014D01*
X6295714Y-14719014D01*
X6267143Y-14704729D01*
X6252857Y-14676157D01*
X6252857Y-14661871D01*
X6267143Y-14633300D01*
X6295714Y-14619014D01*
X6338571Y-14619014D01*
X6367143Y-14633300D01*
X6481428Y-14933300D02*
X6495714Y-14919014D01*
X6524286Y-14876157D01*
X6538571Y-14847586D01*
X6552857Y-14804729D01*
X6567143Y-14733300D01*
X6567143Y-14676157D01*
X6552857Y-14604729D01*
X6538571Y-14561871D01*
X6524286Y-14533300D01*
X6495714Y-14490443D01*
X6481428Y-14476157D01*
X7024286Y-14933300D02*
X7010000Y-14919014D01*
X6981428Y-14876157D01*
X6967143Y-14847586D01*
X6952857Y-14804729D01*
X6938571Y-14733300D01*
X6938571Y-14676157D01*
X6952857Y-14604729D01*
X6967143Y-14561871D01*
X6981428Y-14533300D01*
X7010000Y-14490443D01*
X7024286Y-14476157D01*
X7138571Y-14619014D02*
X7138571Y-14819014D01*
X7138571Y-14647586D02*
X7152857Y-14633300D01*
X7181428Y-14619014D01*
X7224286Y-14619014D01*
X7252857Y-14633300D01*
X7267143Y-14661871D01*
X7267143Y-14819014D01*
X7452857Y-14819014D02*
X7424286Y-14804729D01*
X7410000Y-14790443D01*
X7395714Y-14761871D01*
X7395714Y-14676157D01*
X7410000Y-14647586D01*
X7424286Y-14633300D01*
X7452857Y-14619014D01*
X7495714Y-14619014D01*
X7524286Y-14633300D01*
X7538571Y-14647586D01*
X7552857Y-14676157D01*
X7552857Y-14761871D01*
X7538571Y-14790443D01*
X7524286Y-14804729D01*
X7495714Y-14819014D01*
X7452857Y-14819014D01*
X7638571Y-14619014D02*
X7752857Y-14619014D01*
X7681428Y-14519014D02*
X7681428Y-14776157D01*
X7695714Y-14804729D01*
X7724286Y-14819014D01*
X7752857Y-14819014D01*
X8081428Y-14619014D02*
X8081428Y-14919014D01*
X8081428Y-14633300D02*
X8110000Y-14619014D01*
X8167143Y-14619014D01*
X8195714Y-14633300D01*
X8210000Y-14647586D01*
X8224286Y-14676157D01*
X8224286Y-14761871D01*
X8210000Y-14790443D01*
X8195714Y-14804729D01*
X8167143Y-14819014D01*
X8110000Y-14819014D01*
X8081428Y-14804729D01*
X8395714Y-14819014D02*
X8367143Y-14804729D01*
X8352857Y-14776157D01*
X8352857Y-14519014D01*
X8638571Y-14819014D02*
X8638571Y-14661871D01*
X8624286Y-14633300D01*
X8595714Y-14619014D01*
X8538571Y-14619014D01*
X8510000Y-14633300D01*
X8638571Y-14804729D02*
X8610000Y-14819014D01*
X8538571Y-14819014D01*
X8510000Y-14804729D01*
X8495714Y-14776157D01*
X8495714Y-14747586D01*
X8510000Y-14719014D01*
X8538571Y-14704729D01*
X8610000Y-14704729D01*
X8638571Y-14690443D01*
X8738571Y-14619014D02*
X8852857Y-14619014D01*
X8781428Y-14519014D02*
X8781428Y-14776157D01*
X8795714Y-14804729D01*
X8824286Y-14819014D01*
X8852857Y-14819014D01*
X9067143Y-14804729D02*
X9038571Y-14819014D01*
X8981428Y-14819014D01*
X8952857Y-14804729D01*
X8938571Y-14776157D01*
X8938571Y-14661871D01*
X8952857Y-14633300D01*
X8981428Y-14619014D01*
X9038571Y-14619014D01*
X9067143Y-14633300D01*
X9081428Y-14661871D01*
X9081428Y-14690443D01*
X8938571Y-14719014D01*
X9338571Y-14819014D02*
X9338571Y-14519014D01*
X9338571Y-14804729D02*
X9310000Y-14819014D01*
X9252857Y-14819014D01*
X9224286Y-14804729D01*
X9210000Y-14790443D01*
X9195714Y-14761871D01*
X9195714Y-14676157D01*
X9210000Y-14647586D01*
X9224286Y-14633300D01*
X9252857Y-14619014D01*
X9310000Y-14619014D01*
X9338571Y-14633300D01*
X9452857Y-14933300D02*
X9467143Y-14919014D01*
X9495714Y-14876157D01*
X9510000Y-14847586D01*
X9524286Y-14804729D01*
X9538571Y-14733300D01*
X9538571Y-14676157D01*
X9524286Y-14604729D01*
X9510000Y-14561871D01*
X9495714Y-14533300D01*
X9467143Y-14490443D01*
X9452857Y-14476157D01*
M02*
