G04 #@! TF.GenerationSoftware,KiCad,Pcbnew,(5.1.0)-1*
G04 #@! TF.CreationDate,2022-05-17T16:18:03+10:00*
G04 #@! TF.ProjectId,mainPCB_v0.92,6d61696e-5043-4425-9f76-302e39322e6b,rev?*
G04 #@! TF.SameCoordinates,Original*
G04 #@! TF.FileFunction,Soldermask,Bot*
G04 #@! TF.FilePolarity,Negative*
%FSLAX46Y46*%
G04 Gerber Fmt 4.6, Leading zero omitted, Abs format (unit mm)*
G04 Created by KiCad (PCBNEW (5.1.0)-1) date 2022-05-17 16:18:03*
%MOMM*%
%LPD*%
G04 APERTURE LIST*
%ADD10C,4.300000*%
%ADD11R,1.700000X1.700000*%
%ADD12O,1.700000X1.700000*%
%ADD13C,0.100000*%
%ADD14C,1.700000*%
%ADD15O,2.000000X1.905000*%
%ADD16R,2.000000X1.905000*%
%ADD17C,2.600000*%
%ADD18R,2.600000X2.600000*%
%ADD19C,1.830000*%
%ADD20O,1.905000X2.000000*%
%ADD21R,1.905000X2.000000*%
%ADD22R,2.000000X2.000000*%
%ADD23C,2.000000*%
%ADD24O,1.950000X1.700000*%
%ADD25O,1.700000X1.950000*%
%ADD26C,1.200000*%
%ADD27R,3.000000X3.000000*%
%ADD28C,3.000000*%
%ADD29C,7.500000*%
G04 APERTURE END LIST*
D10*
X145003000Y-6000000D03*
D11*
X137858500Y-92837000D03*
D12*
X135318500Y-92837000D03*
X132778500Y-92837000D03*
X130238500Y-92837000D03*
D13*
G36*
X10848004Y-100053204D02*
G01*
X10872273Y-100056804D01*
X10896071Y-100062765D01*
X10919171Y-100071030D01*
X10941349Y-100081520D01*
X10962393Y-100094133D01*
X10982098Y-100108747D01*
X11000277Y-100125223D01*
X11016753Y-100143402D01*
X11031367Y-100163107D01*
X11043980Y-100184151D01*
X11054470Y-100206329D01*
X11062735Y-100229429D01*
X11068696Y-100253227D01*
X11072296Y-100277496D01*
X11073500Y-100302000D01*
X11073500Y-101502000D01*
X11072296Y-101526504D01*
X11068696Y-101550773D01*
X11062735Y-101574571D01*
X11054470Y-101597671D01*
X11043980Y-101619849D01*
X11031367Y-101640893D01*
X11016753Y-101660598D01*
X11000277Y-101678777D01*
X10982098Y-101695253D01*
X10962393Y-101709867D01*
X10941349Y-101722480D01*
X10919171Y-101732970D01*
X10896071Y-101741235D01*
X10872273Y-101747196D01*
X10848004Y-101750796D01*
X10823500Y-101752000D01*
X9623500Y-101752000D01*
X9598996Y-101750796D01*
X9574727Y-101747196D01*
X9550929Y-101741235D01*
X9527829Y-101732970D01*
X9505651Y-101722480D01*
X9484607Y-101709867D01*
X9464902Y-101695253D01*
X9446723Y-101678777D01*
X9430247Y-101660598D01*
X9415633Y-101640893D01*
X9403020Y-101619849D01*
X9392530Y-101597671D01*
X9384265Y-101574571D01*
X9378304Y-101550773D01*
X9374704Y-101526504D01*
X9373500Y-101502000D01*
X9373500Y-100302000D01*
X9374704Y-100277496D01*
X9378304Y-100253227D01*
X9384265Y-100229429D01*
X9392530Y-100206329D01*
X9403020Y-100184151D01*
X9415633Y-100163107D01*
X9430247Y-100143402D01*
X9446723Y-100125223D01*
X9464902Y-100108747D01*
X9484607Y-100094133D01*
X9505651Y-100081520D01*
X9527829Y-100071030D01*
X9550929Y-100062765D01*
X9574727Y-100056804D01*
X9598996Y-100053204D01*
X9623500Y-100052000D01*
X10823500Y-100052000D01*
X10848004Y-100053204D01*
X10848004Y-100053204D01*
G37*
D14*
X10223500Y-100902000D03*
X10223500Y-98362000D03*
X10223500Y-95822000D03*
X10223500Y-93282000D03*
X10223500Y-90742000D03*
X10223500Y-88202000D03*
X10223500Y-85662000D03*
X10223500Y-83122000D03*
X10223500Y-80582000D03*
X10223500Y-78042000D03*
X10223500Y-75502000D03*
X10223500Y-72962000D03*
X7683500Y-100902000D03*
X7683500Y-98362000D03*
X7683500Y-95822000D03*
X7683500Y-93282000D03*
X7683500Y-90742000D03*
X7683500Y-88202000D03*
X7683500Y-85662000D03*
X7683500Y-83122000D03*
X7683500Y-80582000D03*
X7683500Y-78042000D03*
X7683500Y-75502000D03*
X7683500Y-72962000D03*
D11*
X137794500Y-98107500D03*
D12*
X135254500Y-98107500D03*
X132714500Y-98107500D03*
X130174500Y-98107500D03*
D15*
X81534000Y-51879500D03*
X81534000Y-54419500D03*
D16*
X81534000Y-56959500D03*
D17*
X169228000Y-86978500D03*
D18*
X169228000Y-81978500D03*
D19*
X122386000Y-24384000D03*
X122386000Y-28194000D03*
X122386000Y-32004000D03*
X122386000Y-35814000D03*
D17*
X125175000Y-126428000D03*
D18*
X130175000Y-126428000D03*
X169418000Y-97155000D03*
D17*
X169418000Y-102155000D03*
D18*
X167894000Y-28575000D03*
D17*
X167894000Y-33575000D03*
D18*
X169164000Y-48577500D03*
D17*
X169164000Y-53577500D03*
X169164000Y-65388500D03*
D18*
X169164000Y-60388500D03*
D11*
X54038500Y-126936000D03*
D12*
X54038500Y-129476000D03*
D15*
X57594500Y-52133500D03*
X57594500Y-54673500D03*
D16*
X57594500Y-57213500D03*
X54610000Y-27940000D03*
D15*
X54610000Y-25400000D03*
X54610000Y-22860000D03*
D16*
X5842000Y-27940000D03*
D15*
X5842000Y-25400000D03*
X5842000Y-22860000D03*
D20*
X58928000Y-37846000D03*
X56388000Y-37846000D03*
D21*
X53848000Y-37846000D03*
D20*
X160782000Y-88963500D03*
X158242000Y-88963500D03*
D21*
X155702000Y-88963500D03*
D20*
X19558000Y-37338000D03*
X17018000Y-37338000D03*
D21*
X14478000Y-37338000D03*
D16*
X68072000Y-27940000D03*
D15*
X68072000Y-25400000D03*
X68072000Y-22860000D03*
D16*
X19304000Y-27940000D03*
D15*
X19304000Y-25400000D03*
X19304000Y-22860000D03*
D16*
X78740000Y-27940000D03*
D15*
X78740000Y-25400000D03*
X78740000Y-22860000D03*
X30035500Y-22923500D03*
X30035500Y-25463500D03*
D16*
X30035500Y-28003500D03*
X89408000Y-27940000D03*
D15*
X89408000Y-25400000D03*
X89408000Y-22860000D03*
D16*
X40386000Y-27940000D03*
D15*
X40386000Y-25400000D03*
X40386000Y-22860000D03*
D21*
X87630000Y-37846000D03*
D20*
X90170000Y-37846000D03*
X92710000Y-37846000D03*
X42926000Y-37846000D03*
X40386000Y-37846000D03*
D21*
X37846000Y-37846000D03*
X155766000Y-104330000D03*
D20*
X158306000Y-104330000D03*
X160846000Y-104330000D03*
D21*
X155575000Y-120142000D03*
D20*
X158115000Y-120142000D03*
X160655000Y-120142000D03*
D15*
X139636000Y-63309500D03*
X139636000Y-60769500D03*
D16*
X139636000Y-58229500D03*
X139510000Y-69215000D03*
D15*
X139510000Y-71755000D03*
X139510000Y-74295000D03*
D18*
X169291000Y-112586000D03*
D17*
X169291000Y-117586000D03*
D22*
X40767000Y-58991500D03*
D23*
X40767000Y-51491500D03*
D24*
X5334000Y-60412000D03*
X5334000Y-57912000D03*
X5334000Y-55412000D03*
X5334000Y-52912000D03*
X5334000Y-50412000D03*
X5334000Y-47912000D03*
X5334000Y-45412000D03*
X5334000Y-42912000D03*
X5334000Y-40412000D03*
D13*
G36*
X6083504Y-37063204D02*
G01*
X6107773Y-37066804D01*
X6131571Y-37072765D01*
X6154671Y-37081030D01*
X6176849Y-37091520D01*
X6197893Y-37104133D01*
X6217598Y-37118747D01*
X6235777Y-37135223D01*
X6252253Y-37153402D01*
X6266867Y-37173107D01*
X6279480Y-37194151D01*
X6289970Y-37216329D01*
X6298235Y-37239429D01*
X6304196Y-37263227D01*
X6307796Y-37287496D01*
X6309000Y-37312000D01*
X6309000Y-38512000D01*
X6307796Y-38536504D01*
X6304196Y-38560773D01*
X6298235Y-38584571D01*
X6289970Y-38607671D01*
X6279480Y-38629849D01*
X6266867Y-38650893D01*
X6252253Y-38670598D01*
X6235777Y-38688777D01*
X6217598Y-38705253D01*
X6197893Y-38719867D01*
X6176849Y-38732480D01*
X6154671Y-38742970D01*
X6131571Y-38751235D01*
X6107773Y-38757196D01*
X6083504Y-38760796D01*
X6059000Y-38762000D01*
X4609000Y-38762000D01*
X4584496Y-38760796D01*
X4560227Y-38757196D01*
X4536429Y-38751235D01*
X4513329Y-38742970D01*
X4491151Y-38732480D01*
X4470107Y-38719867D01*
X4450402Y-38705253D01*
X4432223Y-38688777D01*
X4415747Y-38670598D01*
X4401133Y-38650893D01*
X4388520Y-38629849D01*
X4378030Y-38607671D01*
X4369765Y-38584571D01*
X4363804Y-38560773D01*
X4360204Y-38536504D01*
X4359000Y-38512000D01*
X4359000Y-37312000D01*
X4360204Y-37287496D01*
X4363804Y-37263227D01*
X4369765Y-37239429D01*
X4378030Y-37216329D01*
X4388520Y-37194151D01*
X4401133Y-37173107D01*
X4415747Y-37153402D01*
X4432223Y-37135223D01*
X4450402Y-37118747D01*
X4470107Y-37104133D01*
X4491151Y-37091520D01*
X4513329Y-37081030D01*
X4536429Y-37072765D01*
X4560227Y-37066804D01*
X4584496Y-37063204D01*
X4609000Y-37062000D01*
X6059000Y-37062000D01*
X6083504Y-37063204D01*
X6083504Y-37063204D01*
G37*
D14*
X5334000Y-37912000D03*
D13*
G36*
X136578004Y-12996204D02*
G01*
X136602273Y-12999804D01*
X136626071Y-13005765D01*
X136649171Y-13014030D01*
X136671349Y-13024520D01*
X136692393Y-13037133D01*
X136712098Y-13051747D01*
X136730277Y-13068223D01*
X136746753Y-13086402D01*
X136761367Y-13106107D01*
X136773980Y-13127151D01*
X136784470Y-13149329D01*
X136792735Y-13172429D01*
X136798696Y-13196227D01*
X136802296Y-13220496D01*
X136803500Y-13245000D01*
X136803500Y-14695000D01*
X136802296Y-14719504D01*
X136798696Y-14743773D01*
X136792735Y-14767571D01*
X136784470Y-14790671D01*
X136773980Y-14812849D01*
X136761367Y-14833893D01*
X136746753Y-14853598D01*
X136730277Y-14871777D01*
X136712098Y-14888253D01*
X136692393Y-14902867D01*
X136671349Y-14915480D01*
X136649171Y-14925970D01*
X136626071Y-14934235D01*
X136602273Y-14940196D01*
X136578004Y-14943796D01*
X136553500Y-14945000D01*
X135353500Y-14945000D01*
X135328996Y-14943796D01*
X135304727Y-14940196D01*
X135280929Y-14934235D01*
X135257829Y-14925970D01*
X135235651Y-14915480D01*
X135214607Y-14902867D01*
X135194902Y-14888253D01*
X135176723Y-14871777D01*
X135160247Y-14853598D01*
X135145633Y-14833893D01*
X135133020Y-14812849D01*
X135122530Y-14790671D01*
X135114265Y-14767571D01*
X135108304Y-14743773D01*
X135104704Y-14719504D01*
X135103500Y-14695000D01*
X135103500Y-13245000D01*
X135104704Y-13220496D01*
X135108304Y-13196227D01*
X135114265Y-13172429D01*
X135122530Y-13149329D01*
X135133020Y-13127151D01*
X135145633Y-13106107D01*
X135160247Y-13086402D01*
X135176723Y-13068223D01*
X135194902Y-13051747D01*
X135214607Y-13037133D01*
X135235651Y-13024520D01*
X135257829Y-13014030D01*
X135280929Y-13005765D01*
X135304727Y-12999804D01*
X135328996Y-12996204D01*
X135353500Y-12995000D01*
X136553500Y-12995000D01*
X136578004Y-12996204D01*
X136578004Y-12996204D01*
G37*
D14*
X135953500Y-13970000D03*
D25*
X138453500Y-13970000D03*
X140953500Y-13970000D03*
X143453500Y-13970000D03*
D26*
X134353500Y-15970000D03*
X86900000Y-50533500D03*
D24*
X88900000Y-59633500D03*
X88900000Y-57133500D03*
X88900000Y-54633500D03*
D13*
G36*
X89649504Y-51284704D02*
G01*
X89673773Y-51288304D01*
X89697571Y-51294265D01*
X89720671Y-51302530D01*
X89742849Y-51313020D01*
X89763893Y-51325633D01*
X89783598Y-51340247D01*
X89801777Y-51356723D01*
X89818253Y-51374902D01*
X89832867Y-51394607D01*
X89845480Y-51415651D01*
X89855970Y-51437829D01*
X89864235Y-51460929D01*
X89870196Y-51484727D01*
X89873796Y-51508996D01*
X89875000Y-51533500D01*
X89875000Y-52733500D01*
X89873796Y-52758004D01*
X89870196Y-52782273D01*
X89864235Y-52806071D01*
X89855970Y-52829171D01*
X89845480Y-52851349D01*
X89832867Y-52872393D01*
X89818253Y-52892098D01*
X89801777Y-52910277D01*
X89783598Y-52926753D01*
X89763893Y-52941367D01*
X89742849Y-52953980D01*
X89720671Y-52964470D01*
X89697571Y-52972735D01*
X89673773Y-52978696D01*
X89649504Y-52982296D01*
X89625000Y-52983500D01*
X88175000Y-52983500D01*
X88150496Y-52982296D01*
X88126227Y-52978696D01*
X88102429Y-52972735D01*
X88079329Y-52964470D01*
X88057151Y-52953980D01*
X88036107Y-52941367D01*
X88016402Y-52926753D01*
X87998223Y-52910277D01*
X87981747Y-52892098D01*
X87967133Y-52872393D01*
X87954520Y-52851349D01*
X87944030Y-52829171D01*
X87935765Y-52806071D01*
X87929804Y-52782273D01*
X87926204Y-52758004D01*
X87925000Y-52733500D01*
X87925000Y-51533500D01*
X87926204Y-51508996D01*
X87929804Y-51484727D01*
X87935765Y-51460929D01*
X87944030Y-51437829D01*
X87954520Y-51415651D01*
X87967133Y-51394607D01*
X87981747Y-51374902D01*
X87998223Y-51356723D01*
X88016402Y-51340247D01*
X88036107Y-51325633D01*
X88057151Y-51313020D01*
X88079329Y-51302530D01*
X88102429Y-51294265D01*
X88126227Y-51288304D01*
X88150496Y-51284704D01*
X88175000Y-51283500D01*
X89625000Y-51283500D01*
X89649504Y-51284704D01*
X89649504Y-51284704D01*
G37*
D14*
X88900000Y-52133500D03*
D26*
X148622000Y-57582000D03*
D24*
X150622000Y-66682000D03*
X150622000Y-64182000D03*
X150622000Y-61682000D03*
D13*
G36*
X151371504Y-58333204D02*
G01*
X151395773Y-58336804D01*
X151419571Y-58342765D01*
X151442671Y-58351030D01*
X151464849Y-58361520D01*
X151485893Y-58374133D01*
X151505598Y-58388747D01*
X151523777Y-58405223D01*
X151540253Y-58423402D01*
X151554867Y-58443107D01*
X151567480Y-58464151D01*
X151577970Y-58486329D01*
X151586235Y-58509429D01*
X151592196Y-58533227D01*
X151595796Y-58557496D01*
X151597000Y-58582000D01*
X151597000Y-59782000D01*
X151595796Y-59806504D01*
X151592196Y-59830773D01*
X151586235Y-59854571D01*
X151577970Y-59877671D01*
X151567480Y-59899849D01*
X151554867Y-59920893D01*
X151540253Y-59940598D01*
X151523777Y-59958777D01*
X151505598Y-59975253D01*
X151485893Y-59989867D01*
X151464849Y-60002480D01*
X151442671Y-60012970D01*
X151419571Y-60021235D01*
X151395773Y-60027196D01*
X151371504Y-60030796D01*
X151347000Y-60032000D01*
X149897000Y-60032000D01*
X149872496Y-60030796D01*
X149848227Y-60027196D01*
X149824429Y-60021235D01*
X149801329Y-60012970D01*
X149779151Y-60002480D01*
X149758107Y-59989867D01*
X149738402Y-59975253D01*
X149720223Y-59958777D01*
X149703747Y-59940598D01*
X149689133Y-59920893D01*
X149676520Y-59899849D01*
X149666030Y-59877671D01*
X149657765Y-59854571D01*
X149651804Y-59830773D01*
X149648204Y-59806504D01*
X149647000Y-59782000D01*
X149647000Y-58582000D01*
X149648204Y-58557496D01*
X149651804Y-58533227D01*
X149657765Y-58509429D01*
X149666030Y-58486329D01*
X149676520Y-58464151D01*
X149689133Y-58443107D01*
X149703747Y-58423402D01*
X149720223Y-58405223D01*
X149738402Y-58388747D01*
X149758107Y-58374133D01*
X149779151Y-58361520D01*
X149801329Y-58351030D01*
X149824429Y-58342765D01*
X149848227Y-58336804D01*
X149872496Y-58333204D01*
X149897000Y-58332000D01*
X151347000Y-58332000D01*
X151371504Y-58333204D01*
X151371504Y-58333204D01*
G37*
D14*
X150622000Y-59182000D03*
D21*
X15303500Y-60960000D03*
D20*
X17843500Y-60960000D03*
X20383500Y-60960000D03*
D13*
G36*
X105018504Y-126788204D02*
G01*
X105042773Y-126791804D01*
X105066571Y-126797765D01*
X105089671Y-126806030D01*
X105111849Y-126816520D01*
X105132893Y-126829133D01*
X105152598Y-126843747D01*
X105170777Y-126860223D01*
X105187253Y-126878402D01*
X105201867Y-126898107D01*
X105214480Y-126919151D01*
X105224970Y-126941329D01*
X105233235Y-126964429D01*
X105239196Y-126988227D01*
X105242796Y-127012496D01*
X105244000Y-127037000D01*
X105244000Y-128487000D01*
X105242796Y-128511504D01*
X105239196Y-128535773D01*
X105233235Y-128559571D01*
X105224970Y-128582671D01*
X105214480Y-128604849D01*
X105201867Y-128625893D01*
X105187253Y-128645598D01*
X105170777Y-128663777D01*
X105152598Y-128680253D01*
X105132893Y-128694867D01*
X105111849Y-128707480D01*
X105089671Y-128717970D01*
X105066571Y-128726235D01*
X105042773Y-128732196D01*
X105018504Y-128735796D01*
X104994000Y-128737000D01*
X103794000Y-128737000D01*
X103769496Y-128735796D01*
X103745227Y-128732196D01*
X103721429Y-128726235D01*
X103698329Y-128717970D01*
X103676151Y-128707480D01*
X103655107Y-128694867D01*
X103635402Y-128680253D01*
X103617223Y-128663777D01*
X103600747Y-128645598D01*
X103586133Y-128625893D01*
X103573520Y-128604849D01*
X103563030Y-128582671D01*
X103554765Y-128559571D01*
X103548804Y-128535773D01*
X103545204Y-128511504D01*
X103544000Y-128487000D01*
X103544000Y-127037000D01*
X103545204Y-127012496D01*
X103548804Y-126988227D01*
X103554765Y-126964429D01*
X103563030Y-126941329D01*
X103573520Y-126919151D01*
X103586133Y-126898107D01*
X103600747Y-126878402D01*
X103617223Y-126860223D01*
X103635402Y-126843747D01*
X103655107Y-126829133D01*
X103676151Y-126816520D01*
X103698329Y-126806030D01*
X103721429Y-126797765D01*
X103745227Y-126791804D01*
X103769496Y-126788204D01*
X103794000Y-126787000D01*
X104994000Y-126787000D01*
X105018504Y-126788204D01*
X105018504Y-126788204D01*
G37*
D14*
X104394000Y-127762000D03*
D25*
X106894000Y-127762000D03*
X109394000Y-127762000D03*
X111894000Y-127762000D03*
D26*
X102794000Y-129762000D03*
D13*
G36*
X91048504Y-126788204D02*
G01*
X91072773Y-126791804D01*
X91096571Y-126797765D01*
X91119671Y-126806030D01*
X91141849Y-126816520D01*
X91162893Y-126829133D01*
X91182598Y-126843747D01*
X91200777Y-126860223D01*
X91217253Y-126878402D01*
X91231867Y-126898107D01*
X91244480Y-126919151D01*
X91254970Y-126941329D01*
X91263235Y-126964429D01*
X91269196Y-126988227D01*
X91272796Y-127012496D01*
X91274000Y-127037000D01*
X91274000Y-128487000D01*
X91272796Y-128511504D01*
X91269196Y-128535773D01*
X91263235Y-128559571D01*
X91254970Y-128582671D01*
X91244480Y-128604849D01*
X91231867Y-128625893D01*
X91217253Y-128645598D01*
X91200777Y-128663777D01*
X91182598Y-128680253D01*
X91162893Y-128694867D01*
X91141849Y-128707480D01*
X91119671Y-128717970D01*
X91096571Y-128726235D01*
X91072773Y-128732196D01*
X91048504Y-128735796D01*
X91024000Y-128737000D01*
X89824000Y-128737000D01*
X89799496Y-128735796D01*
X89775227Y-128732196D01*
X89751429Y-128726235D01*
X89728329Y-128717970D01*
X89706151Y-128707480D01*
X89685107Y-128694867D01*
X89665402Y-128680253D01*
X89647223Y-128663777D01*
X89630747Y-128645598D01*
X89616133Y-128625893D01*
X89603520Y-128604849D01*
X89593030Y-128582671D01*
X89584765Y-128559571D01*
X89578804Y-128535773D01*
X89575204Y-128511504D01*
X89574000Y-128487000D01*
X89574000Y-127037000D01*
X89575204Y-127012496D01*
X89578804Y-126988227D01*
X89584765Y-126964429D01*
X89593030Y-126941329D01*
X89603520Y-126919151D01*
X89616133Y-126898107D01*
X89630747Y-126878402D01*
X89647223Y-126860223D01*
X89665402Y-126843747D01*
X89685107Y-126829133D01*
X89706151Y-126816520D01*
X89728329Y-126806030D01*
X89751429Y-126797765D01*
X89775227Y-126791804D01*
X89799496Y-126788204D01*
X89824000Y-126787000D01*
X91024000Y-126787000D01*
X91048504Y-126788204D01*
X91048504Y-126788204D01*
G37*
D14*
X90424000Y-127762000D03*
D25*
X92924000Y-127762000D03*
X95424000Y-127762000D03*
X97924000Y-127762000D03*
D26*
X88824000Y-129762000D03*
D27*
X139446000Y-33655000D03*
D28*
X139446000Y-26035000D03*
X26797000Y-9017000D03*
X34417000Y-9017000D03*
D27*
X19177000Y-9017000D03*
D28*
X42037000Y-9017000D03*
X49657000Y-9017000D03*
X57277000Y-9017000D03*
X106045000Y-8890000D03*
X98425000Y-8890000D03*
X90805000Y-8890000D03*
D27*
X67945000Y-8890000D03*
D28*
X83185000Y-8890000D03*
X75565000Y-8890000D03*
X106172000Y-32766000D03*
D27*
X106172000Y-25146000D03*
D13*
G36*
X24500504Y-126913204D02*
G01*
X24524773Y-126916804D01*
X24548571Y-126922765D01*
X24571671Y-126931030D01*
X24593849Y-126941520D01*
X24614893Y-126954133D01*
X24634598Y-126968747D01*
X24652777Y-126985223D01*
X24669253Y-127003402D01*
X24683867Y-127023107D01*
X24696480Y-127044151D01*
X24706970Y-127066329D01*
X24715235Y-127089429D01*
X24721196Y-127113227D01*
X24724796Y-127137496D01*
X24726000Y-127162000D01*
X24726000Y-128362000D01*
X24724796Y-128386504D01*
X24721196Y-128410773D01*
X24715235Y-128434571D01*
X24706970Y-128457671D01*
X24696480Y-128479849D01*
X24683867Y-128500893D01*
X24669253Y-128520598D01*
X24652777Y-128538777D01*
X24634598Y-128555253D01*
X24614893Y-128569867D01*
X24593849Y-128582480D01*
X24571671Y-128592970D01*
X24548571Y-128601235D01*
X24524773Y-128607196D01*
X24500504Y-128610796D01*
X24476000Y-128612000D01*
X23276000Y-128612000D01*
X23251496Y-128610796D01*
X23227227Y-128607196D01*
X23203429Y-128601235D01*
X23180329Y-128592970D01*
X23158151Y-128582480D01*
X23137107Y-128569867D01*
X23117402Y-128555253D01*
X23099223Y-128538777D01*
X23082747Y-128520598D01*
X23068133Y-128500893D01*
X23055520Y-128479849D01*
X23045030Y-128457671D01*
X23036765Y-128434571D01*
X23030804Y-128410773D01*
X23027204Y-128386504D01*
X23026000Y-128362000D01*
X23026000Y-127162000D01*
X23027204Y-127137496D01*
X23030804Y-127113227D01*
X23036765Y-127089429D01*
X23045030Y-127066329D01*
X23055520Y-127044151D01*
X23068133Y-127023107D01*
X23082747Y-127003402D01*
X23099223Y-126985223D01*
X23117402Y-126968747D01*
X23137107Y-126954133D01*
X23158151Y-126941520D01*
X23180329Y-126931030D01*
X23203429Y-126922765D01*
X23227227Y-126916804D01*
X23251496Y-126913204D01*
X23276000Y-126912000D01*
X24476000Y-126912000D01*
X24500504Y-126913204D01*
X24500504Y-126913204D01*
G37*
D14*
X23876000Y-127762000D03*
X26416000Y-127762000D03*
X28956000Y-127762000D03*
X31496000Y-127762000D03*
X34036000Y-127762000D03*
X23876000Y-125222000D03*
X26416000Y-125222000D03*
X28956000Y-125222000D03*
X31496000Y-125222000D03*
X34036000Y-125222000D03*
D13*
G36*
X125402504Y-49316204D02*
G01*
X125426773Y-49319804D01*
X125450571Y-49325765D01*
X125473671Y-49334030D01*
X125495849Y-49344520D01*
X125516893Y-49357133D01*
X125536598Y-49371747D01*
X125554777Y-49388223D01*
X125571253Y-49406402D01*
X125585867Y-49426107D01*
X125598480Y-49447151D01*
X125608970Y-49469329D01*
X125617235Y-49492429D01*
X125623196Y-49516227D01*
X125626796Y-49540496D01*
X125628000Y-49565000D01*
X125628000Y-50765000D01*
X125626796Y-50789504D01*
X125623196Y-50813773D01*
X125617235Y-50837571D01*
X125608970Y-50860671D01*
X125598480Y-50882849D01*
X125585867Y-50903893D01*
X125571253Y-50923598D01*
X125554777Y-50941777D01*
X125536598Y-50958253D01*
X125516893Y-50972867D01*
X125495849Y-50985480D01*
X125473671Y-50995970D01*
X125450571Y-51004235D01*
X125426773Y-51010196D01*
X125402504Y-51013796D01*
X125378000Y-51015000D01*
X124178000Y-51015000D01*
X124153496Y-51013796D01*
X124129227Y-51010196D01*
X124105429Y-51004235D01*
X124082329Y-50995970D01*
X124060151Y-50985480D01*
X124039107Y-50972867D01*
X124019402Y-50958253D01*
X124001223Y-50941777D01*
X123984747Y-50923598D01*
X123970133Y-50903893D01*
X123957520Y-50882849D01*
X123947030Y-50860671D01*
X123938765Y-50837571D01*
X123932804Y-50813773D01*
X123929204Y-50789504D01*
X123928000Y-50765000D01*
X123928000Y-49565000D01*
X123929204Y-49540496D01*
X123932804Y-49516227D01*
X123938765Y-49492429D01*
X123947030Y-49469329D01*
X123957520Y-49447151D01*
X123970133Y-49426107D01*
X123984747Y-49406402D01*
X124001223Y-49388223D01*
X124019402Y-49371747D01*
X124039107Y-49357133D01*
X124060151Y-49344520D01*
X124082329Y-49334030D01*
X124105429Y-49325765D01*
X124129227Y-49319804D01*
X124153496Y-49316204D01*
X124178000Y-49315000D01*
X125378000Y-49315000D01*
X125402504Y-49316204D01*
X125402504Y-49316204D01*
G37*
D14*
X124778000Y-50165000D03*
X122238000Y-50165000D03*
X119698000Y-50165000D03*
X117158000Y-50165000D03*
X114618000Y-50165000D03*
X112078000Y-50165000D03*
X109538000Y-50165000D03*
X106998000Y-50165000D03*
X124778000Y-52705000D03*
X122238000Y-52705000D03*
X119698000Y-52705000D03*
X117158000Y-52705000D03*
X114618000Y-52705000D03*
X112078000Y-52705000D03*
X109538000Y-52705000D03*
X106998000Y-52705000D03*
D13*
G36*
X79174004Y-126661204D02*
G01*
X79198273Y-126664804D01*
X79222071Y-126670765D01*
X79245171Y-126679030D01*
X79267349Y-126689520D01*
X79288393Y-126702133D01*
X79308098Y-126716747D01*
X79326277Y-126733223D01*
X79342753Y-126751402D01*
X79357367Y-126771107D01*
X79369980Y-126792151D01*
X79380470Y-126814329D01*
X79388735Y-126837429D01*
X79394696Y-126861227D01*
X79398296Y-126885496D01*
X79399500Y-126910000D01*
X79399500Y-128360000D01*
X79398296Y-128384504D01*
X79394696Y-128408773D01*
X79388735Y-128432571D01*
X79380470Y-128455671D01*
X79369980Y-128477849D01*
X79357367Y-128498893D01*
X79342753Y-128518598D01*
X79326277Y-128536777D01*
X79308098Y-128553253D01*
X79288393Y-128567867D01*
X79267349Y-128580480D01*
X79245171Y-128590970D01*
X79222071Y-128599235D01*
X79198273Y-128605196D01*
X79174004Y-128608796D01*
X79149500Y-128610000D01*
X77949500Y-128610000D01*
X77924996Y-128608796D01*
X77900727Y-128605196D01*
X77876929Y-128599235D01*
X77853829Y-128590970D01*
X77831651Y-128580480D01*
X77810607Y-128567867D01*
X77790902Y-128553253D01*
X77772723Y-128536777D01*
X77756247Y-128518598D01*
X77741633Y-128498893D01*
X77729020Y-128477849D01*
X77718530Y-128455671D01*
X77710265Y-128432571D01*
X77704304Y-128408773D01*
X77700704Y-128384504D01*
X77699500Y-128360000D01*
X77699500Y-126910000D01*
X77700704Y-126885496D01*
X77704304Y-126861227D01*
X77710265Y-126837429D01*
X77718530Y-126814329D01*
X77729020Y-126792151D01*
X77741633Y-126771107D01*
X77756247Y-126751402D01*
X77772723Y-126733223D01*
X77790902Y-126716747D01*
X77810607Y-126702133D01*
X77831651Y-126689520D01*
X77853829Y-126679030D01*
X77876929Y-126670765D01*
X77900727Y-126664804D01*
X77924996Y-126661204D01*
X77949500Y-126660000D01*
X79149500Y-126660000D01*
X79174004Y-126661204D01*
X79174004Y-126661204D01*
G37*
D14*
X78549500Y-127635000D03*
D25*
X81049500Y-127635000D03*
X83549500Y-127635000D03*
D11*
X97282000Y-116840000D03*
D12*
X99822000Y-116840000D03*
X102362000Y-116840000D03*
X104902000Y-116840000D03*
X107442000Y-116840000D03*
X109982000Y-116840000D03*
D11*
X92202000Y-68580000D03*
D12*
X94742000Y-68580000D03*
X97282000Y-68580000D03*
X99822000Y-68580000D03*
X102362000Y-68580000D03*
X104902000Y-68580000D03*
X107442000Y-68580000D03*
X109982000Y-68580000D03*
X87122000Y-68580000D03*
X84582000Y-68580000D03*
X82042000Y-68580000D03*
X79502000Y-68580000D03*
X76962000Y-68580000D03*
X74422000Y-68580000D03*
X71882000Y-68580000D03*
D11*
X69342000Y-68580000D03*
D12*
X92202000Y-116840000D03*
X89662000Y-116840000D03*
X87122000Y-116840000D03*
X84582000Y-116840000D03*
X82042000Y-116840000D03*
D11*
X79502000Y-116840000D03*
D10*
X6000000Y-127223000D03*
X145003000Y-127223000D03*
D29*
X6000000Y-6000000D03*
D11*
X72326500Y-126873000D03*
D12*
X72326500Y-129413000D03*
X69786500Y-126873000D03*
X69786500Y-129413000D03*
X67246500Y-126873000D03*
X67246500Y-129413000D03*
X64706500Y-126873000D03*
X64706500Y-129413000D03*
X62166500Y-126873000D03*
X62166500Y-129413000D03*
X59626500Y-126873000D03*
X59626500Y-129413000D03*
D11*
X49539500Y-107950000D03*
D12*
X49539500Y-110490000D03*
X52079500Y-107950000D03*
X52079500Y-110490000D03*
X54619500Y-107950000D03*
X54619500Y-110490000D03*
X57159500Y-107950000D03*
X57159500Y-110490000D03*
X59699500Y-107950000D03*
X59699500Y-110490000D03*
X62239500Y-107950000D03*
X62239500Y-110490000D03*
X64779500Y-107950000D03*
X64779500Y-110490000D03*
X67319500Y-107950000D03*
X67319500Y-110490000D03*
X69859500Y-107950000D03*
X69859500Y-110490000D03*
X72399500Y-107950000D03*
X72399500Y-110490000D03*
X74939500Y-107950000D03*
X74939500Y-110490000D03*
X77479500Y-107950000D03*
X77479500Y-110490000D03*
X80019500Y-107950000D03*
X80019500Y-110490000D03*
X82559500Y-107950000D03*
X82559500Y-110490000D03*
X85099500Y-107950000D03*
X85099500Y-110490000D03*
X87639500Y-107950000D03*
X87639500Y-110490000D03*
X90179500Y-107950000D03*
X90179500Y-110490000D03*
X92719500Y-107950000D03*
X92719500Y-110490000D03*
X95259500Y-107950000D03*
X95259500Y-110490000D03*
X97799500Y-107950000D03*
X97799500Y-110490000D03*
D11*
X97799500Y-92710000D03*
D12*
X95259500Y-92710000D03*
X97799500Y-95250000D03*
X95259500Y-95250000D03*
X97799500Y-97790000D03*
X95259500Y-97790000D03*
X95259500Y-85090000D03*
X97799500Y-85090000D03*
X95259500Y-82550000D03*
X97799500Y-82550000D03*
X95259500Y-80010000D03*
D11*
X97799500Y-80010000D03*
X59699500Y-74930000D03*
D12*
X59699500Y-77470000D03*
X62239500Y-74930000D03*
X62239500Y-77470000D03*
X64779500Y-74930000D03*
X64779500Y-77470000D03*
X67319500Y-74930000D03*
X67319500Y-77470000D03*
X69859500Y-74930000D03*
X69859500Y-77470000D03*
X72399500Y-74930000D03*
X72399500Y-77470000D03*
X74939500Y-74930000D03*
X74939500Y-77470000D03*
X77479500Y-74930000D03*
X77479500Y-77470000D03*
X80019500Y-74930000D03*
X80019500Y-77470000D03*
X82559500Y-74930000D03*
X82559500Y-77470000D03*
X85099500Y-74930000D03*
X85099500Y-77470000D03*
X87639500Y-74930000D03*
X87639500Y-77470000D03*
X90179500Y-74930000D03*
X90179500Y-77470000D03*
X92719500Y-74930000D03*
X92719500Y-77470000D03*
X95259500Y-74930000D03*
X95259500Y-77470000D03*
X97799500Y-74930000D03*
X97799500Y-77470000D03*
D11*
X112522000Y-88900000D03*
D12*
X109982000Y-88900000D03*
X112522000Y-91440000D03*
X109982000Y-91440000D03*
X112522000Y-93980000D03*
X109982000Y-93980000D03*
D11*
X46999500Y-107950000D03*
D12*
X46999500Y-110490000D03*
M02*
