G04 #@! TF.GenerationSoftware,KiCad,Pcbnew,(5.1.0)-1*
G04 #@! TF.CreationDate,2022-08-09T13:46:42+10:00*
G04 #@! TF.ProjectId,mainPCB_v0.9-br2,6d61696e-5043-4425-9f76-302e392d6272,rev?*
G04 #@! TF.SameCoordinates,Original*
G04 #@! TF.FileFunction,Paste,Top*
G04 #@! TF.FilePolarity,Positive*
%FSLAX46Y46*%
G04 Gerber Fmt 4.6, Leading zero omitted, Abs format (unit mm)*
G04 Created by KiCad (PCBNEW (5.1.0)-1) date 2022-08-09 13:46:42*
%MOMM*%
%LPD*%
G04 APERTURE LIST*
%ADD10C,0.100000*%
%ADD11C,1.125000*%
%ADD12R,1.200000X1.200000*%
%ADD13R,1.500000X1.600000*%
%ADD14R,3.000000X1.500000*%
G04 APERTURE END LIST*
D10*
G36*
X126506505Y-70497204D02*
G01*
X126530773Y-70500804D01*
X126554572Y-70506765D01*
X126577671Y-70515030D01*
X126599850Y-70525520D01*
X126620893Y-70538132D01*
X126640599Y-70552747D01*
X126658777Y-70569223D01*
X126675253Y-70587401D01*
X126689868Y-70607107D01*
X126702480Y-70628150D01*
X126712970Y-70650329D01*
X126721235Y-70673428D01*
X126727196Y-70697227D01*
X126730796Y-70721495D01*
X126732000Y-70745999D01*
X126732000Y-71371001D01*
X126730796Y-71395505D01*
X126727196Y-71419773D01*
X126721235Y-71443572D01*
X126712970Y-71466671D01*
X126702480Y-71488850D01*
X126689868Y-71509893D01*
X126675253Y-71529599D01*
X126658777Y-71547777D01*
X126640599Y-71564253D01*
X126620893Y-71578868D01*
X126599850Y-71591480D01*
X126577671Y-71601970D01*
X126554572Y-71610235D01*
X126530773Y-71616196D01*
X126506505Y-71619796D01*
X126482001Y-71621000D01*
X125231999Y-71621000D01*
X125207495Y-71619796D01*
X125183227Y-71616196D01*
X125159428Y-71610235D01*
X125136329Y-71601970D01*
X125114150Y-71591480D01*
X125093107Y-71578868D01*
X125073401Y-71564253D01*
X125055223Y-71547777D01*
X125038747Y-71529599D01*
X125024132Y-71509893D01*
X125011520Y-71488850D01*
X125001030Y-71466671D01*
X124992765Y-71443572D01*
X124986804Y-71419773D01*
X124983204Y-71395505D01*
X124982000Y-71371001D01*
X124982000Y-70745999D01*
X124983204Y-70721495D01*
X124986804Y-70697227D01*
X124992765Y-70673428D01*
X125001030Y-70650329D01*
X125011520Y-70628150D01*
X125024132Y-70607107D01*
X125038747Y-70587401D01*
X125055223Y-70569223D01*
X125073401Y-70552747D01*
X125093107Y-70538132D01*
X125114150Y-70525520D01*
X125136329Y-70515030D01*
X125159428Y-70506765D01*
X125183227Y-70500804D01*
X125207495Y-70497204D01*
X125231999Y-70496000D01*
X126482001Y-70496000D01*
X126506505Y-70497204D01*
X126506505Y-70497204D01*
G37*
D11*
X125857000Y-71058500D03*
D10*
G36*
X126506505Y-67572204D02*
G01*
X126530773Y-67575804D01*
X126554572Y-67581765D01*
X126577671Y-67590030D01*
X126599850Y-67600520D01*
X126620893Y-67613132D01*
X126640599Y-67627747D01*
X126658777Y-67644223D01*
X126675253Y-67662401D01*
X126689868Y-67682107D01*
X126702480Y-67703150D01*
X126712970Y-67725329D01*
X126721235Y-67748428D01*
X126727196Y-67772227D01*
X126730796Y-67796495D01*
X126732000Y-67820999D01*
X126732000Y-68446001D01*
X126730796Y-68470505D01*
X126727196Y-68494773D01*
X126721235Y-68518572D01*
X126712970Y-68541671D01*
X126702480Y-68563850D01*
X126689868Y-68584893D01*
X126675253Y-68604599D01*
X126658777Y-68622777D01*
X126640599Y-68639253D01*
X126620893Y-68653868D01*
X126599850Y-68666480D01*
X126577671Y-68676970D01*
X126554572Y-68685235D01*
X126530773Y-68691196D01*
X126506505Y-68694796D01*
X126482001Y-68696000D01*
X125231999Y-68696000D01*
X125207495Y-68694796D01*
X125183227Y-68691196D01*
X125159428Y-68685235D01*
X125136329Y-68676970D01*
X125114150Y-68666480D01*
X125093107Y-68653868D01*
X125073401Y-68639253D01*
X125055223Y-68622777D01*
X125038747Y-68604599D01*
X125024132Y-68584893D01*
X125011520Y-68563850D01*
X125001030Y-68541671D01*
X124992765Y-68518572D01*
X124986804Y-68494773D01*
X124983204Y-68470505D01*
X124982000Y-68446001D01*
X124982000Y-67820999D01*
X124983204Y-67796495D01*
X124986804Y-67772227D01*
X124992765Y-67748428D01*
X125001030Y-67725329D01*
X125011520Y-67703150D01*
X125024132Y-67682107D01*
X125038747Y-67662401D01*
X125055223Y-67644223D01*
X125073401Y-67627747D01*
X125093107Y-67613132D01*
X125114150Y-67600520D01*
X125136329Y-67590030D01*
X125159428Y-67581765D01*
X125183227Y-67575804D01*
X125207495Y-67572204D01*
X125231999Y-67571000D01*
X126482001Y-67571000D01*
X126506505Y-67572204D01*
X126506505Y-67572204D01*
G37*
D11*
X125857000Y-68133500D03*
D12*
X84350000Y-59833000D03*
D13*
X81100000Y-60833000D03*
D12*
X84350000Y-61833000D03*
D14*
X90925000Y-63373000D03*
X105925000Y-63373000D03*
X105925000Y-58293000D03*
X90925000Y-58293000D03*
X103498000Y-70866000D03*
X118498000Y-70866000D03*
X118498000Y-75946000D03*
X103498000Y-75946000D03*
X131438000Y-65913000D03*
X146438000Y-65913000D03*
X146438000Y-70993000D03*
X131438000Y-70993000D03*
X78352000Y-70866000D03*
X93352000Y-70866000D03*
X93352000Y-75946000D03*
X78352000Y-75946000D03*
X90925000Y-88519000D03*
X105925000Y-88519000D03*
X105925000Y-83439000D03*
X90925000Y-83439000D03*
X118738000Y-87503000D03*
X133738000Y-87503000D03*
X133738000Y-82423000D03*
X118738000Y-82423000D03*
M02*
