G04 #@! TF.GenerationSoftware,KiCad,Pcbnew,(5.1.0)-1*
G04 #@! TF.CreationDate,2022-08-09T13:46:42+10:00*
G04 #@! TF.ProjectId,mainPCB_v0.9-br2,6d61696e-5043-4425-9f76-302e392d6272,rev?*
G04 #@! TF.SameCoordinates,Original*
G04 #@! TF.FileFunction,Soldermask,Top*
G04 #@! TF.FilePolarity,Negative*
%FSLAX46Y46*%
G04 Gerber Fmt 4.6, Leading zero omitted, Abs format (unit mm)*
G04 Created by KiCad (PCBNEW (5.1.0)-1) date 2022-08-09 13:46:42*
%MOMM*%
%LPD*%
G04 APERTURE LIST*
%ADD10C,4.500000*%
%ADD11C,1.700000*%
%ADD12C,0.100000*%
%ADD13O,1.700000X1.950000*%
%ADD14C,1.125000*%
%ADD15R,1.200000X1.200000*%
%ADD16R,1.500000X1.600000*%
%ADD17C,2.000000*%
%ADD18R,3.000000X1.500000*%
%ADD19C,3.200000*%
%ADD20R,1.700000X1.700000*%
%ADD21O,1.700000X1.700000*%
G04 APERTURE END LIST*
D10*
X155722000Y-67543000D03*
D11*
X140525500Y-49530000D03*
X140525500Y-52070000D03*
X140525500Y-54610000D03*
X140525500Y-57150000D03*
X140525500Y-59690000D03*
X137985500Y-49530000D03*
X137985500Y-52070000D03*
X137985500Y-54610000D03*
X137985500Y-57150000D03*
D12*
G36*
X138610004Y-58841204D02*
G01*
X138634273Y-58844804D01*
X138658071Y-58850765D01*
X138681171Y-58859030D01*
X138703349Y-58869520D01*
X138724393Y-58882133D01*
X138744098Y-58896747D01*
X138762277Y-58913223D01*
X138778753Y-58931402D01*
X138793367Y-58951107D01*
X138805980Y-58972151D01*
X138816470Y-58994329D01*
X138824735Y-59017429D01*
X138830696Y-59041227D01*
X138834296Y-59065496D01*
X138835500Y-59090000D01*
X138835500Y-60290000D01*
X138834296Y-60314504D01*
X138830696Y-60338773D01*
X138824735Y-60362571D01*
X138816470Y-60385671D01*
X138805980Y-60407849D01*
X138793367Y-60428893D01*
X138778753Y-60448598D01*
X138762277Y-60466777D01*
X138744098Y-60483253D01*
X138724393Y-60497867D01*
X138703349Y-60510480D01*
X138681171Y-60520970D01*
X138658071Y-60529235D01*
X138634273Y-60535196D01*
X138610004Y-60538796D01*
X138585500Y-60540000D01*
X137385500Y-60540000D01*
X137360996Y-60538796D01*
X137336727Y-60535196D01*
X137312929Y-60529235D01*
X137289829Y-60520970D01*
X137267651Y-60510480D01*
X137246607Y-60497867D01*
X137226902Y-60483253D01*
X137208723Y-60466777D01*
X137192247Y-60448598D01*
X137177633Y-60428893D01*
X137165020Y-60407849D01*
X137154530Y-60385671D01*
X137146265Y-60362571D01*
X137140304Y-60338773D01*
X137136704Y-60314504D01*
X137135500Y-60290000D01*
X137135500Y-59090000D01*
X137136704Y-59065496D01*
X137140304Y-59041227D01*
X137146265Y-59017429D01*
X137154530Y-58994329D01*
X137165020Y-58972151D01*
X137177633Y-58951107D01*
X137192247Y-58931402D01*
X137208723Y-58913223D01*
X137226902Y-58896747D01*
X137246607Y-58882133D01*
X137267651Y-58869520D01*
X137289829Y-58859030D01*
X137312929Y-58850765D01*
X137336727Y-58844804D01*
X137360996Y-58841204D01*
X137385500Y-58840000D01*
X138585500Y-58840000D01*
X138610004Y-58841204D01*
X138610004Y-58841204D01*
G37*
D11*
X137985500Y-59690000D03*
D12*
G36*
X80190004Y-51667704D02*
G01*
X80214273Y-51671304D01*
X80238071Y-51677265D01*
X80261171Y-51685530D01*
X80283349Y-51696020D01*
X80304393Y-51708633D01*
X80324098Y-51723247D01*
X80342277Y-51739723D01*
X80358753Y-51757902D01*
X80373367Y-51777607D01*
X80385980Y-51798651D01*
X80396470Y-51820829D01*
X80404735Y-51843929D01*
X80410696Y-51867727D01*
X80414296Y-51891996D01*
X80415500Y-51916500D01*
X80415500Y-53366500D01*
X80414296Y-53391004D01*
X80410696Y-53415273D01*
X80404735Y-53439071D01*
X80396470Y-53462171D01*
X80385980Y-53484349D01*
X80373367Y-53505393D01*
X80358753Y-53525098D01*
X80342277Y-53543277D01*
X80324098Y-53559753D01*
X80304393Y-53574367D01*
X80283349Y-53586980D01*
X80261171Y-53597470D01*
X80238071Y-53605735D01*
X80214273Y-53611696D01*
X80190004Y-53615296D01*
X80165500Y-53616500D01*
X78965500Y-53616500D01*
X78940996Y-53615296D01*
X78916727Y-53611696D01*
X78892929Y-53605735D01*
X78869829Y-53597470D01*
X78847651Y-53586980D01*
X78826607Y-53574367D01*
X78806902Y-53559753D01*
X78788723Y-53543277D01*
X78772247Y-53525098D01*
X78757633Y-53505393D01*
X78745020Y-53484349D01*
X78734530Y-53462171D01*
X78726265Y-53439071D01*
X78720304Y-53415273D01*
X78716704Y-53391004D01*
X78715500Y-53366500D01*
X78715500Y-51916500D01*
X78716704Y-51891996D01*
X78720304Y-51867727D01*
X78726265Y-51843929D01*
X78734530Y-51820829D01*
X78745020Y-51798651D01*
X78757633Y-51777607D01*
X78772247Y-51757902D01*
X78788723Y-51739723D01*
X78806902Y-51723247D01*
X78826607Y-51708633D01*
X78847651Y-51696020D01*
X78869829Y-51685530D01*
X78892929Y-51677265D01*
X78916727Y-51671304D01*
X78940996Y-51667704D01*
X78965500Y-51666500D01*
X80165500Y-51666500D01*
X80190004Y-51667704D01*
X80190004Y-51667704D01*
G37*
D11*
X79565500Y-52641500D03*
D13*
X82065500Y-52641500D03*
X84565500Y-52641500D03*
X87065500Y-52641500D03*
X89565500Y-52641500D03*
X92065500Y-52641500D03*
X94565500Y-52641500D03*
X97065500Y-52641500D03*
X99565500Y-52641500D03*
X102065500Y-52641500D03*
D12*
G36*
X126506505Y-70497204D02*
G01*
X126530773Y-70500804D01*
X126554572Y-70506765D01*
X126577671Y-70515030D01*
X126599850Y-70525520D01*
X126620893Y-70538132D01*
X126640599Y-70552747D01*
X126658777Y-70569223D01*
X126675253Y-70587401D01*
X126689868Y-70607107D01*
X126702480Y-70628150D01*
X126712970Y-70650329D01*
X126721235Y-70673428D01*
X126727196Y-70697227D01*
X126730796Y-70721495D01*
X126732000Y-70745999D01*
X126732000Y-71371001D01*
X126730796Y-71395505D01*
X126727196Y-71419773D01*
X126721235Y-71443572D01*
X126712970Y-71466671D01*
X126702480Y-71488850D01*
X126689868Y-71509893D01*
X126675253Y-71529599D01*
X126658777Y-71547777D01*
X126640599Y-71564253D01*
X126620893Y-71578868D01*
X126599850Y-71591480D01*
X126577671Y-71601970D01*
X126554572Y-71610235D01*
X126530773Y-71616196D01*
X126506505Y-71619796D01*
X126482001Y-71621000D01*
X125231999Y-71621000D01*
X125207495Y-71619796D01*
X125183227Y-71616196D01*
X125159428Y-71610235D01*
X125136329Y-71601970D01*
X125114150Y-71591480D01*
X125093107Y-71578868D01*
X125073401Y-71564253D01*
X125055223Y-71547777D01*
X125038747Y-71529599D01*
X125024132Y-71509893D01*
X125011520Y-71488850D01*
X125001030Y-71466671D01*
X124992765Y-71443572D01*
X124986804Y-71419773D01*
X124983204Y-71395505D01*
X124982000Y-71371001D01*
X124982000Y-70745999D01*
X124983204Y-70721495D01*
X124986804Y-70697227D01*
X124992765Y-70673428D01*
X125001030Y-70650329D01*
X125011520Y-70628150D01*
X125024132Y-70607107D01*
X125038747Y-70587401D01*
X125055223Y-70569223D01*
X125073401Y-70552747D01*
X125093107Y-70538132D01*
X125114150Y-70525520D01*
X125136329Y-70515030D01*
X125159428Y-70506765D01*
X125183227Y-70500804D01*
X125207495Y-70497204D01*
X125231999Y-70496000D01*
X126482001Y-70496000D01*
X126506505Y-70497204D01*
X126506505Y-70497204D01*
G37*
D14*
X125857000Y-71058500D03*
D12*
G36*
X126506505Y-67572204D02*
G01*
X126530773Y-67575804D01*
X126554572Y-67581765D01*
X126577671Y-67590030D01*
X126599850Y-67600520D01*
X126620893Y-67613132D01*
X126640599Y-67627747D01*
X126658777Y-67644223D01*
X126675253Y-67662401D01*
X126689868Y-67682107D01*
X126702480Y-67703150D01*
X126712970Y-67725329D01*
X126721235Y-67748428D01*
X126727196Y-67772227D01*
X126730796Y-67796495D01*
X126732000Y-67820999D01*
X126732000Y-68446001D01*
X126730796Y-68470505D01*
X126727196Y-68494773D01*
X126721235Y-68518572D01*
X126712970Y-68541671D01*
X126702480Y-68563850D01*
X126689868Y-68584893D01*
X126675253Y-68604599D01*
X126658777Y-68622777D01*
X126640599Y-68639253D01*
X126620893Y-68653868D01*
X126599850Y-68666480D01*
X126577671Y-68676970D01*
X126554572Y-68685235D01*
X126530773Y-68691196D01*
X126506505Y-68694796D01*
X126482001Y-68696000D01*
X125231999Y-68696000D01*
X125207495Y-68694796D01*
X125183227Y-68691196D01*
X125159428Y-68685235D01*
X125136329Y-68676970D01*
X125114150Y-68666480D01*
X125093107Y-68653868D01*
X125073401Y-68639253D01*
X125055223Y-68622777D01*
X125038747Y-68604599D01*
X125024132Y-68584893D01*
X125011520Y-68563850D01*
X125001030Y-68541671D01*
X124992765Y-68518572D01*
X124986804Y-68494773D01*
X124983204Y-68470505D01*
X124982000Y-68446001D01*
X124982000Y-67820999D01*
X124983204Y-67796495D01*
X124986804Y-67772227D01*
X124992765Y-67748428D01*
X125001030Y-67725329D01*
X125011520Y-67703150D01*
X125024132Y-67682107D01*
X125038747Y-67662401D01*
X125055223Y-67644223D01*
X125073401Y-67627747D01*
X125093107Y-67613132D01*
X125114150Y-67600520D01*
X125136329Y-67590030D01*
X125159428Y-67581765D01*
X125183227Y-67575804D01*
X125207495Y-67572204D01*
X125231999Y-67571000D01*
X126482001Y-67571000D01*
X126506505Y-67572204D01*
X126506505Y-67572204D01*
G37*
D14*
X125857000Y-68133500D03*
D15*
X84350000Y-59833000D03*
D16*
X81100000Y-60833000D03*
D15*
X84350000Y-61833000D03*
D17*
X121158000Y-50673000D03*
X126558000Y-50673000D03*
X126558000Y-55753000D03*
X121158000Y-55753000D03*
X121158000Y-53213000D03*
X126558000Y-53213000D03*
X123758000Y-50673000D03*
D18*
X90925000Y-63373000D03*
X105925000Y-63373000D03*
X105925000Y-58293000D03*
X90925000Y-58293000D03*
X103498000Y-70866000D03*
X118498000Y-70866000D03*
X118498000Y-75946000D03*
X103498000Y-75946000D03*
X131438000Y-65913000D03*
X146438000Y-65913000D03*
X146438000Y-70993000D03*
X131438000Y-70993000D03*
X78352000Y-70866000D03*
X93352000Y-70866000D03*
X93352000Y-75946000D03*
X78352000Y-75946000D03*
X90925000Y-88519000D03*
X105925000Y-88519000D03*
X105925000Y-83439000D03*
X90925000Y-83439000D03*
X118738000Y-87503000D03*
X133738000Y-87503000D03*
X133738000Y-82423000D03*
X118738000Y-82423000D03*
D19*
X70454000Y-95043000D03*
X70454000Y-40043000D03*
D20*
X78422500Y-46863000D03*
D21*
X80962500Y-46863000D03*
X83502500Y-46863000D03*
X86042500Y-46863000D03*
X88582500Y-46863000D03*
X91122500Y-46863000D03*
X93662500Y-46863000D03*
X96202500Y-46863000D03*
X98742500Y-46863000D03*
X101282500Y-46863000D03*
X103822500Y-46863000D03*
X106362500Y-46863000D03*
X108902500Y-46863000D03*
X111442500Y-46863000D03*
X113982500Y-46863000D03*
X116522500Y-46863000D03*
D19*
X87000000Y-40000000D03*
X87000000Y-95000000D03*
X129000000Y-40000000D03*
X129000000Y-95000000D03*
M02*
