%FSLAX45Y45*%
G04 Gerber Fmt 4.5, Leading zero omitted, Abs format (unit mm)*
G04 Created by KiCad (PCBNEW (5.1.0)-1) date 2022-08-09 13:46:40*
%MOMM*%
%LPD*%
G04 APERTURE LIST*
%ADD10C,0.100000*%
%ADD11C,0.200000*%
%ADD12C,0.300000*%
G04 APERTURE END LIST*
D10*
X15572200Y-6154300D02*
G75*
G02X15572200Y-7354300I0J-600000D01*
G01*
X6305550Y-4504300D02*
X6303022Y-4004334D01*
X7395400Y-4504300D02*
X6305550Y-4504300D01*
X7395400Y-9004300D02*
X7395400Y-4504300D01*
X6305400Y-9004300D02*
X7395400Y-9004300D01*
X6305400Y-9504300D02*
X6305400Y-9004300D01*
X7667443Y-9905128D02*
G75*
G02X6305400Y-9504300I-622043J400828D01*
G01*
X14820900Y-9904300D02*
X7667443Y-9905128D01*
X15572200Y-9153000D02*
X14820900Y-9904300D01*
X15572200Y-7354300D02*
X15572200Y-9153000D01*
X15572200Y-4504300D02*
X15572200Y-6154300D01*
X14820900Y-3604300D02*
X15572200Y-4504300D01*
X7670800Y-3604300D02*
X14820900Y-3604300D01*
X6303022Y-4004334D02*
G75*
G02X7670800Y-3604300I742378J34D01*
G01*
D11*
X12740000Y-3840000D02*
X13060000Y-4160000D01*
X13060000Y-3840000D02*
X12740000Y-4160000D01*
X8540000Y-9340000D02*
X8860000Y-9660000D01*
X8860000Y-9340000D02*
X8540000Y-9660000D01*
X6885400Y-3844300D02*
X7205400Y-4164300D01*
X7205400Y-3844300D02*
X6885400Y-4164300D01*
X8540000Y-3840000D02*
X8860000Y-4160000D01*
X8860000Y-3840000D02*
X8540000Y-4160000D01*
X12740000Y-9340000D02*
X13060000Y-9660000D01*
X13060000Y-9340000D02*
X12740000Y-9660000D01*
X6885400Y-9344300D02*
X7205400Y-9664300D01*
X7205400Y-9344300D02*
X6885400Y-9664300D01*
X15797200Y-6754300D02*
G75*
G03X15797200Y-6754300I-225000J0D01*
G01*
D12*
X6584450Y-10715014D02*
X6584450Y-10415014D01*
X6655879Y-10415014D01*
X6698736Y-10429300D01*
X6727308Y-10457872D01*
X6741593Y-10486443D01*
X6755879Y-10543586D01*
X6755879Y-10586443D01*
X6741593Y-10643586D01*
X6727308Y-10672157D01*
X6698736Y-10700729D01*
X6655879Y-10715014D01*
X6584450Y-10715014D01*
X6884450Y-10715014D02*
X6884450Y-10515014D01*
X6884450Y-10572157D02*
X6898736Y-10543586D01*
X6913022Y-10529300D01*
X6941593Y-10515014D01*
X6970165Y-10515014D01*
X7070165Y-10715014D02*
X7070165Y-10515014D01*
X7070165Y-10415014D02*
X7055879Y-10429300D01*
X7070165Y-10443586D01*
X7084450Y-10429300D01*
X7070165Y-10415014D01*
X7070165Y-10443586D01*
X7255879Y-10715014D02*
X7227308Y-10700729D01*
X7213022Y-10672157D01*
X7213022Y-10415014D01*
X7413022Y-10715014D02*
X7384450Y-10700729D01*
X7370165Y-10672157D01*
X7370165Y-10415014D01*
X7755879Y-10715014D02*
X7755879Y-10415014D01*
X7855879Y-10629300D01*
X7955879Y-10415014D01*
X7955879Y-10715014D01*
X8227308Y-10715014D02*
X8227308Y-10557872D01*
X8213022Y-10529300D01*
X8184450Y-10515014D01*
X8127308Y-10515014D01*
X8098736Y-10529300D01*
X8227308Y-10700729D02*
X8198736Y-10715014D01*
X8127308Y-10715014D01*
X8098736Y-10700729D01*
X8084450Y-10672157D01*
X8084450Y-10643586D01*
X8098736Y-10615014D01*
X8127308Y-10600729D01*
X8198736Y-10600729D01*
X8227308Y-10586443D01*
X8370165Y-10515014D02*
X8370165Y-10815014D01*
X8370165Y-10529300D02*
X8398736Y-10515014D01*
X8455879Y-10515014D01*
X8484450Y-10529300D01*
X8498736Y-10543586D01*
X8513022Y-10572157D01*
X8513022Y-10657872D01*
X8498736Y-10686443D01*
X8484450Y-10700729D01*
X8455879Y-10715014D01*
X8398736Y-10715014D01*
X8370165Y-10700729D01*
X8641593Y-10686443D02*
X8655879Y-10700729D01*
X8641593Y-10715014D01*
X8627308Y-10700729D01*
X8641593Y-10686443D01*
X8641593Y-10715014D01*
X8641593Y-10529300D02*
X8655879Y-10543586D01*
X8641593Y-10557872D01*
X8627308Y-10543586D01*
X8641593Y-10529300D01*
X8641593Y-10557872D01*
X5978022Y-11049300D02*
X6298022Y-11369300D01*
X6298022Y-11049300D02*
X5978022Y-11369300D01*
X6555879Y-11045014D02*
X6741593Y-11045014D01*
X6641593Y-11159300D01*
X6684450Y-11159300D01*
X6713022Y-11173586D01*
X6727308Y-11187871D01*
X6741593Y-11216443D01*
X6741593Y-11287871D01*
X6727308Y-11316443D01*
X6713022Y-11330729D01*
X6684450Y-11345014D01*
X6598736Y-11345014D01*
X6570165Y-11330729D01*
X6555879Y-11316443D01*
X6870165Y-11316443D02*
X6884450Y-11330729D01*
X6870165Y-11345014D01*
X6855879Y-11330729D01*
X6870165Y-11316443D01*
X6870165Y-11345014D01*
X6998736Y-11073586D02*
X7013022Y-11059300D01*
X7041593Y-11045014D01*
X7113022Y-11045014D01*
X7141593Y-11059300D01*
X7155879Y-11073586D01*
X7170165Y-11102157D01*
X7170165Y-11130729D01*
X7155879Y-11173586D01*
X6984450Y-11345014D01*
X7170165Y-11345014D01*
X7355879Y-11045014D02*
X7384450Y-11045014D01*
X7413022Y-11059300D01*
X7427308Y-11073586D01*
X7441593Y-11102157D01*
X7455879Y-11159300D01*
X7455879Y-11230729D01*
X7441593Y-11287871D01*
X7427308Y-11316443D01*
X7413022Y-11330729D01*
X7384450Y-11345014D01*
X7355879Y-11345014D01*
X7327308Y-11330729D01*
X7313022Y-11316443D01*
X7298736Y-11287871D01*
X7284450Y-11230729D01*
X7284450Y-11159300D01*
X7298736Y-11102157D01*
X7313022Y-11073586D01*
X7327308Y-11059300D01*
X7355879Y-11045014D01*
X7584450Y-11345014D02*
X7584450Y-11145014D01*
X7584450Y-11173586D02*
X7598736Y-11159300D01*
X7627308Y-11145014D01*
X7670165Y-11145014D01*
X7698736Y-11159300D01*
X7713022Y-11187871D01*
X7713022Y-11345014D01*
X7713022Y-11187871D02*
X7727308Y-11159300D01*
X7755879Y-11145014D01*
X7798736Y-11145014D01*
X7827308Y-11159300D01*
X7841593Y-11187871D01*
X7841593Y-11345014D01*
X7984450Y-11345014D02*
X7984450Y-11145014D01*
X7984450Y-11173586D02*
X7998736Y-11159300D01*
X8027308Y-11145014D01*
X8070165Y-11145014D01*
X8098736Y-11159300D01*
X8113022Y-11187871D01*
X8113022Y-11345014D01*
X8113022Y-11187871D02*
X8127308Y-11159300D01*
X8155879Y-11145014D01*
X8198736Y-11145014D01*
X8227308Y-11159300D01*
X8241593Y-11187871D01*
X8241593Y-11345014D01*
X8827308Y-11030729D02*
X8570165Y-11416443D01*
X9213022Y-11045014D02*
X9241593Y-11045014D01*
X9270165Y-11059300D01*
X9284450Y-11073586D01*
X9298736Y-11102157D01*
X9313022Y-11159300D01*
X9313022Y-11230729D01*
X9298736Y-11287871D01*
X9284450Y-11316443D01*
X9270165Y-11330729D01*
X9241593Y-11345014D01*
X9213022Y-11345014D01*
X9184450Y-11330729D01*
X9170165Y-11316443D01*
X9155879Y-11287871D01*
X9141593Y-11230729D01*
X9141593Y-11159300D01*
X9155879Y-11102157D01*
X9170165Y-11073586D01*
X9184450Y-11059300D01*
X9213022Y-11045014D01*
X9441593Y-11316443D02*
X9455879Y-11330729D01*
X9441593Y-11345014D01*
X9427308Y-11330729D01*
X9441593Y-11316443D01*
X9441593Y-11345014D01*
X9741593Y-11345014D02*
X9570165Y-11345014D01*
X9655879Y-11345014D02*
X9655879Y-11045014D01*
X9627308Y-11087872D01*
X9598736Y-11116443D01*
X9570165Y-11130729D01*
X9855879Y-11073586D02*
X9870165Y-11059300D01*
X9898736Y-11045014D01*
X9970165Y-11045014D01*
X9998736Y-11059300D01*
X10013022Y-11073586D01*
X10027308Y-11102157D01*
X10027308Y-11130729D01*
X10013022Y-11173586D01*
X9841593Y-11345014D01*
X10027308Y-11345014D01*
X10284450Y-11045014D02*
X10227308Y-11045014D01*
X10198736Y-11059300D01*
X10184450Y-11073586D01*
X10155879Y-11116443D01*
X10141593Y-11173586D01*
X10141593Y-11287871D01*
X10155879Y-11316443D01*
X10170165Y-11330729D01*
X10198736Y-11345014D01*
X10255879Y-11345014D01*
X10284450Y-11330729D01*
X10298736Y-11316443D01*
X10313022Y-11287871D01*
X10313022Y-11216443D01*
X10298736Y-11187871D01*
X10284450Y-11173586D01*
X10255879Y-11159300D01*
X10198736Y-11159300D01*
X10170165Y-11173586D01*
X10155879Y-11187871D01*
X10141593Y-11216443D01*
X10427308Y-11045014D02*
X10427308Y-11102157D01*
X10541593Y-11045014D02*
X10541593Y-11102157D01*
X10984450Y-11459300D02*
X10970165Y-11445014D01*
X10941593Y-11402157D01*
X10927308Y-11373586D01*
X10913022Y-11330729D01*
X10898736Y-11259300D01*
X10898736Y-11202157D01*
X10913022Y-11130729D01*
X10927308Y-11087872D01*
X10941593Y-11059300D01*
X10970165Y-11016443D01*
X10984450Y-11002157D01*
X11227308Y-11045014D02*
X11170165Y-11045014D01*
X11141593Y-11059300D01*
X11127308Y-11073586D01*
X11098736Y-11116443D01*
X11084450Y-11173586D01*
X11084450Y-11287871D01*
X11098736Y-11316443D01*
X11113022Y-11330729D01*
X11141593Y-11345014D01*
X11198736Y-11345014D01*
X11227308Y-11330729D01*
X11241593Y-11316443D01*
X11255879Y-11287871D01*
X11255879Y-11216443D01*
X11241593Y-11187871D01*
X11227308Y-11173586D01*
X11198736Y-11159300D01*
X11141593Y-11159300D01*
X11113022Y-11173586D01*
X11098736Y-11187871D01*
X11084450Y-11216443D01*
X11613022Y-11345014D02*
X11613022Y-11045014D01*
X11741593Y-11345014D02*
X11741593Y-11187871D01*
X11727308Y-11159300D01*
X11698736Y-11145014D01*
X11655879Y-11145014D01*
X11627308Y-11159300D01*
X11613022Y-11173586D01*
X11927308Y-11345014D02*
X11898736Y-11330729D01*
X11884450Y-11316443D01*
X11870165Y-11287871D01*
X11870165Y-11202157D01*
X11884450Y-11173586D01*
X11898736Y-11159300D01*
X11927308Y-11145014D01*
X11970165Y-11145014D01*
X11998736Y-11159300D01*
X12013022Y-11173586D01*
X12027308Y-11202157D01*
X12027308Y-11287871D01*
X12013022Y-11316443D01*
X11998736Y-11330729D01*
X11970165Y-11345014D01*
X11927308Y-11345014D01*
X12198736Y-11345014D02*
X12170165Y-11330729D01*
X12155879Y-11302157D01*
X12155879Y-11045014D01*
X12427308Y-11330729D02*
X12398736Y-11345014D01*
X12341593Y-11345014D01*
X12313022Y-11330729D01*
X12298736Y-11302157D01*
X12298736Y-11187871D01*
X12313022Y-11159300D01*
X12341593Y-11145014D01*
X12398736Y-11145014D01*
X12427308Y-11159300D01*
X12441593Y-11187871D01*
X12441593Y-11216443D01*
X12298736Y-11245014D01*
X12555879Y-11330729D02*
X12584450Y-11345014D01*
X12641593Y-11345014D01*
X12670165Y-11330729D01*
X12684450Y-11302157D01*
X12684450Y-11287871D01*
X12670165Y-11259300D01*
X12641593Y-11245014D01*
X12598736Y-11245014D01*
X12570165Y-11230729D01*
X12555879Y-11202157D01*
X12555879Y-11187871D01*
X12570165Y-11159300D01*
X12598736Y-11145014D01*
X12641593Y-11145014D01*
X12670165Y-11159300D01*
X12784450Y-11459300D02*
X12798736Y-11445014D01*
X12827308Y-11402157D01*
X12841593Y-11373586D01*
X12855879Y-11330729D01*
X12870165Y-11259300D01*
X12870165Y-11202157D01*
X12855879Y-11130729D01*
X12841593Y-11087872D01*
X12827308Y-11059300D01*
X12798736Y-11016443D01*
X12784450Y-11002157D01*
X13327308Y-11459300D02*
X13313022Y-11445014D01*
X13284450Y-11402157D01*
X13270165Y-11373586D01*
X13255879Y-11330729D01*
X13241593Y-11259300D01*
X13241593Y-11202157D01*
X13255879Y-11130729D01*
X13270165Y-11087872D01*
X13284450Y-11059300D01*
X13313022Y-11016443D01*
X13327308Y-11002157D01*
X13441593Y-11145014D02*
X13441593Y-11345014D01*
X13441593Y-11173586D02*
X13455879Y-11159300D01*
X13484450Y-11145014D01*
X13527308Y-11145014D01*
X13555879Y-11159300D01*
X13570165Y-11187871D01*
X13570165Y-11345014D01*
X13755879Y-11345014D02*
X13727308Y-11330729D01*
X13713022Y-11316443D01*
X13698736Y-11287871D01*
X13698736Y-11202157D01*
X13713022Y-11173586D01*
X13727308Y-11159300D01*
X13755879Y-11145014D01*
X13798736Y-11145014D01*
X13827308Y-11159300D01*
X13841593Y-11173586D01*
X13855879Y-11202157D01*
X13855879Y-11287871D01*
X13841593Y-11316443D01*
X13827308Y-11330729D01*
X13798736Y-11345014D01*
X13755879Y-11345014D01*
X13941593Y-11145014D02*
X14055879Y-11145014D01*
X13984450Y-11045014D02*
X13984450Y-11302157D01*
X13998736Y-11330729D01*
X14027308Y-11345014D01*
X14055879Y-11345014D01*
X14384450Y-11145014D02*
X14384450Y-11445014D01*
X14384450Y-11159300D02*
X14413022Y-11145014D01*
X14470165Y-11145014D01*
X14498736Y-11159300D01*
X14513022Y-11173586D01*
X14527308Y-11202157D01*
X14527308Y-11287871D01*
X14513022Y-11316443D01*
X14498736Y-11330729D01*
X14470165Y-11345014D01*
X14413022Y-11345014D01*
X14384450Y-11330729D01*
X14698736Y-11345014D02*
X14670165Y-11330729D01*
X14655879Y-11302157D01*
X14655879Y-11045014D01*
X14941593Y-11345014D02*
X14941593Y-11187871D01*
X14927308Y-11159300D01*
X14898736Y-11145014D01*
X14841593Y-11145014D01*
X14813022Y-11159300D01*
X14941593Y-11330729D02*
X14913022Y-11345014D01*
X14841593Y-11345014D01*
X14813022Y-11330729D01*
X14798736Y-11302157D01*
X14798736Y-11273586D01*
X14813022Y-11245014D01*
X14841593Y-11230729D01*
X14913022Y-11230729D01*
X14941593Y-11216443D01*
X15041593Y-11145014D02*
X15155879Y-11145014D01*
X15084450Y-11045014D02*
X15084450Y-11302157D01*
X15098736Y-11330729D01*
X15127308Y-11345014D01*
X15155879Y-11345014D01*
X15370165Y-11330729D02*
X15341593Y-11345014D01*
X15284450Y-11345014D01*
X15255879Y-11330729D01*
X15241593Y-11302157D01*
X15241593Y-11187871D01*
X15255879Y-11159300D01*
X15284450Y-11145014D01*
X15341593Y-11145014D01*
X15370165Y-11159300D01*
X15384450Y-11187871D01*
X15384450Y-11216443D01*
X15241593Y-11245014D01*
X15641593Y-11345014D02*
X15641593Y-11045014D01*
X15641593Y-11330729D02*
X15613022Y-11345014D01*
X15555879Y-11345014D01*
X15527308Y-11330729D01*
X15513022Y-11316443D01*
X15498736Y-11287871D01*
X15498736Y-11202157D01*
X15513022Y-11173586D01*
X15527308Y-11159300D01*
X15555879Y-11145014D01*
X15613022Y-11145014D01*
X15641593Y-11159300D01*
X15755879Y-11459300D02*
X15770165Y-11445014D01*
X15798736Y-11402157D01*
X15813022Y-11373586D01*
X15827308Y-11330729D01*
X15841593Y-11259300D01*
X15841593Y-11202157D01*
X15827308Y-11130729D01*
X15813022Y-11087872D01*
X15798736Y-11059300D01*
X15770165Y-11016443D01*
X15755879Y-11002157D01*
X6298022Y-11659300D02*
G75*
G03X6298022Y-11659300I-225000J0D01*
G01*
X6713022Y-11595014D02*
X6713022Y-11795014D01*
X6641593Y-11480729D02*
X6570165Y-11695014D01*
X6755879Y-11695014D01*
X6870165Y-11766443D02*
X6884450Y-11780729D01*
X6870165Y-11795014D01*
X6855879Y-11780729D01*
X6870165Y-11766443D01*
X6870165Y-11795014D01*
X7155879Y-11495014D02*
X7013022Y-11495014D01*
X6998736Y-11637871D01*
X7013022Y-11623586D01*
X7041593Y-11609300D01*
X7113022Y-11609300D01*
X7141593Y-11623586D01*
X7155879Y-11637871D01*
X7170165Y-11666443D01*
X7170165Y-11737871D01*
X7155879Y-11766443D01*
X7141593Y-11780729D01*
X7113022Y-11795014D01*
X7041593Y-11795014D01*
X7013022Y-11780729D01*
X6998736Y-11766443D01*
X7355879Y-11495014D02*
X7384450Y-11495014D01*
X7413022Y-11509300D01*
X7427308Y-11523586D01*
X7441593Y-11552157D01*
X7455879Y-11609300D01*
X7455879Y-11680729D01*
X7441593Y-11737871D01*
X7427308Y-11766443D01*
X7413022Y-11780729D01*
X7384450Y-11795014D01*
X7355879Y-11795014D01*
X7327308Y-11780729D01*
X7313022Y-11766443D01*
X7298736Y-11737871D01*
X7284450Y-11680729D01*
X7284450Y-11609300D01*
X7298736Y-11552157D01*
X7313022Y-11523586D01*
X7327308Y-11509300D01*
X7355879Y-11495014D01*
X7584450Y-11795014D02*
X7584450Y-11595014D01*
X7584450Y-11623586D02*
X7598736Y-11609300D01*
X7627308Y-11595014D01*
X7670165Y-11595014D01*
X7698736Y-11609300D01*
X7713022Y-11637871D01*
X7713022Y-11795014D01*
X7713022Y-11637871D02*
X7727308Y-11609300D01*
X7755879Y-11595014D01*
X7798736Y-11595014D01*
X7827308Y-11609300D01*
X7841593Y-11637871D01*
X7841593Y-11795014D01*
X7984450Y-11795014D02*
X7984450Y-11595014D01*
X7984450Y-11623586D02*
X7998736Y-11609300D01*
X8027308Y-11595014D01*
X8070165Y-11595014D01*
X8098736Y-11609300D01*
X8113022Y-11637871D01*
X8113022Y-11795014D01*
X8113022Y-11637871D02*
X8127308Y-11609300D01*
X8155879Y-11595014D01*
X8198736Y-11595014D01*
X8227308Y-11609300D01*
X8241593Y-11637871D01*
X8241593Y-11795014D01*
X8827308Y-11480729D02*
X8570165Y-11866443D01*
X9213022Y-11495014D02*
X9241593Y-11495014D01*
X9270165Y-11509300D01*
X9284450Y-11523586D01*
X9298736Y-11552157D01*
X9313022Y-11609300D01*
X9313022Y-11680729D01*
X9298736Y-11737871D01*
X9284450Y-11766443D01*
X9270165Y-11780729D01*
X9241593Y-11795014D01*
X9213022Y-11795014D01*
X9184450Y-11780729D01*
X9170165Y-11766443D01*
X9155879Y-11737871D01*
X9141593Y-11680729D01*
X9141593Y-11609300D01*
X9155879Y-11552157D01*
X9170165Y-11523586D01*
X9184450Y-11509300D01*
X9213022Y-11495014D01*
X9441593Y-11766443D02*
X9455879Y-11780729D01*
X9441593Y-11795014D01*
X9427308Y-11780729D01*
X9441593Y-11766443D01*
X9441593Y-11795014D01*
X9741593Y-11795014D02*
X9570165Y-11795014D01*
X9655879Y-11795014D02*
X9655879Y-11495014D01*
X9627308Y-11537871D01*
X9598736Y-11566443D01*
X9570165Y-11580729D01*
X9841593Y-11495014D02*
X10041593Y-11495014D01*
X9913022Y-11795014D01*
X10127308Y-11495014D02*
X10327308Y-11495014D01*
X10198736Y-11795014D01*
X10427308Y-11495014D02*
X10427308Y-11552157D01*
X10541593Y-11495014D02*
X10541593Y-11552157D01*
X10984450Y-11909300D02*
X10970165Y-11895014D01*
X10941593Y-11852157D01*
X10927308Y-11823586D01*
X10913022Y-11780729D01*
X10898736Y-11709300D01*
X10898736Y-11652157D01*
X10913022Y-11580729D01*
X10927308Y-11537871D01*
X10941593Y-11509300D01*
X10970165Y-11466443D01*
X10984450Y-11452157D01*
X11255879Y-11795014D02*
X11084450Y-11795014D01*
X11170165Y-11795014D02*
X11170165Y-11495014D01*
X11141593Y-11537871D01*
X11113022Y-11566443D01*
X11084450Y-11580729D01*
X11613022Y-11795014D02*
X11613022Y-11495014D01*
X11741593Y-11795014D02*
X11741593Y-11637871D01*
X11727308Y-11609300D01*
X11698736Y-11595014D01*
X11655879Y-11595014D01*
X11627308Y-11609300D01*
X11613022Y-11623586D01*
X11927308Y-11795014D02*
X11898736Y-11780729D01*
X11884450Y-11766443D01*
X11870165Y-11737871D01*
X11870165Y-11652157D01*
X11884450Y-11623586D01*
X11898736Y-11609300D01*
X11927308Y-11595014D01*
X11970165Y-11595014D01*
X11998736Y-11609300D01*
X12013022Y-11623586D01*
X12027308Y-11652157D01*
X12027308Y-11737871D01*
X12013022Y-11766443D01*
X11998736Y-11780729D01*
X11970165Y-11795014D01*
X11927308Y-11795014D01*
X12198736Y-11795014D02*
X12170165Y-11780729D01*
X12155879Y-11752157D01*
X12155879Y-11495014D01*
X12427308Y-11780729D02*
X12398736Y-11795014D01*
X12341593Y-11795014D01*
X12313022Y-11780729D01*
X12298736Y-11752157D01*
X12298736Y-11637871D01*
X12313022Y-11609300D01*
X12341593Y-11595014D01*
X12398736Y-11595014D01*
X12427308Y-11609300D01*
X12441593Y-11637871D01*
X12441593Y-11666443D01*
X12298736Y-11695014D01*
X12541593Y-11909300D02*
X12555879Y-11895014D01*
X12584450Y-11852157D01*
X12598736Y-11823586D01*
X12613022Y-11780729D01*
X12627308Y-11709300D01*
X12627308Y-11652157D01*
X12613022Y-11580729D01*
X12598736Y-11537871D01*
X12584450Y-11509300D01*
X12555879Y-11466443D01*
X12541593Y-11452157D01*
X13084450Y-11909300D02*
X13070165Y-11895014D01*
X13041593Y-11852157D01*
X13027308Y-11823586D01*
X13013022Y-11780729D01*
X12998736Y-11709300D01*
X12998736Y-11652157D01*
X13013022Y-11580729D01*
X13027308Y-11537871D01*
X13041593Y-11509300D01*
X13070165Y-11466443D01*
X13084450Y-11452157D01*
X13198736Y-11595014D02*
X13198736Y-11795014D01*
X13198736Y-11623586D02*
X13213022Y-11609300D01*
X13241593Y-11595014D01*
X13284450Y-11595014D01*
X13313022Y-11609300D01*
X13327308Y-11637871D01*
X13327308Y-11795014D01*
X13513022Y-11795014D02*
X13484450Y-11780729D01*
X13470165Y-11766443D01*
X13455879Y-11737871D01*
X13455879Y-11652157D01*
X13470165Y-11623586D01*
X13484450Y-11609300D01*
X13513022Y-11595014D01*
X13555879Y-11595014D01*
X13584450Y-11609300D01*
X13598736Y-11623586D01*
X13613022Y-11652157D01*
X13613022Y-11737871D01*
X13598736Y-11766443D01*
X13584450Y-11780729D01*
X13555879Y-11795014D01*
X13513022Y-11795014D01*
X13698736Y-11595014D02*
X13813022Y-11595014D01*
X13741593Y-11495014D02*
X13741593Y-11752157D01*
X13755879Y-11780729D01*
X13784450Y-11795014D01*
X13813022Y-11795014D01*
X14141593Y-11595014D02*
X14141593Y-11895014D01*
X14141593Y-11609300D02*
X14170165Y-11595014D01*
X14227308Y-11595014D01*
X14255879Y-11609300D01*
X14270165Y-11623586D01*
X14284450Y-11652157D01*
X14284450Y-11737871D01*
X14270165Y-11766443D01*
X14255879Y-11780729D01*
X14227308Y-11795014D01*
X14170165Y-11795014D01*
X14141593Y-11780729D01*
X14455879Y-11795014D02*
X14427308Y-11780729D01*
X14413022Y-11752157D01*
X14413022Y-11495014D01*
X14698736Y-11795014D02*
X14698736Y-11637871D01*
X14684450Y-11609300D01*
X14655879Y-11595014D01*
X14598736Y-11595014D01*
X14570165Y-11609300D01*
X14698736Y-11780729D02*
X14670165Y-11795014D01*
X14598736Y-11795014D01*
X14570165Y-11780729D01*
X14555879Y-11752157D01*
X14555879Y-11723586D01*
X14570165Y-11695014D01*
X14598736Y-11680729D01*
X14670165Y-11680729D01*
X14698736Y-11666443D01*
X14798736Y-11595014D02*
X14913022Y-11595014D01*
X14841593Y-11495014D02*
X14841593Y-11752157D01*
X14855879Y-11780729D01*
X14884450Y-11795014D01*
X14913022Y-11795014D01*
X15127308Y-11780729D02*
X15098736Y-11795014D01*
X15041593Y-11795014D01*
X15013022Y-11780729D01*
X14998736Y-11752157D01*
X14998736Y-11637871D01*
X15013022Y-11609300D01*
X15041593Y-11595014D01*
X15098736Y-11595014D01*
X15127308Y-11609300D01*
X15141593Y-11637871D01*
X15141593Y-11666443D01*
X14998736Y-11695014D01*
X15398736Y-11795014D02*
X15398736Y-11495014D01*
X15398736Y-11780729D02*
X15370165Y-11795014D01*
X15313022Y-11795014D01*
X15284450Y-11780729D01*
X15270165Y-11766443D01*
X15255879Y-11737871D01*
X15255879Y-11652157D01*
X15270165Y-11623586D01*
X15284450Y-11609300D01*
X15313022Y-11595014D01*
X15370165Y-11595014D01*
X15398736Y-11609300D01*
X15513022Y-11909300D02*
X15527308Y-11895014D01*
X15555879Y-11852157D01*
X15570165Y-11823586D01*
X15584450Y-11780729D01*
X15598736Y-11709300D01*
X15598736Y-11652157D01*
X15584450Y-11580729D01*
X15570165Y-11537871D01*
X15555879Y-11509300D01*
X15527308Y-11466443D01*
X15513022Y-11452157D01*
M02*
