G04 #@! TF.GenerationSoftware,KiCad,Pcbnew,(5.1.0)-1*
G04 #@! TF.CreationDate,2022-08-09T13:46:42+10:00*
G04 #@! TF.ProjectId,mainPCB_v0.9-br2,6d61696e-5043-4425-9f76-302e392d6272,rev?*
G04 #@! TF.SameCoordinates,Original*
G04 #@! TF.FileFunction,Copper,L2,Bot*
G04 #@! TF.FilePolarity,Positive*
%FSLAX46Y46*%
G04 Gerber Fmt 4.6, Leading zero omitted, Abs format (unit mm)*
G04 Created by KiCad (PCBNEW (5.1.0)-1) date 2022-08-09 13:46:42*
%MOMM*%
%LPD*%
G04 APERTURE LIST*
%ADD10C,1.700000*%
%ADD11C,0.100000*%
%ADD12O,1.700000X1.950000*%
%ADD13C,2.000000*%
%ADD14R,1.700000X1.700000*%
%ADD15O,1.700000X1.700000*%
%ADD16C,0.800000*%
%ADD17C,0.500000*%
%ADD18C,0.250000*%
%ADD19C,0.254000*%
G04 APERTURE END LIST*
D10*
X140525500Y-49530000D03*
X140525500Y-52070000D03*
X140525500Y-54610000D03*
X140525500Y-57150000D03*
X140525500Y-59690000D03*
X137985500Y-49530000D03*
X137985500Y-52070000D03*
X137985500Y-54610000D03*
X137985500Y-57150000D03*
D11*
G36*
X138610004Y-58841204D02*
G01*
X138634273Y-58844804D01*
X138658071Y-58850765D01*
X138681171Y-58859030D01*
X138703349Y-58869520D01*
X138724393Y-58882133D01*
X138744098Y-58896747D01*
X138762277Y-58913223D01*
X138778753Y-58931402D01*
X138793367Y-58951107D01*
X138805980Y-58972151D01*
X138816470Y-58994329D01*
X138824735Y-59017429D01*
X138830696Y-59041227D01*
X138834296Y-59065496D01*
X138835500Y-59090000D01*
X138835500Y-60290000D01*
X138834296Y-60314504D01*
X138830696Y-60338773D01*
X138824735Y-60362571D01*
X138816470Y-60385671D01*
X138805980Y-60407849D01*
X138793367Y-60428893D01*
X138778753Y-60448598D01*
X138762277Y-60466777D01*
X138744098Y-60483253D01*
X138724393Y-60497867D01*
X138703349Y-60510480D01*
X138681171Y-60520970D01*
X138658071Y-60529235D01*
X138634273Y-60535196D01*
X138610004Y-60538796D01*
X138585500Y-60540000D01*
X137385500Y-60540000D01*
X137360996Y-60538796D01*
X137336727Y-60535196D01*
X137312929Y-60529235D01*
X137289829Y-60520970D01*
X137267651Y-60510480D01*
X137246607Y-60497867D01*
X137226902Y-60483253D01*
X137208723Y-60466777D01*
X137192247Y-60448598D01*
X137177633Y-60428893D01*
X137165020Y-60407849D01*
X137154530Y-60385671D01*
X137146265Y-60362571D01*
X137140304Y-60338773D01*
X137136704Y-60314504D01*
X137135500Y-60290000D01*
X137135500Y-59090000D01*
X137136704Y-59065496D01*
X137140304Y-59041227D01*
X137146265Y-59017429D01*
X137154530Y-58994329D01*
X137165020Y-58972151D01*
X137177633Y-58951107D01*
X137192247Y-58931402D01*
X137208723Y-58913223D01*
X137226902Y-58896747D01*
X137246607Y-58882133D01*
X137267651Y-58869520D01*
X137289829Y-58859030D01*
X137312929Y-58850765D01*
X137336727Y-58844804D01*
X137360996Y-58841204D01*
X137385500Y-58840000D01*
X138585500Y-58840000D01*
X138610004Y-58841204D01*
X138610004Y-58841204D01*
G37*
D10*
X137985500Y-59690000D03*
D11*
G36*
X80190004Y-51667704D02*
G01*
X80214273Y-51671304D01*
X80238071Y-51677265D01*
X80261171Y-51685530D01*
X80283349Y-51696020D01*
X80304393Y-51708633D01*
X80324098Y-51723247D01*
X80342277Y-51739723D01*
X80358753Y-51757902D01*
X80373367Y-51777607D01*
X80385980Y-51798651D01*
X80396470Y-51820829D01*
X80404735Y-51843929D01*
X80410696Y-51867727D01*
X80414296Y-51891996D01*
X80415500Y-51916500D01*
X80415500Y-53366500D01*
X80414296Y-53391004D01*
X80410696Y-53415273D01*
X80404735Y-53439071D01*
X80396470Y-53462171D01*
X80385980Y-53484349D01*
X80373367Y-53505393D01*
X80358753Y-53525098D01*
X80342277Y-53543277D01*
X80324098Y-53559753D01*
X80304393Y-53574367D01*
X80283349Y-53586980D01*
X80261171Y-53597470D01*
X80238071Y-53605735D01*
X80214273Y-53611696D01*
X80190004Y-53615296D01*
X80165500Y-53616500D01*
X78965500Y-53616500D01*
X78940996Y-53615296D01*
X78916727Y-53611696D01*
X78892929Y-53605735D01*
X78869829Y-53597470D01*
X78847651Y-53586980D01*
X78826607Y-53574367D01*
X78806902Y-53559753D01*
X78788723Y-53543277D01*
X78772247Y-53525098D01*
X78757633Y-53505393D01*
X78745020Y-53484349D01*
X78734530Y-53462171D01*
X78726265Y-53439071D01*
X78720304Y-53415273D01*
X78716704Y-53391004D01*
X78715500Y-53366500D01*
X78715500Y-51916500D01*
X78716704Y-51891996D01*
X78720304Y-51867727D01*
X78726265Y-51843929D01*
X78734530Y-51820829D01*
X78745020Y-51798651D01*
X78757633Y-51777607D01*
X78772247Y-51757902D01*
X78788723Y-51739723D01*
X78806902Y-51723247D01*
X78826607Y-51708633D01*
X78847651Y-51696020D01*
X78869829Y-51685530D01*
X78892929Y-51677265D01*
X78916727Y-51671304D01*
X78940996Y-51667704D01*
X78965500Y-51666500D01*
X80165500Y-51666500D01*
X80190004Y-51667704D01*
X80190004Y-51667704D01*
G37*
D10*
X79565500Y-52641500D03*
D12*
X82065500Y-52641500D03*
X84565500Y-52641500D03*
X87065500Y-52641500D03*
X89565500Y-52641500D03*
X92065500Y-52641500D03*
X94565500Y-52641500D03*
X97065500Y-52641500D03*
X99565500Y-52641500D03*
X102065500Y-52641500D03*
D13*
X121158000Y-50673000D03*
X126558000Y-50673000D03*
X126558000Y-55753000D03*
X121158000Y-55753000D03*
X121158000Y-53213000D03*
X126558000Y-53213000D03*
X123758000Y-50673000D03*
D14*
X78422500Y-46863000D03*
D15*
X80962500Y-46863000D03*
X83502500Y-46863000D03*
X86042500Y-46863000D03*
X88582500Y-46863000D03*
X91122500Y-46863000D03*
X93662500Y-46863000D03*
X96202500Y-46863000D03*
X98742500Y-46863000D03*
X101282500Y-46863000D03*
X103822500Y-46863000D03*
X106362500Y-46863000D03*
X108902500Y-46863000D03*
X111442500Y-46863000D03*
X113982500Y-46863000D03*
X116522500Y-46863000D03*
D16*
X116332000Y-52324000D03*
X121348500Y-82486500D03*
X134429500Y-65913000D03*
X133604000Y-52070000D03*
X117538498Y-66103500D03*
X126492000Y-66103500D03*
X123888500Y-71056500D03*
X124714000Y-58801000D03*
X123825000Y-60198000D03*
X134683500Y-60134500D03*
X134429500Y-58800999D03*
X81026000Y-57912000D03*
X143637000Y-58039000D03*
X143637006Y-61722000D03*
X88074500Y-88201500D03*
X90868500Y-61595000D03*
X85788500Y-60769500D03*
X121094500Y-76200000D03*
X85915500Y-63563500D03*
X82994500Y-63563500D03*
X78295500Y-74295000D03*
X81026000Y-76136500D03*
X103378000Y-63436500D03*
X108585000Y-63373000D03*
X100330000Y-76200000D03*
X103505000Y-78105000D03*
X93472000Y-74104500D03*
X90614500Y-76009500D03*
X93472000Y-78486000D03*
X90932000Y-90360500D03*
X108585000Y-88265000D03*
X118681500Y-85725000D03*
X144018000Y-71056500D03*
X146431000Y-69278500D03*
X128714500Y-70993000D03*
X134112000Y-71056500D03*
X136398000Y-87503000D03*
X133794500Y-89471500D03*
X131381500Y-72961500D03*
X146494500Y-72644000D03*
X105918000Y-61722000D03*
X88328500Y-63500000D03*
X78295500Y-77978000D03*
X90932000Y-86296500D03*
X133794500Y-85598000D03*
X118745000Y-89344500D03*
X93281478Y-63499978D03*
X103505000Y-74175000D03*
X106026000Y-90170000D03*
X105925000Y-87115000D03*
X118599000Y-74295000D03*
X115569996Y-76200000D03*
X116332000Y-87503000D03*
D17*
X82065500Y-52516500D02*
X82065500Y-52641500D01*
X137985500Y-59563000D02*
X126619000Y-48196500D01*
X82065500Y-52766500D02*
X82065500Y-52641500D01*
X137985500Y-59690000D02*
X137985500Y-59563000D01*
X126619000Y-48196500D02*
X120459500Y-48196500D01*
X120459500Y-48196500D02*
X118872000Y-49784000D01*
X118872000Y-49784000D02*
X116332000Y-52324000D01*
X116332000Y-52324000D02*
X116332000Y-52324000D01*
X113982500Y-49974500D02*
X116332000Y-52324000D01*
X113982500Y-46863000D02*
X113982500Y-49974500D01*
D18*
X121914185Y-82486500D02*
X121348500Y-82486500D01*
X126428500Y-82486500D02*
X121914185Y-82486500D01*
X142150511Y-66764489D02*
X126428500Y-82486500D01*
X140525500Y-54610000D02*
X142150511Y-56235011D01*
X142150511Y-56235011D02*
X142150511Y-66764489D01*
X141375499Y-57999999D02*
X140525500Y-57150000D01*
X141700501Y-58325001D02*
X141375499Y-57999999D01*
X141700501Y-60254001D02*
X141700501Y-58325001D01*
X136041502Y-65913000D02*
X141700501Y-60254001D01*
X134429500Y-65913000D02*
X136041502Y-65913000D01*
X136783419Y-52070000D02*
X133604000Y-52070000D01*
X137985500Y-52070000D02*
X136783419Y-52070000D01*
X118104183Y-66103500D02*
X117538498Y-66103500D01*
X126492000Y-66103500D02*
X126492000Y-66103500D01*
X126492000Y-66103500D02*
X118104183Y-66103500D01*
X120158001Y-54212999D02*
X121158000Y-53213000D01*
X116813497Y-57557503D02*
X120158001Y-54212999D01*
X116813497Y-66451501D02*
X116813497Y-57557503D01*
X121418496Y-71056500D02*
X116813497Y-66451501D01*
X123888500Y-71056500D02*
X121418496Y-71056500D01*
X123825000Y-60198000D02*
X134620000Y-60198000D01*
X134620000Y-60198000D02*
X134683500Y-60134500D01*
X133863815Y-58800999D02*
X134429500Y-58800999D01*
X124714000Y-58801000D02*
X125279686Y-58800999D01*
X125279686Y-58800999D02*
X133863815Y-58800999D01*
X83502500Y-47561500D02*
X83502500Y-46863000D01*
X80890490Y-50173510D02*
X83502500Y-47561500D01*
X81026000Y-57912000D02*
X80890490Y-57776490D01*
X80890490Y-57776490D02*
X80890490Y-50173510D01*
X140525500Y-59690000D02*
X140366750Y-59848750D01*
X143637000Y-58039000D02*
X143637000Y-61721994D01*
X143637000Y-61721994D02*
X143637006Y-61722000D01*
D19*
G36*
X144719092Y-44767391D02*
G01*
X149098000Y-50209748D01*
X149098000Y-85667969D01*
X143461715Y-90678000D01*
X80072251Y-90678000D01*
X74639000Y-83667354D01*
X74639000Y-53616500D01*
X78077428Y-53616500D01*
X78089688Y-53740982D01*
X78125998Y-53860680D01*
X78184963Y-53970994D01*
X78264315Y-54067685D01*
X78361006Y-54147037D01*
X78471320Y-54206002D01*
X78591018Y-54242312D01*
X78715500Y-54254572D01*
X79279750Y-54251500D01*
X79438500Y-54092750D01*
X79438500Y-52768500D01*
X78239250Y-52768500D01*
X78080500Y-52927250D01*
X78077428Y-53616500D01*
X74639000Y-53616500D01*
X74639000Y-51666500D01*
X78077428Y-51666500D01*
X78080500Y-52355750D01*
X78239250Y-52514500D01*
X79438500Y-52514500D01*
X79438500Y-51190250D01*
X79279750Y-51031500D01*
X78715500Y-51028428D01*
X78591018Y-51040688D01*
X78471320Y-51076998D01*
X78361006Y-51135963D01*
X78264315Y-51215315D01*
X78184963Y-51312006D01*
X78125998Y-51422320D01*
X78089688Y-51542018D01*
X78077428Y-51666500D01*
X74639000Y-51666500D01*
X74639000Y-47713000D01*
X76934428Y-47713000D01*
X76946688Y-47837482D01*
X76982998Y-47957180D01*
X77041963Y-48067494D01*
X77121315Y-48164185D01*
X77218006Y-48243537D01*
X77328320Y-48302502D01*
X77448018Y-48338812D01*
X77572500Y-48351072D01*
X78136750Y-48348000D01*
X78295500Y-48189250D01*
X78295500Y-46990000D01*
X77096250Y-46990000D01*
X76937500Y-47148750D01*
X76934428Y-47713000D01*
X74639000Y-47713000D01*
X74639000Y-46013000D01*
X76934428Y-46013000D01*
X76937500Y-46577250D01*
X77096250Y-46736000D01*
X78295500Y-46736000D01*
X78295500Y-45536750D01*
X78549500Y-45536750D01*
X78549500Y-46736000D01*
X78569500Y-46736000D01*
X78569500Y-46990000D01*
X78549500Y-46990000D01*
X78549500Y-48189250D01*
X78708250Y-48348000D01*
X79272500Y-48351072D01*
X79396982Y-48338812D01*
X79516680Y-48302502D01*
X79626994Y-48243537D01*
X79723685Y-48164185D01*
X79803037Y-48067494D01*
X79862002Y-47957180D01*
X79882893Y-47888313D01*
X79907366Y-47918134D01*
X80133486Y-48103706D01*
X80391466Y-48241599D01*
X80671389Y-48326513D01*
X80889550Y-48348000D01*
X81035450Y-48348000D01*
X81253611Y-48326513D01*
X81533534Y-48241599D01*
X81791514Y-48103706D01*
X82017634Y-47918134D01*
X82203206Y-47692014D01*
X82232500Y-47637209D01*
X82261794Y-47692014D01*
X82277746Y-47711452D01*
X80379488Y-49609711D01*
X80350490Y-49633509D01*
X80326692Y-49662507D01*
X80326691Y-49662508D01*
X80255516Y-49749234D01*
X80184944Y-49881264D01*
X80141488Y-50024525D01*
X80126814Y-50173510D01*
X80130491Y-50210842D01*
X80130491Y-51029980D01*
X79851250Y-51031500D01*
X79692500Y-51190250D01*
X79692500Y-52514500D01*
X79712500Y-52514500D01*
X79712500Y-52768500D01*
X79692500Y-52768500D01*
X79692500Y-54092750D01*
X79851250Y-54251500D01*
X80130490Y-54253020D01*
X80130490Y-57389275D01*
X80108795Y-57421744D01*
X80030774Y-57610102D01*
X79991000Y-57810061D01*
X79991000Y-58013939D01*
X80030774Y-58213898D01*
X80108795Y-58402256D01*
X80222063Y-58571774D01*
X80366226Y-58715937D01*
X80535744Y-58829205D01*
X80724102Y-58907226D01*
X80924061Y-58947000D01*
X81127939Y-58947000D01*
X81327898Y-58907226D01*
X81516256Y-58829205D01*
X81685774Y-58715937D01*
X81829937Y-58571774D01*
X81943205Y-58402256D01*
X82021226Y-58213898D01*
X82061000Y-58013939D01*
X82061000Y-57810061D01*
X82021226Y-57610102D01*
X81999439Y-57557503D01*
X116049821Y-57557503D01*
X116053498Y-57594835D01*
X116053497Y-66414179D01*
X116049821Y-66451501D01*
X116053497Y-66488823D01*
X116053497Y-66488833D01*
X116064494Y-66600486D01*
X116107951Y-66743747D01*
X116178523Y-66875777D01*
X116204506Y-66907437D01*
X116273496Y-66991502D01*
X116302500Y-67015305D01*
X120854697Y-71567503D01*
X120878495Y-71596501D01*
X120907493Y-71620299D01*
X120994219Y-71691474D01*
X121126249Y-71762046D01*
X121269510Y-71805503D01*
X121381163Y-71816500D01*
X121381172Y-71816500D01*
X121418495Y-71820176D01*
X121455818Y-71816500D01*
X123184789Y-71816500D01*
X123228726Y-71860437D01*
X123398244Y-71973705D01*
X123586602Y-72051726D01*
X123786561Y-72091500D01*
X123990439Y-72091500D01*
X124190398Y-72051726D01*
X124378756Y-71973705D01*
X124548274Y-71860437D01*
X124692437Y-71716274D01*
X124805705Y-71546756D01*
X124883726Y-71358398D01*
X124923500Y-71158439D01*
X124923500Y-70954561D01*
X124883726Y-70754602D01*
X124805705Y-70566244D01*
X124692437Y-70396726D01*
X124548274Y-70252563D01*
X124378756Y-70139295D01*
X124190398Y-70061274D01*
X123990439Y-70021500D01*
X123786561Y-70021500D01*
X123586602Y-70061274D01*
X123398244Y-70139295D01*
X123228726Y-70252563D01*
X123184789Y-70296500D01*
X121733298Y-70296500D01*
X118300297Y-66863500D01*
X125788289Y-66863500D01*
X125832226Y-66907437D01*
X126001744Y-67020705D01*
X126190102Y-67098726D01*
X126390061Y-67138500D01*
X126593939Y-67138500D01*
X126793898Y-67098726D01*
X126982256Y-67020705D01*
X127151774Y-66907437D01*
X127295937Y-66763274D01*
X127409205Y-66593756D01*
X127487226Y-66405398D01*
X127527000Y-66205439D01*
X127527000Y-66001561D01*
X127487226Y-65801602D01*
X127409205Y-65613244D01*
X127295937Y-65443726D01*
X127151774Y-65299563D01*
X126982256Y-65186295D01*
X126793898Y-65108274D01*
X126593939Y-65068500D01*
X126390061Y-65068500D01*
X126190102Y-65108274D01*
X126001744Y-65186295D01*
X125832226Y-65299563D01*
X125788289Y-65343500D01*
X118242209Y-65343500D01*
X118198272Y-65299563D01*
X118028754Y-65186295D01*
X117840396Y-65108274D01*
X117640437Y-65068500D01*
X117573497Y-65068500D01*
X117573497Y-60096061D01*
X122790000Y-60096061D01*
X122790000Y-60299939D01*
X122829774Y-60499898D01*
X122907795Y-60688256D01*
X123021063Y-60857774D01*
X123165226Y-61001937D01*
X123334744Y-61115205D01*
X123523102Y-61193226D01*
X123723061Y-61233000D01*
X123926939Y-61233000D01*
X124126898Y-61193226D01*
X124315256Y-61115205D01*
X124484774Y-61001937D01*
X124528711Y-60958000D01*
X134053004Y-60958000D01*
X134193244Y-61051705D01*
X134381602Y-61129726D01*
X134581561Y-61169500D01*
X134785439Y-61169500D01*
X134985398Y-61129726D01*
X135173756Y-61051705D01*
X135343274Y-60938437D01*
X135487437Y-60794274D01*
X135600705Y-60624756D01*
X135678726Y-60436398D01*
X135718500Y-60236439D01*
X135718500Y-60032561D01*
X135678726Y-59832602D01*
X135600705Y-59644244D01*
X135487437Y-59474726D01*
X135343274Y-59330563D01*
X135327488Y-59320015D01*
X135346705Y-59291255D01*
X135424726Y-59102897D01*
X135464500Y-58902938D01*
X135464500Y-58699060D01*
X135424726Y-58499101D01*
X135346705Y-58310743D01*
X135233437Y-58141225D01*
X135089274Y-57997062D01*
X134919756Y-57883794D01*
X134731398Y-57805773D01*
X134531439Y-57765999D01*
X134327561Y-57765999D01*
X134127602Y-57805773D01*
X133939244Y-57883794D01*
X133769726Y-57997062D01*
X133725789Y-58040999D01*
X125417710Y-58040999D01*
X125373774Y-57997063D01*
X125204256Y-57883795D01*
X125015898Y-57805774D01*
X124815939Y-57766000D01*
X124612061Y-57766000D01*
X124412102Y-57805774D01*
X124223744Y-57883795D01*
X124054226Y-57997063D01*
X123910063Y-58141226D01*
X123796795Y-58310744D01*
X123718774Y-58499102D01*
X123679000Y-58699061D01*
X123679000Y-58902939D01*
X123718774Y-59102898D01*
X123743669Y-59163000D01*
X123723061Y-59163000D01*
X123523102Y-59202774D01*
X123334744Y-59280795D01*
X123165226Y-59394063D01*
X123021063Y-59538226D01*
X122907795Y-59707744D01*
X122829774Y-59896102D01*
X122790000Y-60096061D01*
X117573497Y-60096061D01*
X117573497Y-57872304D01*
X119524455Y-55921347D01*
X119585832Y-56229912D01*
X119709082Y-56527463D01*
X119888013Y-56795252D01*
X120115748Y-57022987D01*
X120383537Y-57201918D01*
X120681088Y-57325168D01*
X120996967Y-57388000D01*
X121319033Y-57388000D01*
X121634912Y-57325168D01*
X121932463Y-57201918D01*
X122200252Y-57022987D01*
X122427987Y-56795252D01*
X122606918Y-56527463D01*
X122730168Y-56229912D01*
X122793000Y-55914033D01*
X122793000Y-55591967D01*
X122730168Y-55276088D01*
X122606918Y-54978537D01*
X122427987Y-54710748D01*
X122200252Y-54483013D01*
X122200233Y-54483000D01*
X122200252Y-54482987D01*
X122427987Y-54255252D01*
X122606918Y-53987463D01*
X122730168Y-53689912D01*
X122793000Y-53374033D01*
X122793000Y-53051967D01*
X122730168Y-52736088D01*
X122606918Y-52438537D01*
X122427987Y-52170748D01*
X122200252Y-51943013D01*
X122091400Y-51870280D01*
X122113808Y-51808413D01*
X121158000Y-50852605D01*
X120202192Y-51808413D01*
X120224600Y-51870280D01*
X120115748Y-51943013D01*
X119888013Y-52170748D01*
X119709082Y-52438537D01*
X119585832Y-52736088D01*
X119523000Y-53051967D01*
X119523000Y-53374033D01*
X119585832Y-53689912D01*
X119591823Y-53704375D01*
X116302495Y-56993704D01*
X116273497Y-57017502D01*
X116249699Y-57046500D01*
X116249698Y-57046501D01*
X116178523Y-57133227D01*
X116107951Y-57265257D01*
X116081574Y-57352214D01*
X116064495Y-57408517D01*
X116056694Y-57487724D01*
X116049821Y-57557503D01*
X81999439Y-57557503D01*
X81943205Y-57421744D01*
X81829937Y-57252226D01*
X81685774Y-57108063D01*
X81650490Y-57084487D01*
X81650490Y-54192428D01*
X81774390Y-54230013D01*
X82065500Y-54258685D01*
X82356611Y-54230013D01*
X82636534Y-54145099D01*
X82894514Y-54007206D01*
X83120634Y-53821634D01*
X83306206Y-53595514D01*
X83315500Y-53578126D01*
X83324794Y-53595514D01*
X83510366Y-53821634D01*
X83736487Y-54007206D01*
X83994467Y-54145099D01*
X84274390Y-54230013D01*
X84565500Y-54258685D01*
X84856611Y-54230013D01*
X85136534Y-54145099D01*
X85394514Y-54007206D01*
X85620634Y-53821634D01*
X85806206Y-53595514D01*
X85815500Y-53578126D01*
X85824794Y-53595514D01*
X86010366Y-53821634D01*
X86236487Y-54007206D01*
X86494467Y-54145099D01*
X86774390Y-54230013D01*
X87065500Y-54258685D01*
X87356611Y-54230013D01*
X87636534Y-54145099D01*
X87894514Y-54007206D01*
X88120634Y-53821634D01*
X88306206Y-53595514D01*
X88315500Y-53578126D01*
X88324794Y-53595514D01*
X88510366Y-53821634D01*
X88736487Y-54007206D01*
X88994467Y-54145099D01*
X89274390Y-54230013D01*
X89565500Y-54258685D01*
X89856611Y-54230013D01*
X90136534Y-54145099D01*
X90394514Y-54007206D01*
X90620634Y-53821634D01*
X90806206Y-53595514D01*
X90815500Y-53578126D01*
X90824794Y-53595514D01*
X91010366Y-53821634D01*
X91236487Y-54007206D01*
X91494467Y-54145099D01*
X91774390Y-54230013D01*
X92065500Y-54258685D01*
X92356611Y-54230013D01*
X92636534Y-54145099D01*
X92894514Y-54007206D01*
X93120634Y-53821634D01*
X93306206Y-53595514D01*
X93315500Y-53578126D01*
X93324794Y-53595514D01*
X93510366Y-53821634D01*
X93736487Y-54007206D01*
X93994467Y-54145099D01*
X94274390Y-54230013D01*
X94565500Y-54258685D01*
X94856611Y-54230013D01*
X95136534Y-54145099D01*
X95394514Y-54007206D01*
X95620634Y-53821634D01*
X95806206Y-53595514D01*
X95815500Y-53578126D01*
X95824794Y-53595514D01*
X96010366Y-53821634D01*
X96236487Y-54007206D01*
X96494467Y-54145099D01*
X96774390Y-54230013D01*
X97065500Y-54258685D01*
X97356611Y-54230013D01*
X97636534Y-54145099D01*
X97894514Y-54007206D01*
X98120634Y-53821634D01*
X98306206Y-53595514D01*
X98315500Y-53578126D01*
X98324794Y-53595514D01*
X98510366Y-53821634D01*
X98736487Y-54007206D01*
X98994467Y-54145099D01*
X99274390Y-54230013D01*
X99565500Y-54258685D01*
X99856611Y-54230013D01*
X100136534Y-54145099D01*
X100394514Y-54007206D01*
X100620634Y-53821634D01*
X100806206Y-53595514D01*
X100819962Y-53569778D01*
X100976451Y-53775929D01*
X101194307Y-53968996D01*
X101445642Y-54115852D01*
X101708610Y-54207976D01*
X101938500Y-54086655D01*
X101938500Y-52768500D01*
X102192500Y-52768500D01*
X102192500Y-54086655D01*
X102422390Y-54207976D01*
X102685358Y-54115852D01*
X102936693Y-53968996D01*
X103154549Y-53775929D01*
X103330553Y-53544070D01*
X103457942Y-53282330D01*
X103531820Y-53000767D01*
X103391665Y-52768500D01*
X102192500Y-52768500D01*
X101938500Y-52768500D01*
X101918500Y-52768500D01*
X101918500Y-52514500D01*
X101938500Y-52514500D01*
X101938500Y-51196345D01*
X102192500Y-51196345D01*
X102192500Y-52514500D01*
X103391665Y-52514500D01*
X103531820Y-52282233D01*
X103457942Y-52000670D01*
X103330553Y-51738930D01*
X103154549Y-51507071D01*
X102936693Y-51314004D01*
X102685358Y-51167148D01*
X102422390Y-51075024D01*
X102192500Y-51196345D01*
X101938500Y-51196345D01*
X101708610Y-51075024D01*
X101445642Y-51167148D01*
X101194307Y-51314004D01*
X100976451Y-51507071D01*
X100819962Y-51713222D01*
X100806206Y-51687486D01*
X100620634Y-51461366D01*
X100394513Y-51275794D01*
X100136533Y-51137901D01*
X99856610Y-51052987D01*
X99565500Y-51024315D01*
X99274389Y-51052987D01*
X98994466Y-51137901D01*
X98736486Y-51275794D01*
X98510366Y-51461366D01*
X98324794Y-51687487D01*
X98315500Y-51704874D01*
X98306206Y-51687486D01*
X98120634Y-51461366D01*
X97894513Y-51275794D01*
X97636533Y-51137901D01*
X97356610Y-51052987D01*
X97065500Y-51024315D01*
X96774389Y-51052987D01*
X96494466Y-51137901D01*
X96236486Y-51275794D01*
X96010366Y-51461366D01*
X95824794Y-51687487D01*
X95815500Y-51704874D01*
X95806206Y-51687486D01*
X95620634Y-51461366D01*
X95394513Y-51275794D01*
X95136533Y-51137901D01*
X94856610Y-51052987D01*
X94565500Y-51024315D01*
X94274389Y-51052987D01*
X93994466Y-51137901D01*
X93736486Y-51275794D01*
X93510366Y-51461366D01*
X93324794Y-51687487D01*
X93315500Y-51704874D01*
X93306206Y-51687486D01*
X93120634Y-51461366D01*
X92894513Y-51275794D01*
X92636533Y-51137901D01*
X92356610Y-51052987D01*
X92065500Y-51024315D01*
X91774389Y-51052987D01*
X91494466Y-51137901D01*
X91236486Y-51275794D01*
X91010366Y-51461366D01*
X90824794Y-51687487D01*
X90815500Y-51704874D01*
X90806206Y-51687486D01*
X90620634Y-51461366D01*
X90394513Y-51275794D01*
X90136533Y-51137901D01*
X89856610Y-51052987D01*
X89565500Y-51024315D01*
X89274389Y-51052987D01*
X88994466Y-51137901D01*
X88736486Y-51275794D01*
X88510366Y-51461366D01*
X88324794Y-51687487D01*
X88315500Y-51704874D01*
X88306206Y-51687486D01*
X88120634Y-51461366D01*
X87894513Y-51275794D01*
X87636533Y-51137901D01*
X87356610Y-51052987D01*
X87065500Y-51024315D01*
X86774389Y-51052987D01*
X86494466Y-51137901D01*
X86236486Y-51275794D01*
X86010366Y-51461366D01*
X85824794Y-51687487D01*
X85815500Y-51704874D01*
X85806206Y-51687486D01*
X85620634Y-51461366D01*
X85394513Y-51275794D01*
X85136533Y-51137901D01*
X84856610Y-51052987D01*
X84565500Y-51024315D01*
X84274389Y-51052987D01*
X83994466Y-51137901D01*
X83736486Y-51275794D01*
X83510366Y-51461366D01*
X83324794Y-51687487D01*
X83315500Y-51704874D01*
X83306206Y-51687486D01*
X83120634Y-51461366D01*
X82894513Y-51275794D01*
X82636533Y-51137901D01*
X82356610Y-51052987D01*
X82065500Y-51024315D01*
X81774389Y-51052987D01*
X81650490Y-51090571D01*
X81650490Y-50488311D01*
X83820422Y-48318380D01*
X84073534Y-48241599D01*
X84331514Y-48103706D01*
X84557634Y-47918134D01*
X84743206Y-47692014D01*
X84772500Y-47637209D01*
X84801794Y-47692014D01*
X84987366Y-47918134D01*
X85213486Y-48103706D01*
X85471466Y-48241599D01*
X85751389Y-48326513D01*
X85969550Y-48348000D01*
X86115450Y-48348000D01*
X86333611Y-48326513D01*
X86613534Y-48241599D01*
X86871514Y-48103706D01*
X87097634Y-47918134D01*
X87283206Y-47692014D01*
X87317701Y-47627477D01*
X87387322Y-47744355D01*
X87582231Y-47960588D01*
X87815580Y-48134641D01*
X88078401Y-48259825D01*
X88225610Y-48304476D01*
X88455500Y-48183155D01*
X88455500Y-46990000D01*
X88435500Y-46990000D01*
X88435500Y-46736000D01*
X88455500Y-46736000D01*
X88455500Y-45542845D01*
X88709500Y-45542845D01*
X88709500Y-46736000D01*
X88729500Y-46736000D01*
X88729500Y-46990000D01*
X88709500Y-46990000D01*
X88709500Y-48183155D01*
X88939390Y-48304476D01*
X89086599Y-48259825D01*
X89349420Y-48134641D01*
X89582769Y-47960588D01*
X89777678Y-47744355D01*
X89847299Y-47627477D01*
X89881794Y-47692014D01*
X90067366Y-47918134D01*
X90293486Y-48103706D01*
X90551466Y-48241599D01*
X90831389Y-48326513D01*
X91049550Y-48348000D01*
X91195450Y-48348000D01*
X91413611Y-48326513D01*
X91693534Y-48241599D01*
X91951514Y-48103706D01*
X92177634Y-47918134D01*
X92363206Y-47692014D01*
X92392500Y-47637209D01*
X92421794Y-47692014D01*
X92607366Y-47918134D01*
X92833486Y-48103706D01*
X93091466Y-48241599D01*
X93371389Y-48326513D01*
X93589550Y-48348000D01*
X93735450Y-48348000D01*
X93953611Y-48326513D01*
X94233534Y-48241599D01*
X94491514Y-48103706D01*
X94717634Y-47918134D01*
X94903206Y-47692014D01*
X94932500Y-47637209D01*
X94961794Y-47692014D01*
X95147366Y-47918134D01*
X95373486Y-48103706D01*
X95631466Y-48241599D01*
X95911389Y-48326513D01*
X96129550Y-48348000D01*
X96275450Y-48348000D01*
X96493611Y-48326513D01*
X96773534Y-48241599D01*
X97031514Y-48103706D01*
X97257634Y-47918134D01*
X97443206Y-47692014D01*
X97472500Y-47637209D01*
X97501794Y-47692014D01*
X97687366Y-47918134D01*
X97913486Y-48103706D01*
X98171466Y-48241599D01*
X98451389Y-48326513D01*
X98669550Y-48348000D01*
X98815450Y-48348000D01*
X99033611Y-48326513D01*
X99313534Y-48241599D01*
X99571514Y-48103706D01*
X99797634Y-47918134D01*
X99983206Y-47692014D01*
X100012500Y-47637209D01*
X100041794Y-47692014D01*
X100227366Y-47918134D01*
X100453486Y-48103706D01*
X100711466Y-48241599D01*
X100991389Y-48326513D01*
X101209550Y-48348000D01*
X101355450Y-48348000D01*
X101573611Y-48326513D01*
X101853534Y-48241599D01*
X102111514Y-48103706D01*
X102337634Y-47918134D01*
X102523206Y-47692014D01*
X102552500Y-47637209D01*
X102581794Y-47692014D01*
X102767366Y-47918134D01*
X102993486Y-48103706D01*
X103251466Y-48241599D01*
X103531389Y-48326513D01*
X103749550Y-48348000D01*
X103895450Y-48348000D01*
X104113611Y-48326513D01*
X104393534Y-48241599D01*
X104651514Y-48103706D01*
X104877634Y-47918134D01*
X105063206Y-47692014D01*
X105092500Y-47637209D01*
X105121794Y-47692014D01*
X105307366Y-47918134D01*
X105533486Y-48103706D01*
X105791466Y-48241599D01*
X106071389Y-48326513D01*
X106289550Y-48348000D01*
X106435450Y-48348000D01*
X106653611Y-48326513D01*
X106933534Y-48241599D01*
X107191514Y-48103706D01*
X107417634Y-47918134D01*
X107603206Y-47692014D01*
X107632500Y-47637209D01*
X107661794Y-47692014D01*
X107847366Y-47918134D01*
X108073486Y-48103706D01*
X108331466Y-48241599D01*
X108611389Y-48326513D01*
X108829550Y-48348000D01*
X108975450Y-48348000D01*
X109193611Y-48326513D01*
X109473534Y-48241599D01*
X109731514Y-48103706D01*
X109957634Y-47918134D01*
X110143206Y-47692014D01*
X110172500Y-47637209D01*
X110201794Y-47692014D01*
X110387366Y-47918134D01*
X110613486Y-48103706D01*
X110871466Y-48241599D01*
X111151389Y-48326513D01*
X111369550Y-48348000D01*
X111515450Y-48348000D01*
X111733611Y-48326513D01*
X112013534Y-48241599D01*
X112271514Y-48103706D01*
X112497634Y-47918134D01*
X112683206Y-47692014D01*
X112712500Y-47637209D01*
X112741794Y-47692014D01*
X112927366Y-47918134D01*
X113097500Y-48057760D01*
X113097501Y-49931021D01*
X113093219Y-49974500D01*
X113110305Y-50147990D01*
X113160912Y-50314813D01*
X113243090Y-50468559D01*
X113325968Y-50569546D01*
X113325971Y-50569549D01*
X113353684Y-50603317D01*
X113387451Y-50631029D01*
X115325465Y-52569044D01*
X115336774Y-52625898D01*
X115414795Y-52814256D01*
X115528063Y-52983774D01*
X115672226Y-53127937D01*
X115841744Y-53241205D01*
X116030102Y-53319226D01*
X116230061Y-53359000D01*
X116433939Y-53359000D01*
X116633898Y-53319226D01*
X116822256Y-53241205D01*
X116991774Y-53127937D01*
X117135937Y-52983774D01*
X117249205Y-52814256D01*
X117327226Y-52625898D01*
X117338535Y-52569043D01*
X119528532Y-50379047D01*
X119528536Y-50379042D01*
X119550593Y-50356985D01*
X119535616Y-50414108D01*
X119516282Y-50735595D01*
X119560039Y-51054675D01*
X119665205Y-51359088D01*
X119758186Y-51533044D01*
X120022587Y-51628808D01*
X120978395Y-50673000D01*
X120964253Y-50658858D01*
X121143858Y-50479253D01*
X121158000Y-50493395D01*
X122113808Y-49537587D01*
X122018044Y-49273186D01*
X121728429Y-49132296D01*
X121534687Y-49081500D01*
X123378277Y-49081500D01*
X123281088Y-49100832D01*
X122983537Y-49224082D01*
X122715748Y-49403013D01*
X122488013Y-49630748D01*
X122403589Y-49757097D01*
X122293413Y-49717192D01*
X121337605Y-50673000D01*
X122293413Y-51628808D01*
X122403589Y-51588903D01*
X122488013Y-51715252D01*
X122715748Y-51942987D01*
X122983537Y-52121918D01*
X123281088Y-52245168D01*
X123596967Y-52308000D01*
X123919033Y-52308000D01*
X124234912Y-52245168D01*
X124532463Y-52121918D01*
X124800252Y-51942987D01*
X125027987Y-51715252D01*
X125158000Y-51520674D01*
X125288013Y-51715252D01*
X125515748Y-51942987D01*
X125515767Y-51943000D01*
X125515748Y-51943013D01*
X125288013Y-52170748D01*
X125109082Y-52438537D01*
X124985832Y-52736088D01*
X124923000Y-53051967D01*
X124923000Y-53374033D01*
X124985832Y-53689912D01*
X125109082Y-53987463D01*
X125288013Y-54255252D01*
X125515748Y-54482987D01*
X125515767Y-54483000D01*
X125515748Y-54483013D01*
X125288013Y-54710748D01*
X125109082Y-54978537D01*
X124985832Y-55276088D01*
X124923000Y-55591967D01*
X124923000Y-55914033D01*
X124985832Y-56229912D01*
X125109082Y-56527463D01*
X125288013Y-56795252D01*
X125515748Y-57022987D01*
X125783537Y-57201918D01*
X126081088Y-57325168D01*
X126396967Y-57388000D01*
X126719033Y-57388000D01*
X127034912Y-57325168D01*
X127332463Y-57201918D01*
X127600252Y-57022987D01*
X127827987Y-56795252D01*
X128006918Y-56527463D01*
X128130168Y-56229912D01*
X128193000Y-55914033D01*
X128193000Y-55591967D01*
X128130168Y-55276088D01*
X128006918Y-54978537D01*
X127827987Y-54710748D01*
X127600252Y-54483013D01*
X127600233Y-54483000D01*
X127600252Y-54482987D01*
X127827987Y-54255252D01*
X128006918Y-53987463D01*
X128130168Y-53689912D01*
X128193000Y-53374033D01*
X128193000Y-53051967D01*
X128130168Y-52736088D01*
X128006918Y-52438537D01*
X127827987Y-52170748D01*
X127600252Y-51943013D01*
X127600233Y-51943000D01*
X127600252Y-51942987D01*
X127827987Y-51715252D01*
X128006918Y-51447463D01*
X128130168Y-51149912D01*
X128161801Y-50990880D01*
X136497428Y-59326507D01*
X136497428Y-60290000D01*
X136514492Y-60463254D01*
X136565028Y-60629850D01*
X136647095Y-60783386D01*
X136757538Y-60917962D01*
X136892114Y-61028405D01*
X137045650Y-61110472D01*
X137212246Y-61161008D01*
X137385500Y-61178072D01*
X138585500Y-61178072D01*
X138758754Y-61161008D01*
X138925350Y-61110472D01*
X139078886Y-61028405D01*
X139213462Y-60917962D01*
X139323905Y-60783386D01*
X139391785Y-60656392D01*
X139578868Y-60843475D01*
X139822089Y-61005990D01*
X139858591Y-61021109D01*
X135726701Y-65153000D01*
X135133211Y-65153000D01*
X135089274Y-65109063D01*
X134919756Y-64995795D01*
X134731398Y-64917774D01*
X134531439Y-64878000D01*
X134327561Y-64878000D01*
X134127602Y-64917774D01*
X133939244Y-64995795D01*
X133769726Y-65109063D01*
X133625563Y-65253226D01*
X133512295Y-65422744D01*
X133434274Y-65611102D01*
X133394500Y-65811061D01*
X133394500Y-66014939D01*
X133434274Y-66214898D01*
X133512295Y-66403256D01*
X133625563Y-66572774D01*
X133769726Y-66716937D01*
X133939244Y-66830205D01*
X134127602Y-66908226D01*
X134327561Y-66948000D01*
X134531439Y-66948000D01*
X134731398Y-66908226D01*
X134919756Y-66830205D01*
X135089274Y-66716937D01*
X135133211Y-66673000D01*
X136004180Y-66673000D01*
X136041502Y-66676676D01*
X136078824Y-66673000D01*
X136078835Y-66673000D01*
X136190488Y-66662003D01*
X136333749Y-66618546D01*
X136465778Y-66547974D01*
X136581503Y-66453001D01*
X136605306Y-66423997D01*
X141390512Y-61638792D01*
X141390512Y-66449686D01*
X126113699Y-81726500D01*
X122052211Y-81726500D01*
X122008274Y-81682563D01*
X121838756Y-81569295D01*
X121650398Y-81491274D01*
X121450439Y-81451500D01*
X121246561Y-81451500D01*
X121046602Y-81491274D01*
X120858244Y-81569295D01*
X120688726Y-81682563D01*
X120544563Y-81826726D01*
X120431295Y-81996244D01*
X120353274Y-82184602D01*
X120313500Y-82384561D01*
X120313500Y-82588439D01*
X120353274Y-82788398D01*
X120431295Y-82976756D01*
X120544563Y-83146274D01*
X120688726Y-83290437D01*
X120858244Y-83403705D01*
X121046602Y-83481726D01*
X121246561Y-83521500D01*
X121450439Y-83521500D01*
X121650398Y-83481726D01*
X121838756Y-83403705D01*
X122008274Y-83290437D01*
X122052211Y-83246500D01*
X126391178Y-83246500D01*
X126428500Y-83250176D01*
X126465822Y-83246500D01*
X126465833Y-83246500D01*
X126577486Y-83235503D01*
X126720747Y-83192046D01*
X126852776Y-83121474D01*
X126968501Y-83026501D01*
X126992304Y-82997497D01*
X142661514Y-67328288D01*
X142690512Y-67304490D01*
X142785485Y-67188765D01*
X142856057Y-67056736D01*
X142899514Y-66913475D01*
X142910511Y-66801822D01*
X142910511Y-66801813D01*
X142914187Y-66764490D01*
X142910511Y-66727167D01*
X142910511Y-62459216D01*
X142977232Y-62525937D01*
X143146750Y-62639205D01*
X143335108Y-62717226D01*
X143535067Y-62757000D01*
X143738945Y-62757000D01*
X143938904Y-62717226D01*
X144127262Y-62639205D01*
X144296780Y-62525937D01*
X144440943Y-62381774D01*
X144554211Y-62212256D01*
X144632232Y-62023898D01*
X144672006Y-61823939D01*
X144672006Y-61620061D01*
X144632232Y-61420102D01*
X144554211Y-61231744D01*
X144440943Y-61062226D01*
X144397000Y-61018283D01*
X144397000Y-58742711D01*
X144440937Y-58698774D01*
X144554205Y-58529256D01*
X144632226Y-58340898D01*
X144672000Y-58140939D01*
X144672000Y-57937061D01*
X144632226Y-57737102D01*
X144554205Y-57548744D01*
X144440937Y-57379226D01*
X144296774Y-57235063D01*
X144127256Y-57121795D01*
X143938898Y-57043774D01*
X143738939Y-57004000D01*
X143535061Y-57004000D01*
X143335102Y-57043774D01*
X143146744Y-57121795D01*
X142977226Y-57235063D01*
X142910511Y-57301778D01*
X142910511Y-56272344D01*
X142914188Y-56235011D01*
X142899514Y-56086025D01*
X142856057Y-55942764D01*
X142785485Y-55810735D01*
X142714310Y-55724008D01*
X142690512Y-55695010D01*
X142661515Y-55671213D01*
X141966710Y-54976408D01*
X142010500Y-54756260D01*
X142010500Y-54463740D01*
X141953432Y-54176842D01*
X141841490Y-53906589D01*
X141678975Y-53663368D01*
X141472132Y-53456525D01*
X141297740Y-53340000D01*
X141472132Y-53223475D01*
X141678975Y-53016632D01*
X141841490Y-52773411D01*
X141953432Y-52503158D01*
X142010500Y-52216260D01*
X142010500Y-51923740D01*
X141953432Y-51636842D01*
X141841490Y-51366589D01*
X141678975Y-51123368D01*
X141472132Y-50916525D01*
X141298771Y-50800689D01*
X141374292Y-50558397D01*
X140525500Y-49709605D01*
X139676708Y-50558397D01*
X139752229Y-50800689D01*
X139578868Y-50916525D01*
X139372025Y-51123368D01*
X139255500Y-51297760D01*
X139138975Y-51123368D01*
X138932132Y-50916525D01*
X138757740Y-50800000D01*
X138932132Y-50683475D01*
X139138975Y-50476632D01*
X139254811Y-50303271D01*
X139497103Y-50378792D01*
X140345895Y-49530000D01*
X140705105Y-49530000D01*
X141553897Y-50378792D01*
X141802972Y-50301157D01*
X141928871Y-50037117D01*
X142000839Y-49753589D01*
X142016111Y-49461469D01*
X141974099Y-49171981D01*
X141876419Y-48896253D01*
X141802972Y-48758843D01*
X141553897Y-48681208D01*
X140705105Y-49530000D01*
X140345895Y-49530000D01*
X139497103Y-48681208D01*
X139254811Y-48756729D01*
X139138975Y-48583368D01*
X139057210Y-48501603D01*
X139676708Y-48501603D01*
X140525500Y-49350395D01*
X141374292Y-48501603D01*
X141296657Y-48252528D01*
X141032617Y-48126629D01*
X140749089Y-48054661D01*
X140456969Y-48039389D01*
X140167481Y-48081401D01*
X139891753Y-48179081D01*
X139754343Y-48252528D01*
X139676708Y-48501603D01*
X139057210Y-48501603D01*
X138932132Y-48376525D01*
X138688911Y-48214010D01*
X138418658Y-48102068D01*
X138131760Y-48045000D01*
X137839240Y-48045000D01*
X137552342Y-48102068D01*
X137282089Y-48214010D01*
X137038868Y-48376525D01*
X136832025Y-48583368D01*
X136669510Y-48826589D01*
X136557568Y-49096842D01*
X136500500Y-49383740D01*
X136500500Y-49676260D01*
X136557568Y-49963158D01*
X136669510Y-50233411D01*
X136832025Y-50476632D01*
X137038868Y-50683475D01*
X137213260Y-50800000D01*
X137038868Y-50916525D01*
X136832025Y-51123368D01*
X136707322Y-51310000D01*
X134307711Y-51310000D01*
X134263774Y-51266063D01*
X134094256Y-51152795D01*
X133905898Y-51074774D01*
X133705939Y-51035000D01*
X133502061Y-51035000D01*
X133302102Y-51074774D01*
X133113744Y-51152795D01*
X132944226Y-51266063D01*
X132800063Y-51410226D01*
X132686795Y-51579744D01*
X132608774Y-51768102D01*
X132569000Y-51968061D01*
X132569000Y-52171939D01*
X132608774Y-52371898D01*
X132686795Y-52560256D01*
X132800063Y-52729774D01*
X132944226Y-52873937D01*
X133113744Y-52987205D01*
X133302102Y-53065226D01*
X133502061Y-53105000D01*
X133705939Y-53105000D01*
X133905898Y-53065226D01*
X134094256Y-52987205D01*
X134263774Y-52873937D01*
X134307711Y-52830000D01*
X136707322Y-52830000D01*
X136832025Y-53016632D01*
X137038868Y-53223475D01*
X137213260Y-53340000D01*
X137038868Y-53456525D01*
X136832025Y-53663368D01*
X136669510Y-53906589D01*
X136557568Y-54176842D01*
X136500500Y-54463740D01*
X136500500Y-54756260D01*
X136557568Y-55043158D01*
X136669510Y-55313411D01*
X136832025Y-55556632D01*
X137038868Y-55763475D01*
X137213260Y-55880000D01*
X137038868Y-55996525D01*
X136832025Y-56203368D01*
X136669510Y-56446589D01*
X136557568Y-56716842D01*
X136529919Y-56855840D01*
X127275534Y-47601456D01*
X127247817Y-47567683D01*
X127113059Y-47457089D01*
X126959313Y-47374911D01*
X126792490Y-47324305D01*
X126662477Y-47311500D01*
X126662469Y-47311500D01*
X126619000Y-47307219D01*
X126575531Y-47311500D01*
X120502966Y-47311500D01*
X120459499Y-47307219D01*
X120416033Y-47311500D01*
X120416023Y-47311500D01*
X120286010Y-47324305D01*
X120119187Y-47374911D01*
X119965441Y-47457089D01*
X119965439Y-47457090D01*
X119965440Y-47457090D01*
X119864453Y-47539968D01*
X119864451Y-47539970D01*
X119830683Y-47567683D01*
X119802970Y-47601451D01*
X118276958Y-49127464D01*
X118276953Y-49127468D01*
X116332000Y-51072422D01*
X114867500Y-49607922D01*
X114867500Y-48057759D01*
X115037634Y-47918134D01*
X115223206Y-47692014D01*
X115252500Y-47637209D01*
X115281794Y-47692014D01*
X115467366Y-47918134D01*
X115693486Y-48103706D01*
X115951466Y-48241599D01*
X116231389Y-48326513D01*
X116449550Y-48348000D01*
X116595450Y-48348000D01*
X116813611Y-48326513D01*
X117093534Y-48241599D01*
X117351514Y-48103706D01*
X117577634Y-47918134D01*
X117763206Y-47692014D01*
X117901099Y-47434034D01*
X117986013Y-47154111D01*
X118014685Y-46863000D01*
X117986013Y-46571889D01*
X117901099Y-46291966D01*
X117763206Y-46033986D01*
X117577634Y-45807866D01*
X117351514Y-45622294D01*
X117093534Y-45484401D01*
X116813611Y-45399487D01*
X116595450Y-45378000D01*
X116449550Y-45378000D01*
X116231389Y-45399487D01*
X115951466Y-45484401D01*
X115693486Y-45622294D01*
X115467366Y-45807866D01*
X115281794Y-46033986D01*
X115252500Y-46088791D01*
X115223206Y-46033986D01*
X115037634Y-45807866D01*
X114811514Y-45622294D01*
X114553534Y-45484401D01*
X114273611Y-45399487D01*
X114055450Y-45378000D01*
X113909550Y-45378000D01*
X113691389Y-45399487D01*
X113411466Y-45484401D01*
X113153486Y-45622294D01*
X112927366Y-45807866D01*
X112741794Y-46033986D01*
X112712500Y-46088791D01*
X112683206Y-46033986D01*
X112497634Y-45807866D01*
X112271514Y-45622294D01*
X112013534Y-45484401D01*
X111733611Y-45399487D01*
X111515450Y-45378000D01*
X111369550Y-45378000D01*
X111151389Y-45399487D01*
X110871466Y-45484401D01*
X110613486Y-45622294D01*
X110387366Y-45807866D01*
X110201794Y-46033986D01*
X110172500Y-46088791D01*
X110143206Y-46033986D01*
X109957634Y-45807866D01*
X109731514Y-45622294D01*
X109473534Y-45484401D01*
X109193611Y-45399487D01*
X108975450Y-45378000D01*
X108829550Y-45378000D01*
X108611389Y-45399487D01*
X108331466Y-45484401D01*
X108073486Y-45622294D01*
X107847366Y-45807866D01*
X107661794Y-46033986D01*
X107632500Y-46088791D01*
X107603206Y-46033986D01*
X107417634Y-45807866D01*
X107191514Y-45622294D01*
X106933534Y-45484401D01*
X106653611Y-45399487D01*
X106435450Y-45378000D01*
X106289550Y-45378000D01*
X106071389Y-45399487D01*
X105791466Y-45484401D01*
X105533486Y-45622294D01*
X105307366Y-45807866D01*
X105121794Y-46033986D01*
X105092500Y-46088791D01*
X105063206Y-46033986D01*
X104877634Y-45807866D01*
X104651514Y-45622294D01*
X104393534Y-45484401D01*
X104113611Y-45399487D01*
X103895450Y-45378000D01*
X103749550Y-45378000D01*
X103531389Y-45399487D01*
X103251466Y-45484401D01*
X102993486Y-45622294D01*
X102767366Y-45807866D01*
X102581794Y-46033986D01*
X102552500Y-46088791D01*
X102523206Y-46033986D01*
X102337634Y-45807866D01*
X102111514Y-45622294D01*
X101853534Y-45484401D01*
X101573611Y-45399487D01*
X101355450Y-45378000D01*
X101209550Y-45378000D01*
X100991389Y-45399487D01*
X100711466Y-45484401D01*
X100453486Y-45622294D01*
X100227366Y-45807866D01*
X100041794Y-46033986D01*
X100012500Y-46088791D01*
X99983206Y-46033986D01*
X99797634Y-45807866D01*
X99571514Y-45622294D01*
X99313534Y-45484401D01*
X99033611Y-45399487D01*
X98815450Y-45378000D01*
X98669550Y-45378000D01*
X98451389Y-45399487D01*
X98171466Y-45484401D01*
X97913486Y-45622294D01*
X97687366Y-45807866D01*
X97501794Y-46033986D01*
X97472500Y-46088791D01*
X97443206Y-46033986D01*
X97257634Y-45807866D01*
X97031514Y-45622294D01*
X96773534Y-45484401D01*
X96493611Y-45399487D01*
X96275450Y-45378000D01*
X96129550Y-45378000D01*
X95911389Y-45399487D01*
X95631466Y-45484401D01*
X95373486Y-45622294D01*
X95147366Y-45807866D01*
X94961794Y-46033986D01*
X94932500Y-46088791D01*
X94903206Y-46033986D01*
X94717634Y-45807866D01*
X94491514Y-45622294D01*
X94233534Y-45484401D01*
X93953611Y-45399487D01*
X93735450Y-45378000D01*
X93589550Y-45378000D01*
X93371389Y-45399487D01*
X93091466Y-45484401D01*
X92833486Y-45622294D01*
X92607366Y-45807866D01*
X92421794Y-46033986D01*
X92392500Y-46088791D01*
X92363206Y-46033986D01*
X92177634Y-45807866D01*
X91951514Y-45622294D01*
X91693534Y-45484401D01*
X91413611Y-45399487D01*
X91195450Y-45378000D01*
X91049550Y-45378000D01*
X90831389Y-45399487D01*
X90551466Y-45484401D01*
X90293486Y-45622294D01*
X90067366Y-45807866D01*
X89881794Y-46033986D01*
X89847299Y-46098523D01*
X89777678Y-45981645D01*
X89582769Y-45765412D01*
X89349420Y-45591359D01*
X89086599Y-45466175D01*
X88939390Y-45421524D01*
X88709500Y-45542845D01*
X88455500Y-45542845D01*
X88225610Y-45421524D01*
X88078401Y-45466175D01*
X87815580Y-45591359D01*
X87582231Y-45765412D01*
X87387322Y-45981645D01*
X87317701Y-46098523D01*
X87283206Y-46033986D01*
X87097634Y-45807866D01*
X86871514Y-45622294D01*
X86613534Y-45484401D01*
X86333611Y-45399487D01*
X86115450Y-45378000D01*
X85969550Y-45378000D01*
X85751389Y-45399487D01*
X85471466Y-45484401D01*
X85213486Y-45622294D01*
X84987366Y-45807866D01*
X84801794Y-46033986D01*
X84772500Y-46088791D01*
X84743206Y-46033986D01*
X84557634Y-45807866D01*
X84331514Y-45622294D01*
X84073534Y-45484401D01*
X83793611Y-45399487D01*
X83575450Y-45378000D01*
X83429550Y-45378000D01*
X83211389Y-45399487D01*
X82931466Y-45484401D01*
X82673486Y-45622294D01*
X82447366Y-45807866D01*
X82261794Y-46033986D01*
X82232500Y-46088791D01*
X82203206Y-46033986D01*
X82017634Y-45807866D01*
X81791514Y-45622294D01*
X81533534Y-45484401D01*
X81253611Y-45399487D01*
X81035450Y-45378000D01*
X80889550Y-45378000D01*
X80671389Y-45399487D01*
X80391466Y-45484401D01*
X80133486Y-45622294D01*
X79907366Y-45807866D01*
X79882893Y-45837687D01*
X79862002Y-45768820D01*
X79803037Y-45658506D01*
X79723685Y-45561815D01*
X79626994Y-45482463D01*
X79516680Y-45423498D01*
X79396982Y-45387188D01*
X79272500Y-45374928D01*
X78708250Y-45378000D01*
X78549500Y-45536750D01*
X78295500Y-45536750D01*
X78136750Y-45378000D01*
X77572500Y-45374928D01*
X77448018Y-45387188D01*
X77328320Y-45423498D01*
X77218006Y-45482463D01*
X77121315Y-45561815D01*
X77041963Y-45658506D01*
X76982998Y-45768820D01*
X76946688Y-45888518D01*
X76934428Y-46013000D01*
X74639000Y-46013000D01*
X74639000Y-45076647D01*
X74642314Y-45043000D01*
X74629088Y-44908717D01*
X74589919Y-44779594D01*
X74526312Y-44660593D01*
X74510421Y-44641230D01*
X144719092Y-44767391D01*
X144719092Y-44767391D01*
G37*
X144719092Y-44767391D02*
X149098000Y-50209748D01*
X149098000Y-85667969D01*
X143461715Y-90678000D01*
X80072251Y-90678000D01*
X74639000Y-83667354D01*
X74639000Y-53616500D01*
X78077428Y-53616500D01*
X78089688Y-53740982D01*
X78125998Y-53860680D01*
X78184963Y-53970994D01*
X78264315Y-54067685D01*
X78361006Y-54147037D01*
X78471320Y-54206002D01*
X78591018Y-54242312D01*
X78715500Y-54254572D01*
X79279750Y-54251500D01*
X79438500Y-54092750D01*
X79438500Y-52768500D01*
X78239250Y-52768500D01*
X78080500Y-52927250D01*
X78077428Y-53616500D01*
X74639000Y-53616500D01*
X74639000Y-51666500D01*
X78077428Y-51666500D01*
X78080500Y-52355750D01*
X78239250Y-52514500D01*
X79438500Y-52514500D01*
X79438500Y-51190250D01*
X79279750Y-51031500D01*
X78715500Y-51028428D01*
X78591018Y-51040688D01*
X78471320Y-51076998D01*
X78361006Y-51135963D01*
X78264315Y-51215315D01*
X78184963Y-51312006D01*
X78125998Y-51422320D01*
X78089688Y-51542018D01*
X78077428Y-51666500D01*
X74639000Y-51666500D01*
X74639000Y-47713000D01*
X76934428Y-47713000D01*
X76946688Y-47837482D01*
X76982998Y-47957180D01*
X77041963Y-48067494D01*
X77121315Y-48164185D01*
X77218006Y-48243537D01*
X77328320Y-48302502D01*
X77448018Y-48338812D01*
X77572500Y-48351072D01*
X78136750Y-48348000D01*
X78295500Y-48189250D01*
X78295500Y-46990000D01*
X77096250Y-46990000D01*
X76937500Y-47148750D01*
X76934428Y-47713000D01*
X74639000Y-47713000D01*
X74639000Y-46013000D01*
X76934428Y-46013000D01*
X76937500Y-46577250D01*
X77096250Y-46736000D01*
X78295500Y-46736000D01*
X78295500Y-45536750D01*
X78549500Y-45536750D01*
X78549500Y-46736000D01*
X78569500Y-46736000D01*
X78569500Y-46990000D01*
X78549500Y-46990000D01*
X78549500Y-48189250D01*
X78708250Y-48348000D01*
X79272500Y-48351072D01*
X79396982Y-48338812D01*
X79516680Y-48302502D01*
X79626994Y-48243537D01*
X79723685Y-48164185D01*
X79803037Y-48067494D01*
X79862002Y-47957180D01*
X79882893Y-47888313D01*
X79907366Y-47918134D01*
X80133486Y-48103706D01*
X80391466Y-48241599D01*
X80671389Y-48326513D01*
X80889550Y-48348000D01*
X81035450Y-48348000D01*
X81253611Y-48326513D01*
X81533534Y-48241599D01*
X81791514Y-48103706D01*
X82017634Y-47918134D01*
X82203206Y-47692014D01*
X82232500Y-47637209D01*
X82261794Y-47692014D01*
X82277746Y-47711452D01*
X80379488Y-49609711D01*
X80350490Y-49633509D01*
X80326692Y-49662507D01*
X80326691Y-49662508D01*
X80255516Y-49749234D01*
X80184944Y-49881264D01*
X80141488Y-50024525D01*
X80126814Y-50173510D01*
X80130491Y-50210842D01*
X80130491Y-51029980D01*
X79851250Y-51031500D01*
X79692500Y-51190250D01*
X79692500Y-52514500D01*
X79712500Y-52514500D01*
X79712500Y-52768500D01*
X79692500Y-52768500D01*
X79692500Y-54092750D01*
X79851250Y-54251500D01*
X80130490Y-54253020D01*
X80130490Y-57389275D01*
X80108795Y-57421744D01*
X80030774Y-57610102D01*
X79991000Y-57810061D01*
X79991000Y-58013939D01*
X80030774Y-58213898D01*
X80108795Y-58402256D01*
X80222063Y-58571774D01*
X80366226Y-58715937D01*
X80535744Y-58829205D01*
X80724102Y-58907226D01*
X80924061Y-58947000D01*
X81127939Y-58947000D01*
X81327898Y-58907226D01*
X81516256Y-58829205D01*
X81685774Y-58715937D01*
X81829937Y-58571774D01*
X81943205Y-58402256D01*
X82021226Y-58213898D01*
X82061000Y-58013939D01*
X82061000Y-57810061D01*
X82021226Y-57610102D01*
X81999439Y-57557503D01*
X116049821Y-57557503D01*
X116053498Y-57594835D01*
X116053497Y-66414179D01*
X116049821Y-66451501D01*
X116053497Y-66488823D01*
X116053497Y-66488833D01*
X116064494Y-66600486D01*
X116107951Y-66743747D01*
X116178523Y-66875777D01*
X116204506Y-66907437D01*
X116273496Y-66991502D01*
X116302500Y-67015305D01*
X120854697Y-71567503D01*
X120878495Y-71596501D01*
X120907493Y-71620299D01*
X120994219Y-71691474D01*
X121126249Y-71762046D01*
X121269510Y-71805503D01*
X121381163Y-71816500D01*
X121381172Y-71816500D01*
X121418495Y-71820176D01*
X121455818Y-71816500D01*
X123184789Y-71816500D01*
X123228726Y-71860437D01*
X123398244Y-71973705D01*
X123586602Y-72051726D01*
X123786561Y-72091500D01*
X123990439Y-72091500D01*
X124190398Y-72051726D01*
X124378756Y-71973705D01*
X124548274Y-71860437D01*
X124692437Y-71716274D01*
X124805705Y-71546756D01*
X124883726Y-71358398D01*
X124923500Y-71158439D01*
X124923500Y-70954561D01*
X124883726Y-70754602D01*
X124805705Y-70566244D01*
X124692437Y-70396726D01*
X124548274Y-70252563D01*
X124378756Y-70139295D01*
X124190398Y-70061274D01*
X123990439Y-70021500D01*
X123786561Y-70021500D01*
X123586602Y-70061274D01*
X123398244Y-70139295D01*
X123228726Y-70252563D01*
X123184789Y-70296500D01*
X121733298Y-70296500D01*
X118300297Y-66863500D01*
X125788289Y-66863500D01*
X125832226Y-66907437D01*
X126001744Y-67020705D01*
X126190102Y-67098726D01*
X126390061Y-67138500D01*
X126593939Y-67138500D01*
X126793898Y-67098726D01*
X126982256Y-67020705D01*
X127151774Y-66907437D01*
X127295937Y-66763274D01*
X127409205Y-66593756D01*
X127487226Y-66405398D01*
X127527000Y-66205439D01*
X127527000Y-66001561D01*
X127487226Y-65801602D01*
X127409205Y-65613244D01*
X127295937Y-65443726D01*
X127151774Y-65299563D01*
X126982256Y-65186295D01*
X126793898Y-65108274D01*
X126593939Y-65068500D01*
X126390061Y-65068500D01*
X126190102Y-65108274D01*
X126001744Y-65186295D01*
X125832226Y-65299563D01*
X125788289Y-65343500D01*
X118242209Y-65343500D01*
X118198272Y-65299563D01*
X118028754Y-65186295D01*
X117840396Y-65108274D01*
X117640437Y-65068500D01*
X117573497Y-65068500D01*
X117573497Y-60096061D01*
X122790000Y-60096061D01*
X122790000Y-60299939D01*
X122829774Y-60499898D01*
X122907795Y-60688256D01*
X123021063Y-60857774D01*
X123165226Y-61001937D01*
X123334744Y-61115205D01*
X123523102Y-61193226D01*
X123723061Y-61233000D01*
X123926939Y-61233000D01*
X124126898Y-61193226D01*
X124315256Y-61115205D01*
X124484774Y-61001937D01*
X124528711Y-60958000D01*
X134053004Y-60958000D01*
X134193244Y-61051705D01*
X134381602Y-61129726D01*
X134581561Y-61169500D01*
X134785439Y-61169500D01*
X134985398Y-61129726D01*
X135173756Y-61051705D01*
X135343274Y-60938437D01*
X135487437Y-60794274D01*
X135600705Y-60624756D01*
X135678726Y-60436398D01*
X135718500Y-60236439D01*
X135718500Y-60032561D01*
X135678726Y-59832602D01*
X135600705Y-59644244D01*
X135487437Y-59474726D01*
X135343274Y-59330563D01*
X135327488Y-59320015D01*
X135346705Y-59291255D01*
X135424726Y-59102897D01*
X135464500Y-58902938D01*
X135464500Y-58699060D01*
X135424726Y-58499101D01*
X135346705Y-58310743D01*
X135233437Y-58141225D01*
X135089274Y-57997062D01*
X134919756Y-57883794D01*
X134731398Y-57805773D01*
X134531439Y-57765999D01*
X134327561Y-57765999D01*
X134127602Y-57805773D01*
X133939244Y-57883794D01*
X133769726Y-57997062D01*
X133725789Y-58040999D01*
X125417710Y-58040999D01*
X125373774Y-57997063D01*
X125204256Y-57883795D01*
X125015898Y-57805774D01*
X124815939Y-57766000D01*
X124612061Y-57766000D01*
X124412102Y-57805774D01*
X124223744Y-57883795D01*
X124054226Y-57997063D01*
X123910063Y-58141226D01*
X123796795Y-58310744D01*
X123718774Y-58499102D01*
X123679000Y-58699061D01*
X123679000Y-58902939D01*
X123718774Y-59102898D01*
X123743669Y-59163000D01*
X123723061Y-59163000D01*
X123523102Y-59202774D01*
X123334744Y-59280795D01*
X123165226Y-59394063D01*
X123021063Y-59538226D01*
X122907795Y-59707744D01*
X122829774Y-59896102D01*
X122790000Y-60096061D01*
X117573497Y-60096061D01*
X117573497Y-57872304D01*
X119524455Y-55921347D01*
X119585832Y-56229912D01*
X119709082Y-56527463D01*
X119888013Y-56795252D01*
X120115748Y-57022987D01*
X120383537Y-57201918D01*
X120681088Y-57325168D01*
X120996967Y-57388000D01*
X121319033Y-57388000D01*
X121634912Y-57325168D01*
X121932463Y-57201918D01*
X122200252Y-57022987D01*
X122427987Y-56795252D01*
X122606918Y-56527463D01*
X122730168Y-56229912D01*
X122793000Y-55914033D01*
X122793000Y-55591967D01*
X122730168Y-55276088D01*
X122606918Y-54978537D01*
X122427987Y-54710748D01*
X122200252Y-54483013D01*
X122200233Y-54483000D01*
X122200252Y-54482987D01*
X122427987Y-54255252D01*
X122606918Y-53987463D01*
X122730168Y-53689912D01*
X122793000Y-53374033D01*
X122793000Y-53051967D01*
X122730168Y-52736088D01*
X122606918Y-52438537D01*
X122427987Y-52170748D01*
X122200252Y-51943013D01*
X122091400Y-51870280D01*
X122113808Y-51808413D01*
X121158000Y-50852605D01*
X120202192Y-51808413D01*
X120224600Y-51870280D01*
X120115748Y-51943013D01*
X119888013Y-52170748D01*
X119709082Y-52438537D01*
X119585832Y-52736088D01*
X119523000Y-53051967D01*
X119523000Y-53374033D01*
X119585832Y-53689912D01*
X119591823Y-53704375D01*
X116302495Y-56993704D01*
X116273497Y-57017502D01*
X116249699Y-57046500D01*
X116249698Y-57046501D01*
X116178523Y-57133227D01*
X116107951Y-57265257D01*
X116081574Y-57352214D01*
X116064495Y-57408517D01*
X116056694Y-57487724D01*
X116049821Y-57557503D01*
X81999439Y-57557503D01*
X81943205Y-57421744D01*
X81829937Y-57252226D01*
X81685774Y-57108063D01*
X81650490Y-57084487D01*
X81650490Y-54192428D01*
X81774390Y-54230013D01*
X82065500Y-54258685D01*
X82356611Y-54230013D01*
X82636534Y-54145099D01*
X82894514Y-54007206D01*
X83120634Y-53821634D01*
X83306206Y-53595514D01*
X83315500Y-53578126D01*
X83324794Y-53595514D01*
X83510366Y-53821634D01*
X83736487Y-54007206D01*
X83994467Y-54145099D01*
X84274390Y-54230013D01*
X84565500Y-54258685D01*
X84856611Y-54230013D01*
X85136534Y-54145099D01*
X85394514Y-54007206D01*
X85620634Y-53821634D01*
X85806206Y-53595514D01*
X85815500Y-53578126D01*
X85824794Y-53595514D01*
X86010366Y-53821634D01*
X86236487Y-54007206D01*
X86494467Y-54145099D01*
X86774390Y-54230013D01*
X87065500Y-54258685D01*
X87356611Y-54230013D01*
X87636534Y-54145099D01*
X87894514Y-54007206D01*
X88120634Y-53821634D01*
X88306206Y-53595514D01*
X88315500Y-53578126D01*
X88324794Y-53595514D01*
X88510366Y-53821634D01*
X88736487Y-54007206D01*
X88994467Y-54145099D01*
X89274390Y-54230013D01*
X89565500Y-54258685D01*
X89856611Y-54230013D01*
X90136534Y-54145099D01*
X90394514Y-54007206D01*
X90620634Y-53821634D01*
X90806206Y-53595514D01*
X90815500Y-53578126D01*
X90824794Y-53595514D01*
X91010366Y-53821634D01*
X91236487Y-54007206D01*
X91494467Y-54145099D01*
X91774390Y-54230013D01*
X92065500Y-54258685D01*
X92356611Y-54230013D01*
X92636534Y-54145099D01*
X92894514Y-54007206D01*
X93120634Y-53821634D01*
X93306206Y-53595514D01*
X93315500Y-53578126D01*
X93324794Y-53595514D01*
X93510366Y-53821634D01*
X93736487Y-54007206D01*
X93994467Y-54145099D01*
X94274390Y-54230013D01*
X94565500Y-54258685D01*
X94856611Y-54230013D01*
X95136534Y-54145099D01*
X95394514Y-54007206D01*
X95620634Y-53821634D01*
X95806206Y-53595514D01*
X95815500Y-53578126D01*
X95824794Y-53595514D01*
X96010366Y-53821634D01*
X96236487Y-54007206D01*
X96494467Y-54145099D01*
X96774390Y-54230013D01*
X97065500Y-54258685D01*
X97356611Y-54230013D01*
X97636534Y-54145099D01*
X97894514Y-54007206D01*
X98120634Y-53821634D01*
X98306206Y-53595514D01*
X98315500Y-53578126D01*
X98324794Y-53595514D01*
X98510366Y-53821634D01*
X98736487Y-54007206D01*
X98994467Y-54145099D01*
X99274390Y-54230013D01*
X99565500Y-54258685D01*
X99856611Y-54230013D01*
X100136534Y-54145099D01*
X100394514Y-54007206D01*
X100620634Y-53821634D01*
X100806206Y-53595514D01*
X100819962Y-53569778D01*
X100976451Y-53775929D01*
X101194307Y-53968996D01*
X101445642Y-54115852D01*
X101708610Y-54207976D01*
X101938500Y-54086655D01*
X101938500Y-52768500D01*
X102192500Y-52768500D01*
X102192500Y-54086655D01*
X102422390Y-54207976D01*
X102685358Y-54115852D01*
X102936693Y-53968996D01*
X103154549Y-53775929D01*
X103330553Y-53544070D01*
X103457942Y-53282330D01*
X103531820Y-53000767D01*
X103391665Y-52768500D01*
X102192500Y-52768500D01*
X101938500Y-52768500D01*
X101918500Y-52768500D01*
X101918500Y-52514500D01*
X101938500Y-52514500D01*
X101938500Y-51196345D01*
X102192500Y-51196345D01*
X102192500Y-52514500D01*
X103391665Y-52514500D01*
X103531820Y-52282233D01*
X103457942Y-52000670D01*
X103330553Y-51738930D01*
X103154549Y-51507071D01*
X102936693Y-51314004D01*
X102685358Y-51167148D01*
X102422390Y-51075024D01*
X102192500Y-51196345D01*
X101938500Y-51196345D01*
X101708610Y-51075024D01*
X101445642Y-51167148D01*
X101194307Y-51314004D01*
X100976451Y-51507071D01*
X100819962Y-51713222D01*
X100806206Y-51687486D01*
X100620634Y-51461366D01*
X100394513Y-51275794D01*
X100136533Y-51137901D01*
X99856610Y-51052987D01*
X99565500Y-51024315D01*
X99274389Y-51052987D01*
X98994466Y-51137901D01*
X98736486Y-51275794D01*
X98510366Y-51461366D01*
X98324794Y-51687487D01*
X98315500Y-51704874D01*
X98306206Y-51687486D01*
X98120634Y-51461366D01*
X97894513Y-51275794D01*
X97636533Y-51137901D01*
X97356610Y-51052987D01*
X97065500Y-51024315D01*
X96774389Y-51052987D01*
X96494466Y-51137901D01*
X96236486Y-51275794D01*
X96010366Y-51461366D01*
X95824794Y-51687487D01*
X95815500Y-51704874D01*
X95806206Y-51687486D01*
X95620634Y-51461366D01*
X95394513Y-51275794D01*
X95136533Y-51137901D01*
X94856610Y-51052987D01*
X94565500Y-51024315D01*
X94274389Y-51052987D01*
X93994466Y-51137901D01*
X93736486Y-51275794D01*
X93510366Y-51461366D01*
X93324794Y-51687487D01*
X93315500Y-51704874D01*
X93306206Y-51687486D01*
X93120634Y-51461366D01*
X92894513Y-51275794D01*
X92636533Y-51137901D01*
X92356610Y-51052987D01*
X92065500Y-51024315D01*
X91774389Y-51052987D01*
X91494466Y-51137901D01*
X91236486Y-51275794D01*
X91010366Y-51461366D01*
X90824794Y-51687487D01*
X90815500Y-51704874D01*
X90806206Y-51687486D01*
X90620634Y-51461366D01*
X90394513Y-51275794D01*
X90136533Y-51137901D01*
X89856610Y-51052987D01*
X89565500Y-51024315D01*
X89274389Y-51052987D01*
X88994466Y-51137901D01*
X88736486Y-51275794D01*
X88510366Y-51461366D01*
X88324794Y-51687487D01*
X88315500Y-51704874D01*
X88306206Y-51687486D01*
X88120634Y-51461366D01*
X87894513Y-51275794D01*
X87636533Y-51137901D01*
X87356610Y-51052987D01*
X87065500Y-51024315D01*
X86774389Y-51052987D01*
X86494466Y-51137901D01*
X86236486Y-51275794D01*
X86010366Y-51461366D01*
X85824794Y-51687487D01*
X85815500Y-51704874D01*
X85806206Y-51687486D01*
X85620634Y-51461366D01*
X85394513Y-51275794D01*
X85136533Y-51137901D01*
X84856610Y-51052987D01*
X84565500Y-51024315D01*
X84274389Y-51052987D01*
X83994466Y-51137901D01*
X83736486Y-51275794D01*
X83510366Y-51461366D01*
X83324794Y-51687487D01*
X83315500Y-51704874D01*
X83306206Y-51687486D01*
X83120634Y-51461366D01*
X82894513Y-51275794D01*
X82636533Y-51137901D01*
X82356610Y-51052987D01*
X82065500Y-51024315D01*
X81774389Y-51052987D01*
X81650490Y-51090571D01*
X81650490Y-50488311D01*
X83820422Y-48318380D01*
X84073534Y-48241599D01*
X84331514Y-48103706D01*
X84557634Y-47918134D01*
X84743206Y-47692014D01*
X84772500Y-47637209D01*
X84801794Y-47692014D01*
X84987366Y-47918134D01*
X85213486Y-48103706D01*
X85471466Y-48241599D01*
X85751389Y-48326513D01*
X85969550Y-48348000D01*
X86115450Y-48348000D01*
X86333611Y-48326513D01*
X86613534Y-48241599D01*
X86871514Y-48103706D01*
X87097634Y-47918134D01*
X87283206Y-47692014D01*
X87317701Y-47627477D01*
X87387322Y-47744355D01*
X87582231Y-47960588D01*
X87815580Y-48134641D01*
X88078401Y-48259825D01*
X88225610Y-48304476D01*
X88455500Y-48183155D01*
X88455500Y-46990000D01*
X88435500Y-46990000D01*
X88435500Y-46736000D01*
X88455500Y-46736000D01*
X88455500Y-45542845D01*
X88709500Y-45542845D01*
X88709500Y-46736000D01*
X88729500Y-46736000D01*
X88729500Y-46990000D01*
X88709500Y-46990000D01*
X88709500Y-48183155D01*
X88939390Y-48304476D01*
X89086599Y-48259825D01*
X89349420Y-48134641D01*
X89582769Y-47960588D01*
X89777678Y-47744355D01*
X89847299Y-47627477D01*
X89881794Y-47692014D01*
X90067366Y-47918134D01*
X90293486Y-48103706D01*
X90551466Y-48241599D01*
X90831389Y-48326513D01*
X91049550Y-48348000D01*
X91195450Y-48348000D01*
X91413611Y-48326513D01*
X91693534Y-48241599D01*
X91951514Y-48103706D01*
X92177634Y-47918134D01*
X92363206Y-47692014D01*
X92392500Y-47637209D01*
X92421794Y-47692014D01*
X92607366Y-47918134D01*
X92833486Y-48103706D01*
X93091466Y-48241599D01*
X93371389Y-48326513D01*
X93589550Y-48348000D01*
X93735450Y-48348000D01*
X93953611Y-48326513D01*
X94233534Y-48241599D01*
X94491514Y-48103706D01*
X94717634Y-47918134D01*
X94903206Y-47692014D01*
X94932500Y-47637209D01*
X94961794Y-47692014D01*
X95147366Y-47918134D01*
X95373486Y-48103706D01*
X95631466Y-48241599D01*
X95911389Y-48326513D01*
X96129550Y-48348000D01*
X96275450Y-48348000D01*
X96493611Y-48326513D01*
X96773534Y-48241599D01*
X97031514Y-48103706D01*
X97257634Y-47918134D01*
X97443206Y-47692014D01*
X97472500Y-47637209D01*
X97501794Y-47692014D01*
X97687366Y-47918134D01*
X97913486Y-48103706D01*
X98171466Y-48241599D01*
X98451389Y-48326513D01*
X98669550Y-48348000D01*
X98815450Y-48348000D01*
X99033611Y-48326513D01*
X99313534Y-48241599D01*
X99571514Y-48103706D01*
X99797634Y-47918134D01*
X99983206Y-47692014D01*
X100012500Y-47637209D01*
X100041794Y-47692014D01*
X100227366Y-47918134D01*
X100453486Y-48103706D01*
X100711466Y-48241599D01*
X100991389Y-48326513D01*
X101209550Y-48348000D01*
X101355450Y-48348000D01*
X101573611Y-48326513D01*
X101853534Y-48241599D01*
X102111514Y-48103706D01*
X102337634Y-47918134D01*
X102523206Y-47692014D01*
X102552500Y-47637209D01*
X102581794Y-47692014D01*
X102767366Y-47918134D01*
X102993486Y-48103706D01*
X103251466Y-48241599D01*
X103531389Y-48326513D01*
X103749550Y-48348000D01*
X103895450Y-48348000D01*
X104113611Y-48326513D01*
X104393534Y-48241599D01*
X104651514Y-48103706D01*
X104877634Y-47918134D01*
X105063206Y-47692014D01*
X105092500Y-47637209D01*
X105121794Y-47692014D01*
X105307366Y-47918134D01*
X105533486Y-48103706D01*
X105791466Y-48241599D01*
X106071389Y-48326513D01*
X106289550Y-48348000D01*
X106435450Y-48348000D01*
X106653611Y-48326513D01*
X106933534Y-48241599D01*
X107191514Y-48103706D01*
X107417634Y-47918134D01*
X107603206Y-47692014D01*
X107632500Y-47637209D01*
X107661794Y-47692014D01*
X107847366Y-47918134D01*
X108073486Y-48103706D01*
X108331466Y-48241599D01*
X108611389Y-48326513D01*
X108829550Y-48348000D01*
X108975450Y-48348000D01*
X109193611Y-48326513D01*
X109473534Y-48241599D01*
X109731514Y-48103706D01*
X109957634Y-47918134D01*
X110143206Y-47692014D01*
X110172500Y-47637209D01*
X110201794Y-47692014D01*
X110387366Y-47918134D01*
X110613486Y-48103706D01*
X110871466Y-48241599D01*
X111151389Y-48326513D01*
X111369550Y-48348000D01*
X111515450Y-48348000D01*
X111733611Y-48326513D01*
X112013534Y-48241599D01*
X112271514Y-48103706D01*
X112497634Y-47918134D01*
X112683206Y-47692014D01*
X112712500Y-47637209D01*
X112741794Y-47692014D01*
X112927366Y-47918134D01*
X113097500Y-48057760D01*
X113097501Y-49931021D01*
X113093219Y-49974500D01*
X113110305Y-50147990D01*
X113160912Y-50314813D01*
X113243090Y-50468559D01*
X113325968Y-50569546D01*
X113325971Y-50569549D01*
X113353684Y-50603317D01*
X113387451Y-50631029D01*
X115325465Y-52569044D01*
X115336774Y-52625898D01*
X115414795Y-52814256D01*
X115528063Y-52983774D01*
X115672226Y-53127937D01*
X115841744Y-53241205D01*
X116030102Y-53319226D01*
X116230061Y-53359000D01*
X116433939Y-53359000D01*
X116633898Y-53319226D01*
X116822256Y-53241205D01*
X116991774Y-53127937D01*
X117135937Y-52983774D01*
X117249205Y-52814256D01*
X117327226Y-52625898D01*
X117338535Y-52569043D01*
X119528532Y-50379047D01*
X119528536Y-50379042D01*
X119550593Y-50356985D01*
X119535616Y-50414108D01*
X119516282Y-50735595D01*
X119560039Y-51054675D01*
X119665205Y-51359088D01*
X119758186Y-51533044D01*
X120022587Y-51628808D01*
X120978395Y-50673000D01*
X120964253Y-50658858D01*
X121143858Y-50479253D01*
X121158000Y-50493395D01*
X122113808Y-49537587D01*
X122018044Y-49273186D01*
X121728429Y-49132296D01*
X121534687Y-49081500D01*
X123378277Y-49081500D01*
X123281088Y-49100832D01*
X122983537Y-49224082D01*
X122715748Y-49403013D01*
X122488013Y-49630748D01*
X122403589Y-49757097D01*
X122293413Y-49717192D01*
X121337605Y-50673000D01*
X122293413Y-51628808D01*
X122403589Y-51588903D01*
X122488013Y-51715252D01*
X122715748Y-51942987D01*
X122983537Y-52121918D01*
X123281088Y-52245168D01*
X123596967Y-52308000D01*
X123919033Y-52308000D01*
X124234912Y-52245168D01*
X124532463Y-52121918D01*
X124800252Y-51942987D01*
X125027987Y-51715252D01*
X125158000Y-51520674D01*
X125288013Y-51715252D01*
X125515748Y-51942987D01*
X125515767Y-51943000D01*
X125515748Y-51943013D01*
X125288013Y-52170748D01*
X125109082Y-52438537D01*
X124985832Y-52736088D01*
X124923000Y-53051967D01*
X124923000Y-53374033D01*
X124985832Y-53689912D01*
X125109082Y-53987463D01*
X125288013Y-54255252D01*
X125515748Y-54482987D01*
X125515767Y-54483000D01*
X125515748Y-54483013D01*
X125288013Y-54710748D01*
X125109082Y-54978537D01*
X124985832Y-55276088D01*
X124923000Y-55591967D01*
X124923000Y-55914033D01*
X124985832Y-56229912D01*
X125109082Y-56527463D01*
X125288013Y-56795252D01*
X125515748Y-57022987D01*
X125783537Y-57201918D01*
X126081088Y-57325168D01*
X126396967Y-57388000D01*
X126719033Y-57388000D01*
X127034912Y-57325168D01*
X127332463Y-57201918D01*
X127600252Y-57022987D01*
X127827987Y-56795252D01*
X128006918Y-56527463D01*
X128130168Y-56229912D01*
X128193000Y-55914033D01*
X128193000Y-55591967D01*
X128130168Y-55276088D01*
X128006918Y-54978537D01*
X127827987Y-54710748D01*
X127600252Y-54483013D01*
X127600233Y-54483000D01*
X127600252Y-54482987D01*
X127827987Y-54255252D01*
X128006918Y-53987463D01*
X128130168Y-53689912D01*
X128193000Y-53374033D01*
X128193000Y-53051967D01*
X128130168Y-52736088D01*
X128006918Y-52438537D01*
X127827987Y-52170748D01*
X127600252Y-51943013D01*
X127600233Y-51943000D01*
X127600252Y-51942987D01*
X127827987Y-51715252D01*
X128006918Y-51447463D01*
X128130168Y-51149912D01*
X128161801Y-50990880D01*
X136497428Y-59326507D01*
X136497428Y-60290000D01*
X136514492Y-60463254D01*
X136565028Y-60629850D01*
X136647095Y-60783386D01*
X136757538Y-60917962D01*
X136892114Y-61028405D01*
X137045650Y-61110472D01*
X137212246Y-61161008D01*
X137385500Y-61178072D01*
X138585500Y-61178072D01*
X138758754Y-61161008D01*
X138925350Y-61110472D01*
X139078886Y-61028405D01*
X139213462Y-60917962D01*
X139323905Y-60783386D01*
X139391785Y-60656392D01*
X139578868Y-60843475D01*
X139822089Y-61005990D01*
X139858591Y-61021109D01*
X135726701Y-65153000D01*
X135133211Y-65153000D01*
X135089274Y-65109063D01*
X134919756Y-64995795D01*
X134731398Y-64917774D01*
X134531439Y-64878000D01*
X134327561Y-64878000D01*
X134127602Y-64917774D01*
X133939244Y-64995795D01*
X133769726Y-65109063D01*
X133625563Y-65253226D01*
X133512295Y-65422744D01*
X133434274Y-65611102D01*
X133394500Y-65811061D01*
X133394500Y-66014939D01*
X133434274Y-66214898D01*
X133512295Y-66403256D01*
X133625563Y-66572774D01*
X133769726Y-66716937D01*
X133939244Y-66830205D01*
X134127602Y-66908226D01*
X134327561Y-66948000D01*
X134531439Y-66948000D01*
X134731398Y-66908226D01*
X134919756Y-66830205D01*
X135089274Y-66716937D01*
X135133211Y-66673000D01*
X136004180Y-66673000D01*
X136041502Y-66676676D01*
X136078824Y-66673000D01*
X136078835Y-66673000D01*
X136190488Y-66662003D01*
X136333749Y-66618546D01*
X136465778Y-66547974D01*
X136581503Y-66453001D01*
X136605306Y-66423997D01*
X141390512Y-61638792D01*
X141390512Y-66449686D01*
X126113699Y-81726500D01*
X122052211Y-81726500D01*
X122008274Y-81682563D01*
X121838756Y-81569295D01*
X121650398Y-81491274D01*
X121450439Y-81451500D01*
X121246561Y-81451500D01*
X121046602Y-81491274D01*
X120858244Y-81569295D01*
X120688726Y-81682563D01*
X120544563Y-81826726D01*
X120431295Y-81996244D01*
X120353274Y-82184602D01*
X120313500Y-82384561D01*
X120313500Y-82588439D01*
X120353274Y-82788398D01*
X120431295Y-82976756D01*
X120544563Y-83146274D01*
X120688726Y-83290437D01*
X120858244Y-83403705D01*
X121046602Y-83481726D01*
X121246561Y-83521500D01*
X121450439Y-83521500D01*
X121650398Y-83481726D01*
X121838756Y-83403705D01*
X122008274Y-83290437D01*
X122052211Y-83246500D01*
X126391178Y-83246500D01*
X126428500Y-83250176D01*
X126465822Y-83246500D01*
X126465833Y-83246500D01*
X126577486Y-83235503D01*
X126720747Y-83192046D01*
X126852776Y-83121474D01*
X126968501Y-83026501D01*
X126992304Y-82997497D01*
X142661514Y-67328288D01*
X142690512Y-67304490D01*
X142785485Y-67188765D01*
X142856057Y-67056736D01*
X142899514Y-66913475D01*
X142910511Y-66801822D01*
X142910511Y-66801813D01*
X142914187Y-66764490D01*
X142910511Y-66727167D01*
X142910511Y-62459216D01*
X142977232Y-62525937D01*
X143146750Y-62639205D01*
X143335108Y-62717226D01*
X143535067Y-62757000D01*
X143738945Y-62757000D01*
X143938904Y-62717226D01*
X144127262Y-62639205D01*
X144296780Y-62525937D01*
X144440943Y-62381774D01*
X144554211Y-62212256D01*
X144632232Y-62023898D01*
X144672006Y-61823939D01*
X144672006Y-61620061D01*
X144632232Y-61420102D01*
X144554211Y-61231744D01*
X144440943Y-61062226D01*
X144397000Y-61018283D01*
X144397000Y-58742711D01*
X144440937Y-58698774D01*
X144554205Y-58529256D01*
X144632226Y-58340898D01*
X144672000Y-58140939D01*
X144672000Y-57937061D01*
X144632226Y-57737102D01*
X144554205Y-57548744D01*
X144440937Y-57379226D01*
X144296774Y-57235063D01*
X144127256Y-57121795D01*
X143938898Y-57043774D01*
X143738939Y-57004000D01*
X143535061Y-57004000D01*
X143335102Y-57043774D01*
X143146744Y-57121795D01*
X142977226Y-57235063D01*
X142910511Y-57301778D01*
X142910511Y-56272344D01*
X142914188Y-56235011D01*
X142899514Y-56086025D01*
X142856057Y-55942764D01*
X142785485Y-55810735D01*
X142714310Y-55724008D01*
X142690512Y-55695010D01*
X142661515Y-55671213D01*
X141966710Y-54976408D01*
X142010500Y-54756260D01*
X142010500Y-54463740D01*
X141953432Y-54176842D01*
X141841490Y-53906589D01*
X141678975Y-53663368D01*
X141472132Y-53456525D01*
X141297740Y-53340000D01*
X141472132Y-53223475D01*
X141678975Y-53016632D01*
X141841490Y-52773411D01*
X141953432Y-52503158D01*
X142010500Y-52216260D01*
X142010500Y-51923740D01*
X141953432Y-51636842D01*
X141841490Y-51366589D01*
X141678975Y-51123368D01*
X141472132Y-50916525D01*
X141298771Y-50800689D01*
X141374292Y-50558397D01*
X140525500Y-49709605D01*
X139676708Y-50558397D01*
X139752229Y-50800689D01*
X139578868Y-50916525D01*
X139372025Y-51123368D01*
X139255500Y-51297760D01*
X139138975Y-51123368D01*
X138932132Y-50916525D01*
X138757740Y-50800000D01*
X138932132Y-50683475D01*
X139138975Y-50476632D01*
X139254811Y-50303271D01*
X139497103Y-50378792D01*
X140345895Y-49530000D01*
X140705105Y-49530000D01*
X141553897Y-50378792D01*
X141802972Y-50301157D01*
X141928871Y-50037117D01*
X142000839Y-49753589D01*
X142016111Y-49461469D01*
X141974099Y-49171981D01*
X141876419Y-48896253D01*
X141802972Y-48758843D01*
X141553897Y-48681208D01*
X140705105Y-49530000D01*
X140345895Y-49530000D01*
X139497103Y-48681208D01*
X139254811Y-48756729D01*
X139138975Y-48583368D01*
X139057210Y-48501603D01*
X139676708Y-48501603D01*
X140525500Y-49350395D01*
X141374292Y-48501603D01*
X141296657Y-48252528D01*
X141032617Y-48126629D01*
X140749089Y-48054661D01*
X140456969Y-48039389D01*
X140167481Y-48081401D01*
X139891753Y-48179081D01*
X139754343Y-48252528D01*
X139676708Y-48501603D01*
X139057210Y-48501603D01*
X138932132Y-48376525D01*
X138688911Y-48214010D01*
X138418658Y-48102068D01*
X138131760Y-48045000D01*
X137839240Y-48045000D01*
X137552342Y-48102068D01*
X137282089Y-48214010D01*
X137038868Y-48376525D01*
X136832025Y-48583368D01*
X136669510Y-48826589D01*
X136557568Y-49096842D01*
X136500500Y-49383740D01*
X136500500Y-49676260D01*
X136557568Y-49963158D01*
X136669510Y-50233411D01*
X136832025Y-50476632D01*
X137038868Y-50683475D01*
X137213260Y-50800000D01*
X137038868Y-50916525D01*
X136832025Y-51123368D01*
X136707322Y-51310000D01*
X134307711Y-51310000D01*
X134263774Y-51266063D01*
X134094256Y-51152795D01*
X133905898Y-51074774D01*
X133705939Y-51035000D01*
X133502061Y-51035000D01*
X133302102Y-51074774D01*
X133113744Y-51152795D01*
X132944226Y-51266063D01*
X132800063Y-51410226D01*
X132686795Y-51579744D01*
X132608774Y-51768102D01*
X132569000Y-51968061D01*
X132569000Y-52171939D01*
X132608774Y-52371898D01*
X132686795Y-52560256D01*
X132800063Y-52729774D01*
X132944226Y-52873937D01*
X133113744Y-52987205D01*
X133302102Y-53065226D01*
X133502061Y-53105000D01*
X133705939Y-53105000D01*
X133905898Y-53065226D01*
X134094256Y-52987205D01*
X134263774Y-52873937D01*
X134307711Y-52830000D01*
X136707322Y-52830000D01*
X136832025Y-53016632D01*
X137038868Y-53223475D01*
X137213260Y-53340000D01*
X137038868Y-53456525D01*
X136832025Y-53663368D01*
X136669510Y-53906589D01*
X136557568Y-54176842D01*
X136500500Y-54463740D01*
X136500500Y-54756260D01*
X136557568Y-55043158D01*
X136669510Y-55313411D01*
X136832025Y-55556632D01*
X137038868Y-55763475D01*
X137213260Y-55880000D01*
X137038868Y-55996525D01*
X136832025Y-56203368D01*
X136669510Y-56446589D01*
X136557568Y-56716842D01*
X136529919Y-56855840D01*
X127275534Y-47601456D01*
X127247817Y-47567683D01*
X127113059Y-47457089D01*
X126959313Y-47374911D01*
X126792490Y-47324305D01*
X126662477Y-47311500D01*
X126662469Y-47311500D01*
X126619000Y-47307219D01*
X126575531Y-47311500D01*
X120502966Y-47311500D01*
X120459499Y-47307219D01*
X120416033Y-47311500D01*
X120416023Y-47311500D01*
X120286010Y-47324305D01*
X120119187Y-47374911D01*
X119965441Y-47457089D01*
X119965439Y-47457090D01*
X119965440Y-47457090D01*
X119864453Y-47539968D01*
X119864451Y-47539970D01*
X119830683Y-47567683D01*
X119802970Y-47601451D01*
X118276958Y-49127464D01*
X118276953Y-49127468D01*
X116332000Y-51072422D01*
X114867500Y-49607922D01*
X114867500Y-48057759D01*
X115037634Y-47918134D01*
X115223206Y-47692014D01*
X115252500Y-47637209D01*
X115281794Y-47692014D01*
X115467366Y-47918134D01*
X115693486Y-48103706D01*
X115951466Y-48241599D01*
X116231389Y-48326513D01*
X116449550Y-48348000D01*
X116595450Y-48348000D01*
X116813611Y-48326513D01*
X117093534Y-48241599D01*
X117351514Y-48103706D01*
X117577634Y-47918134D01*
X117763206Y-47692014D01*
X117901099Y-47434034D01*
X117986013Y-47154111D01*
X118014685Y-46863000D01*
X117986013Y-46571889D01*
X117901099Y-46291966D01*
X117763206Y-46033986D01*
X117577634Y-45807866D01*
X117351514Y-45622294D01*
X117093534Y-45484401D01*
X116813611Y-45399487D01*
X116595450Y-45378000D01*
X116449550Y-45378000D01*
X116231389Y-45399487D01*
X115951466Y-45484401D01*
X115693486Y-45622294D01*
X115467366Y-45807866D01*
X115281794Y-46033986D01*
X115252500Y-46088791D01*
X115223206Y-46033986D01*
X115037634Y-45807866D01*
X114811514Y-45622294D01*
X114553534Y-45484401D01*
X114273611Y-45399487D01*
X114055450Y-45378000D01*
X113909550Y-45378000D01*
X113691389Y-45399487D01*
X113411466Y-45484401D01*
X113153486Y-45622294D01*
X112927366Y-45807866D01*
X112741794Y-46033986D01*
X112712500Y-46088791D01*
X112683206Y-46033986D01*
X112497634Y-45807866D01*
X112271514Y-45622294D01*
X112013534Y-45484401D01*
X111733611Y-45399487D01*
X111515450Y-45378000D01*
X111369550Y-45378000D01*
X111151389Y-45399487D01*
X110871466Y-45484401D01*
X110613486Y-45622294D01*
X110387366Y-45807866D01*
X110201794Y-46033986D01*
X110172500Y-46088791D01*
X110143206Y-46033986D01*
X109957634Y-45807866D01*
X109731514Y-45622294D01*
X109473534Y-45484401D01*
X109193611Y-45399487D01*
X108975450Y-45378000D01*
X108829550Y-45378000D01*
X108611389Y-45399487D01*
X108331466Y-45484401D01*
X108073486Y-45622294D01*
X107847366Y-45807866D01*
X107661794Y-46033986D01*
X107632500Y-46088791D01*
X107603206Y-46033986D01*
X107417634Y-45807866D01*
X107191514Y-45622294D01*
X106933534Y-45484401D01*
X106653611Y-45399487D01*
X106435450Y-45378000D01*
X106289550Y-45378000D01*
X106071389Y-45399487D01*
X105791466Y-45484401D01*
X105533486Y-45622294D01*
X105307366Y-45807866D01*
X105121794Y-46033986D01*
X105092500Y-46088791D01*
X105063206Y-46033986D01*
X104877634Y-45807866D01*
X104651514Y-45622294D01*
X104393534Y-45484401D01*
X104113611Y-45399487D01*
X103895450Y-45378000D01*
X103749550Y-45378000D01*
X103531389Y-45399487D01*
X103251466Y-45484401D01*
X102993486Y-45622294D01*
X102767366Y-45807866D01*
X102581794Y-46033986D01*
X102552500Y-46088791D01*
X102523206Y-46033986D01*
X102337634Y-45807866D01*
X102111514Y-45622294D01*
X101853534Y-45484401D01*
X101573611Y-45399487D01*
X101355450Y-45378000D01*
X101209550Y-45378000D01*
X100991389Y-45399487D01*
X100711466Y-45484401D01*
X100453486Y-45622294D01*
X100227366Y-45807866D01*
X100041794Y-46033986D01*
X100012500Y-46088791D01*
X99983206Y-46033986D01*
X99797634Y-45807866D01*
X99571514Y-45622294D01*
X99313534Y-45484401D01*
X99033611Y-45399487D01*
X98815450Y-45378000D01*
X98669550Y-45378000D01*
X98451389Y-45399487D01*
X98171466Y-45484401D01*
X97913486Y-45622294D01*
X97687366Y-45807866D01*
X97501794Y-46033986D01*
X97472500Y-46088791D01*
X97443206Y-46033986D01*
X97257634Y-45807866D01*
X97031514Y-45622294D01*
X96773534Y-45484401D01*
X96493611Y-45399487D01*
X96275450Y-45378000D01*
X96129550Y-45378000D01*
X95911389Y-45399487D01*
X95631466Y-45484401D01*
X95373486Y-45622294D01*
X95147366Y-45807866D01*
X94961794Y-46033986D01*
X94932500Y-46088791D01*
X94903206Y-46033986D01*
X94717634Y-45807866D01*
X94491514Y-45622294D01*
X94233534Y-45484401D01*
X93953611Y-45399487D01*
X93735450Y-45378000D01*
X93589550Y-45378000D01*
X93371389Y-45399487D01*
X93091466Y-45484401D01*
X92833486Y-45622294D01*
X92607366Y-45807866D01*
X92421794Y-46033986D01*
X92392500Y-46088791D01*
X92363206Y-46033986D01*
X92177634Y-45807866D01*
X91951514Y-45622294D01*
X91693534Y-45484401D01*
X91413611Y-45399487D01*
X91195450Y-45378000D01*
X91049550Y-45378000D01*
X90831389Y-45399487D01*
X90551466Y-45484401D01*
X90293486Y-45622294D01*
X90067366Y-45807866D01*
X89881794Y-46033986D01*
X89847299Y-46098523D01*
X89777678Y-45981645D01*
X89582769Y-45765412D01*
X89349420Y-45591359D01*
X89086599Y-45466175D01*
X88939390Y-45421524D01*
X88709500Y-45542845D01*
X88455500Y-45542845D01*
X88225610Y-45421524D01*
X88078401Y-45466175D01*
X87815580Y-45591359D01*
X87582231Y-45765412D01*
X87387322Y-45981645D01*
X87317701Y-46098523D01*
X87283206Y-46033986D01*
X87097634Y-45807866D01*
X86871514Y-45622294D01*
X86613534Y-45484401D01*
X86333611Y-45399487D01*
X86115450Y-45378000D01*
X85969550Y-45378000D01*
X85751389Y-45399487D01*
X85471466Y-45484401D01*
X85213486Y-45622294D01*
X84987366Y-45807866D01*
X84801794Y-46033986D01*
X84772500Y-46088791D01*
X84743206Y-46033986D01*
X84557634Y-45807866D01*
X84331514Y-45622294D01*
X84073534Y-45484401D01*
X83793611Y-45399487D01*
X83575450Y-45378000D01*
X83429550Y-45378000D01*
X83211389Y-45399487D01*
X82931466Y-45484401D01*
X82673486Y-45622294D01*
X82447366Y-45807866D01*
X82261794Y-46033986D01*
X82232500Y-46088791D01*
X82203206Y-46033986D01*
X82017634Y-45807866D01*
X81791514Y-45622294D01*
X81533534Y-45484401D01*
X81253611Y-45399487D01*
X81035450Y-45378000D01*
X80889550Y-45378000D01*
X80671389Y-45399487D01*
X80391466Y-45484401D01*
X80133486Y-45622294D01*
X79907366Y-45807866D01*
X79882893Y-45837687D01*
X79862002Y-45768820D01*
X79803037Y-45658506D01*
X79723685Y-45561815D01*
X79626994Y-45482463D01*
X79516680Y-45423498D01*
X79396982Y-45387188D01*
X79272500Y-45374928D01*
X78708250Y-45378000D01*
X78549500Y-45536750D01*
X78295500Y-45536750D01*
X78136750Y-45378000D01*
X77572500Y-45374928D01*
X77448018Y-45387188D01*
X77328320Y-45423498D01*
X77218006Y-45482463D01*
X77121315Y-45561815D01*
X77041963Y-45658506D01*
X76982998Y-45768820D01*
X76946688Y-45888518D01*
X76934428Y-46013000D01*
X74639000Y-46013000D01*
X74639000Y-45076647D01*
X74642314Y-45043000D01*
X74629088Y-44908717D01*
X74589919Y-44779594D01*
X74526312Y-44660593D01*
X74510421Y-44641230D01*
X144719092Y-44767391D01*
M02*
