M48
METRIC
T1C0.400
T2C0.950
T3C1.000
T4C1.100
%
G90
G05
T1
X78.295Y-74.295
X78.295Y-77.978
X81.026Y-57.912
X81.026Y-76.136
X82.995Y-63.563
X85.788Y-60.77
X85.915Y-63.563
X88.075Y-88.201
X88.328Y-63.5
X90.614Y-76.01
X90.868Y-61.595
X90.932Y-86.296
X90.932Y-90.361
X93.281Y-63.5
X93.472Y-74.105
X93.472Y-78.486
X100.33Y-76.2
X103.378Y-63.436
X103.505Y-74.175
X103.505Y-78.105
X105.918Y-61.722
X105.925Y-87.115
X106.026Y-90.17
X108.585Y-63.373
X108.585Y-88.265
X115.57Y-76.2
X116.332Y-52.324
X116.332Y-87.503
X117.538Y-66.103
X118.599Y-74.295
X118.681Y-85.725
X118.745Y-89.344
X121.094Y-76.2
X121.349Y-82.486
X123.825Y-60.198
X123.888Y-71.056
X124.714Y-58.801
X126.492Y-66.103
X128.714Y-70.993
X131.381Y-72.962
X133.604Y-52.07
X133.794Y-85.598
X133.794Y-89.471
X134.112Y-71.056
X134.429Y-58.801
X134.429Y-65.913
X134.683Y-60.134
X136.398Y-87.503
X143.637Y-58.039
X143.637Y-61.722
X144.018Y-71.056
X146.431Y-69.278
X146.494Y-72.644
T2
X79.566Y-52.642
X82.066Y-52.642
X84.566Y-52.642
X87.066Y-52.642
X89.566Y-52.642
X92.066Y-52.642
X94.566Y-52.642
X97.066Y-52.642
X99.566Y-52.642
X102.066Y-52.642
T3
X78.422Y-46.863
X80.962Y-46.863
X83.502Y-46.863
X86.042Y-46.863
X88.582Y-46.863
X91.123Y-46.863
X93.662Y-46.863
X96.203Y-46.863
X98.742Y-46.863
X101.282Y-46.863
X103.822Y-46.863
X106.362Y-46.863
X108.902Y-46.863
X111.442Y-46.863
X113.983Y-46.863
X116.522Y-46.863
X137.986Y-49.53
X137.986Y-52.07
X137.986Y-54.61
X137.986Y-57.15
X137.986Y-59.69
X140.525Y-49.53
X140.525Y-52.07
X140.525Y-54.61
X140.525Y-57.15
X140.525Y-59.69
T4
X121.158Y-50.673
X121.158Y-53.213
X121.158Y-55.753
X123.758Y-50.673
X126.558Y-50.673
X126.558Y-53.213
X126.558Y-55.753
T0
M30
