G04 #@! TF.GenerationSoftware,KiCad,Pcbnew,(5.1.0)-1*
G04 #@! TF.CreationDate,2022-08-09T13:46:42+10:00*
G04 #@! TF.ProjectId,mainPCB_v0.9-br2,6d61696e-5043-4425-9f76-302e392d6272,rev?*
G04 #@! TF.SameCoordinates,Original*
G04 #@! TF.FileFunction,Legend,Top*
G04 #@! TF.FilePolarity,Positive*
%FSLAX46Y46*%
G04 Gerber Fmt 4.6, Leading zero omitted, Abs format (unit mm)*
G04 Created by KiCad (PCBNEW (5.1.0)-1) date 2022-08-09 13:46:42*
%MOMM*%
%LPD*%
G04 APERTURE LIST*
%ADD10C,0.150000*%
%ADD11C,0.100000*%
%ADD12C,0.120000*%
%ADD13C,4.500000*%
%ADD14C,1.700000*%
%ADD15O,1.700000X1.950000*%
%ADD16C,1.125000*%
%ADD17R,1.200000X1.200000*%
%ADD18R,1.500000X1.600000*%
%ADD19C,2.000000*%
%ADD20R,3.000000X1.500000*%
%ADD21C,3.200000*%
%ADD22R,1.700000X1.700000*%
%ADD23O,1.700000X1.700000*%
G04 APERTURE END LIST*
D10*
X148209000Y-90043000D02*
X148209000Y-94996000D01*
X70454000Y-95043000D02*
X63054000Y-95059500D01*
X70454000Y-40043000D02*
X63054000Y-40043000D01*
X73954000Y-45043000D02*
X63054000Y-45043000D01*
X73954000Y-90043000D02*
X63054000Y-90043000D01*
X73954000Y-90043000D02*
X76454000Y-90043000D01*
X76454000Y-45043000D02*
X73954000Y-45043000D01*
X73954000Y-45043000D02*
X73954000Y-90043000D01*
X161722000Y-67543000D02*
G75*
G03X161722000Y-67543000I-6000000J0D01*
G01*
X77854000Y-95043000D02*
G75*
G03X77854000Y-95043000I-7400000J0D01*
G01*
X77854000Y-40043000D02*
G75*
G03X77854000Y-40043000I-7400000J0D01*
G01*
X70454000Y-95043000D02*
X70454000Y-40043000D01*
X155722000Y-95043000D02*
X70454000Y-95043000D01*
X155722000Y-40043000D02*
X155722000Y-95043000D01*
X70454000Y-40043000D02*
X155722000Y-40043000D01*
D11*
X76454000Y-90043000D02*
X76454000Y-45043000D01*
X148209000Y-90043000D02*
X76454000Y-90043000D01*
X148209000Y-45043000D02*
X148209000Y-90043000D01*
X76454000Y-45043000D02*
X148209000Y-45043000D01*
D10*
X117729000Y-83693000D02*
X129667000Y-83693000D01*
X123698000Y-77724000D02*
X123698000Y-89662000D01*
X127190500Y-56134000D02*
X127127000Y-56134000D01*
X116967000Y-62484000D02*
X144907000Y-62484000D01*
X144907000Y-76962000D02*
X144907000Y-62484000D01*
X129667000Y-76962000D02*
X144907000Y-76962000D01*
X116967000Y-65024000D02*
X116967000Y-62484000D01*
X129667000Y-89662000D02*
X104394000Y-89662000D01*
X129667000Y-76962000D02*
X129667000Y-89662000D01*
X104394000Y-87122000D02*
X104394000Y-89662000D01*
X116967000Y-76962000D02*
X129667000Y-76962000D01*
X98298000Y-70993000D02*
X98298000Y-75118000D01*
X103505000Y-70993000D02*
X93345000Y-70993000D01*
X103505000Y-68453000D02*
X103505000Y-70993000D01*
X105021000Y-66868000D02*
X91821000Y-66868000D01*
X106045000Y-68453000D02*
X93345000Y-68453000D01*
X93345000Y-73533000D02*
X93345000Y-68453000D01*
X106045000Y-73533000D02*
X106045000Y-68453000D01*
X93345000Y-73533000D02*
X106045000Y-73533000D01*
D12*
X124947000Y-70323064D02*
X124947000Y-68868936D01*
X126767000Y-70323064D02*
X126767000Y-68868936D01*
X80518000Y-58801000D02*
X84582000Y-58801000D01*
X80518000Y-62801500D02*
X84645500Y-62801500D01*
X80518000Y-58801000D02*
X80518000Y-59944000D01*
X80518000Y-61722000D02*
X80518000Y-62801500D01*
X84582000Y-58801000D02*
X84582000Y-59182000D01*
X84582000Y-60579000D02*
X84582000Y-61099000D01*
X84645500Y-62547500D02*
X84645500Y-62801500D01*
D10*
X121277847Y-58817163D02*
G75*
G03X121268000Y-58813000I2380153J5644163D01*
G01*
D12*
X92254000Y-59305000D02*
X92254000Y-62361000D01*
X104596000Y-59305000D02*
X104596000Y-62361000D01*
X92254000Y-54610000D02*
X92254000Y-57296000D01*
X104596000Y-54610000D02*
X92254000Y-54610000D01*
X104596000Y-57296000D02*
X104596000Y-54610000D01*
X92254000Y-67056000D02*
X92254000Y-64370000D01*
X104596000Y-67056000D02*
X92254000Y-67056000D01*
X104596000Y-64370000D02*
X104596000Y-67056000D01*
X117169000Y-76943000D02*
X117169000Y-79629000D01*
X117169000Y-79629000D02*
X104827000Y-79629000D01*
X104827000Y-79629000D02*
X104827000Y-76943000D01*
X117169000Y-69869000D02*
X117169000Y-67183000D01*
X117169000Y-67183000D02*
X104827000Y-67183000D01*
X104827000Y-67183000D02*
X104827000Y-69869000D01*
X117169000Y-71878000D02*
X117169000Y-74934000D01*
X104827000Y-71878000D02*
X104827000Y-74934000D01*
X145109000Y-71990000D02*
X145109000Y-74676000D01*
X145109000Y-74676000D02*
X132767000Y-74676000D01*
X132767000Y-74676000D02*
X132767000Y-71990000D01*
X145109000Y-64916000D02*
X145109000Y-62230000D01*
X145109000Y-62230000D02*
X132767000Y-62230000D01*
X132767000Y-62230000D02*
X132767000Y-64916000D01*
X145109000Y-66925000D02*
X145109000Y-69981000D01*
X132767000Y-66925000D02*
X132767000Y-69981000D01*
X92023000Y-76943000D02*
X92023000Y-79629000D01*
X92023000Y-79629000D02*
X79681000Y-79629000D01*
X79681000Y-79629000D02*
X79681000Y-76943000D01*
X92023000Y-69869000D02*
X92023000Y-67183000D01*
X92023000Y-67183000D02*
X79681000Y-67183000D01*
X79681000Y-67183000D02*
X79681000Y-69869000D01*
X92023000Y-71878000D02*
X92023000Y-74934000D01*
X79681000Y-71878000D02*
X79681000Y-74934000D01*
X92254000Y-84451000D02*
X92254000Y-87507000D01*
X104596000Y-84451000D02*
X104596000Y-87507000D01*
X92254000Y-79756000D02*
X92254000Y-82442000D01*
X104596000Y-79756000D02*
X92254000Y-79756000D01*
X104596000Y-82442000D02*
X104596000Y-79756000D01*
X92254000Y-92202000D02*
X92254000Y-89516000D01*
X104596000Y-92202000D02*
X92254000Y-92202000D01*
X104596000Y-89516000D02*
X104596000Y-92202000D01*
X120067000Y-83435000D02*
X120067000Y-86491000D01*
X132409000Y-83435000D02*
X132409000Y-86491000D01*
X120067000Y-78740000D02*
X120067000Y-81426000D01*
X132409000Y-78740000D02*
X120067000Y-78740000D01*
X132409000Y-81426000D02*
X132409000Y-78740000D01*
X120067000Y-91186000D02*
X120067000Y-88500000D01*
X132409000Y-91186000D02*
X120067000Y-91186000D01*
X132409000Y-88500000D02*
X132409000Y-91186000D01*
D10*
X154960095Y-63795380D02*
X154960095Y-62795380D01*
X154960095Y-63271571D02*
X155531523Y-63271571D01*
X155531523Y-63795380D02*
X155531523Y-62795380D01*
X156483904Y-62795380D02*
X156007714Y-62795380D01*
X155960095Y-63271571D01*
X156007714Y-63223952D01*
X156102952Y-63176333D01*
X156341047Y-63176333D01*
X156436285Y-63223952D01*
X156483904Y-63271571D01*
X156531523Y-63366809D01*
X156531523Y-63604904D01*
X156483904Y-63700142D01*
X156436285Y-63747761D01*
X156341047Y-63795380D01*
X156102952Y-63795380D01*
X156007714Y-63747761D01*
X155960095Y-63700142D01*
X124489380Y-70238857D02*
X124013190Y-70572190D01*
X124489380Y-70810285D02*
X123489380Y-70810285D01*
X123489380Y-70429333D01*
X123537000Y-70334095D01*
X123584619Y-70286476D01*
X123679857Y-70238857D01*
X123822714Y-70238857D01*
X123917952Y-70286476D01*
X123965571Y-70334095D01*
X124013190Y-70429333D01*
X124013190Y-70810285D01*
X123489380Y-69334095D02*
X123489380Y-69810285D01*
X123965571Y-69857904D01*
X123917952Y-69810285D01*
X123870333Y-69715047D01*
X123870333Y-69476952D01*
X123917952Y-69381714D01*
X123965571Y-69334095D01*
X124060809Y-69286476D01*
X124298904Y-69286476D01*
X124394142Y-69334095D01*
X124441761Y-69381714D01*
X124489380Y-69476952D01*
X124489380Y-69715047D01*
X124441761Y-69810285D01*
X124394142Y-69857904D01*
X123489380Y-68953142D02*
X123489380Y-68334095D01*
X123870333Y-68667428D01*
X123870333Y-68524571D01*
X123917952Y-68429333D01*
X123965571Y-68381714D01*
X124060809Y-68334095D01*
X124298904Y-68334095D01*
X124394142Y-68381714D01*
X124441761Y-68429333D01*
X124489380Y-68524571D01*
X124489380Y-68810285D01*
X124441761Y-68905523D01*
X124394142Y-68953142D01*
X82208761Y-58491380D02*
X81875428Y-58015190D01*
X81637333Y-58491380D02*
X81637333Y-57491380D01*
X82018285Y-57491380D01*
X82113523Y-57539000D01*
X82161142Y-57586619D01*
X82208761Y-57681857D01*
X82208761Y-57824714D01*
X82161142Y-57919952D01*
X82113523Y-57967571D01*
X82018285Y-58015190D01*
X81637333Y-58015190D01*
X82494476Y-57491380D02*
X82827809Y-58491380D01*
X83161142Y-57491380D01*
X84018285Y-58491380D02*
X83446857Y-58491380D01*
X83732571Y-58491380D02*
X83732571Y-57491380D01*
X83637333Y-57634238D01*
X83542095Y-57729476D01*
X83446857Y-57777095D01*
X122324666Y-46577761D02*
X122467523Y-46625380D01*
X122705619Y-46625380D01*
X122800857Y-46577761D01*
X122848476Y-46530142D01*
X122896095Y-46434904D01*
X122896095Y-46339666D01*
X122848476Y-46244428D01*
X122800857Y-46196809D01*
X122705619Y-46149190D01*
X122515142Y-46101571D01*
X122419904Y-46053952D01*
X122372285Y-46006333D01*
X122324666Y-45911095D01*
X122324666Y-45815857D01*
X122372285Y-45720619D01*
X122419904Y-45673000D01*
X122515142Y-45625380D01*
X122753238Y-45625380D01*
X122896095Y-45673000D01*
X123229428Y-45625380D02*
X123467523Y-46625380D01*
X123658000Y-45911095D01*
X123848476Y-46625380D01*
X124086571Y-45625380D01*
X124991333Y-46625380D02*
X124419904Y-46625380D01*
X124705619Y-46625380D02*
X124705619Y-45625380D01*
X124610380Y-45768238D01*
X124515142Y-45863476D01*
X124419904Y-45911095D01*
X97091666Y-53998761D02*
X97234523Y-54046380D01*
X97472619Y-54046380D01*
X97567857Y-53998761D01*
X97615476Y-53951142D01*
X97663095Y-53855904D01*
X97663095Y-53760666D01*
X97615476Y-53665428D01*
X97567857Y-53617809D01*
X97472619Y-53570190D01*
X97282142Y-53522571D01*
X97186904Y-53474952D01*
X97139285Y-53427333D01*
X97091666Y-53332095D01*
X97091666Y-53236857D01*
X97139285Y-53141619D01*
X97186904Y-53094000D01*
X97282142Y-53046380D01*
X97520238Y-53046380D01*
X97663095Y-53094000D01*
X97996428Y-53046380D02*
X98234523Y-54046380D01*
X98425000Y-53332095D01*
X98615476Y-54046380D01*
X98853571Y-53046380D01*
X99186904Y-53141619D02*
X99234523Y-53094000D01*
X99329761Y-53046380D01*
X99567857Y-53046380D01*
X99663095Y-53094000D01*
X99710714Y-53141619D01*
X99758333Y-53236857D01*
X99758333Y-53332095D01*
X99710714Y-53474952D01*
X99139285Y-54046380D01*
X99758333Y-54046380D01*
X109664666Y-66571761D02*
X109807523Y-66619380D01*
X110045619Y-66619380D01*
X110140857Y-66571761D01*
X110188476Y-66524142D01*
X110236095Y-66428904D01*
X110236095Y-66333666D01*
X110188476Y-66238428D01*
X110140857Y-66190809D01*
X110045619Y-66143190D01*
X109855142Y-66095571D01*
X109759904Y-66047952D01*
X109712285Y-66000333D01*
X109664666Y-65905095D01*
X109664666Y-65809857D01*
X109712285Y-65714619D01*
X109759904Y-65667000D01*
X109855142Y-65619380D01*
X110093238Y-65619380D01*
X110236095Y-65667000D01*
X110569428Y-65619380D02*
X110807523Y-66619380D01*
X110998000Y-65905095D01*
X111188476Y-66619380D01*
X111426571Y-65619380D01*
X111712285Y-65619380D02*
X112331333Y-65619380D01*
X111998000Y-66000333D01*
X112140857Y-66000333D01*
X112236095Y-66047952D01*
X112283714Y-66095571D01*
X112331333Y-66190809D01*
X112331333Y-66428904D01*
X112283714Y-66524142D01*
X112236095Y-66571761D01*
X112140857Y-66619380D01*
X111855142Y-66619380D01*
X111759904Y-66571761D01*
X111712285Y-66524142D01*
X137604666Y-61618761D02*
X137747523Y-61666380D01*
X137985619Y-61666380D01*
X138080857Y-61618761D01*
X138128476Y-61571142D01*
X138176095Y-61475904D01*
X138176095Y-61380666D01*
X138128476Y-61285428D01*
X138080857Y-61237809D01*
X137985619Y-61190190D01*
X137795142Y-61142571D01*
X137699904Y-61094952D01*
X137652285Y-61047333D01*
X137604666Y-60952095D01*
X137604666Y-60856857D01*
X137652285Y-60761619D01*
X137699904Y-60714000D01*
X137795142Y-60666380D01*
X138033238Y-60666380D01*
X138176095Y-60714000D01*
X138509428Y-60666380D02*
X138747523Y-61666380D01*
X138938000Y-60952095D01*
X139128476Y-61666380D01*
X139366571Y-60666380D01*
X140176095Y-60999714D02*
X140176095Y-61666380D01*
X139938000Y-60618761D02*
X139699904Y-61333047D01*
X140318952Y-61333047D01*
X84518666Y-66571761D02*
X84661523Y-66619380D01*
X84899619Y-66619380D01*
X84994857Y-66571761D01*
X85042476Y-66524142D01*
X85090095Y-66428904D01*
X85090095Y-66333666D01*
X85042476Y-66238428D01*
X84994857Y-66190809D01*
X84899619Y-66143190D01*
X84709142Y-66095571D01*
X84613904Y-66047952D01*
X84566285Y-66000333D01*
X84518666Y-65905095D01*
X84518666Y-65809857D01*
X84566285Y-65714619D01*
X84613904Y-65667000D01*
X84709142Y-65619380D01*
X84947238Y-65619380D01*
X85090095Y-65667000D01*
X85423428Y-65619380D02*
X85661523Y-66619380D01*
X85852000Y-65905095D01*
X86042476Y-66619380D01*
X86280571Y-65619380D01*
X87137714Y-65619380D02*
X86661523Y-65619380D01*
X86613904Y-66095571D01*
X86661523Y-66047952D01*
X86756761Y-66000333D01*
X86994857Y-66000333D01*
X87090095Y-66047952D01*
X87137714Y-66095571D01*
X87185333Y-66190809D01*
X87185333Y-66428904D01*
X87137714Y-66524142D01*
X87090095Y-66571761D01*
X86994857Y-66619380D01*
X86756761Y-66619380D01*
X86661523Y-66571761D01*
X86613904Y-66524142D01*
X97091666Y-79144761D02*
X97234523Y-79192380D01*
X97472619Y-79192380D01*
X97567857Y-79144761D01*
X97615476Y-79097142D01*
X97663095Y-79001904D01*
X97663095Y-78906666D01*
X97615476Y-78811428D01*
X97567857Y-78763809D01*
X97472619Y-78716190D01*
X97282142Y-78668571D01*
X97186904Y-78620952D01*
X97139285Y-78573333D01*
X97091666Y-78478095D01*
X97091666Y-78382857D01*
X97139285Y-78287619D01*
X97186904Y-78240000D01*
X97282142Y-78192380D01*
X97520238Y-78192380D01*
X97663095Y-78240000D01*
X97996428Y-78192380D02*
X98234523Y-79192380D01*
X98425000Y-78478095D01*
X98615476Y-79192380D01*
X98853571Y-78192380D01*
X99663095Y-78192380D02*
X99472619Y-78192380D01*
X99377380Y-78240000D01*
X99329761Y-78287619D01*
X99234523Y-78430476D01*
X99186904Y-78620952D01*
X99186904Y-79001904D01*
X99234523Y-79097142D01*
X99282142Y-79144761D01*
X99377380Y-79192380D01*
X99567857Y-79192380D01*
X99663095Y-79144761D01*
X99710714Y-79097142D01*
X99758333Y-79001904D01*
X99758333Y-78763809D01*
X99710714Y-78668571D01*
X99663095Y-78620952D01*
X99567857Y-78573333D01*
X99377380Y-78573333D01*
X99282142Y-78620952D01*
X99234523Y-78668571D01*
X99186904Y-78763809D01*
X124904666Y-78128761D02*
X125047523Y-78176380D01*
X125285619Y-78176380D01*
X125380857Y-78128761D01*
X125428476Y-78081142D01*
X125476095Y-77985904D01*
X125476095Y-77890666D01*
X125428476Y-77795428D01*
X125380857Y-77747809D01*
X125285619Y-77700190D01*
X125095142Y-77652571D01*
X124999904Y-77604952D01*
X124952285Y-77557333D01*
X124904666Y-77462095D01*
X124904666Y-77366857D01*
X124952285Y-77271619D01*
X124999904Y-77224000D01*
X125095142Y-77176380D01*
X125333238Y-77176380D01*
X125476095Y-77224000D01*
X125809428Y-77176380D02*
X126047523Y-78176380D01*
X126238000Y-77462095D01*
X126428476Y-78176380D01*
X126666571Y-77176380D01*
X126952285Y-77176380D02*
X127618952Y-77176380D01*
X127190380Y-78176380D01*
X69692095Y-91295380D02*
X69692095Y-90295380D01*
X69692095Y-90771571D02*
X70263523Y-90771571D01*
X70263523Y-91295380D02*
X70263523Y-90295380D01*
X70692095Y-90390619D02*
X70739714Y-90343000D01*
X70834952Y-90295380D01*
X71073047Y-90295380D01*
X71168285Y-90343000D01*
X71215904Y-90390619D01*
X71263523Y-90485857D01*
X71263523Y-90581095D01*
X71215904Y-90723952D01*
X70644476Y-91295380D01*
X71263523Y-91295380D01*
X69692095Y-36295380D02*
X69692095Y-35295380D01*
X69692095Y-35771571D02*
X70263523Y-35771571D01*
X70263523Y-36295380D02*
X70263523Y-35295380D01*
X70644476Y-35295380D02*
X71263523Y-35295380D01*
X70930190Y-35676333D01*
X71073047Y-35676333D01*
X71168285Y-35723952D01*
X71215904Y-35771571D01*
X71263523Y-35866809D01*
X71263523Y-36104904D01*
X71215904Y-36200142D01*
X71168285Y-36247761D01*
X71073047Y-36295380D01*
X70787333Y-36295380D01*
X70692095Y-36247761D01*
X70644476Y-36200142D01*
X86238095Y-36252380D02*
X86238095Y-35252380D01*
X86238095Y-35728571D02*
X86809523Y-35728571D01*
X86809523Y-36252380D02*
X86809523Y-35252380D01*
X87809523Y-36252380D02*
X87238095Y-36252380D01*
X87523809Y-36252380D02*
X87523809Y-35252380D01*
X87428571Y-35395238D01*
X87333333Y-35490476D01*
X87238095Y-35538095D01*
X86238095Y-91252380D02*
X86238095Y-90252380D01*
X86238095Y-90728571D02*
X86809523Y-90728571D01*
X86809523Y-91252380D02*
X86809523Y-90252380D01*
X87714285Y-90585714D02*
X87714285Y-91252380D01*
X87476190Y-90204761D02*
X87238095Y-90919047D01*
X87857142Y-90919047D01*
X128238095Y-36252380D02*
X128238095Y-35252380D01*
X128238095Y-35728571D02*
X128809523Y-35728571D01*
X128809523Y-36252380D02*
X128809523Y-35252380D01*
X129714285Y-35252380D02*
X129523809Y-35252380D01*
X129428571Y-35300000D01*
X129380952Y-35347619D01*
X129285714Y-35490476D01*
X129238095Y-35680952D01*
X129238095Y-36061904D01*
X129285714Y-36157142D01*
X129333333Y-36204761D01*
X129428571Y-36252380D01*
X129619047Y-36252380D01*
X129714285Y-36204761D01*
X129761904Y-36157142D01*
X129809523Y-36061904D01*
X129809523Y-35823809D01*
X129761904Y-35728571D01*
X129714285Y-35680952D01*
X129619047Y-35633333D01*
X129428571Y-35633333D01*
X129333333Y-35680952D01*
X129285714Y-35728571D01*
X129238095Y-35823809D01*
X128238095Y-91252380D02*
X128238095Y-90252380D01*
X128238095Y-90728571D02*
X128809523Y-90728571D01*
X128809523Y-91252380D02*
X128809523Y-90252380D01*
X129190476Y-90252380D02*
X129857142Y-90252380D01*
X129428571Y-91252380D01*
%LPC*%
D13*
X155722000Y-67543000D03*
D14*
X140525500Y-49530000D03*
X140525500Y-52070000D03*
X140525500Y-54610000D03*
X140525500Y-57150000D03*
X140525500Y-59690000D03*
X137985500Y-49530000D03*
X137985500Y-52070000D03*
X137985500Y-54610000D03*
X137985500Y-57150000D03*
D11*
G36*
X138610004Y-58841204D02*
G01*
X138634273Y-58844804D01*
X138658071Y-58850765D01*
X138681171Y-58859030D01*
X138703349Y-58869520D01*
X138724393Y-58882133D01*
X138744098Y-58896747D01*
X138762277Y-58913223D01*
X138778753Y-58931402D01*
X138793367Y-58951107D01*
X138805980Y-58972151D01*
X138816470Y-58994329D01*
X138824735Y-59017429D01*
X138830696Y-59041227D01*
X138834296Y-59065496D01*
X138835500Y-59090000D01*
X138835500Y-60290000D01*
X138834296Y-60314504D01*
X138830696Y-60338773D01*
X138824735Y-60362571D01*
X138816470Y-60385671D01*
X138805980Y-60407849D01*
X138793367Y-60428893D01*
X138778753Y-60448598D01*
X138762277Y-60466777D01*
X138744098Y-60483253D01*
X138724393Y-60497867D01*
X138703349Y-60510480D01*
X138681171Y-60520970D01*
X138658071Y-60529235D01*
X138634273Y-60535196D01*
X138610004Y-60538796D01*
X138585500Y-60540000D01*
X137385500Y-60540000D01*
X137360996Y-60538796D01*
X137336727Y-60535196D01*
X137312929Y-60529235D01*
X137289829Y-60520970D01*
X137267651Y-60510480D01*
X137246607Y-60497867D01*
X137226902Y-60483253D01*
X137208723Y-60466777D01*
X137192247Y-60448598D01*
X137177633Y-60428893D01*
X137165020Y-60407849D01*
X137154530Y-60385671D01*
X137146265Y-60362571D01*
X137140304Y-60338773D01*
X137136704Y-60314504D01*
X137135500Y-60290000D01*
X137135500Y-59090000D01*
X137136704Y-59065496D01*
X137140304Y-59041227D01*
X137146265Y-59017429D01*
X137154530Y-58994329D01*
X137165020Y-58972151D01*
X137177633Y-58951107D01*
X137192247Y-58931402D01*
X137208723Y-58913223D01*
X137226902Y-58896747D01*
X137246607Y-58882133D01*
X137267651Y-58869520D01*
X137289829Y-58859030D01*
X137312929Y-58850765D01*
X137336727Y-58844804D01*
X137360996Y-58841204D01*
X137385500Y-58840000D01*
X138585500Y-58840000D01*
X138610004Y-58841204D01*
X138610004Y-58841204D01*
G37*
D14*
X137985500Y-59690000D03*
D11*
G36*
X80190004Y-51667704D02*
G01*
X80214273Y-51671304D01*
X80238071Y-51677265D01*
X80261171Y-51685530D01*
X80283349Y-51696020D01*
X80304393Y-51708633D01*
X80324098Y-51723247D01*
X80342277Y-51739723D01*
X80358753Y-51757902D01*
X80373367Y-51777607D01*
X80385980Y-51798651D01*
X80396470Y-51820829D01*
X80404735Y-51843929D01*
X80410696Y-51867727D01*
X80414296Y-51891996D01*
X80415500Y-51916500D01*
X80415500Y-53366500D01*
X80414296Y-53391004D01*
X80410696Y-53415273D01*
X80404735Y-53439071D01*
X80396470Y-53462171D01*
X80385980Y-53484349D01*
X80373367Y-53505393D01*
X80358753Y-53525098D01*
X80342277Y-53543277D01*
X80324098Y-53559753D01*
X80304393Y-53574367D01*
X80283349Y-53586980D01*
X80261171Y-53597470D01*
X80238071Y-53605735D01*
X80214273Y-53611696D01*
X80190004Y-53615296D01*
X80165500Y-53616500D01*
X78965500Y-53616500D01*
X78940996Y-53615296D01*
X78916727Y-53611696D01*
X78892929Y-53605735D01*
X78869829Y-53597470D01*
X78847651Y-53586980D01*
X78826607Y-53574367D01*
X78806902Y-53559753D01*
X78788723Y-53543277D01*
X78772247Y-53525098D01*
X78757633Y-53505393D01*
X78745020Y-53484349D01*
X78734530Y-53462171D01*
X78726265Y-53439071D01*
X78720304Y-53415273D01*
X78716704Y-53391004D01*
X78715500Y-53366500D01*
X78715500Y-51916500D01*
X78716704Y-51891996D01*
X78720304Y-51867727D01*
X78726265Y-51843929D01*
X78734530Y-51820829D01*
X78745020Y-51798651D01*
X78757633Y-51777607D01*
X78772247Y-51757902D01*
X78788723Y-51739723D01*
X78806902Y-51723247D01*
X78826607Y-51708633D01*
X78847651Y-51696020D01*
X78869829Y-51685530D01*
X78892929Y-51677265D01*
X78916727Y-51671304D01*
X78940996Y-51667704D01*
X78965500Y-51666500D01*
X80165500Y-51666500D01*
X80190004Y-51667704D01*
X80190004Y-51667704D01*
G37*
D14*
X79565500Y-52641500D03*
D15*
X82065500Y-52641500D03*
X84565500Y-52641500D03*
X87065500Y-52641500D03*
X89565500Y-52641500D03*
X92065500Y-52641500D03*
X94565500Y-52641500D03*
X97065500Y-52641500D03*
X99565500Y-52641500D03*
X102065500Y-52641500D03*
D11*
G36*
X126506505Y-70497204D02*
G01*
X126530773Y-70500804D01*
X126554572Y-70506765D01*
X126577671Y-70515030D01*
X126599850Y-70525520D01*
X126620893Y-70538132D01*
X126640599Y-70552747D01*
X126658777Y-70569223D01*
X126675253Y-70587401D01*
X126689868Y-70607107D01*
X126702480Y-70628150D01*
X126712970Y-70650329D01*
X126721235Y-70673428D01*
X126727196Y-70697227D01*
X126730796Y-70721495D01*
X126732000Y-70745999D01*
X126732000Y-71371001D01*
X126730796Y-71395505D01*
X126727196Y-71419773D01*
X126721235Y-71443572D01*
X126712970Y-71466671D01*
X126702480Y-71488850D01*
X126689868Y-71509893D01*
X126675253Y-71529599D01*
X126658777Y-71547777D01*
X126640599Y-71564253D01*
X126620893Y-71578868D01*
X126599850Y-71591480D01*
X126577671Y-71601970D01*
X126554572Y-71610235D01*
X126530773Y-71616196D01*
X126506505Y-71619796D01*
X126482001Y-71621000D01*
X125231999Y-71621000D01*
X125207495Y-71619796D01*
X125183227Y-71616196D01*
X125159428Y-71610235D01*
X125136329Y-71601970D01*
X125114150Y-71591480D01*
X125093107Y-71578868D01*
X125073401Y-71564253D01*
X125055223Y-71547777D01*
X125038747Y-71529599D01*
X125024132Y-71509893D01*
X125011520Y-71488850D01*
X125001030Y-71466671D01*
X124992765Y-71443572D01*
X124986804Y-71419773D01*
X124983204Y-71395505D01*
X124982000Y-71371001D01*
X124982000Y-70745999D01*
X124983204Y-70721495D01*
X124986804Y-70697227D01*
X124992765Y-70673428D01*
X125001030Y-70650329D01*
X125011520Y-70628150D01*
X125024132Y-70607107D01*
X125038747Y-70587401D01*
X125055223Y-70569223D01*
X125073401Y-70552747D01*
X125093107Y-70538132D01*
X125114150Y-70525520D01*
X125136329Y-70515030D01*
X125159428Y-70506765D01*
X125183227Y-70500804D01*
X125207495Y-70497204D01*
X125231999Y-70496000D01*
X126482001Y-70496000D01*
X126506505Y-70497204D01*
X126506505Y-70497204D01*
G37*
D16*
X125857000Y-71058500D03*
D11*
G36*
X126506505Y-67572204D02*
G01*
X126530773Y-67575804D01*
X126554572Y-67581765D01*
X126577671Y-67590030D01*
X126599850Y-67600520D01*
X126620893Y-67613132D01*
X126640599Y-67627747D01*
X126658777Y-67644223D01*
X126675253Y-67662401D01*
X126689868Y-67682107D01*
X126702480Y-67703150D01*
X126712970Y-67725329D01*
X126721235Y-67748428D01*
X126727196Y-67772227D01*
X126730796Y-67796495D01*
X126732000Y-67820999D01*
X126732000Y-68446001D01*
X126730796Y-68470505D01*
X126727196Y-68494773D01*
X126721235Y-68518572D01*
X126712970Y-68541671D01*
X126702480Y-68563850D01*
X126689868Y-68584893D01*
X126675253Y-68604599D01*
X126658777Y-68622777D01*
X126640599Y-68639253D01*
X126620893Y-68653868D01*
X126599850Y-68666480D01*
X126577671Y-68676970D01*
X126554572Y-68685235D01*
X126530773Y-68691196D01*
X126506505Y-68694796D01*
X126482001Y-68696000D01*
X125231999Y-68696000D01*
X125207495Y-68694796D01*
X125183227Y-68691196D01*
X125159428Y-68685235D01*
X125136329Y-68676970D01*
X125114150Y-68666480D01*
X125093107Y-68653868D01*
X125073401Y-68639253D01*
X125055223Y-68622777D01*
X125038747Y-68604599D01*
X125024132Y-68584893D01*
X125011520Y-68563850D01*
X125001030Y-68541671D01*
X124992765Y-68518572D01*
X124986804Y-68494773D01*
X124983204Y-68470505D01*
X124982000Y-68446001D01*
X124982000Y-67820999D01*
X124983204Y-67796495D01*
X124986804Y-67772227D01*
X124992765Y-67748428D01*
X125001030Y-67725329D01*
X125011520Y-67703150D01*
X125024132Y-67682107D01*
X125038747Y-67662401D01*
X125055223Y-67644223D01*
X125073401Y-67627747D01*
X125093107Y-67613132D01*
X125114150Y-67600520D01*
X125136329Y-67590030D01*
X125159428Y-67581765D01*
X125183227Y-67575804D01*
X125207495Y-67572204D01*
X125231999Y-67571000D01*
X126482001Y-67571000D01*
X126506505Y-67572204D01*
X126506505Y-67572204D01*
G37*
D16*
X125857000Y-68133500D03*
D17*
X84350000Y-59833000D03*
D18*
X81100000Y-60833000D03*
D17*
X84350000Y-61833000D03*
D19*
X121158000Y-50673000D03*
X126558000Y-50673000D03*
X126558000Y-55753000D03*
X121158000Y-55753000D03*
X121158000Y-53213000D03*
X126558000Y-53213000D03*
X123758000Y-50673000D03*
D20*
X90925000Y-63373000D03*
X105925000Y-63373000D03*
X105925000Y-58293000D03*
X90925000Y-58293000D03*
X103498000Y-70866000D03*
X118498000Y-70866000D03*
X118498000Y-75946000D03*
X103498000Y-75946000D03*
X131438000Y-65913000D03*
X146438000Y-65913000D03*
X146438000Y-70993000D03*
X131438000Y-70993000D03*
X78352000Y-70866000D03*
X93352000Y-70866000D03*
X93352000Y-75946000D03*
X78352000Y-75946000D03*
X90925000Y-88519000D03*
X105925000Y-88519000D03*
X105925000Y-83439000D03*
X90925000Y-83439000D03*
X118738000Y-87503000D03*
X133738000Y-87503000D03*
X133738000Y-82423000D03*
X118738000Y-82423000D03*
D21*
X70454000Y-95043000D03*
X70454000Y-40043000D03*
D22*
X78422500Y-46863000D03*
D23*
X80962500Y-46863000D03*
X83502500Y-46863000D03*
X86042500Y-46863000D03*
X88582500Y-46863000D03*
X91122500Y-46863000D03*
X93662500Y-46863000D03*
X96202500Y-46863000D03*
X98742500Y-46863000D03*
X101282500Y-46863000D03*
X103822500Y-46863000D03*
X106362500Y-46863000D03*
X108902500Y-46863000D03*
X111442500Y-46863000D03*
X113982500Y-46863000D03*
X116522500Y-46863000D03*
D21*
X87000000Y-40000000D03*
X87000000Y-95000000D03*
X129000000Y-40000000D03*
X129000000Y-95000000D03*
M02*
